<svg width="61" height="60" viewBox="0 0 61 60" fill="none" xmlns="http://www.w3.org/2000/svg">
<path d="M3.1665 45C3.1665 38.3518 8.54199 33 15.1665 33C21.8147 33 27.1665 38.3755 27.1665 45C27.1665 51.6239 21.7904 57 15.1665 57C8.54199 57 3.1665 51.6482 3.1665 45ZM15.1665 39.4H10.0665C8.83559 39.4 7.8665 40.4037 7.8665 41.6C7.8665 42.7963 8.83559 43.8 10.0665 43.8H15.1665C16.3974 43.8 17.3665 42.7963 17.3665 41.6C17.3665 40.4037 16.3974 39.4 15.1665 39.4ZM10.0665 50.6H20.2665C21.4879 50.6 22.4915 49.6059 22.4915 48.4C22.4915 47.2037 21.5224 46.2 20.2915 46.2H10.0665C8.86536 46.2 7.8665 47.1989 7.8665 48.4C7.8665 49.5963 8.83559 50.6 10.0665 50.6Z" fill="#5B44E9" stroke="#5B44E9"/>
<path d="M42.6665 7.5H17.6665C10.1665 7.5 5.1665 11.25 5.1665 20V27.85C5.1665 29.675 7.0415 30.825 8.7165 30.1C11.4665 28.9 14.5915 28.45 17.8665 28.975C24.4165 30.05 29.7665 35.225 31.0915 41.725C31.4665 43.625 31.5165 45.475 31.2665 47.25C31.0665 48.725 32.2665 50.025 33.7415 50.025H42.6665C50.1665 50.025 55.1665 46.275 55.1665 37.525V20C55.1665 11.25 50.1665 7.5 42.6665 7.5ZM43.8415 21.475L36.0165 27.725C34.3665 29.05 32.2665 29.7 30.1665 29.7C28.0665 29.7 25.9415 29.05 24.3165 27.725L16.4915 21.475C15.6915 20.825 15.5665 19.625 16.1915 18.825C16.8415 18.025 18.0165 17.875 18.8165 18.525L26.6415 24.775C28.5415 26.3 31.7665 26.3 33.6665 24.775L41.4915 18.525C42.2915 17.875 43.4915 18 44.1165 18.825C44.7665 19.625 44.6415 20.825 43.8415 21.475Z" fill="#5B44E9"/>
</svg>
