<svg width="61" height="60" viewBox="0 0 61 60" fill="none" xmlns="http://www.w3.org/2000/svg">
<path d="M30.675 24.125H30.6846L30.6942 24.1246C33.5583 24.0145 35.875 21.673 35.875 18.75C35.875 15.8005 33.4778 13.375 30.5 13.375C27.5213 13.375 25.1275 15.8004 25.1 18.7453H25.1V18.75C25.1 21.6712 27.3899 24.0145 30.281 24.1246L30.2905 24.125H30.3H30.3007H30.3015H30.3022H30.3029H30.3037H30.3044H30.3051H30.3059H30.3066H30.3074H30.3081H30.3088H30.3096H30.3103H30.311H30.3118H30.3125H30.3133H30.314H30.3148H30.3155H30.3162H30.317H30.3177H30.3185H30.3192H30.32H30.3207H30.3215H30.3222H30.323H30.3237H30.3245H30.3252H30.326H30.3267H30.3275H30.3282H30.329H30.3297H30.3305H30.3312H30.332H30.3327H30.3335H30.3342H30.335H30.3358H30.3365H30.3373H30.338H30.3388H30.3395H30.3403H30.3411H30.3418H30.3426H30.3433H30.3441H30.3449H30.3456H30.3464H30.3471H30.3479H30.3487H30.3494H30.3502H30.351H30.3517H30.3525H30.3532H30.354H30.3548H30.3555H30.3563H30.3571H30.3578H30.3586H30.3594H30.3601H30.3609H30.3617H30.3624H30.3632H30.364H30.3647H30.3655H30.3663H30.3671H30.3678H30.3686H30.3694H30.3701H30.3709H30.3717H30.3725H30.3732H30.374H30.3748H30.3755H30.3763H30.3771H30.3779H30.3786H30.3794H30.3802H30.381H30.3817H30.3825H30.3833H30.3841H30.3848H30.3856H30.3864H30.3872H30.3879H30.3887H30.3895H30.3903H30.391H30.3918H30.3926H30.3934H30.3942H30.3949H30.3957H30.3965H30.3973H30.398H30.3988H30.3996H30.4004H30.4012H30.4019H30.4027H30.4035H30.4043H30.4051H30.4058H30.4066H30.4074H30.4082H30.409H30.4097H30.4105H30.4113H30.4121H30.4129H30.4136H30.4144H30.4152H30.416H30.4168H30.4175H30.4183H30.4191H30.4199H30.4207H30.4214H30.4222H30.423H30.4238H30.4246H30.4253H30.4261H30.4269H30.4277H30.4285H30.4293H30.43H30.4308H30.4316H30.4324H30.4332H30.4339H30.4347H30.4355H30.4363H30.4371H30.4378H30.4386H30.4394H30.4402H30.441H30.4418H30.4425H30.4433H30.4441H30.4449H30.4457H30.4464H30.4472H30.448H30.4488H30.4496H30.4503H30.4511H30.4519H30.4527H30.4535H30.4542H30.455H30.4558H30.4566H30.4574H30.4581H30.4589H30.4597H30.4605H30.4613H30.462H30.4628H30.4636H30.4644H30.4651H30.4659H30.4667H30.4675H30.4683H30.469H30.4698H30.4706H30.4714H30.4721H30.4729H30.4737H30.4745H30.4752H30.476H30.4768H30.4776H30.4783H30.4791H30.4799H30.4807H30.4814H30.4822H30.483H30.4838H30.4845H30.4853H30.4861H30.4869H30.4876H30.4884H30.4892H30.4899H30.4907H30.4915H30.4923H30.493H30.4938H30.4946H30.4953H30.4961H30.4969H30.4976H30.4984H30.4992H30.4999H30.5007H30.5015H30.5023H30.503H30.5038H30.5046H30.5053H30.5061H30.5068H30.5076H30.5084H30.5091H30.5099H30.5107H30.5114H30.5122H30.513H30.5137H30.5145H30.5152H30.516H30.5168H30.5175H30.5183H30.519H30.5198H30.5206H30.5213H30.5221H30.5228H30.5236H30.5243H30.5251H30.5259H30.5266H30.5274H30.5281H30.5289H30.5296H30.5304H30.5311H30.5319H30.5326H30.5334H30.5341H30.5349H30.5357H30.5364H30.5371H30.5379H30.5386H30.5394H30.5401H30.5409H30.5416H30.5424H30.5431H30.5439H30.5446H30.5454H30.5461H30.5468H30.5476H30.5483H30.5491H30.5498H30.5506H30.5513H30.552H30.5528H30.5535H30.5543H30.555H30.5557H30.5565H30.5572H30.5579H30.5587H30.5594H30.5601H30.5609H30.5616H30.5623H30.5631H30.5638H30.5645H30.5653H30.566H30.5667H30.5674H30.5682H30.5689H30.5696H30.5703H30.5711H30.5718H30.5725H30.5732H30.574H30.5747H30.5754H30.5761H30.5768H30.5776H30.5783H30.579H30.5797H30.5804H30.5811H30.5819H30.5826H30.5833H30.584H30.5847H30.5854H30.5861H30.5868H30.5876H30.5883H30.589H30.5897H30.5904H30.5911H30.5918H30.5925H30.5932H30.5939H30.5946H30.5953H30.596H30.5967H30.5974H30.5981H30.5988H30.5995H30.6002H30.6009H30.6016H30.6023H30.603H30.6037H30.6044H30.6051H30.6057H30.6064H30.6071H30.6078H30.6085H30.6092H30.6099H30.6106H30.6112H30.6119H30.6126H30.6133H30.614H30.6147H30.6153H30.616H30.6167H30.6174H30.618H30.6187H30.6194H30.6201H30.6207H30.6214H30.6221H30.6227H30.6234H30.6241H30.6247H30.6254H30.6261H30.6267H30.6274H30.6281H30.6287H30.6294H30.6301H30.6307H30.6314H30.632H30.6327H30.6333H30.634H30.6346H30.6353H30.636H30.6366H30.6373H30.6379H30.6386H30.6392H30.6398H30.6405H30.6411H30.6418H30.6424H30.6431H30.6437H30.6443H30.645H30.6456H30.6463H30.6469H30.6475H30.6482H30.6488H30.6494H30.6501H30.6507H30.6513H30.6519H30.6526H30.6532H30.6538H30.6544H30.6551H30.6557H30.6563H30.6569H30.6575H30.6582H30.6588H30.6594H30.66H30.6606H30.6612H30.6618H30.6624H30.6631H30.6637H30.6643H30.6649H30.6655H30.6661H30.6667H30.6673H30.6679H30.6685H30.6691H30.6697H30.6703H30.6709H30.6715H30.6721H30.6726H30.6732H30.6738H30.6744H30.675ZM37.653 37.1406L37.6531 37.1405C39.4192 35.9587 40.3688 34.3551 40.3688 32.6875C40.3688 31.0201 39.4194 29.4166 37.6536 28.2348C35.6784 26.9051 33.0879 26.2563 30.5187 26.2563C27.949 26.2563 25.3472 26.9054 23.3483 28.2336L23.3469 28.2345C21.58 29.4169 20.6313 31.027 20.6313 32.6969C20.6313 34.3671 21.5804 35.9714 23.3484 37.1415C25.3353 38.47 27.931 39.1188 30.5 39.1188C33.0696 39.1188 35.6659 38.4697 37.653 37.1406ZM15.5 5.5H45.5C49.3782 5.5 52.5 8.6055 52.5 12.425V39.7C52.5 43.5217 49.376 46.65 45.5 46.65H43.6C41.4964 46.65 39.4435 47.4748 37.9472 48.9706C37.947 48.9709 37.9467 48.9712 37.9464 48.9714L33.6737 53.1942C31.9185 54.9269 29.0815 54.9269 27.3263 53.1942L23.0536 48.9714C23.0532 48.9711 23.0529 48.9708 23.0526 48.9705C21.5563 47.4748 19.5035 46.65 17.4 46.65H15.5C11.624 46.65 8.5 43.5217 8.5 39.7V12.425C8.5 8.6055 11.6218 5.5 15.5 5.5Z" fill="#5B44E9" stroke="#5B44E9"/>
</svg>
