<svg width="61" height="60" viewBox="0 0 61 60" fill="none" xmlns="http://www.w3.org/2000/svg">
<path d="M28.4578 20.7V26.6475L26.5979 26.003C25.9574 25.7769 25.5726 25.595 25.3177 25.2814C25.0702 24.9771 24.8828 24.4645 24.8828 23.425C24.8828 21.8831 26.0251 20.7 27.3328 20.7H28.4578Z" fill="#5B44E9" stroke="#5B44E9"/>
<path d="M36.783 36.5749C36.783 38.1168 35.6407 39.2999 34.333 39.2999H33.208V33.3523L35.0679 33.9969C35.7084 34.223 36.0933 34.4049 36.3482 34.7184C36.5956 35.0228 36.783 35.5354 36.783 36.5749Z" fill="#5B44E9" stroke="#5B44E9"/>
<path d="M41.308 5H20.358C11.258 5 5.83301 10.425 5.83301 19.525V40.475C5.83301 49.575 11.258 55 20.358 55H41.308C50.408 55 55.833 49.575 55.833 40.475V19.525C55.833 10.425 50.408 5 41.308 5ZM36.483 30C38.433 30.675 41.033 32.1 41.033 36.575C41.033 40.425 38.033 43.55 34.333 43.55H32.708V45C32.708 46.025 31.858 46.875 30.833 46.875C29.808 46.875 28.958 46.025 28.958 45V43.55H28.058C23.958 43.55 20.633 40.075 20.633 35.825C20.633 34.8 21.458 33.95 22.508 33.95C23.533 33.95 24.383 34.8 24.383 35.825C24.383 38.025 26.033 39.8 28.058 39.8H28.958V31.325L25.183 30C23.233 29.325 20.633 27.9 20.633 23.425C20.633 19.575 23.633 16.45 27.333 16.45H28.958V15C28.958 13.975 29.808 13.125 30.833 13.125C31.858 13.125 32.708 13.975 32.708 15V16.45H33.608C37.708 16.45 41.033 19.925 41.033 24.175C41.033 25.2 40.208 26.05 39.158 26.05C38.133 26.05 37.283 25.2 37.283 24.175C37.283 21.975 35.633 20.2 33.608 20.2H32.708V28.675L36.483 30Z" fill="#5B44E9"/>
</svg>
