<svg width="269" height="200" viewBox="0 0 269 200" fill="none" xmlns="http://www.w3.org/2000/svg">
<g clip-path="url(#clip0_1730_53075)">
<path d="M196.099 190.03H190.775L188.241 169.493H196.099V190.03Z" fill="#9E616A"/>
<path d="M198.909 199.255H195.091L194.409 195.65L192.664 199.255H182.537C182.051 199.255 181.579 199.1 181.188 198.813C180.797 198.525 180.508 198.12 180.363 197.656C180.219 197.193 180.226 196.695 180.385 196.236C180.543 195.778 180.844 195.381 181.243 195.105L189.33 189.52V185.876L197.837 186.383L198.909 199.255Z" fill="#2F2E41"/>
<path d="M227.731 183.311L223.459 186.488L209.171 171.52L215.477 166.831L227.731 183.311Z" fill="#9E616A"/>
<path d="M235.491 189.037L232.427 191.315L229.729 188.829L230.479 192.763L222.353 198.806C221.963 199.096 221.491 199.254 221.006 199.256C220.521 199.259 220.047 199.106 219.655 198.82C219.262 198.535 218.971 198.131 218.825 197.668C218.678 197.205 218.683 196.708 218.839 196.248L221.995 186.941L219.821 184.016L226.95 179.348L235.491 189.037Z" fill="#2F2E41"/>
<path d="M202.298 84.0713C202.298 84.0713 212.4 92.7991 207.739 117.68L202.049 142.059L220.607 172.846L214.689 180.045L190.564 146.721L181.821 126.214L179.368 89.7153L202.298 84.0713Z" fill="#2F2E41"/>
<path d="M186.64 132.058L186.032 141.468L187.892 181.569L196.642 180.045L198.314 151.494L186.64 132.058Z" fill="#2F2E41"/>
<path d="M74.3539 194.859L79.1155 194.858L81.3804 176.493L74.3533 176.493L74.3539 194.859Z" fill="#FFB6B6"/>
<path d="M73.1395 193.304L74.4797 193.304L79.7121 191.176L82.5165 193.304H82.5168C84.1017 193.304 85.6216 193.934 86.7422 195.054C87.8629 196.175 88.4925 197.695 88.4926 199.28V199.474L73.1397 199.474L73.1395 193.304Z" fill="#2F2E41"/>
<path d="M92.8057 191.858L97.45 192.907L103.705 175.491L96.8504 173.944L92.8057 191.858Z" fill="#FFB6B6"/>
<path d="M91.9633 190.074L93.2706 190.369L98.8432 189.446L101.11 192.139L101.11 192.14C102.656 192.489 104 193.438 104.846 194.778C105.693 196.118 105.972 197.739 105.623 199.285L105.58 199.474L90.6044 196.093L91.9633 190.074Z" fill="#2F2E41"/>
<path d="M68.3235 82.5812C66.0911 89.3141 66.3271 96.6224 68.8601 104.466L69.9429 148.629C69.9429 148.629 68.3296 177.59 73.5353 187.782H81.0851L84.8232 145.984L85.2926 117.93L101.479 141.598L91.1692 187.098L100.461 187.929L117.191 138.551L96.5499 90.6459L68.3235 82.5812Z" fill="#2F2E41"/>
<path d="M155.389 63.4033C161.164 58.1996 169.753 55.583 176.958 58.5009C169.568 62.6042 163.867 69.1895 160.864 77.0915C159.717 80.1432 158.759 83.6569 155.938 85.2907C154.182 86.3073 151.998 86.357 150.03 85.8663C148.062 85.3754 146.257 84.3916 144.478 83.4176L143.972 83.4062C146.245 75.9725 149.615 68.6071 155.389 63.4033Z" fill="#8E7FF0"/>
<path d="M176.918 58.659C170.537 59.4836 164.578 62.2979 159.887 66.7021C158.861 67.6323 157.987 68.7185 157.299 69.9208C156.666 71.1136 156.364 72.454 156.425 73.8029C156.456 75.0617 156.634 76.3457 156.358 77.5902C156.208 78.2251 155.925 78.8211 155.528 79.339C155.131 79.8569 154.629 80.2851 154.055 80.5954C152.645 81.4059 151.028 81.6614 149.438 81.8563C147.672 82.0727 145.835 82.2695 144.307 83.2598C144.122 83.3798 143.946 83.0855 144.131 82.9657C146.79 81.2427 150.155 81.8696 153.014 80.7198C154.348 80.1832 155.529 79.2413 155.946 77.8173C156.312 76.5721 156.13 75.2479 156.087 73.9736C156.009 72.6586 156.254 71.3444 156.8 70.1459C157.425 68.9125 158.255 67.7944 159.256 66.8396C161.473 64.654 164.02 62.8307 166.803 61.4363C169.971 59.8273 173.391 58.7721 176.915 58.3163C177.133 58.2882 177.135 58.631 176.918 58.659H176.918Z" fill="white"/>
<path d="M161.314 65.195C160.682 64.3077 160.386 63.2246 160.479 62.1392C160.571 61.0537 161.047 60.0366 161.821 59.2694C161.978 59.1147 162.225 59.3514 162.068 59.5063C161.346 60.2194 160.904 61.1669 160.819 62.1779C160.735 63.1889 161.015 64.1967 161.608 65.0194C161.737 65.1983 161.442 65.373 161.314 65.195V65.195Z" fill="white"/>
<path d="M156.325 73.1666C158.518 73.5551 160.777 73.1029 162.651 71.9C162.836 71.7807 163.012 72.075 162.826 72.1942C160.874 73.4423 158.522 73.9081 156.241 73.4988C156.024 73.4596 156.109 73.1277 156.325 73.1666V73.1666Z" fill="white"/>
<path d="M169.999 60.2807C170.172 60.6749 170.44 61.0201 170.78 61.2851C171.119 61.55 171.519 61.7266 171.943 61.7988C172.161 61.8352 172.076 62.1672 171.86 62.131C171.391 62.049 170.95 61.8535 170.574 61.5616C170.198 61.2696 169.9 60.8902 169.705 60.4563C169.683 60.417 169.677 60.3708 169.688 60.3271C169.699 60.2835 169.726 60.2457 169.764 60.2214C169.803 60.1984 169.85 60.1916 169.894 60.2027C169.938 60.2138 169.976 60.2418 169.999 60.2807V60.2807Z" fill="white"/>
<path d="M184.892 83.596C184.756 83.5771 184.619 83.5583 184.48 83.5415C182.642 83.2975 180.787 83.2033 178.934 83.2597C178.79 83.2618 178.645 83.2661 178.502 83.2723C174.038 83.4559 169.647 84.4666 165.552 86.2532C163.923 86.9656 162.351 87.8009 160.849 88.7518C158.774 90.0653 156.63 91.6544 154.311 92.1901C154.069 92.2487 153.825 92.2923 153.578 92.3206L143.997 84.0247C143.985 83.9949 143.97 83.9672 143.958 83.9373L143.56 83.6236C143.634 83.5691 143.712 83.5142 143.786 83.4598C143.829 83.428 143.874 83.3981 143.917 83.3663C143.946 83.3457 143.976 83.3252 144.001 83.305C144.01 83.2981 144.02 83.2913 144.028 83.2866C144.053 83.2663 144.079 83.2502 144.102 83.2321C144.537 82.9241 144.975 82.6186 145.416 82.3156C145.418 82.3135 145.418 82.3135 145.422 82.3131C148.758 79.9724 152.361 78.0358 156.154 76.5439C156.268 76.501 156.384 76.4557 156.502 76.4165C158.21 75.7813 159.967 75.2869 161.756 74.938C162.736 74.7501 163.725 74.612 164.719 74.5241C167.288 74.302 169.876 74.4854 172.388 75.0674C177.395 76.2285 181.975 78.9781 184.688 83.2663C184.758 83.376 184.825 83.484 184.892 83.596Z" fill="#8E7FF0"/>
<path d="M184.765 83.6989C179.174 80.5155 172.722 79.1747 166.325 79.8672C164.945 79.9918 163.593 80.3331 162.32 80.8786C161.097 81.45 160.049 82.3386 159.285 83.4521C158.552 84.4759 157.921 85.6081 156.952 86.436C156.449 86.8524 155.865 87.1579 155.236 87.3325C154.607 87.5071 153.949 87.5468 153.303 87.449C151.69 87.2472 150.245 86.4775 148.858 85.6758C147.318 84.7856 145.732 83.8366 143.916 83.7071C143.696 83.6914 143.733 83.3508 143.953 83.3665C147.113 83.5917 149.422 86.118 152.397 86.9213C153.785 87.2961 155.295 87.2548 156.486 86.3694C157.527 85.5951 158.179 84.4282 158.913 83.3851C159.642 82.2879 160.628 81.3861 161.786 80.7582C163.028 80.1496 164.364 79.7568 165.737 79.5965C168.824 79.1864 171.955 79.264 175.017 79.8266C178.515 80.4492 181.881 81.6657 184.969 83.4235C185.16 83.5323 184.955 83.8071 184.765 83.6989L184.765 83.6989Z" fill="white"/>
<path d="M168.371 79.5229C168.401 78.4339 168.817 77.3909 169.544 76.58C170.272 75.7692 171.264 75.2434 172.343 75.0965C172.562 75.0675 172.617 75.4057 172.398 75.4347C171.393 75.5697 170.469 76.0595 169.793 76.816C169.117 77.5724 168.733 78.5456 168.712 79.5598C168.707 79.7802 168.366 79.7421 168.371 79.5229Z" fill="white"/>
<path d="M159.588 82.8839C161.105 84.5144 163.181 85.5132 165.402 85.6812C165.622 85.6976 165.584 86.0382 165.365 86.0218C163.054 85.8427 160.896 84.7989 159.321 83.0987C159.171 82.9366 159.439 82.7227 159.588 82.8839Z" fill="white"/>
<path d="M178.264 80.828C178.165 81.247 178.172 81.6841 178.283 82.1C178.395 82.5159 178.608 82.8976 178.903 83.2109C179.055 83.371 178.787 83.5848 178.636 83.4257C178.311 83.078 178.077 82.6562 177.952 82.197C177.828 81.7377 177.818 81.2551 177.924 80.7912C177.93 80.7466 177.953 80.7061 177.988 80.6779C178.023 80.6497 178.068 80.6359 178.113 80.6393C178.158 80.6444 178.199 80.6671 178.227 80.7025C178.256 80.7378 178.269 80.7829 178.264 80.828V80.828Z" fill="white"/>
<path d="M16.6071 194.525C16.1573 196.213 14.9755 197.618 13.5487 198.641C13.3161 198.809 13.0772 198.964 12.8353 199.11C12.7608 199.153 12.6864 199.2 12.6088 199.24C12.5251 199.29 12.4413 199.336 12.3576 199.38H5.6484C5.52743 199.135 5.40956 198.886 5.29169 198.641C2.41632 192.599 0.397044 186.079 0.741344 179.438C0.877941 176.862 1.41911 174.324 2.34498 171.916C4.18745 167.118 7.54981 162.964 12.1746 160.874C12.2894 160.821 12.4103 160.768 12.5282 160.719C12.491 160.852 12.4538 160.982 12.4165 161.116C11.9204 162.903 11.5698 164.728 11.3681 166.572C11.3495 166.715 11.334 166.857 11.3216 167.003C10.8809 171.45 11.2722 175.941 12.4755 180.245C12.4786 180.254 12.4817 180.266 12.4848 180.276C12.7484 181.228 13.0545 182.166 13.4029 183.089C13.6759 183.818 13.9705 184.538 14.2931 185.245C15.6393 188.213 17.4445 191.377 16.6071 194.525Z" fill="#8E7FF0"/>
<path d="M12.612 160.858C12.5468 160.945 12.4817 161.029 12.4166 161.116C11.0542 162.921 9.89731 164.873 8.96735 166.935C8.91772 167.037 8.8712 167.139 8.83087 167.245C7.55664 170.124 6.73831 173.184 6.40526 176.315C6.40165 176.336 6.39959 176.358 6.39906 176.38C6.32151 177.112 6.27498 177.85 6.25637 178.588C6.1874 179.972 6.33709 181.358 6.69993 182.695C7.03077 183.787 7.61051 184.787 8.39352 185.617C8.47106 185.701 8.54861 185.784 8.63236 185.865C8.69439 185.93 8.76263 185.995 8.82777 186.057C9.45433 186.656 10.1398 187.211 10.7292 187.853C10.9993 188.141 11.2432 188.453 11.4581 188.784C11.801 189.339 12.0225 189.96 12.1081 190.607C12.1936 191.254 12.1412 191.912 11.9544 192.537C11.5325 194.107 10.5679 195.431 9.58151 196.693C9.08832 197.326 8.57962 197.965 8.13917 198.641C7.97789 198.883 7.82899 199.128 7.69253 199.38H7.3017C7.43197 199.128 7.57466 198.883 7.72975 198.641C8.86191 196.858 10.4717 195.326 11.3061 193.362C11.8707 192.038 12.0413 190.536 11.3278 189.237C11.1188 188.859 10.8658 188.507 10.5741 188.188C10.0065 187.546 9.32718 186.997 8.70992 186.417C8.55483 186.271 8.40284 186.122 8.25706 185.967C7.48415 185.182 6.88773 184.241 6.50764 183.207C6.0772 181.893 5.8737 180.516 5.90589 179.134C5.90589 178.253 5.95242 177.366 6.03927 176.485C6.04857 176.374 6.06098 176.259 6.07339 176.144C6.70772 170.601 8.81438 165.328 12.1746 160.874C12.2367 160.787 12.3018 160.703 12.3669 160.619C12.5003 160.446 12.7453 160.688 12.612 160.858Z" fill="white"/>
<path d="M6.19859 176.515C5.12422 176.334 4.14897 175.778 3.44702 174.945C2.74506 174.111 2.36212 173.056 2.36655 171.967C2.36715 171.922 2.38496 171.88 2.41624 171.848C2.44752 171.817 2.48983 171.798 2.53424 171.797C2.57866 171.796 2.62172 171.813 2.65435 171.843C2.68698 171.873 2.70663 171.915 2.70917 171.959C2.70316 172.974 3.05997 173.957 3.71522 174.731C4.37046 175.506 5.28096 176.02 6.2824 176.182C6.49998 176.218 6.41492 176.55 6.19859 176.515V176.515Z" fill="white"/>
<path d="M8.30742 185.679C10.1327 184.403 11.4101 182.487 11.8848 180.311C11.9316 180.095 12.2638 180.179 12.217 180.395C11.7188 182.658 10.3854 184.65 8.48306 185.974C8.30165 186.1 8.127 185.805 8.30743 185.679L8.30742 185.679Z" fill="white"/>
<path d="M8.86468 166.898C9.26583 167.055 9.69955 167.109 10.1269 167.057C10.5542 167.004 10.9618 166.846 11.3131 166.597C11.4928 166.469 11.6673 166.764 11.4887 166.891C11.0994 167.165 10.649 167.338 10.177 167.398C9.70496 167.457 9.22563 167.399 8.78086 167.231C8.73761 167.218 8.70069 167.19 8.67762 167.151C8.65456 167.113 8.64706 167.067 8.65667 167.023C8.66799 166.979 8.69619 166.941 8.73514 166.918C8.77409 166.895 8.82064 166.888 8.86468 166.898V166.898Z" fill="white"/>
<path d="M35.8817 172.853C35.7731 172.937 35.6615 173.02 35.5529 173.107C34.0803 174.234 32.7016 175.479 31.4306 176.829C31.3314 176.932 31.2321 177.037 31.1359 177.143L31.1328 177.146C28.1191 180.417 25.7362 184.218 24.1042 188.356L24.0949 188.384C24.0918 188.393 24.0886 188.399 24.0855 188.409C23.4387 190.065 22.9171 191.767 22.5253 193.502C22.1469 195.195 21.8367 197.01 21.2443 198.641C21.1543 198.893 21.0551 199.141 20.9496 199.38H7.159C7.20552 199.135 7.25515 198.886 7.30478 198.641C8.0063 195.047 9.10272 191.542 10.5741 188.188C10.6237 188.077 10.6733 187.965 10.7292 187.853C11.4887 186.196 12.3819 184.604 13.3998 183.092C13.3998 183.092 13.3999 183.091 13.4 183.091C13.4002 183.09 13.4004 183.09 13.4007 183.09C13.401 183.09 13.4014 183.089 13.4017 183.089C13.4021 183.089 13.4025 183.089 13.4029 183.089C13.9619 182.264 14.5623 181.468 15.202 180.704C16.8609 178.73 18.8204 177.03 21.0086 175.666C21.021 175.657 21.0365 175.651 21.0489 175.641C25.4038 172.94 30.5652 171.653 35.5002 172.766H35.5033C35.6305 172.794 35.7545 172.822 35.8817 172.853Z" fill="#8E7FF0"/>
<path d="M35.8662 173.017C35.7607 173.045 35.6553 173.076 35.5529 173.107C33.3791 173.728 31.2808 174.589 29.2966 175.672C29.1973 175.725 29.0981 175.781 28.9988 175.837C26.2567 177.367 23.7676 179.312 21.6196 181.603C21.6179 181.605 21.6168 181.607 21.6165 181.609C21.5917 181.634 21.5638 181.662 21.5421 181.687C21.0458 182.22 20.5681 182.776 20.1152 183.346C19.2294 184.41 18.5156 185.607 17.9998 186.892C17.6057 187.963 17.4665 189.111 17.5935 190.245C17.6028 190.36 17.6183 190.471 17.6338 190.586C17.6462 190.676 17.6586 190.766 17.6741 190.859C17.8788 192.103 18.2324 193.35 18.1332 194.618C18.0728 195.268 17.8754 195.898 17.5541 196.466C17.2328 197.035 16.7948 197.529 16.269 197.915C15.9115 198.192 15.5294 198.435 15.1275 198.641C14.5529 198.938 13.9542 199.185 13.3378 199.38H12.1188C12.2832 199.333 12.4445 199.286 12.6089 199.24C13.1922 199.075 13.7651 198.875 14.3242 198.641C14.6436 198.508 14.9543 198.354 15.2547 198.182C16.5016 197.466 17.5407 196.368 17.7579 194.901C17.9471 193.616 17.5811 192.332 17.3639 191.076C17.3267 190.859 17.2926 190.645 17.274 190.431C17.1259 189.343 17.2158 188.236 17.5376 187.186C17.9839 185.877 18.6512 184.654 19.5104 183.57C20.0419 182.864 20.6092 182.186 21.2102 181.538C21.2846 181.454 21.3622 181.37 21.4428 181.287C23.6359 178.98 26.1682 177.02 28.9523 175.477H28.9554C31.0254 174.325 33.2216 173.415 35.5002 172.766H35.5033C35.6056 172.735 35.7111 172.704 35.8135 172.676C36.0275 172.62 36.0771 172.958 35.8662 173.017Z" fill="white"/>
<path d="M21.3201 181.656C20.5709 180.865 20.1272 179.833 20.0684 178.745C20.0095 177.658 20.3392 176.584 20.9987 175.717C21.1327 175.542 21.4109 175.742 21.2767 175.917C20.6612 176.724 20.3541 177.724 20.411 178.737C20.4679 179.749 20.885 180.709 21.587 181.441C21.7393 181.6 21.4715 181.814 21.32 181.656H21.3201Z" fill="white"/>
<path d="M17.4861 190.243C19.7116 190.323 21.8856 189.562 23.5746 188.11C23.7419 187.966 23.9564 188.233 23.7894 188.377C22.029 189.884 19.7649 190.672 17.4492 190.583C17.2285 190.575 17.2665 190.234 17.4861 190.243V190.243Z" fill="white"/>
<path d="M29.2384 175.583C29.4645 175.95 29.7781 176.254 30.151 176.469C30.5239 176.685 30.9444 176.804 31.3748 176.817C31.5955 176.822 31.5572 177.163 31.3379 177.157C30.8625 177.141 30.3982 177.009 29.9857 176.772C29.5732 176.535 29.225 176.2 28.9715 175.798C28.9444 175.762 28.932 175.717 28.9369 175.672C28.9417 175.628 28.9634 175.586 28.9976 175.557C29.033 175.529 29.0783 175.516 29.1234 175.521C29.1684 175.525 29.2098 175.548 29.2384 175.583V175.583Z" fill="white"/>
<path d="M142.264 53.7014C141.946 54.1201 141.539 54.464 141.074 54.7087C140.608 54.9535 140.095 55.0931 139.569 55.1179C139.044 55.1427 138.519 55.0519 138.033 54.8521C137.546 54.6522 137.109 54.3481 136.753 53.9612L125.028 59.0606L126.17 52.5153L137.129 48.6763C137.819 48.1208 138.689 47.8376 139.573 47.8803C140.458 47.9231 141.296 48.2888 141.929 48.9082C142.562 49.5276 142.945 50.3577 143.007 51.2411C143.069 52.1245 142.805 52.9999 142.264 53.7014V53.7014Z" fill="#FFB8B8"/>
<path d="M134.44 55.745L107.207 67.8757L107.148 67.8548L76.1094 56.7941C73.7974 55.5858 72.0348 53.5394 71.1824 51.0739C70.33 48.6084 70.4523 45.9103 71.5244 43.5321V43.5321C72.1186 42.2181 72.9844 41.0449 74.0647 40.0896C75.1451 39.1343 76.4155 38.4187 77.7923 37.9898C79.1692 37.5609 80.6212 37.4285 82.053 37.6013C83.4847 37.774 84.8636 38.248 86.0989 38.9921L109.198 52.9065L131.596 50.0036L134.44 55.745Z" fill="#BFB6F6"/>
<path d="M268.297 199.631C268.297 199.679 268.288 199.727 268.269 199.772C268.251 199.817 268.223 199.858 268.189 199.892C268.155 199.926 268.114 199.954 268.069 199.972C268.024 199.991 267.976 200 267.928 200H1.08255C0.984655 200 0.890773 199.961 0.821551 199.892C0.752328 199.823 0.71344 199.729 0.71344 199.631C0.71344 199.533 0.752328 199.439 0.821551 199.37C0.890773 199.301 0.984655 199.262 1.08255 199.262H267.928C267.976 199.262 268.024 199.271 268.069 199.29C268.114 199.308 268.155 199.335 268.189 199.37C268.223 199.404 268.251 199.445 268.269 199.489C268.288 199.534 268.297 199.582 268.297 199.631Z" fill="#CDCFD0"/>
<path d="M97.8962 92.0605L70.4434 87.6694C69.7234 87.4387 69.0618 87.0551 68.5041 86.5447C67.9464 86.0342 67.5057 85.4092 67.2123 84.7124C66.919 84.0156 66.7799 83.2636 66.8046 82.5079C66.8292 81.7523 67.0172 81.011 67.3554 80.3348L68.6004 77.8446L68.1168 51.6819C68.0585 48.2788 68.8975 44.9203 70.5493 41.9443C72.2011 38.9684 74.6076 36.48 77.5265 34.7294L80.2037 33.1286L81.5566 29.6929L94.0321 29.9972L94.0685 34.5033L98.5363 41.6276L98.5361 41.6571L98.2558 80.4339L97.0244 84.4357L98.8863 89.0902L97.8962 92.0605Z" fill="#BFB6F6"/>
<path d="M88.9368 25.4206C95.1971 25.4206 100.272 20.3456 100.272 14.0853C100.272 7.82498 95.1971 2.75 88.9368 2.75C82.6765 2.75 77.6015 7.82498 77.6015 14.0853C77.6015 20.3456 82.6765 25.4206 88.9368 25.4206Z" fill="#FFB8B8"/>
<path d="M77.1333 16.5564C76.7952 15.1321 76.9504 13.1278 77.1415 11.6937C77.6423 7.93388 79.7303 4.35954 82.9026 2.24233C83.504 1.78548 84.2188 1.50145 84.9698 1.42083C85.7202 1.3895 86.5337 1.79124 86.764 2.50615C86.9531 2.0343 87.2368 1.60621 87.5978 1.2483C87.9587 0.89038 88.3892 0.610232 88.8626 0.425147C89.8136 0.0607952 90.8364 -0.0769939 91.8499 0.0227016C93.8143 0.184628 95.6983 0.875375 97.3018 2.02164C98.9054 3.1679 100.169 4.72691 100.958 6.53322C101.26 7.25247 102.106 4.59577 102.49 5.27536C102.842 5.98175 103.457 6.5221 104.203 6.78079C104.955 6.99053 105.26 10.0874 105.556 9.36528C105.785 9.89896 105.876 10.482 105.82 11.0602C105.763 11.6384 105.561 12.1929 105.233 12.672C104.904 13.1511 104.46 13.5393 103.941 13.8005C103.422 14.0616 102.845 14.1871 102.265 14.1654C101.5 14.1368 100.768 13.8554 100.012 13.7343C97.3089 13.3011 94.4413 15.2613 93.8634 17.9374C93.6565 17.1635 93.326 16.4281 92.8846 15.7596C92.6605 15.4271 92.3603 15.1529 92.0089 14.9599C91.6575 14.7668 91.2651 14.6604 90.8643 14.6496C90.0952 14.6784 89.4192 15.1812 88.9201 15.7671C88.4211 16.3531 88.0463 17.0367 87.5436 17.6195C86.0686 19.3295 84.0735 23.3174 81.9714 23.0266C80.3125 22.797 77.5949 18.5011 77.1333 16.5564Z" fill="#2F2E41"/>
<path d="M157.457 66.5462C157.536 66.0295 157.43 65.5013 157.157 65.0554C156.884 64.6094 156.462 64.2746 155.966 64.1102L125.44 53.9434C125.148 53.8455 124.838 53.8099 124.53 53.8389L116.879 54.5624L112.489 54.9789L104.388 55.7445C103.898 55.7913 103.439 55.9991 103.08 56.3353C102.722 56.6716 102.485 57.1172 102.408 57.6024L98.2941 83.297C98.2163 83.7982 98.3117 84.3109 98.5646 84.7506C98.8175 85.1902 99.2127 85.5305 99.6851 85.7152L130.53 97.6213C130.674 97.6775 130.825 97.7179 130.978 97.7417C131.202 97.7779 131.429 97.7796 131.653 97.7468L151.584 94.7928C152.054 94.7248 152.49 94.507 152.826 94.1718C153.163 93.8366 153.382 93.4018 153.452 92.932L157.457 66.5462Z" fill="white"/>
<path d="M100.384 83.9048L131.229 95.8102C131.274 95.828 131.323 95.8338 131.37 95.8269L151.299 92.8733C151.358 92.8652 151.412 92.838 151.455 92.796C151.497 92.7539 151.524 92.6992 151.533 92.6401L155.54 66.2541C155.549 66.1897 155.536 66.1241 155.502 66.0685C155.468 66.013 155.416 65.971 155.354 65.9496L155.149 65.8802L124.827 55.7851C124.813 55.7802 124.798 55.7767 124.784 55.7748C124.76 55.7705 124.736 55.7692 124.713 55.7711L106.051 57.537L104.57 57.676C104.509 57.6825 104.452 57.7086 104.408 57.7505C104.363 57.7924 104.334 57.8477 104.323 57.9079L100.211 83.6015C100.201 83.6643 100.212 83.7286 100.244 83.7838C100.276 83.839 100.325 83.8817 100.384 83.9048V83.9048Z" fill="#5B44E9"/>
<path d="M106.051 57.537L124.713 55.7711C124.736 55.7692 124.76 55.7705 124.784 55.7748C124.798 55.7767 124.813 55.7802 124.827 55.7851L155.149 65.8802L147.151 66.7269L144.157 67.0422L135.64 67.9421C135.615 67.9434 135.59 67.9431 135.565 67.9412C135.55 67.9367 135.535 67.9321 135.516 67.9272L106.051 57.537Z" fill="#2F2E41"/>
<path d="M99.6846 85.7168L130.529 97.6223C130.674 97.6782 130.825 97.7177 130.979 97.74C131.202 97.7769 131.43 97.7798 131.654 97.7485L151.582 94.7949C152.053 94.7264 152.488 94.5083 152.825 94.1729C153.162 93.8375 153.382 93.4026 153.452 92.9326L157.457 66.5462C157.516 66.1572 157.471 65.7595 157.327 65.3934C157.307 65.3447 157.286 65.296 157.263 65.2502C157.104 64.9159 156.862 64.6279 156.56 64.4134C156.379 64.283 156.178 64.1809 155.966 64.1105L155.93 64.0977L125.442 53.9432C125.317 53.9034 125.19 53.8725 125.061 53.8507C124.885 53.8257 124.706 53.8223 124.529 53.8404L116.879 54.5615L112.49 54.9802L104.387 55.7453C104.055 55.7762 103.735 55.882 103.45 56.0546C103.428 56.0653 103.407 56.0779 103.388 56.0922C103.374 56.1015 103.36 56.1116 103.347 56.1227C103.099 56.2924 102.887 56.5109 102.726 56.7649C102.564 57.0189 102.456 57.3032 102.408 57.6003L98.2924 83.2967C98.2146 83.7983 98.3102 84.3114 98.5633 84.7514C98.8164 85.1913 99.2119 85.5319 99.6846 85.7168V85.7168ZM102.955 57.6899C103.005 57.3819 103.141 57.0945 103.348 56.8613C103.411 56.7862 103.481 56.7178 103.558 56.6569C103.767 56.4878 104.015 56.3723 104.279 56.3207C104.331 56.31 104.384 56.3025 104.437 56.2984L118.08 55.0096L124.583 54.3908C124.627 54.3856 124.667 54.3864 124.708 54.384C124.806 54.382 124.905 54.3893 125.002 54.4059C125.091 54.4175 125.179 54.4384 125.264 54.4683L155.788 64.6356C155.812 64.6442 155.833 64.6524 155.858 64.661C156.135 64.7642 156.379 64.9417 156.563 65.1739C156.708 65.3517 156.814 65.5582 156.874 65.7797C156.934 66.0013 156.946 66.233 156.91 66.4597L152.903 92.8489C152.85 93.2008 152.686 93.5265 152.434 93.7779C152.182 94.0294 151.856 94.1932 151.504 94.2452L131.573 97.1985C131.288 97.2394 130.997 97.2062 130.728 97.1022L99.8835 85.1999C99.53 85.0606 99.2343 84.8052 99.045 84.4757C98.8556 84.1462 98.7839 83.7622 98.8416 83.3866L102.955 57.6899Z" fill="#3F3D56"/>
<path d="M103.281 56.2628C103.297 56.216 103.326 56.1746 103.364 56.143C103.377 56.1329 103.39 56.1238 103.404 56.1156C103.417 56.1107 103.43 56.1026 103.443 56.0976C103.505 56.0727 103.574 56.0715 103.637 56.0943L104.279 56.3207L135.643 67.3847L142.983 66.6091L147.091 66.1759L155.785 65.2555L156.563 65.1739L156.714 65.1572C156.779 65.1513 156.844 65.1683 156.898 65.2053C156.952 65.2423 156.991 65.297 157.009 65.3599C157.013 65.3744 157.016 65.3893 157.017 65.4043C157.024 65.4641 157.011 65.5242 156.98 65.5758C156.949 65.6274 156.902 65.6676 156.847 65.6903C156.822 65.7005 156.796 65.7074 156.77 65.711L155.712 65.8218L147.151 66.7269L144.157 67.0422L135.64 67.9421C135.615 67.9434 135.59 67.9431 135.565 67.9412C135.55 67.9367 135.535 67.9321 135.516 67.9272L103.558 56.6569L103.45 56.6185C103.425 56.6104 103.402 56.5976 103.381 56.5809C103.333 56.5454 103.297 56.4954 103.279 56.4383C103.261 56.3811 103.262 56.3196 103.281 56.2628Z" fill="#3F3D56"/>
<path d="M131.063 97.8208C130.991 97.8093 130.926 97.7697 130.883 97.7107C130.84 97.6517 130.822 97.5781 130.833 97.5058L135.335 67.6248C135.346 67.5521 135.386 67.4868 135.445 67.4431C135.504 67.3994 135.578 67.3811 135.651 67.392L135.653 67.3924C135.726 67.404 135.79 67.4435 135.833 67.5025C135.876 67.5616 135.895 67.6352 135.884 67.7075L131.381 97.5884C131.37 97.6611 131.33 97.7265 131.271 97.7701C131.212 97.8138 131.138 97.8322 131.065 97.8212L131.063 97.8208Z" fill="#3F3D56"/>
<path d="M142.477 95.9253L139.482 96.2413L142.985 66.6083C142.985 66.6083 146.984 65.8841 147.091 66.1745C147.157 66.3479 142.505 95.7352 142.477 95.9253Z" fill="#3F3D56"/>
<path d="M103.45 56.6182L103.37 70.1318L127.293 79.2474L135.884 67.7074L103.45 56.6182Z" fill="#3F3D56"/>
<path d="M156.564 65.1744C156.364 64.923 156.094 64.7358 155.789 64.6357L125.265 54.4687C125.18 54.4399 125.092 54.4185 125.002 54.4046C124.905 54.3879 124.806 54.3805 124.708 54.3826L124.757 54.0732L125.063 53.852L132.311 48.6041L156.518 56.0227L156.56 64.4136L156.564 65.1744Z" fill="#3F3D56"/>
<path d="M104.67 78.3121C104.704 78.3155 104.738 78.3226 104.771 78.3334L114.136 81.4094C114.253 81.4478 114.351 81.5313 114.406 81.6415C114.462 81.7516 114.472 81.8793 114.433 81.9966C114.395 82.1138 114.311 82.211 114.201 82.2667C114.091 82.3224 113.963 82.3321 113.846 82.2936L104.481 79.2176C104.372 79.1818 104.28 79.1073 104.223 79.0082C104.166 78.9091 104.147 78.7924 104.17 78.6803C104.194 78.5683 104.258 78.4688 104.35 78.4009C104.442 78.333 104.556 78.3014 104.67 78.3121H104.67Z" fill="white"/>
<path d="M142.457 135.002C144.512 135.002 146.179 133.335 146.179 131.28C146.179 129.224 144.512 127.557 142.457 127.557C140.401 127.557 138.734 129.224 138.734 131.28C138.734 133.335 140.401 135.002 142.457 135.002Z" fill="#EFEDFD"/>
<path d="M47.5414 148.65C49.5971 148.65 51.2635 146.983 51.2635 144.927C51.2635 142.872 49.5971 141.205 47.5414 141.205C45.4857 141.205 43.8192 142.872 43.8192 144.927C43.8192 146.983 45.4857 148.65 47.5414 148.65Z" fill="#EFEDFD"/>
<path d="M125.086 25.5079C127.142 25.5079 128.809 23.8415 128.809 21.7858C128.809 19.7301 127.142 18.0636 125.086 18.0636C123.031 18.0636 121.364 19.7301 121.364 21.7858C121.364 23.8415 123.031 25.5079 125.086 25.5079Z" fill="#EFEDFD"/>
<path d="M131.193 83.7864C130.711 83.996 130.189 84.0972 129.663 84.0831C129.137 84.0689 128.621 83.9396 128.15 83.7042C127.68 83.4689 127.267 83.1333 126.94 82.7211C126.613 82.3089 126.381 81.83 126.259 81.3182L113.538 80.033L117.735 74.8821L129.172 76.8923C130.045 76.7449 130.942 76.9231 131.693 77.3929C132.443 77.8627 132.996 78.5916 133.245 79.4414C133.494 80.2912 133.423 81.2028 133.045 82.0036C132.667 82.8045 132.008 83.4388 131.193 83.7864V83.7864Z" fill="#FFB8B8"/>
<path d="M123.369 81.7431L93.6822 79.0078L93.6415 78.961L71.9752 54.1352C70.5493 51.9507 70.0125 49.3037 70.4746 46.7363C70.9366 44.1689 72.3627 41.8752 74.4607 40.3249V40.3249C75.6216 39.4693 76.9505 38.8692 78.36 38.5643C79.7695 38.2593 81.2276 38.2562 82.6383 38.5554C84.0491 38.8546 85.3804 39.4491 86.5448 40.2999C87.7092 41.1507 88.6802 42.2384 89.3939 43.4915L102.739 66.9239L123.696 75.3444L123.369 81.7431Z" fill="#BFB6F6"/>
<path d="M197.882 34.0009C197.145 28.5933 196.22 22.7874 192.406 18.8837C191.196 17.6451 189.747 16.6643 188.148 16.0006C186.548 15.3369 184.831 15.004 183.099 15.0219C181.368 15.0399 179.658 15.4082 178.072 16.1049C176.487 16.8016 175.059 17.8121 173.874 19.0755C171.098 22.0373 169.872 26.1962 169.76 30.2543C169.648 34.3125 170.551 38.3255 171.554 42.2594C176.86 42.3654 182.127 41.3287 186.997 39.2198C188.214 38.6913 189.413 38.0937 190.699 37.7662C191.986 37.4388 192.903 38.2628 194.1 38.8374L194.757 37.5795C195.294 38.5803 196.96 38.2836 197.564 37.3213C198.168 36.359 198.035 35.1266 197.882 34.0009Z" fill="#2F2E41"/>
<path d="M176.85 64.1842L155.175 64.6478C154.843 64.0724 154.35 63.6062 153.757 63.3058C153.164 63.0055 152.496 62.8839 151.835 62.956C151.175 63.0281 150.549 63.2906 150.035 63.7118C149.521 64.1329 149.14 64.6944 148.939 65.328C148.738 65.9616 148.725 66.6399 148.903 67.2805C149.08 67.921 149.44 68.4961 149.939 68.9359C150.437 69.3756 151.053 69.6611 151.71 69.7574C152.368 69.8537 153.04 69.7568 153.643 69.4784C156.518 69.6418 179.007 72.8338 180.349 70.7767C181.711 68.6889 188.979 61.3205 188.979 61.3205L183.392 53.3663L176.85 64.1842Z" fill="#9E616A"/>
<path d="M182.131 39.3511C187.755 39.3511 192.314 34.7919 192.314 29.1679C192.314 23.5438 187.755 18.9846 182.131 18.9846C176.507 18.9846 171.948 23.5438 171.948 29.1679C171.948 34.7919 176.507 39.3511 182.131 39.3511Z" fill="#9E616A"/>
<path d="M198.441 48.7615C197.241 46.3732 196.658 43.4227 194.1 42.6484C192.372 42.1255 185.385 42.9091 183.81 43.7917C181.191 45.2598 183.564 48.0109 182.019 50.5853C180.34 53.384 175.775 59.0004 174.095 61.7991C172.94 63.723 176.83 69.3704 176.205 71.5257C175.581 73.681 175.551 76.1 176.615 78.0758C177.567 79.8443 176.189 81.4087 177.147 83.1743C178.142 85.0104 179.364 91.8757 178.438 93.7477L177.817 95.6088C183.973 95.9705 189.149 88.616 195.267 87.8412C196.787 87.6488 198.365 87.3975 199.617 86.5154C201.461 85.2162 202.19 82.8586 202.646 80.649C204.839 69.8483 203.359 58.6244 198.441 48.7615V48.7615Z" fill="#3F3D56"/>
<path d="M207.671 73.9798C206.813 71.6393 205.261 61.4061 205.261 61.4061L195.545 61.1212L200.295 72.8374L187.333 90.9838C187.333 90.9838 187.357 91.0237 187.4 91.0948C186.719 90.9854 186.02 91.0843 185.396 91.3786C184.771 91.6729 184.25 92.1487 183.901 92.744C183.551 93.3392 183.39 94.0261 183.437 94.7147C183.484 95.4033 183.739 96.0616 184.166 96.6034C184.594 97.1452 185.175 97.5454 185.834 97.7514C186.493 97.9574 187.198 97.9598 187.858 97.7582C188.519 97.5566 189.102 97.1605 189.534 96.6215C189.965 96.0826 190.224 95.4261 190.276 94.7378C190.323 94.7652 190.379 94.775 190.433 94.7657C190.488 94.7564 190.537 94.7285 190.573 94.6868C192.015 92.8768 208.528 76.3203 207.671 73.9798Z" fill="#9E616A"/>
<path d="M208.659 67.5171C207.767 63.7531 206.869 59.9687 205.365 56.4047C203.861 52.8407 201.709 49.4744 198.682 47.0666C197.714 46.2968 196.632 45.6173 195.418 45.378C194.205 45.1386 192.838 45.4065 191.986 46.3027C190.622 47.7369 191.032 50.0389 191.532 51.9536C193.007 57.599 194.482 63.2444 195.956 68.8898C200.215 68.4384 204.474 67.987 208.732 67.5356L208.659 67.5171Z" fill="#3F3D56"/>
<path d="M194.609 30.5804C194.234 28.1169 193.842 25.6329 192.961 23.3133C192.08 20.9937 190.66 18.8211 188.623 17.5071C185.397 15.4267 181.221 15.8279 177.605 17.0246C174.808 17.9501 172.078 19.3567 170.106 21.6182C168.134 23.8796 167.026 27.1064 167.76 30.0633C171.617 29.152 175.475 28.2406 179.332 27.3292L178.91 27.6275C180.177 28.2591 181.283 29.171 182.144 30.2938C183.006 31.4167 183.6 32.7211 183.883 34.1081C184.158 35.5118 184.119 36.9594 183.767 38.346C183.414 39.7326 182.758 41.0235 181.846 42.1255C184.477 41.1922 187.108 40.259 189.739 39.3257C191.362 38.7497 193.1 38.0859 194.063 36.6084C195.18 34.8953 194.92 32.6248 194.609 30.5804Z" fill="#2F2E41"/>
</g>
<defs>
<clipPath id="clip0_1730_53075">
<rect width="267.594" height="200" fill="white" transform="translate(0.703125)"/>
</clipPath>
</defs>
</svg>
