<svg width="192" height="200" viewBox="0 0 192 200" fill="none" xmlns="http://www.w3.org/2000/svg">
<g clip-path="url(#clip0_409_18274)">
<path d="M74.3703 200C115.204 200 148.307 194.152 148.307 186.938C148.307 179.724 115.204 173.877 74.3703 173.877C33.5363 173.877 0.433838 179.724 0.433838 186.938C0.433838 194.152 33.5363 200 74.3703 200Z" fill="#3F3D56"/>
<path d="M119.307 144.518C159.215 144.518 191.566 112.166 191.566 72.2588C191.566 32.3514 159.215 0 119.307 0C79.4 0 47.0486 32.3514 47.0486 72.2588C47.0486 112.166 79.4 144.518 119.307 144.518Z" fill="#3F3D56"/>
<path opacity="0.05" d="M119.307 131.911C152.252 131.911 178.959 105.204 178.959 72.2588C178.959 39.3139 152.252 12.6068 119.307 12.6068C86.3626 12.6068 59.6555 39.3139 59.6555 72.2588C59.6555 105.204 86.3626 131.911 119.307 131.911Z" fill="#912CDB"/>
<path opacity="0.05" d="M119.307 121.149C146.309 121.149 168.198 99.2601 168.198 72.2589C168.198 45.2576 146.309 23.3688 119.307 23.3688C92.3063 23.3688 70.4175 45.2576 70.4175 72.2589C70.4175 99.2601 92.3063 121.149 119.307 121.149Z" fill="black"/>
<path opacity="0.05" d="M119.307 107.312C138.667 107.312 154.361 91.6182 154.361 72.2588C154.361 52.8995 138.667 37.2056 119.307 37.2056C99.948 37.2056 84.2542 52.8995 84.2542 72.2588C84.2542 91.6182 99.948 107.312 119.307 107.312Z" fill="#EDDCF9"/>
<path d="M47.6885 78.7255C47.6885 78.7255 42.0075 94.7165 44.5324 100.397C47.0573 106.078 51.055 111.549 51.055 111.549C51.055 111.549 49.5821 79.7776 47.6885 78.7255Z" fill="#D0CDE1"/>
<path opacity="0.1" d="M47.6885 78.7255C47.6885 78.7255 42.0075 94.7165 44.5324 100.397C47.0573 106.078 51.055 111.549 51.055 111.549C51.055 111.549 49.5821 79.7776 47.6885 78.7255Z" fill="black"/>
<path d="M51.6863 115.757C51.6863 115.757 51.2654 119.755 51.055 119.965C50.8446 120.176 51.2654 120.597 51.055 121.228C50.8446 121.859 50.6342 122.701 51.055 122.911C51.4759 123.121 48.7406 141.637 48.7406 141.637C48.7406 141.637 42.0075 150.474 44.7428 164.361L45.5845 178.458C45.5845 178.458 52.1071 178.879 52.1071 176.565C52.1071 176.565 51.6863 173.83 51.6863 172.567C51.6863 171.305 52.7383 171.305 52.1071 170.673C51.4759 170.042 51.4759 169.621 51.4759 169.621C51.4759 169.621 52.5279 168.78 52.3175 168.569C52.1071 168.359 54.2111 153.42 54.2111 153.42C54.2111 153.42 56.5256 151.106 56.5256 149.843V148.581C56.5256 148.581 57.5777 145.845 57.5777 145.635C57.5777 145.425 63.2586 132.59 63.2586 132.59L65.5731 141.848L68.098 155.103C68.098 155.103 69.3605 167.096 71.8853 171.725C71.8853 171.725 76.3039 186.875 76.3039 186.454C76.3039 186.033 83.6681 184.981 83.4577 183.087C83.2473 181.194 79.0392 154.682 79.0392 154.682L80.0912 115.336L51.6863 115.757Z" fill="#2F2E41"/>
<path d="M46.0054 177.406C46.0054 177.406 40.3244 188.558 44.1117 188.979C47.899 189.4 49.3719 189.4 51.0551 187.716C51.9754 186.796 53.8389 185.561 55.3393 184.631C56.2283 184.089 56.9465 183.307 57.4115 182.375C57.8764 181.443 58.0694 180.399 57.9682 179.363C57.8572 178.334 57.4726 177.485 56.5257 177.406C54.0009 177.196 51.0551 174.882 51.0551 174.882L46.0054 177.406Z" fill="#2F2E41"/>
<path d="M77.356 185.612C77.356 185.612 71.675 196.764 75.4623 197.185C79.2496 197.606 80.7225 197.606 82.4057 195.922C83.326 195.002 85.1895 193.767 86.6899 192.837C87.5789 192.295 88.2971 191.513 88.762 190.581C89.227 189.649 89.42 188.605 89.3188 187.569C89.2078 186.539 88.8231 185.691 87.8763 185.612C85.3514 185.402 82.4057 183.087 82.4057 183.087L77.356 185.612Z" fill="#2F2E41"/>
<path d="M71.3518 60.4762C76.2366 60.4762 80.1965 56.5163 80.1965 51.6315C80.1965 46.7467 76.2366 42.7868 71.3518 42.7868C66.467 42.7868 62.5071 46.7467 62.5071 51.6315C62.5071 56.5163 66.467 60.4762 71.3518 60.4762Z" fill="#FFB8B8"/>
<path d="M65.6659 54.5376C65.6659 54.5376 59.3482 66.1621 58.8428 66.1621C58.3374 66.1621 70.2146 69.9527 70.2146 69.9527C70.2146 69.9527 73.4998 58.8336 74.0052 57.8228L65.6659 54.5376Z" fill="#FFB8B8"/>
<path d="M75.3571 67.2583C75.3571 67.2583 62.7327 60.3149 61.4702 60.5253C60.2078 60.7357 46.7417 72.5185 46.9521 77.3579C47.1626 82.1972 48.8458 90.1927 48.8458 90.1927C48.8458 90.1927 49.477 112.496 50.7395 112.706C52.0019 112.917 50.5291 116.704 50.9499 116.704C51.3707 116.704 80.4069 116.704 80.6173 116.073C80.8277 115.442 75.3571 67.2583 75.3571 67.2583Z" fill="#D0CDE1"/>
<path d="M82.4057 117.23C82.4057 117.23 86.4034 129.434 83.0369 129.013C79.6704 128.592 78.1975 118.492 78.1975 118.492L82.4057 117.23Z" fill="#FFB8B8"/>
<path d="M71.675 66.5219C71.675 66.5219 63.8899 68.2052 65.1524 78.7255C66.4148 89.2459 68.7293 99.7662 68.7293 99.7662L76.5144 116.809L77.356 119.965L83.037 118.492L78.8289 94.0853C78.8289 94.0853 77.356 67.9948 75.4623 67.1531C74.2682 66.6441 72.9697 66.4276 71.675 66.5219Z" fill="#D0CDE1"/>
<path opacity="0.1" d="M66.9407 99.4507L76.6195 116.704L68.4649 98.5237L66.9407 99.4507Z" fill="black"/>
<path d="M80.1573 49.0272L80.1866 48.3513L81.5311 48.6859C81.5167 48.469 81.4554 48.2577 81.3514 48.0667C81.2474 47.8758 81.1031 47.7097 80.9287 47.5799L82.3608 47.4998C81.1591 45.792 79.6236 44.3455 77.8472 43.2477C76.0708 42.1499 74.0904 41.4235 72.0254 41.1124C68.9276 40.6634 65.4782 41.3131 63.3539 43.6122C62.3235 44.7274 61.6761 46.1455 61.2155 47.5923C60.3673 50.2569 60.1945 53.4334 61.9632 55.5993C63.7608 57.8007 66.9008 58.2319 69.7297 58.5043C70.7251 58.6002 71.7683 58.6894 72.6907 58.3032C72.7934 57.2452 72.6579 56.1776 72.2943 55.1787C72.1429 54.8695 72.0705 54.5275 72.0837 54.1835C72.2095 53.3419 73.3321 53.1299 74.1754 53.2436C75.0187 53.3573 76.0328 53.5312 76.5869 52.8854C76.9686 52.4406 76.9461 51.7928 76.9966 51.2088C77.1343 49.6189 80.1429 49.3605 80.1573 49.0272Z" fill="#2F2E41"/>
<path d="M134.406 188.736C140.098 188.736 144.712 184.122 144.712 178.43C144.712 172.739 140.098 168.125 134.406 168.125C128.715 168.125 124.101 172.739 124.101 178.43C124.101 184.122 128.715 188.736 134.406 188.736Z" fill="#912CDB"/>
<path d="M13.3756 185.141C19.0673 185.141 23.6812 180.527 23.6812 174.835C23.6812 169.144 19.0673 164.53 13.3756 164.53C7.68403 164.53 3.07007 169.144 3.07007 174.835C3.07007 180.527 7.68403 185.141 13.3756 185.141Z" fill="#912CDB"/>
<path d="M13.3756 168.604C17.4789 168.604 20.8052 165.278 20.8052 161.174C20.8052 157.071 17.4789 153.745 13.3756 153.745C9.27239 153.745 5.94604 157.071 5.94604 161.174C5.94604 165.278 9.27239 168.604 13.3756 168.604Z" fill="#912CDB"/>
<path d="M13.3756 154.943C16.2876 154.943 18.6483 152.582 18.6483 149.67C18.6483 146.758 16.2876 144.398 13.3756 144.398C10.4637 144.398 8.10303 146.758 8.10303 149.67C8.10303 152.582 10.4637 154.943 13.3756 154.943Z" fill="#912CDB"/>
</g>
<defs>
<clipPath id="clip0_409_18274">
<rect width="191.132" height="200" fill="white" transform="translate(0.433838)"/>
</clipPath>
</defs>
</svg>
