<svg width="363" height="264" viewBox="0 0 363 264" fill="none" xmlns="http://www.w3.org/2000/svg">
<path d="M231.322 197.913V261.552H72.4127C54.3071 261.552 39.5762 247.277 39.5762 229.732C39.5762 212.187 54.307 197.913 72.4127 197.913H231.322Z" fill="#F2F2F2"/>
<path d="M235.225 261.063C235.224 261.712 234.967 262.334 234.51 262.793C234.052 263.252 233.432 263.51 232.785 263.51H69.5815C60.7176 263.51 52.2168 259.977 45.9491 253.689C39.6813 247.4 36.1602 238.871 36.1602 229.977C36.1602 221.084 39.6813 212.554 45.9491 206.266C52.2168 199.977 60.7176 196.444 69.5815 196.444H232.785C233.432 196.444 234.053 196.702 234.51 197.161C234.968 197.62 235.225 198.243 235.225 198.892C235.225 199.541 234.968 200.163 234.51 200.622C234.053 201.081 233.432 201.339 232.785 201.339H69.5815C62.0116 201.339 54.7518 204.357 49.399 209.727C44.0463 215.098 41.0392 222.382 41.0392 229.977C41.0392 237.572 44.0463 244.857 49.399 250.227C54.7518 255.598 62.0116 258.615 69.5815 258.615H232.785C233.432 258.615 234.052 258.873 234.51 259.332C234.967 259.791 235.224 260.414 235.225 261.063Z" fill="#24BAD4"/>
<path d="M231.321 212.599H60.5553C60.4259 212.599 60.3018 212.547 60.2103 212.455C60.1188 212.364 60.0674 212.239 60.0674 212.109C60.0674 211.979 60.1188 211.855 60.2103 211.763C60.3018 211.671 60.4259 211.62 60.5553 211.62H231.321C231.451 211.62 231.575 211.671 231.666 211.763C231.758 211.855 231.809 211.979 231.809 212.109C231.809 212.239 231.758 212.364 231.666 212.455C231.575 212.547 231.451 212.599 231.321 212.599Z" fill="#CCCCCC"/>
<path d="M231.321 224.348H60.5553C60.4259 224.348 60.3018 224.296 60.2103 224.204C60.1188 224.112 60.0674 223.988 60.0674 223.858C60.0674 223.728 60.1188 223.604 60.2103 223.512C60.3018 223.42 60.4259 223.368 60.5553 223.368H231.321C231.451 223.368 231.575 223.42 231.666 223.512C231.758 223.604 231.809 223.728 231.809 223.858C231.809 223.988 231.758 224.112 231.666 224.204C231.575 224.296 231.451 224.348 231.321 224.348Z" fill="#CCCCCC"/>
<path d="M231.321 236.096H60.5553C60.4259 236.096 60.3018 236.045 60.2103 235.953C60.1188 235.861 60.0674 235.737 60.0674 235.607C60.0674 235.477 60.1188 235.353 60.2103 235.261C60.3018 235.169 60.4259 235.117 60.5553 235.117H231.321C231.451 235.117 231.575 235.169 231.666 235.261C231.758 235.353 231.809 235.477 231.809 235.607C231.809 235.737 231.758 235.861 231.666 235.953C231.575 236.045 231.451 236.096 231.321 236.096Z" fill="#CCCCCC"/>
<path d="M231.321 247.845H60.5553C60.4259 247.845 60.3018 247.794 60.2103 247.702C60.1188 247.61 60.0674 247.486 60.0674 247.356C60.0674 247.226 60.1188 247.101 60.2103 247.01C60.3018 246.918 60.4259 246.866 60.5553 246.866H231.321C231.451 246.866 231.575 246.918 231.666 247.01C231.758 247.101 231.809 247.226 231.809 247.356C231.809 247.486 231.758 247.61 231.666 247.702C231.575 247.794 231.451 247.845 231.321 247.845Z" fill="#CCCCCC"/>
<path d="M354.136 209.892L314.34 259.447L190.6 159.41C176.502 148.012 173.958 127.623 184.929 113.961C195.901 100.299 216.298 98.4573 230.396 109.855L354.136 209.892Z" fill="#F2F2F2"/>
<path d="M317.686 261.523C317.279 262.028 316.69 262.351 316.047 262.42C315.404 262.49 314.759 262.3 314.255 261.893L187.172 159.153C180.27 153.573 175.86 145.471 174.912 136.628C173.964 127.785 176.555 118.927 182.117 112.002C187.678 105.077 195.754 100.652 204.567 99.7006C213.38 98.7493 222.208 101.35 229.111 106.93L356.194 209.67C356.444 209.871 356.651 210.12 356.805 210.403C356.959 210.685 357.056 210.995 357.09 211.314C357.124 211.634 357.096 211.957 357.005 212.266C356.915 212.574 356.765 212.862 356.564 213.112C356.363 213.363 356.115 213.571 355.833 213.725C355.552 213.879 355.243 213.976 354.925 214.01C354.606 214.045 354.284 214.016 353.976 213.925C353.669 213.834 353.382 213.684 353.133 213.482L226.049 110.742C223.131 108.38 219.777 106.619 216.18 105.558C212.583 104.498 208.813 104.159 205.085 104.56C201.358 104.962 197.745 106.096 194.455 107.899C191.164 109.702 188.259 112.137 185.907 115.066C183.555 117.996 181.801 121.361 180.745 124.971C179.689 128.58 179.353 132.363 179.754 136.103C180.156 139.843 181.288 143.467 183.086 146.768C184.884 150.069 187.313 152.982 190.233 155.341L317.317 258.081C317.82 258.489 318.142 259.08 318.211 259.725C318.28 260.371 318.091 261.017 317.686 261.523Z" fill="#CCCCCC"/>
<path d="M344.952 221.328L211.98 113.827C211.93 113.787 211.888 113.737 211.858 113.68C211.827 113.624 211.807 113.562 211.801 113.498C211.794 113.434 211.8 113.37 211.818 113.308C211.836 113.246 211.866 113.189 211.906 113.139C211.946 113.089 211.996 113.047 212.052 113.016C212.108 112.985 212.17 112.966 212.234 112.959C212.297 112.952 212.362 112.958 212.423 112.976C212.485 112.994 212.542 113.024 212.592 113.065L345.564 220.565C345.614 220.606 345.656 220.655 345.686 220.712C345.717 220.768 345.737 220.83 345.744 220.894C345.75 220.958 345.745 221.023 345.727 221.085C345.709 221.146 345.679 221.204 345.638 221.254C345.598 221.304 345.548 221.346 345.492 221.377C345.436 221.408 345.374 221.427 345.31 221.434C345.247 221.441 345.182 221.435 345.121 221.417C345.059 221.398 345.002 221.368 344.952 221.328V221.328Z" fill="#CCCCCC"/>
<path d="M337.606 230.476L204.633 122.976C204.533 122.894 204.469 122.776 204.455 122.647C204.441 122.518 204.479 122.389 204.56 122.288C204.641 122.187 204.759 122.122 204.888 122.108C205.016 122.094 205.145 122.132 205.246 122.213L338.218 229.714C338.268 229.754 338.309 229.804 338.34 229.861C338.371 229.917 338.39 229.979 338.397 230.043C338.404 230.107 338.399 230.172 338.381 230.233C338.362 230.295 338.332 230.353 338.292 230.403C338.252 230.453 338.202 230.494 338.146 230.525C338.09 230.556 338.028 230.576 337.964 230.582C337.9 230.589 337.836 230.583 337.774 230.565C337.713 230.547 337.656 230.517 337.606 230.476Z" fill="#CCCCCC"/>
<path d="M330.258 239.625L197.285 132.124C197.185 132.043 197.12 131.924 197.106 131.795C197.092 131.666 197.13 131.537 197.211 131.436C197.293 131.335 197.411 131.27 197.539 131.256C197.668 131.242 197.797 131.28 197.898 131.362L330.87 238.863C330.92 238.903 330.961 238.953 330.992 239.009C331.023 239.066 331.042 239.128 331.049 239.191C331.056 239.255 331.05 239.32 331.032 239.382C331.014 239.443 330.984 239.501 330.944 239.551C330.903 239.601 330.854 239.643 330.798 239.673C330.741 239.704 330.68 239.724 330.616 239.731C330.552 239.737 330.488 239.732 330.426 239.714C330.365 239.695 330.307 239.665 330.258 239.625V239.625Z" fill="#CCCCCC"/>
<path d="M322.912 248.774L189.94 141.273C189.89 141.232 189.848 141.183 189.818 141.126C189.787 141.07 189.767 141.008 189.761 140.944C189.754 140.88 189.76 140.815 189.778 140.754C189.796 140.692 189.826 140.635 189.866 140.584C189.906 140.534 189.956 140.493 190.012 140.462C190.068 140.431 190.13 140.412 190.194 140.405C190.257 140.398 190.322 140.404 190.383 140.422C190.445 140.44 190.502 140.47 190.552 140.51L323.524 248.011C323.574 248.052 323.616 248.101 323.646 248.158C323.677 248.214 323.697 248.276 323.703 248.34C323.71 248.404 323.705 248.469 323.687 248.531C323.669 248.592 323.639 248.65 323.598 248.7C323.558 248.75 323.508 248.792 323.452 248.823C323.396 248.853 323.334 248.873 323.27 248.88C323.207 248.886 323.142 248.881 323.081 248.862C323.019 248.844 322.962 248.814 322.912 248.774Z" fill="#CCCCCC"/>
<path d="M362.512 264H0.487903C0.358503 264 0.234403 263.948 0.142903 263.857C0.0514036 263.765 0 263.64 0 263.51C0 263.381 0.0514036 263.256 0.142903 263.164C0.234403 263.072 0.358503 263.021 0.487903 263.021H362.512C362.642 263.021 362.766 263.072 362.857 263.164C362.949 263.256 363 263.381 363 263.51C363 263.64 362.949 263.765 362.857 263.857C362.766 263.948 362.642 264 362.512 264Z" fill="#CCCCCC"/>
<path d="M164.951 191.224L159.373 191.223L156.721 169.637L164.953 169.638L164.951 191.224Z" fill="#FFB8B8"/>
<path d="M155.388 189.624H166.145V196.42H148.615C148.615 195.527 148.79 194.644 149.131 193.819C149.471 192.995 149.97 192.246 150.599 191.614C151.228 190.983 151.975 190.483 152.796 190.141C153.618 189.8 154.499 189.624 155.388 189.624Z" fill="#2F2E41"/>
<path d="M107.966 191.224L102.388 191.223L99.7354 169.637L107.968 169.638L107.966 191.224Z" fill="#FFB8B8"/>
<path d="M98.4049 189.624H109.162V196.42H91.6318C91.6318 195.527 91.807 194.644 92.1474 193.819C92.4878 192.995 92.9867 192.246 93.6156 191.614C94.2446 190.983 94.9912 190.483 95.813 190.141C96.6347 189.8 97.5154 189.624 98.4049 189.624Z" fill="#2F2E41"/>
<path d="M126.597 31.1017V28.654C126.597 24.4669 128.254 20.4513 131.205 17.4905C134.156 14.5298 138.158 12.8665 142.332 12.8665H142.332C146.505 12.8665 150.507 14.5298 153.458 17.4905C156.409 20.4513 158.066 24.4669 158.066 28.654V31.1017C158.066 34.1203 156.871 37.0153 154.744 39.1498C152.617 41.2843 149.731 42.4834 146.723 42.4834H137.94C136.451 42.4834 134.976 42.189 133.599 41.6171C132.223 41.0451 130.973 40.2067 129.919 39.1498C128.866 38.0929 128.03 36.8382 127.46 35.4573C126.89 34.0764 126.597 32.5964 126.597 31.1017Z" fill="#2F2E41"/>
<path d="M142.331 43.3256C148.949 43.3256 154.314 37.9425 154.314 31.3021C154.314 24.6617 148.949 19.2786 142.331 19.2786C135.713 19.2786 130.348 24.6617 130.348 31.3021C130.348 37.9425 135.713 43.3256 142.331 43.3256Z" fill="#FFB8B8"/>
<path d="M77.149 72.6254C77.6354 72.1646 78.2164 71.8165 78.8513 71.6055C79.4862 71.3944 80.1595 71.3256 80.8238 71.4039C81.4881 71.4822 82.1272 71.7057 82.6961 72.0586C83.2649 72.4115 83.7498 72.8853 84.1164 73.4465L94.3891 71.4969L97.0925 77.4714L82.547 80.0203C81.5665 80.5758 80.4169 80.7511 79.3161 80.513C78.2153 80.2749 77.2398 79.64 76.5744 78.7285C75.909 77.8169 75.6 76.6922 75.7059 75.5674C75.8119 74.4425 76.3253 73.3957 77.149 72.6254V72.6254Z" fill="#FFB8B8"/>
<path d="M132.989 50.8977L133.124 51.1019L116.278 62.2361L87.8539 71.3431C87.4771 71.4646 87.154 71.7133 86.9394 72.047C86.7248 72.3806 86.6321 72.7786 86.6771 73.1731L87.2972 78.5319C87.3247 78.769 87.4013 78.9978 87.5221 79.2036C87.6428 79.4093 87.8051 79.5874 87.9985 79.7266C88.1919 79.8657 88.4122 79.9627 88.6452 80.0115C88.8781 80.0602 89.1187 80.0595 89.3514 80.0095L116.103 74.2561C117.398 73.9793 118.622 73.4385 119.7 72.6673L138.624 59.1577C139.31 58.6652 139.858 58.0031 140.213 57.2355C140.569 56.468 140.72 55.6212 140.653 54.7776C140.584 53.9327 140.296 53.1206 139.819 52.421C139.342 51.7214 138.692 51.1585 137.932 50.7876C137.172 50.4167 136.329 50.2507 135.486 50.3058C134.643 50.3609 133.829 50.6353 133.124 51.1019L132.989 50.8977Z" fill="#CCCCCC"/>
<path d="M159.473 185.098C159.045 185.098 158.626 184.973 158.268 184.738C157.909 184.503 157.627 184.169 157.454 183.776L131.884 120.38C131.824 120.243 131.724 120.127 131.596 120.048C131.469 119.969 131.321 119.932 131.171 119.94C131.022 119.949 130.879 120.003 130.761 120.095C130.644 120.188 130.557 120.314 130.513 120.458L109.651 182.175C109.563 182.462 109.418 182.729 109.223 182.957C109.029 183.186 108.79 183.372 108.521 183.505C108.252 183.637 107.959 183.713 107.66 183.728C107.361 183.743 107.062 183.696 106.782 183.591L99.7859 180.958C99.4062 180.817 99.073 180.572 98.8235 180.252C98.574 179.932 98.4178 179.549 98.3724 179.145C95.2252 151.637 122.67 82.202 122.948 81.5041L123.025 81.3107L148.043 86.8634L148.095 86.9203C158.076 97.8457 166.281 166.755 167.824 180.458C167.882 180.953 167.769 181.453 167.506 181.875C167.242 182.297 166.843 182.617 166.374 182.781L160.199 184.973C159.966 185.056 159.721 185.098 159.473 185.098Z" fill="#2F2E41"/>
<path d="M137.917 89.0984C131.856 89.0984 125.098 87.8858 123.018 82.8809L122.97 82.766L123.034 82.6593C124.676 79.9564 126.846 75.3455 125.68 74.4799C123.382 72.7754 122.267 69.9713 122.366 66.1454C122.581 57.84 128.221 50.4661 136.401 47.7964H136.401C138.685 47.0632 141.008 46.463 143.36 45.9986C145.075 45.6514 146.845 45.6896 148.544 46.1104C150.242 46.5313 151.827 47.3242 153.183 48.4324C154.557 49.5479 155.667 50.9548 156.435 52.552C157.202 54.1493 157.607 55.8972 157.621 57.6703C157.707 66.546 156.345 78.908 149.37 87.395C149.043 87.7888 148.588 88.0543 148.085 88.1446C144.729 88.7537 141.327 89.0728 137.917 89.0984Z" fill="#CCCCCC"/>
<path d="M135.662 88.766C135.992 87.5787 136.776 86.5701 137.843 85.9592C138.909 85.3483 140.174 85.1846 141.36 85.5037C141.602 85.5716 141.839 85.6594 142.067 85.7662L149.866 78.644L155.291 82.3107L144.137 92.2145C143.633 93.1257 142.84 93.8417 141.884 94.2485C140.928 94.6554 139.864 94.7298 138.861 94.4598C138.277 94.2994 137.73 94.0243 137.252 93.6506C136.774 93.2768 136.375 92.8118 136.078 92.2823C135.78 91.7528 135.591 91.1695 135.519 90.5659C135.448 89.9624 135.496 89.3506 135.662 88.766Z" fill="#FFB8B8"/>
<path d="M148.631 88.8565C148.125 88.8568 147.634 88.6812 147.243 88.3595L144.167 85.8375C143.91 85.6272 143.704 85.3615 143.565 85.0602C143.425 84.7589 143.355 84.4299 143.361 84.0977C143.366 83.7655 143.446 83.4387 143.594 83.1419C143.743 82.8451 143.957 82.5859 144.22 82.3837L157.121 72.456C157.274 72.3378 157.374 72.1638 157.4 71.9718C157.426 71.7799 157.375 71.5854 157.259 71.4306L149.296 60.8683C148.371 59.6452 147.907 58.1332 147.986 56.5998C148.066 55.0665 148.683 53.6107 149.729 52.4902C150.831 51.2962 152.34 50.5614 153.957 50.4317C155.574 50.3019 157.18 50.7867 158.457 51.7899L158.507 51.8432L166.822 63.789C167.721 64.4963 168.445 65.4026 168.937 66.4371C169.43 67.4716 169.677 68.6063 169.66 69.7526C169.643 70.8988 169.362 72.0256 168.839 73.0449C168.317 74.0643 167.566 74.9485 166.646 75.6287L149.938 88.4245C149.559 88.7051 149.101 88.8565 148.631 88.8565Z" fill="#CCCCCC"/>
<path d="M131.718 27.9197V21.9542L142.332 17.3036L152.454 21.9542V27.9197C152.454 28.1794 152.351 28.4284 152.168 28.612C151.985 28.7957 151.737 28.8988 151.478 28.8988H132.694C132.435 28.8988 132.187 28.7957 132.004 28.612C131.821 28.4284 131.718 28.1794 131.718 27.9197Z" fill="#2F2E41"/>
<path d="M141.844 13.6579C140.283 8.64575 143.561 2.90162 148.406 0.91769C153.252 -1.06624 159.049 0.320588 163.138 3.59834C167.227 6.87609 169.764 11.7855 171.108 16.8604C172.452 21.9354 172.707 27.2273 172.955 32.4724C178.909 33.5697 182.959 40.6547 180.896 46.3646C178.834 52.0746 171.2 54.9114 165.928 51.9269C160.657 48.9424 159.13 40.9199 162.934 36.1963C164.735 33.9612 165.74 31.1873 165.792 28.314C165.844 25.4407 164.939 22.6323 163.22 20.3334C161.501 18.0345 159.067 16.3767 156.304 15.6225C153.54 14.8683 150.604 15.0608 147.962 16.1695C145.028 17.4006 141.346 14.2019 141.844 13.6579Z" fill="#2F2E41"/>
<path d="M74.9488 49.4837C67.8209 49.4368 60.782 47.89 54.287 44.9433C53.9004 44.7704 53.5722 44.4885 53.3425 44.1317C53.1128 43.775 52.9914 43.359 52.9932 42.9343V25.1064C52.9938 24.5223 53.2254 23.9624 53.637 23.5494C54.0486 23.1364 54.6066 22.9041 55.1887 22.9034H94.7089C95.291 22.9041 95.8491 23.1364 96.2607 23.5494C96.6723 23.9624 96.9038 24.5223 96.9045 25.1064V42.9343C96.9062 43.359 96.7849 43.775 96.5551 44.1318C96.3254 44.4885 95.9972 44.7705 95.6106 44.9434C89.1156 47.89 82.0768 49.4368 74.9488 49.4837Z" fill="#24BAD4"/>
<path d="M74.9434 35.0409C74.6504 35.0412 74.3604 34.9826 74.0902 34.8688L42.7513 21.6026C42.3471 21.4315 42.0033 21.1429 41.7642 20.774C41.525 20.405 41.4015 19.9727 41.4095 19.5327C41.4176 19.0926 41.5568 18.6651 41.8093 18.3052C42.0617 17.9453 42.4158 17.6695 42.826 17.5135L74.1653 5.58458C74.6701 5.39156 75.2282 5.39275 75.7321 5.58792L106.652 17.5168C107.059 17.6741 107.411 17.95 107.662 18.309C107.912 18.668 108.051 19.0939 108.059 19.5322C108.067 19.9705 107.944 20.4013 107.707 20.7694C107.47 21.1374 107.128 21.4261 106.727 21.5985L75.807 34.8645C75.5339 34.9812 75.2402 35.0412 74.9434 35.0409Z" fill="#24BAD4"/>
<path d="M56.652 46.1564C58.2688 46.1564 59.5794 44.8413 59.5794 43.2191C59.5794 41.597 58.2688 40.2819 56.652 40.2819C55.0353 40.2819 53.7246 41.597 53.7246 43.2191C53.7246 44.8413 55.0353 46.1564 56.652 46.1564Z" fill="#3F3D56"/>
<path opacity="0.2" d="M106.833 19.7155L75.9133 32.9815C75.6722 33.0849 75.4129 33.1385 75.1507 33.1392C74.8886 33.1398 74.629 33.0874 74.3874 32.9852L43.0484 19.7193C42.6549 19.5567 42.3265 19.2672 42.1153 18.8964C41.9771 19.1368 41.8915 19.404 41.8641 19.6802C41.8367 19.9563 41.8682 20.2352 41.9564 20.4982C42.0447 20.7612 42.1877 21.0024 42.376 21.2057C42.5642 21.4091 42.7935 21.5699 43.0484 21.6775L74.3874 34.9433C74.629 35.0456 74.8886 35.098 75.1507 35.0973C75.4129 35.0967 75.6722 35.0431 75.9133 34.9396L106.833 21.6736C107.087 21.565 107.315 21.4037 107.502 21.2003C107.689 20.9969 107.83 20.756 107.918 20.4936C108.005 20.2311 108.036 19.953 108.008 19.6777C107.981 19.4024 107.895 19.1361 107.758 18.8964C107.548 19.2642 107.223 19.5521 106.833 19.7155Z" fill="black"/>
<path d="M56.899 43.2077C57.0284 43.2077 57.1525 43.1561 57.244 43.0643C57.3355 42.9725 57.3869 42.848 57.3869 42.7181V26.3376L73.4786 20.4557C73.608 20.4577 73.7328 20.4079 73.8257 20.3175C73.9186 20.2271 73.9718 20.1033 73.9737 19.9735C73.9757 19.8436 73.9261 19.7184 73.836 19.6252C73.7458 19.532 73.6225 19.4786 73.4931 19.4767L57.4015 25.3585C57.272 25.3555 57.1432 25.3789 57.023 25.4273C56.9028 25.4757 56.7937 25.5481 56.7021 25.6401C56.6097 25.7309 56.5363 25.8395 56.4863 25.9593C56.4363 26.0791 56.4107 26.2077 56.4111 26.3376V42.7181C56.4111 42.848 56.4625 42.9725 56.554 43.0643C56.6455 43.1561 56.7696 43.2077 56.899 43.2077Z" fill="#3F3D56"/>
</svg>
