<svg width="183" height="138" viewBox="0 0 183 138" fill="none" xmlns="http://www.w3.org/2000/svg">
<path d="M116.617 103.454V136.721H36.5051C27.3775 136.721 19.9512 129.259 19.9512 120.087C19.9512 110.916 27.3775 103.454 36.5051 103.454H116.617Z" fill="#F2F2F2"/>
<path d="M118.584 136.465C118.584 136.804 118.455 137.129 118.224 137.369C117.993 137.609 117.681 137.744 117.354 137.744H35.0783C30.6097 137.744 26.3242 135.897 23.1644 132.61C20.0046 129.323 18.2295 124.864 18.2295 120.215C18.2295 115.566 20.0046 111.108 23.1644 107.821C26.3242 104.533 30.6097 102.687 35.0783 102.687H117.354C117.681 102.687 117.993 102.821 118.224 103.061C118.455 103.301 118.584 103.627 118.584 103.966C118.584 104.305 118.455 104.631 118.224 104.871C117.993 105.111 117.681 105.246 117.354 105.246H35.0783C31.2621 105.246 27.6021 106.823 24.9036 109.63C22.2052 112.438 20.6892 116.245 20.6892 120.215C20.6892 124.186 22.2052 127.993 24.9036 130.801C27.6021 133.608 31.2621 135.185 35.0783 135.185H117.354C117.681 135.185 117.993 135.32 118.224 135.56C118.455 135.8 118.584 136.125 118.584 136.465Z" fill="#BF85EA"/>
<path d="M116.617 111.131H30.5282C30.463 111.131 30.4004 111.104 30.3543 111.056C30.3081 111.008 30.2822 110.943 30.2822 110.875C30.2822 110.807 30.3081 110.742 30.3543 110.694C30.4004 110.646 30.463 110.619 30.5282 110.619H116.617C116.682 110.619 116.745 110.646 116.791 110.694C116.837 110.742 116.863 110.807 116.863 110.875C116.863 110.943 116.837 111.008 116.791 111.056C116.745 111.104 116.682 111.131 116.617 111.131Z" fill="#CCCCCC"/>
<path d="M116.617 117.273H30.5282C30.463 117.273 30.4004 117.246 30.3543 117.198C30.3081 117.15 30.2822 117.085 30.2822 117.017C30.2822 116.949 30.3081 116.884 30.3543 116.836C30.4004 116.788 30.463 116.761 30.5282 116.761H116.617C116.682 116.761 116.745 116.788 116.791 116.836C116.837 116.884 116.863 116.949 116.863 117.017C116.863 117.085 116.837 117.15 116.791 117.198C116.745 117.246 116.682 117.273 116.617 117.273Z" fill="#CCCCCC"/>
<path d="M116.617 123.414H30.5282C30.463 123.414 30.4004 123.387 30.3543 123.339C30.3081 123.291 30.2822 123.226 30.2822 123.158C30.2822 123.09 30.3081 123.025 30.3543 122.977C30.4004 122.929 30.463 122.902 30.5282 122.902H116.617C116.682 122.902 116.745 122.929 116.791 122.977C116.837 123.025 116.863 123.09 116.863 123.158C116.863 123.226 116.837 123.291 116.791 123.339C116.745 123.387 116.682 123.414 116.617 123.414Z" fill="#CCCCCC"/>
<path d="M116.617 129.555H30.5282C30.463 129.555 30.4004 129.529 30.3543 129.481C30.3081 129.433 30.2822 129.367 30.2822 129.3C30.2822 129.232 30.3081 129.167 30.3543 129.119C30.4004 129.071 30.463 129.044 30.5282 129.044H116.617C116.682 129.044 116.745 129.071 116.791 129.119C116.837 129.167 116.863 129.232 116.863 129.3C116.863 129.367 116.837 129.433 116.791 129.481C116.745 129.529 116.682 129.555 116.617 129.555Z" fill="#CCCCCC"/>
<path d="M178.531 109.716L158.469 135.62L96.0877 83.328C88.9802 77.3701 87.6976 66.7122 93.2286 59.5707C98.7597 52.4292 109.042 51.4663 116.15 57.4243L178.531 109.716Z" fill="#F2F2F2"/>
<path d="M160.156 136.705C159.951 136.969 159.654 137.138 159.33 137.174C159.005 137.211 158.68 137.111 158.426 136.899L94.3596 83.1937C90.88 80.2768 88.6567 76.0414 88.1787 71.4192C87.7008 66.797 89.0074 62.1665 91.8111 58.5465C94.6147 54.9265 98.6859 52.6134 103.129 52.1162C107.572 51.619 112.023 52.9783 115.502 55.8951L179.569 109.6C179.695 109.706 179.8 109.836 179.877 109.983C179.955 110.131 180.003 110.293 180.021 110.46C180.038 110.627 180.024 110.796 179.978 110.957C179.933 111.118 179.857 111.269 179.756 111.4C179.654 111.531 179.529 111.639 179.387 111.72C179.245 111.8 179.09 111.851 178.929 111.869C178.768 111.887 178.606 111.872 178.451 111.824C178.296 111.777 178.152 111.698 178.026 111.593L113.959 57.8877C112.488 56.6534 110.797 55.7327 108.984 55.1783C107.17 54.6238 105.27 54.4465 103.39 54.6565C101.511 54.8664 99.6899 55.4594 98.031 56.4017C96.3721 57.3441 94.9078 58.6172 93.722 60.1483C92.5361 61.6795 91.6518 63.4387 91.1196 65.3255C90.5874 67.2123 90.4177 69.1897 90.6202 71.1447C90.8227 73.0998 91.3935 74.9941 92.2999 76.7196C93.2063 78.4451 94.4306 79.9679 95.9029 81.2011L159.97 134.906C160.224 135.119 160.386 135.428 160.421 135.766C160.456 136.103 160.36 136.441 160.156 136.705Z" fill="#CCCCCC"/>
<path d="M173.901 115.694L106.865 59.5005C106.84 59.4794 106.819 59.4533 106.804 59.4238C106.788 59.3943 106.778 59.362 106.775 59.3286C106.771 59.2951 106.774 59.2614 106.783 59.2291C106.793 59.1969 106.808 59.1668 106.828 59.1406C106.848 59.1145 106.873 59.0927 106.902 59.0766C106.93 59.0605 106.961 59.0504 106.993 59.0468C107.025 59.0432 107.058 59.0462 107.089 59.0557C107.12 59.0651 107.149 59.0808 107.174 59.1019L174.209 115.296C174.235 115.317 174.255 115.343 174.271 115.372C174.286 115.402 174.296 115.434 174.3 115.467C174.303 115.501 174.3 115.535 174.291 115.567C174.282 115.599 174.267 115.629 174.247 115.656C174.226 115.682 174.201 115.704 174.173 115.72C174.145 115.736 174.114 115.746 174.081 115.749C174.049 115.753 174.017 115.75 173.986 115.74C173.955 115.731 173.926 115.715 173.901 115.694V115.694Z" fill="#CCCCCC"/>
<path d="M170.197 120.476L103.162 64.2827C103.111 64.2401 103.079 64.1783 103.072 64.1108C103.065 64.0434 103.084 63.9759 103.125 63.9231C103.166 63.8703 103.225 63.8365 103.29 63.8292C103.355 63.8219 103.42 63.8417 103.47 63.8842L170.506 120.078C170.531 120.099 170.552 120.125 170.568 120.154C170.583 120.184 170.593 120.216 170.596 120.25C170.6 120.283 170.597 120.317 170.588 120.349C170.579 120.382 170.564 120.412 170.543 120.438C170.523 120.464 170.498 120.486 170.47 120.502C170.441 120.518 170.41 120.528 170.378 120.532C170.346 120.535 170.313 120.532 170.282 120.523C170.251 120.513 170.222 120.497 170.197 120.476Z" fill="#CCCCCC"/>
<path d="M166.493 125.259L99.4579 69.0649C99.4071 69.0223 99.3746 68.9605 99.3676 68.893C99.3606 68.8255 99.3797 68.7579 99.4206 68.7051C99.4616 68.6522 99.521 68.6185 99.5859 68.6112C99.6507 68.604 99.7157 68.6238 99.7665 68.6664L166.802 124.86C166.827 124.881 166.848 124.907 166.864 124.937C166.879 124.966 166.889 124.998 166.892 125.032C166.896 125.065 166.893 125.099 166.884 125.131C166.875 125.164 166.86 125.194 166.839 125.22C166.819 125.246 166.794 125.268 166.766 125.284C166.737 125.3 166.706 125.31 166.674 125.314C166.642 125.317 166.609 125.314 166.578 125.305C166.547 125.295 166.519 125.28 166.493 125.259V125.259Z" fill="#CCCCCC"/>
<path d="M162.79 130.041L95.7547 73.8471C95.7296 73.8261 95.7087 73.8 95.6932 73.7705C95.6777 73.741 95.6679 73.7087 95.6645 73.6752C95.661 73.6418 95.664 73.608 95.6731 73.5758C95.6822 73.5436 95.6973 73.5135 95.7175 73.4873C95.7378 73.4612 95.7628 73.4394 95.7912 73.4233C95.8195 73.4072 95.8506 73.3971 95.8827 73.3935C95.9149 73.3899 95.9473 73.3929 95.9783 73.4023C96.0093 73.4118 96.0382 73.4275 96.0634 73.4486L163.099 129.642C163.124 129.663 163.145 129.689 163.161 129.719C163.176 129.748 163.186 129.781 163.189 129.814C163.193 129.848 163.19 129.881 163.181 129.914C163.172 129.946 163.157 129.976 163.136 130.002C163.116 130.028 163.091 130.05 163.063 130.066C163.034 130.082 163.003 130.093 162.971 130.096C162.939 130.1 162.906 130.097 162.875 130.087C162.844 130.078 162.815 130.062 162.79 130.041Z" fill="#CCCCCC"/>
<path d="M182.754 138H0.245968C0.180733 138 0.11817 137.973 0.0720421 137.925C0.0259142 137.877 0 137.812 0 137.744C0 137.676 0.0259142 137.611 0.0720421 137.563C0.11817 137.515 0.180733 137.488 0.245968 137.488H182.754C182.819 137.488 182.882 137.515 182.928 137.563C182.974 137.611 183 137.676 183 137.744C183 137.812 182.974 137.877 182.928 137.925C182.882 137.973 182.819 138 182.754 138Z" fill="#CCCCCC"/>
<path d="M83.157 99.9578L80.3451 99.9575L79.0078 88.6736L83.158 88.6742L83.157 99.9578Z" fill="#FFB8B8"/>
<path d="M78.3364 99.1217H83.7594V102.674H74.9219C74.9219 102.207 75.0102 101.746 75.1818 101.315C75.3534 100.884 75.6049 100.492 75.922 100.162C76.239 99.8323 76.6154 99.5706 77.0297 99.3921C77.444 99.2136 77.888 99.1217 78.3364 99.1217Z" fill="#2F2E41"/>
<path d="M54.4295 99.9578L51.6176 99.9575L50.2803 88.6736L54.4305 88.6742L54.4295 99.9578Z" fill="#FFB8B8"/>
<path d="M49.6088 99.1217H55.0319V102.674H46.1943C46.1943 102.207 46.2827 101.746 46.4543 101.315C46.6258 100.884 46.8774 100.492 47.1944 100.162C47.5115 99.8323 47.8879 99.5706 48.3022 99.3921C48.7164 99.2136 49.1604 99.1217 49.6088 99.1217Z" fill="#2F2E41"/>
<path d="M63.8213 16.2577V14.9782C63.8213 12.7895 64.657 10.6904 66.1447 9.14278C67.6323 7.59512 69.6499 6.72565 71.7537 6.72565H71.7538C73.8576 6.72565 75.8752 7.59512 77.3629 9.14278C78.8505 10.6904 79.6862 12.7895 79.6862 14.9782V16.2577C79.6862 17.8356 79.0837 19.3489 78.0112 20.4647C76.9388 21.5804 75.4842 22.2073 73.9675 22.2073H69.5401C68.7891 22.2073 68.0454 22.0534 67.3516 21.7544C66.6577 21.4554 66.0273 21.0171 65.4963 20.4647C64.9652 19.9122 64.544 19.2563 64.2566 18.5345C63.9692 17.8127 63.8213 17.039 63.8213 16.2577Z" fill="#2F2E41"/>
<path d="M71.7541 22.6475C75.0906 22.6475 77.7953 19.8336 77.7953 16.3625C77.7953 12.8914 75.0906 10.0775 71.7541 10.0775C68.4176 10.0775 65.7129 12.8914 65.7129 16.3625C65.7129 19.8336 68.4176 22.6475 71.7541 22.6475Z" fill="#FFB8B8"/>
<path d="M38.8931 37.9633C39.1382 37.7224 39.4312 37.5405 39.7513 37.4301C40.0713 37.3198 40.4108 37.2839 40.7456 37.3248C41.0805 37.3657 41.4027 37.4825 41.6895 37.667C41.9763 37.8515 42.2207 38.0991 42.4056 38.3925L47.5843 37.3734L48.9472 40.4964L41.6144 41.8288C41.12 42.1192 40.5405 42.2108 39.9855 42.0864C39.4306 41.9619 38.9388 41.63 38.6034 41.1535C38.2679 40.677 38.1122 40.0891 38.1656 39.5011C38.219 38.9131 38.4778 38.366 38.8931 37.9633V37.9633Z" fill="#FFB8B8"/>
<path d="M67.0444 26.6056L67.1122 26.7124L58.6199 32.5325L44.2903 37.293C44.1003 37.3565 43.9374 37.4865 43.8292 37.6609C43.7211 37.8353 43.6743 38.0433 43.697 38.2496L44.0096 41.0507C44.0235 41.1747 44.0621 41.2943 44.123 41.4019C44.1839 41.5094 44.2657 41.6025 44.3632 41.6752C44.4607 41.748 44.5717 41.7987 44.6892 41.8242C44.8066 41.8496 44.9279 41.8493 45.0452 41.8232L58.5315 38.8157C59.1842 38.671 59.8013 38.3883 60.3447 37.9852L69.8852 30.9233C70.2311 30.6659 70.5071 30.3198 70.6863 29.9186C70.8655 29.5174 70.9419 29.0747 70.9081 28.6337C70.8731 28.1921 70.7282 27.7676 70.4876 27.4019C70.2471 27.0362 69.9192 26.7419 69.5362 26.5481C69.1532 26.3542 68.7283 26.2674 68.3033 26.2962C67.8782 26.325 67.4677 26.4684 67.1122 26.7124L67.0444 26.6056Z" fill="#CCCCCC"/>
<path d="M80.3954 96.7557C80.1796 96.7557 79.9684 96.6904 79.7877 96.5677C79.607 96.4449 79.4645 96.2701 79.3777 96.0645L66.4865 62.926C66.4564 62.8541 66.4059 62.7935 66.3417 62.7524C66.2776 62.7113 66.2028 62.6917 66.1276 62.6961C66.0523 62.7005 65.9802 62.7287 65.9209 62.7771C65.8615 62.8254 65.8179 62.8915 65.7957 62.9665L55.2786 95.228C55.2342 95.3781 55.1607 95.5172 55.0627 95.6367C54.9647 95.7562 54.8443 95.8536 54.7088 95.9229C54.5733 95.9922 54.4256 96.0319 54.2748 96.0397C54.124 96.0474 53.9733 96.0229 53.8319 95.9678L50.3051 94.5918C50.1137 94.5178 49.9457 94.3901 49.8199 94.2227C49.6941 94.0553 49.6154 93.855 49.5925 93.6439C48.0059 79.2646 61.8417 42.9693 61.9817 42.6044L62.0204 42.5033L74.633 45.4059L74.6592 45.4356C79.6912 51.1466 83.8273 87.1673 84.6053 94.3302C84.6343 94.5889 84.5777 94.8502 84.4449 95.071C84.3121 95.2918 84.1109 95.4589 83.8745 95.5448L80.7615 96.6902C80.6439 96.7336 80.5202 96.7557 80.3954 96.7557Z" fill="#2F2E41"/>
<path d="M69.5282 46.5742C66.4724 46.5742 63.0656 45.9403 62.0169 43.3241L61.9928 43.264L62.0254 43.2083C62.8531 41.7954 63.9471 39.3851 63.3591 38.9327C62.2008 38.0417 61.6387 36.5759 61.6886 34.576C61.7969 30.2346 64.6403 26.38 68.7641 24.9845H68.7641C69.9152 24.6012 71.0865 24.2875 72.2723 24.0447C73.1368 23.8633 74.0292 23.8832 74.8854 24.1032C75.7416 24.3232 76.5404 24.7377 77.2243 25.317C77.9168 25.9001 78.4766 26.6355 78.8634 27.4704C79.2503 28.3053 79.4546 29.219 79.4616 30.1458C79.5048 34.7854 78.8183 41.2474 75.3018 45.6838C75.137 45.8896 74.9076 46.0284 74.6541 46.0756C72.9623 46.394 71.2474 46.5608 69.5282 46.5742Z" fill="#CCCCCC"/>
<path d="M68.3919 46.4004C68.5582 45.7798 68.9532 45.2525 69.4911 44.9332C70.0289 44.6139 70.6662 44.5283 71.2644 44.6951C71.3865 44.7306 71.5056 44.7765 71.6205 44.8323L75.5527 41.1093L78.2874 43.0261L72.6641 48.203C72.4102 48.6793 72.0105 49.0536 71.5285 49.2663C71.0466 49.4789 70.5101 49.5178 70.0044 49.3767C69.7099 49.2929 69.4342 49.1491 69.1934 48.9537C68.9526 48.7583 68.7514 48.5152 68.6015 48.2385C68.4515 47.9617 68.3558 47.6568 68.3198 47.3413C68.2838 47.0258 68.3083 46.706 68.3919 46.4004Z" fill="#FFB8B8"/>
<path d="M74.9295 46.4477C74.6743 46.4479 74.427 46.3561 74.2296 46.1879L72.6789 44.8696C72.5496 44.7597 72.4459 44.6208 72.3756 44.4633C72.3052 44.3058 72.27 44.1338 72.2726 43.9602C72.2752 43.7865 72.3155 43.6157 72.3905 43.4606C72.4655 43.3054 72.5733 43.1699 72.7057 43.0642L79.2095 37.8748C79.2866 37.8129 79.3372 37.722 79.3502 37.6216C79.3633 37.5213 79.3378 37.4196 79.2792 37.3387L75.265 31.8175C74.7986 31.1782 74.5647 30.3878 74.6046 29.5863C74.6446 28.7848 74.9558 28.0238 75.4833 27.4381C76.0388 26.8139 76.7995 26.4298 77.6145 26.362C78.4295 26.2942 79.2393 26.5476 79.8831 27.072L79.9085 27.0998L84.1002 33.3443C84.5535 33.714 84.9185 34.1877 85.1667 34.7285C85.4149 35.2693 85.5396 35.8624 85.531 36.4616C85.5224 37.0608 85.3808 37.6497 85.1173 38.1826C84.8537 38.7154 84.4753 39.1777 84.0117 39.5332L75.5884 46.2219C75.3976 46.3686 75.1667 46.4477 74.9295 46.4477Z" fill="#CCCCCC"/>
<path d="M66.4033 14.5944V11.476L71.7545 9.04506L76.8569 11.476V14.5944C76.8569 14.7301 76.8051 14.8603 76.7129 14.9563C76.6206 15.0523 76.4955 15.1062 76.365 15.1062H66.8953C66.7648 15.1062 66.6397 15.0523 66.5474 14.9563C66.4551 14.8603 66.4033 14.7301 66.4033 14.5944Z" fill="#2F2E41"/>
<path d="M71.5084 7.13935C70.7216 4.51938 72.3741 1.51676 74.8169 0.479709C77.2598 -0.557345 80.1823 0.167588 82.2436 1.88096C84.3049 3.59433 85.5837 6.16063 86.2614 8.81342C86.939 11.4662 87.0676 14.2324 87.1927 16.9742C90.1941 17.5478 92.2358 21.2513 91.196 24.2361C90.1563 27.2208 86.308 28.7037 83.6503 27.1436C80.9926 25.5836 80.2228 21.3899 82.1409 18.9208C83.0485 17.7525 83.5555 16.3025 83.5816 14.8005C83.6077 13.2986 83.1514 11.8305 82.2849 10.6288C81.4185 9.42714 80.1914 8.56055 78.7981 8.1663C77.4048 7.77205 75.9249 7.87268 74.5927 8.45225C73.1135 9.0958 71.2575 7.42371 71.5084 7.13935Z" fill="#2F2E41"/>
<path d="M37.7844 25.8665C34.1909 25.842 30.6424 25.0334 27.3681 23.4931C27.1732 23.4027 27.0077 23.2553 26.8919 23.0689C26.7761 22.8824 26.7149 22.6649 26.7158 22.4429V13.1238C26.7162 12.8185 26.8329 12.5258 27.0404 12.3099C27.2479 12.094 27.5292 11.9726 27.8227 11.9723H47.7461C48.0395 11.9726 48.3209 12.094 48.5284 12.3099C48.7359 12.5258 48.8526 12.8185 48.8529 13.1238V22.4429C48.8538 22.6649 48.7926 22.8824 48.6768 23.0689C48.561 23.2553 48.3956 23.4027 48.2007 23.4931C44.9263 25.0334 41.3778 25.842 37.7844 25.8665Z" fill="#BF85EA"/>
<path d="M37.7817 18.3168C37.634 18.317 37.4877 18.2864 37.3515 18.2269L21.5526 11.2923C21.3488 11.2028 21.1755 11.052 21.0549 10.8591C20.9344 10.6663 20.8721 10.4403 20.8762 10.2103C20.8802 9.98025 20.9504 9.75677 21.0777 9.56864C21.2049 9.38051 21.3835 9.23636 21.5902 9.15477L37.3894 2.91922C37.6439 2.81832 37.9252 2.81894 38.1793 2.92097L53.7668 9.1565C53.9724 9.23876 54.1497 9.38294 54.276 9.57062C54.4024 9.7583 54.4721 9.98093 54.4762 10.21C54.4802 10.4391 54.4185 10.6643 54.2989 10.8567C54.1793 11.0491 54.0072 11.2 53.8047 11.2901L38.217 18.2246C38.0794 18.2856 37.9313 18.317 37.7817 18.3168Z" fill="#BF85EA"/>
<path d="M28.5598 24.1272C29.3749 24.1272 30.0356 23.4398 30.0356 22.5918C30.0356 21.7439 29.3749 21.0565 28.5598 21.0565C27.7447 21.0565 27.084 21.7439 27.084 22.5918C27.084 23.4398 27.7447 24.1272 28.5598 24.1272Z" fill="#3F3D56"/>
<path opacity="0.2" d="M53.8584 10.3058L38.2707 17.2403C38.1492 17.2944 38.0185 17.3224 37.8863 17.3228C37.7541 17.3231 37.6232 17.2957 37.5015 17.2423L21.7025 10.3078C21.5041 10.2228 21.3386 10.0715 21.2321 9.87766C21.1624 10.0033 21.1192 10.143 21.1054 10.2874C21.0916 10.4317 21.1075 10.5775 21.152 10.715C21.1965 10.8525 21.2686 10.9785 21.3635 11.0848C21.4584 11.1911 21.574 11.2752 21.7025 11.3314L37.5015 18.2658C37.6232 18.3193 37.7541 18.3467 37.8863 18.3463C38.0185 18.346 38.1492 18.318 38.2707 18.2639L53.8584 11.3294C53.9863 11.2726 54.1012 11.1883 54.1954 11.082C54.2897 10.9757 54.3612 10.8497 54.4053 10.7125C54.4493 10.5753 54.4649 10.43 54.4509 10.2861C54.437 10.1422 54.3939 10.003 54.3244 9.87765C54.2187 10.0699 54.0549 10.2204 53.8584 10.3058Z" fill="black"/>
<path d="M28.6844 22.5858C28.7497 22.5858 28.8122 22.5589 28.8584 22.5109C28.9045 22.4629 28.9304 22.3978 28.9304 22.3299V13.7674L37.0427 10.6928C37.108 10.6938 37.1709 10.6678 37.2177 10.6205C37.2645 10.5732 37.2914 10.5085 37.2924 10.4407C37.2933 10.3728 37.2684 10.3073 37.2229 10.2586C37.1775 10.2099 37.1153 10.182 37.0501 10.181L28.9377 13.2556C28.8725 13.254 28.8076 13.2663 28.747 13.2916C28.6864 13.3169 28.6313 13.3547 28.5852 13.4028C28.5386 13.4503 28.5016 13.507 28.4764 13.5696C28.4512 13.6322 28.4383 13.6995 28.4385 13.7674V22.3299C28.4385 22.3978 28.4644 22.4629 28.5105 22.5109C28.5567 22.5589 28.6192 22.5858 28.6844 22.5858Z" fill="#3F3D56"/>
</svg>
