<svg width="156" height="140" viewBox="0 0 156 140" fill="none" xmlns="http://www.w3.org/2000/svg">
<g clip-path="url(#clip0_869_6753)">
<g clip-path="url(#clip1_869_6753)">
<path d="M154.611 53.5388C154.555 53.5389 154.501 53.5217 154.455 53.4898L78.7853 0.791307C78.5551 0.631682 78.2814 0.546376 78.0012 0.546854C77.721 0.547331 77.4477 0.63357 77.218 0.793979L2.09341 53.4893C2.03399 53.5309 1.96045 53.5473 1.88896 53.5348C1.81747 53.5222 1.75389 53.4818 1.71222 53.4224C1.67054 53.3629 1.65417 53.2894 1.66672 53.2179C1.67926 53.1464 1.7197 53.0828 1.77912 53.0412L76.9037 0.345887C77.2254 0.121348 77.6081 0.000647261 78.0004 2.59591e-06C78.3926 -0.000642069 78.7757 0.118799 79.0981 0.34228L154.768 53.0406C154.816 53.0739 154.851 53.1216 154.87 53.1768C154.889 53.2319 154.89 53.2916 154.872 53.3472C154.855 53.4028 154.82 53.4514 154.773 53.4858C154.726 53.5203 154.669 53.5388 154.611 53.5388L154.611 53.5388Z" fill="#3F3D56"/>
<path d="M6.38623 55.4069L78.0757 2.27625L150.309 59.1874L81.7694 99.8187L44.5583 91.3367L6.38623 55.4069Z" fill="#E6E6E6"/>
<path d="M47.6996 124.915H12.2832C12.0658 124.915 11.8504 124.873 11.6494 124.79C11.4484 124.706 11.2657 124.585 11.1118 124.431C10.958 124.277 10.8359 124.095 10.7526 123.894C10.6693 123.693 10.6265 123.478 10.6265 123.26C10.6265 123.043 10.6693 122.827 10.7526 122.627C10.8359 122.426 10.958 122.243 11.1118 122.089C11.2657 121.936 11.4484 121.814 11.6494 121.731C11.8504 121.648 12.0658 121.605 12.2832 121.606H47.6996C47.917 121.605 48.1324 121.648 48.3334 121.731C48.5344 121.814 48.717 121.936 48.8709 122.089C49.0248 122.243 49.1469 122.426 49.2302 122.627C49.3134 122.827 49.3563 123.043 49.3563 123.26C49.3563 123.478 49.3134 123.693 49.2302 123.894C49.1469 124.095 49.0248 124.277 48.8709 124.431C48.717 124.585 48.5344 124.706 48.3334 124.79C48.1324 124.873 47.917 124.915 47.6996 124.915Z" fill="#24BAD4"/>
<path d="M24.9898 117.801H12.2832C12.0658 117.801 11.8504 117.759 11.6494 117.676C11.4484 117.593 11.2657 117.471 11.1118 117.317C10.958 117.163 10.8359 116.981 10.7526 116.78C10.6693 116.579 10.6265 116.364 10.6265 116.146C10.6265 115.929 10.6693 115.714 10.7526 115.513C10.8359 115.312 10.958 115.129 11.1118 114.976C11.2657 114.822 11.4484 114.7 11.6494 114.617C11.8504 114.534 12.0658 114.491 12.2832 114.492H24.9898C25.2073 114.491 25.4227 114.534 25.6237 114.617C25.8247 114.7 26.0073 114.822 26.1612 114.976C26.3151 115.129 26.4371 115.312 26.5204 115.513C26.6037 115.714 26.6466 115.929 26.6466 116.146C26.6466 116.364 26.6037 116.579 26.5204 116.78C26.4371 116.981 26.3151 117.163 26.1612 117.317C26.0073 117.471 25.8247 117.593 25.6237 117.676C25.4227 117.759 25.2073 117.801 24.9898 117.801Z" fill="#24BAD4"/>
<path d="M79.0835 85C78.8144 85.0003 78.5477 84.9481 78.2985 84.8462L34.0854 66.5009V9.07702C34.086 8.56924 34.288 8.08243 34.6471 7.72337C35.0061 7.36431 35.4929 7.16233 36.0007 7.16174H120.82C121.328 7.16234 121.815 7.36431 122.174 7.72337C122.533 8.08243 122.735 8.56924 122.735 9.07702V66.541L122.652 66.5765L79.8923 84.8373C79.6363 84.9449 79.3613 85.0002 79.0835 85Z" fill="white"/>
<path d="M79.0836 85.1367C78.7966 85.137 78.5122 85.0813 78.2465 84.9729L33.9487 66.5923V9.07699C33.9493 8.53293 34.1657 8.01133 34.5505 7.62663C34.9352 7.24192 35.4568 7.02552 36.0008 7.0249H120.82C121.364 7.02552 121.886 7.24192 122.271 7.62663C122.655 8.01133 122.872 8.53293 122.872 9.07699V66.6313L79.9461 84.963C79.6731 85.0779 79.3798 85.1369 79.0836 85.1367ZM34.4959 66.2267L78.4552 84.4669C78.8652 84.6333 79.3244 84.6305 79.7324 84.4593L122.325 66.27V9.07699C122.325 8.67802 122.166 8.29553 121.884 8.01341C121.602 7.7313 121.219 7.5726 120.82 7.57212H36.0008C35.6019 7.5726 35.2194 7.7313 34.9372 8.01341C34.6551 8.29553 34.4964 8.67802 34.496 9.07699L34.4959 66.2267Z" fill="#3F3D56"/>
<path d="M154.064 52.9916H154.009L122.599 66.404L79.6228 84.7551C79.4548 84.8258 79.2746 84.8626 79.0925 84.8635C78.9103 84.8645 78.7297 84.8295 78.5611 84.7606L34.2224 66.3657L2.04022 53.0135L1.99105 52.9916H1.93628C1.42848 52.9921 0.941651 53.1941 0.582589 53.5532C0.223526 53.9122 0.0215595 54.3991 0.0209961 54.9069V138.085C0.0215603 138.592 0.223527 139.079 0.582589 139.438C0.941651 139.797 1.42848 139.999 1.93628 140H154.064C154.572 139.999 155.059 139.797 155.418 139.438C155.777 139.079 155.979 138.592 155.979 138.085V54.9069C155.979 54.3991 155.777 53.9122 155.418 53.5532C155.059 53.1941 154.572 52.9921 154.064 52.9916ZM155.432 138.085C155.432 138.447 155.288 138.795 155.031 139.052C154.775 139.308 154.427 139.453 154.064 139.453H1.93628C1.57349 139.453 1.2256 139.308 0.969075 139.052C0.712546 138.795 0.568364 138.447 0.568219 138.085V54.9069C0.568715 54.5531 0.705944 54.2132 0.951214 53.9582C1.19648 53.7033 1.53081 53.553 1.8843 53.5388L34.2224 66.9567L78.3505 85.2668C78.8282 85.4611 79.3634 85.4582 79.8389 85.2585L122.599 66.9977L154.119 53.5388C154.472 53.554 154.805 53.7047 155.05 53.9595C155.294 54.2144 155.431 54.5536 155.432 54.9069V138.085Z" fill="#3F3D56"/>
<path d="M78.6419 68.7167C77.0096 68.7197 75.4207 68.1919 74.1147 67.2129L74.0338 67.1521L56.9848 54.0988C56.1952 53.4938 55.5325 52.7392 55.0346 51.8782C54.5366 51.0171 54.2131 50.0663 54.0826 49.0803C53.9521 48.0942 54.017 47.092 54.2738 46.131C54.5306 45.17 54.9741 44.269 55.5791 43.4795C56.184 42.6899 56.9386 42.0272 57.7997 41.5293C58.6608 41.0313 59.6115 40.7078 60.5976 40.5773C61.5837 40.4468 62.5858 40.5117 63.5468 40.7685C64.5078 41.0253 65.4088 41.4688 66.1984 42.0738L77.2414 50.5414L103.338 16.5078C103.943 15.7184 104.698 15.056 105.559 14.5584C106.42 14.0607 107.371 13.7376 108.357 13.6074C109.344 13.4772 110.346 13.5425 111.307 13.7997C112.267 14.0568 113.168 14.5007 113.958 15.106L113.795 15.3263L113.962 15.1092C115.554 16.3329 116.596 18.1383 116.859 20.1292C117.122 22.1201 116.584 24.134 115.364 25.729L84.668 65.7607C83.9581 66.6831 83.0451 67.4296 82.0001 67.9423C80.955 68.4549 79.8059 68.7199 78.6419 68.7167Z" fill="#24BAD4"/>
</g>
</g>
<defs>
<clipPath id="clip0_869_6753">
<rect width="155.958" height="140" fill="white" transform="translate(0.0209961)"/>
</clipPath>
<clipPath id="clip1_869_6753">
<rect width="155.958" height="140" fill="white" transform="translate(0.0209961)"/>
</clipPath>
</defs>
</svg>
