<svg width="247" height="240" viewBox="0 0 247 240" fill="none" xmlns="http://www.w3.org/2000/svg">
<g clip-path="url(#clip0_442_20026)">
<path d="M156.632 53.9752H90.423C88.9142 53.9771 87.4678 54.5776 86.4009 55.6452C85.334 56.7127 84.7338 58.1601 84.732 59.6699V206.914L83.9732 207.146L67.731 212.123C66.9612 212.358 66.1298 212.277 65.4192 211.899C64.7086 211.521 64.1769 210.877 63.9409 210.107L15.6278 52.1947C15.3926 51.4244 15.4728 50.5923 15.8505 49.8811C16.2283 49.1699 16.8728 48.638 17.6424 48.4021L42.6716 40.7333L115.232 18.509L140.261 10.8402C140.642 10.7229 141.042 10.6819 141.439 10.7196C141.836 10.7573 142.221 10.8729 142.573 11.0598C142.925 11.2467 143.237 11.5012 143.491 11.8088C143.744 12.1164 143.935 12.471 144.051 12.8523L156.401 53.2159L156.632 53.9752Z" fill="#D9D9D9"/>
<path d="M171.08 53.2164L156.196 4.569C155.949 3.75845 155.544 3.00466 155.005 2.35072C154.466 1.69677 153.804 1.15549 153.056 0.7578C152.308 0.360109 151.489 0.113798 150.646 0.032954C149.802 -0.0478904 148.952 0.0383152 148.142 0.286636L112.952 11.0647L40.3955 33.2928L5.20603 44.0746C3.57132 44.5769 2.20254 45.7077 1.40016 47.2187C0.59778 48.7298 0.427343 50.4977 0.926268 52.1344L51.7965 218.391C52.2018 219.712 53.0196 220.869 54.1299 221.691C55.2402 222.513 56.5845 222.957 57.9656 222.958C58.6049 222.959 59.2405 222.863 59.8512 222.674L83.9735 215.286L84.7323 215.05V214.257L83.9735 214.488L59.6274 221.948C58.1844 222.389 56.6259 222.238 55.2938 221.53C53.9616 220.822 52.9645 219.614 52.5212 218.171L1.65487 51.9104C1.43524 51.1955 1.35869 50.4443 1.42961 49.6997C1.50052 48.9552 1.71752 48.232 2.06817 47.5715C2.41882 46.9109 2.89624 46.3261 3.47308 45.8505C4.04992 45.3749 4.71485 45.0178 5.42981 44.7997L40.6193 34.0179L113.176 11.7936L148.366 1.01176C148.908 0.84616 149.472 0.761723 150.039 0.761195C151.256 0.763929 152.439 1.15646 153.417 1.8813C154.395 2.60614 155.115 3.62519 155.472 4.7892L170.287 53.2164L170.523 53.9757H171.312L171.08 53.2164Z" fill="#D9D9D9"/>
<path d="M47.1882 48.5262C46.457 48.5257 45.7451 48.2907 45.1571 47.8557C44.5691 47.4207 44.1359 46.8085 43.9211 46.1091L39.0342 30.1369C38.9029 29.7078 38.8573 29.2571 38.9001 28.8105C38.9429 28.3638 39.0732 27.9299 39.2836 27.5337C39.494 27.1374 39.7803 26.7865 40.1262 26.501C40.4722 26.2155 40.8709 26.0009 41.2997 25.8696L108.051 5.42064C108.917 5.15624 109.853 5.24641 110.652 5.67138C111.452 6.09635 112.05 6.8214 112.316 7.68738L117.203 23.6598C117.467 24.5263 117.377 25.4622 116.952 26.2622C116.527 27.0623 115.803 27.661 114.938 27.9272L48.1858 48.3762C47.8626 48.4755 47.5264 48.526 47.1882 48.5262Z" fill="#912CDB"/>
<path d="M72.7874 17.0667C76.9781 17.0667 80.3754 13.6672 80.3754 9.47383C80.3754 5.28042 76.9781 1.88098 72.7874 1.88098C68.5966 1.88098 65.1993 5.28042 65.1993 9.47383C65.1993 13.6672 68.5966 17.0667 72.7874 17.0667Z" fill="#5B188B"/>
<path d="M72.7874 14.2818C75.4411 14.2818 77.5924 12.1292 77.5924 9.4738C77.5924 6.8184 75.4411 4.66577 72.7874 4.66577C70.1337 4.66577 67.9824 6.8184 67.9824 9.4738C67.9824 12.1292 70.1337 14.2818 72.7874 14.2818Z" fill="#CCCCCC"/>
<path d="M229.284 221.018H101.046C100.191 221.017 99.3717 220.677 98.7671 220.072C98.1625 219.467 97.8225 218.646 97.8215 217.791V64.0357C97.8224 63.1801 98.1625 62.3599 98.7671 61.7549C99.3717 61.15 100.191 60.8097 101.046 60.8087H229.284C230.139 60.8097 230.959 61.15 231.563 61.755C232.168 62.3599 232.508 63.1801 232.509 64.0357V217.791C232.508 218.646 232.168 219.467 231.563 220.072C230.959 220.677 230.139 221.017 229.284 221.018Z" fill="#D9D9D9"/>
<path d="M170.287 53.2159H90.4231C88.7132 53.2184 87.0741 53.8991 85.865 55.1089C84.656 56.3187 83.9757 57.9589 83.9732 59.6699V214.488L84.732 214.256V59.6699C84.7339 58.1601 85.3341 56.7127 86.4009 55.6452C87.4678 54.5776 88.9143 53.9771 90.4231 53.9752H170.522L170.287 53.2159ZM239.907 53.2159H90.4231C88.7132 53.2184 87.0741 53.8991 85.865 55.1089C84.656 56.3187 83.9757 57.9589 83.9732 59.6699V233.546C83.9757 235.257 84.656 236.897 85.865 238.107C87.0741 239.317 88.7132 239.998 90.4231 240H239.907C241.617 239.998 243.256 239.317 244.465 238.107C245.674 236.897 246.355 235.257 246.357 233.546V59.6699C246.355 57.9589 245.674 56.3187 244.465 55.1089C243.256 53.8991 241.617 53.2184 239.907 53.2159ZM245.598 233.546C245.597 235.056 244.996 236.503 243.929 237.571C242.863 238.638 241.416 239.239 239.907 239.241H90.4231C88.9143 239.239 87.4678 238.638 86.4009 237.571C85.3341 236.503 84.7339 235.056 84.732 233.546V59.6699C84.7339 58.1601 85.3341 56.7127 86.4009 55.6452C87.4678 54.5776 88.9143 53.9771 90.4231 53.9752H239.907C241.416 53.9771 242.863 54.5776 243.929 55.6452C244.996 56.7127 245.597 58.1601 245.598 59.6699V233.546Z" fill="#D9D9D9"/>
<path d="M200.07 69.9202H130.26C129.355 69.9191 128.487 69.5588 127.847 68.9183C127.207 68.2777 126.847 67.4093 126.846 66.5034V49.7991C126.847 48.8932 127.207 48.0248 127.847 47.3842C128.487 46.7437 129.355 46.3833 130.26 46.3823H200.07C200.976 46.3833 201.843 46.7437 202.484 47.3842C203.124 48.0248 203.484 48.8932 203.485 49.7991V66.5034C203.484 67.4093 203.124 68.2777 202.484 68.9183C201.843 69.5588 200.976 69.9191 200.07 69.9202Z" fill="#912CDB"/>
<path d="M165.165 47.5213C169.356 47.5213 172.753 44.1218 172.753 39.9284C172.753 35.735 169.356 32.3356 165.165 32.3356C160.974 32.3356 157.577 35.735 157.577 39.9284C157.577 44.1218 160.974 47.5213 165.165 47.5213Z" fill="#5B188B"/>
<path d="M165.165 44.5532C167.718 44.5532 169.787 42.4826 169.787 39.9285C169.787 37.3743 167.718 35.3037 165.165 35.3037C162.613 35.3037 160.543 37.3743 160.543 39.9285C160.543 42.4826 162.613 44.5532 165.165 44.5532Z" fill="#CCCCCC"/>
</g>
<defs>
<clipPath id="clip0_442_20026">
<rect width="245.714" height="240" fill="white" transform="translate(0.64286)"/>
</clipPath>
</defs>
</svg>
