<svg width="247" height="240" viewBox="0 0 247 240" fill="none" xmlns="http://www.w3.org/2000/svg">
<g clip-path="url(#clip0_1777_47717)">
<path d="M156.632 53.9752H90.423C88.9142 53.9771 87.4678 54.5776 86.4009 55.6452C85.334 56.7127 84.7338 58.1601 84.732 59.6699V206.914L83.9732 207.146L67.731 212.123C66.9612 212.358 66.1298 212.277 65.4192 211.899C64.7086 211.521 64.1769 210.877 63.9409 210.107L15.6277 52.1947C15.3926 51.4244 15.4728 50.5923 15.8505 49.8811C16.2283 49.1699 16.8728 48.638 17.6424 48.4021L42.6716 40.7333L115.232 18.509L140.261 10.8402C140.642 10.7229 141.042 10.6819 141.439 10.7196C141.836 10.7573 142.221 10.8729 142.573 11.0598C142.925 11.2467 143.237 11.5012 143.491 11.8088C143.744 12.1164 143.935 12.471 144.051 12.8523L156.401 53.2159L156.632 53.9752Z" fill="#8E7FF0"/>
<path d="M171.08 53.2163L156.196 4.56888C155.949 3.75832 155.544 3.00454 155.005 2.35059C154.466 1.69665 153.804 1.15537 153.056 0.757678C152.308 0.359987 151.489 0.113676 150.646 0.0328319C149.802 -0.0480124 148.952 0.0381932 148.142 0.286514L112.952 11.0646L40.3955 33.2926L5.20597 44.0745C3.57125 44.5768 2.20248 45.7075 1.4001 47.2186C0.597719 48.7297 0.427282 50.4976 0.926207 52.1343L51.7964 218.391C52.2017 219.712 53.0195 220.869 54.1298 221.691C55.2401 222.513 56.5844 222.957 57.9656 222.958C58.6048 222.958 59.2404 222.863 59.8511 222.673L83.9735 215.286L84.7323 215.05V214.257L83.9735 214.488L59.6273 221.948C58.1844 222.388 56.6259 222.238 55.2937 221.53C53.9615 220.822 52.9644 219.614 52.5211 218.171L1.65481 51.9103C1.43517 51.1954 1.35862 50.4442 1.42954 49.6996C1.50046 48.9551 1.71746 48.2318 2.06811 47.5713C2.41876 46.9108 2.89618 46.326 3.47302 45.8504C4.04986 45.3748 4.71479 45.0177 5.42975 44.7996L40.6193 34.0177L113.176 11.7935L148.366 1.01164C148.908 0.846038 149.472 0.761601 150.039 0.761073C151.255 0.763807 152.439 1.15634 153.417 1.88118C154.395 2.60602 155.115 3.62507 155.472 4.78908L170.287 53.2163L170.523 53.9756H171.312L171.08 53.2163Z" fill="#8E7FF0"/>
<path d="M47.1882 48.5259C46.4569 48.5254 45.7451 48.2904 45.1571 47.8554C44.5691 47.4204 44.1359 46.8083 43.921 46.1089L39.0342 30.1366C38.9029 29.7076 38.8573 29.2569 38.9001 28.8102C38.9429 28.3636 39.0732 27.9297 39.2836 27.5334C39.4939 27.1372 39.7803 26.7862 40.1262 26.5007C40.4721 26.2152 40.8709 26.0007 41.2997 25.8694L108.051 5.4204C108.917 5.15599 109.853 5.24617 110.652 5.67114C111.452 6.09611 112.05 6.82115 112.316 7.68713L117.203 23.6595C117.467 24.526 117.377 25.462 116.952 26.262C116.527 27.062 115.803 27.6608 114.938 27.927L48.1858 48.376C47.8625 48.4752 47.5263 48.5258 47.1882 48.5259Z" fill="#331ADB"/>
<path d="M72.7874 17.0666C76.9781 17.0666 80.3754 13.6671 80.3754 9.47371C80.3754 5.28029 76.9781 1.88086 72.7874 1.88086C68.5966 1.88086 65.1993 5.28029 65.1993 9.47371C65.1993 13.6671 68.5966 17.0666 72.7874 17.0666Z" fill="#8E7FF0"/>
<path d="M72.7874 14.2821C75.4411 14.2821 77.5924 12.1294 77.5924 9.47404C77.5924 6.81864 75.4411 4.66602 72.7874 4.66602C70.1337 4.66602 67.9824 6.81864 67.9824 9.47404C67.9824 12.1294 70.1337 14.2821 72.7874 14.2821Z" fill="#F2F4F5"/>
<path d="M229.284 221.018H101.046C100.191 221.017 99.3716 220.676 98.767 220.071C98.1625 219.467 97.8224 218.646 97.8214 217.791V64.0356C97.8224 63.18 98.1624 62.3598 98.767 61.7548C99.3716 61.1498 100.191 60.8095 101.046 60.8086H229.284C230.139 60.8096 230.959 61.1499 231.563 61.7548C232.168 62.3598 232.508 63.18 232.509 64.0356V217.791C232.508 218.646 232.168 219.467 231.563 220.071C230.959 220.676 230.139 221.017 229.284 221.018Z" fill="#8E7FF0"/>
<path d="M170.287 53.2158H90.423C88.7132 53.2182 87.074 53.899 85.865 55.1088C84.6559 56.3186 83.9756 57.9588 83.9732 59.6697V214.488L84.732 214.256V59.6697C84.7338 58.16 85.334 56.7126 86.4009 55.6451C87.4678 54.5775 88.9142 53.9769 90.423 53.9751H170.522L170.287 53.2158ZM239.907 53.2158H90.423C88.7132 53.2182 87.074 53.899 85.865 55.1088C84.6559 56.3186 83.9756 57.9588 83.9732 59.6697V233.546C83.9756 235.257 84.6559 236.897 85.865 238.107C87.074 239.317 88.7132 239.997 90.423 240H239.907C241.617 239.997 243.256 239.317 244.465 238.107C245.674 236.897 246.355 235.257 246.357 233.546V59.6697C246.355 57.9588 245.674 56.3186 244.465 55.1088C243.256 53.899 241.617 53.2182 239.907 53.2158ZM245.598 233.546C245.596 235.056 244.996 236.503 243.929 237.571C242.863 238.638 241.416 239.239 239.907 239.241H90.423C88.9142 239.239 87.4678 238.638 86.4009 237.571C85.334 236.503 84.7338 235.056 84.732 233.546V59.6697C84.7338 58.16 85.334 56.7126 86.4009 55.6451C87.4678 54.5775 88.9142 53.9769 90.423 53.9751H239.907C241.416 53.9769 242.863 54.5775 243.929 55.6451C244.996 56.7126 245.596 58.16 245.598 59.6697V233.546Z" fill="#8E7FF0"/>
<path d="M200.07 69.9202H130.26C129.355 69.9191 128.487 69.5588 127.847 68.9183C127.207 68.2777 126.847 67.4093 126.846 66.5034V49.7991C126.847 48.8932 127.207 48.0248 127.847 47.3842C128.487 46.7437 129.355 46.3833 130.26 46.3823H200.07C200.976 46.3833 201.843 46.7437 202.484 47.3842C203.124 48.0248 203.484 48.8932 203.485 49.7991V66.5034C203.484 67.4093 203.124 68.2777 202.484 68.9183C201.843 69.5588 200.976 69.9191 200.07 69.9202Z" fill="#331ADB"/>
<path d="M165.165 47.5211C169.356 47.5211 172.753 44.1217 172.753 39.9283C172.753 35.7349 169.356 32.3354 165.165 32.3354C160.974 32.3354 157.577 35.7349 157.577 39.9283C157.577 44.1217 160.974 47.5211 165.165 47.5211Z" fill="#8E7FF0"/>
<path d="M165.165 44.5532C167.718 44.5532 169.787 42.4826 169.787 39.9285C169.787 37.3743 167.718 35.3037 165.165 35.3037C162.613 35.3037 160.543 37.3743 160.543 39.9285C160.543 42.4826 162.613 44.5532 165.165 44.5532Z" fill="#F2F4F5"/>
<rect x="125.861" y="99.6525" width="82.2143" height="78.5" rx="15.25" transform="rotate(3 125.861 99.6525)" fill="#F7F9FA" stroke="#331ADB" stroke-width="1.5" stroke-linecap="round" stroke-linejoin="round" stroke-dasharray="8 8"/>
<g filter="url(#filter0_d_1777_47717)">
<path d="M149.163 139.978C149.625 131.154 157.154 124.375 165.978 124.837V124.837C174.803 125.3 181.581 132.828 181.119 141.653V141.653C180.656 150.477 173.128 157.256 164.303 156.794V156.794C155.479 156.331 148.7 148.803 149.163 139.978V139.978Z" fill="white"/>
<path d="M157.152 140.397L173.13 141.234" stroke="#5B44E9" stroke-width="2" stroke-linecap="round" stroke-linejoin="round"/>
<path d="M164.722 148.804L165.559 132.826" stroke="#5B44E9" stroke-width="2" stroke-linecap="round" stroke-linejoin="round"/>
</g>
</g>
<defs>
<filter id="filter0_d_1777_47717" x="133.325" y="117" width="63.6309" height="63.6309" filterUnits="userSpaceOnUse" color-interpolation-filters="sRGB">
<feFlood flood-opacity="0" result="BackgroundImageFix"/>
<feColorMatrix in="SourceAlpha" type="matrix" values="0 0 0 0 0 0 0 0 0 0 0 0 0 0 0 0 0 0 127 0" result="hardAlpha"/>
<feOffset dy="8"/>
<feGaussianBlur stdDeviation="7.5"/>
<feComposite in2="hardAlpha" operator="out"/>
<feColorMatrix type="matrix" values="0 0 0 0 0 0 0 0 0 0 0 0 0 0 0 0 0 0 0.15 0"/>
<feBlend mode="normal" in2="BackgroundImageFix" result="effect1_dropShadow_1777_47717"/>
<feBlend mode="normal" in="SourceGraphic" in2="effect1_dropShadow_1777_47717" result="shape"/>
</filter>
<clipPath id="clip0_1777_47717">
<rect width="245.714" height="240" fill="white" transform="translate(0.642822)"/>
</clipPath>
</defs>
</svg>
