<svg width="293" height="80" viewBox="0 0 293 80" fill="none" xmlns="http://www.w3.org/2000/svg">
<path fill-rule="evenodd" clip-rule="evenodd" d="M31.6643 17.5094C42.8302 13.7094 54.5501 17.8362 57.8388 26.7291C61.1275 35.622 54.7419 45.9143 43.576 49.7144C32.4101 53.5145 20.6902 49.3876 17.4015 40.4947C14.1128 31.6018 20.4984 21.3095 31.6643 17.5094Z" fill="#5B44E9"/>
<path fill-rule="evenodd" clip-rule="evenodd" d="M31.4513 52.0797C38.3056 51.5328 44.1372 54.5018 44.4781 58.7139C44.812 62.9259 39.5274 66.7829 32.673 67.3298C25.8186 67.8767 19.987 64.9076 19.6461 60.6956C19.3052 56.4835 24.5898 52.6266 31.4513 52.0797Z" fill="#5B44E9"/>
<path fill-rule="evenodd" clip-rule="evenodd" d="M56.9508 42.2136C63.3861 38.1152 70.7875 38.2644 73.4795 42.5475C76.1786 46.8306 73.1456 53.621 66.7103 57.7195C60.275 61.8179 52.8737 61.6687 50.1817 57.3856C47.4896 53.1025 50.5226 46.3121 56.9508 42.2136Z" fill="#5B44E9"/>
<path fill-rule="evenodd" clip-rule="evenodd" d="M43.8176 68.104C49.0454 67.3085 53.712 69.2831 54.2377 72.522C54.7633 75.761 50.949 79.0284 45.7212 79.8239C40.4934 80.6194 35.8267 78.6448 35.3011 75.4058C34.7755 72.1669 38.5898 68.8995 43.8176 68.104Z" fill="#5B44E9"/>
<path fill-rule="evenodd" clip-rule="evenodd" d="M62.2143 29.3004C58.7054 24.2076 59.3092 18.2837 63.5639 16.0676C67.8185 13.8514 74.1189 16.1812 77.6277 21.2811C81.1366 26.374 80.5329 32.2978 76.2782 34.514C72.0235 36.723 65.7302 34.3933 62.2143 29.3004Z" fill="#5B44E9"/>
<path fill-rule="evenodd" clip-rule="evenodd" d="M5.6176 48.862C4.48822 44.4866 6.38474 40.58 9.8581 40.1254C13.3315 39.6708 17.0676 42.8529 18.197 47.2212C19.3264 51.5967 17.4298 55.5033 13.9565 55.9579C10.4831 56.4125 6.75407 53.2375 5.6176 48.862Z" fill="#5B44E9"/>
<path fill-rule="evenodd" clip-rule="evenodd" d="M4.09058 62.9828C3.34477 60.099 4.5949 57.5206 6.88916 57.2223C9.18342 56.9239 11.6411 59.0193 12.394 61.9031C13.1398 64.7869 11.8897 67.3653 9.59539 67.6636C7.30113 67.962 4.8364 65.8666 4.09058 62.9828Z" fill="#5B44E9"/>
<path fill-rule="evenodd" clip-rule="evenodd" d="M9.49592 25.1878C11.7405 21.8068 15.2635 20.1802 17.3731 21.551C19.4827 22.9219 19.3691 26.7718 17.1316 30.1457C14.8871 33.5267 11.364 35.1533 9.2544 33.7824C7.14481 32.4115 7.25138 28.5617 9.49592 25.1878Z" fill="#5B44E9"/>
<path fill-rule="evenodd" clip-rule="evenodd" d="M26.5004 9.48306C30.3076 7.38058 34.5552 7.40899 35.99 9.54699C37.4177 11.685 35.4857 15.1228 31.6785 17.2253C27.8713 19.3278 23.6237 19.2994 22.1889 17.1614C20.7612 15.0234 22.6932 11.5855 26.5004 9.48306Z" fill="#5B44E9"/>
<path fill-rule="evenodd" clip-rule="evenodd" d="M52.0996 6.24411C57.7961 5.86055 62.818 7.60788 63.3081 10.1436C63.8053 12.6794 59.5861 15.0376 53.8895 15.4212C48.1929 15.8047 43.1711 14.0574 42.681 11.5216C42.1838 8.98586 46.3959 6.62767 52.0996 6.24411Z" fill="#5B44E9"/>
<path fill-rule="evenodd" clip-rule="evenodd" d="M81.9819 42.8742C85.9808 39.9833 91.1589 40.3029 93.5526 43.5845C95.9463 46.8661 94.6465 51.8665 90.6475 54.7503C86.6485 57.6413 81.4705 57.3216 79.0768 54.04C76.6831 50.7656 77.9829 45.7651 81.9819 42.8742Z" fill="#5B44E9"/>
<path fill-rule="evenodd" clip-rule="evenodd" d="M75.6033 4.13452C78.6505 5.21417 80.5328 7.95592 79.8012 10.2573C79.0696 12.5658 76.0082 13.5602 72.961 12.4805C69.9138 11.4009 68.0315 8.65912 68.7631 6.35775C69.4947 4.04928 72.5561 3.05486 75.6033 4.13452Z" fill="#5B44E9"/>
<path fill-rule="evenodd" clip-rule="evenodd" d="M41.3456 0.540417C43.86 -0.340353 46.4598 -0.120166 47.1559 1.02341C47.852 2.16699 46.3816 3.80068 43.8672 4.68145C41.3527 5.55511 38.753 5.34203 38.0569 4.19845C37.368 3.05487 38.8382 1.42119 41.3456 0.540417Z" fill="#5B44E9"/>
<path fill-rule="evenodd" clip-rule="evenodd" d="M13.4949 15.4141C15.3559 13.5744 17.6928 12.4308 18.7085 12.857C19.7313 13.2832 19.0495 15.1228 17.1885 16.9625C15.3275 18.8022 12.9906 19.9458 11.9749 19.5196C10.9521 19.0934 11.634 17.2537 13.4949 15.4141Z" fill="#5B44E9"/>
<path fill-rule="evenodd" clip-rule="evenodd" d="M0.247799 36.9645C0.844449 34.5495 2.329 32.5607 3.55781 32.518C4.79373 32.4754 5.30514 34.4004 4.70849 36.8083C4.11184 39.2233 2.62729 41.2121 1.39848 41.2547C0.169662 41.3044 -0.348852 39.3795 0.247799 36.9645Z" fill="#5B44E9"/>
<path d="M124.371 73.3591C121.442 73.3591 118.695 72.7987 116.128 71.678C113.597 70.5573 111.356 69.0027 109.404 67.0144C107.488 64.9898 105.987 62.6761 104.903 60.0731C103.818 57.434 103.276 54.6141 103.276 51.6135C103.276 48.649 103.8 45.8653 104.849 43.2623C105.933 40.6232 107.433 38.3094 109.349 36.3211C111.302 34.3327 113.543 32.7781 116.074 31.6574C118.641 30.5006 121.406 29.9221 124.371 29.9221C126.974 29.9221 129.342 30.3017 131.475 31.0609C133.608 31.8201 135.668 33.0312 137.657 34.6942C137.982 34.9473 138.163 35.2546 138.199 35.6161C138.271 35.9415 138.235 36.2668 138.091 36.5922C137.946 36.8814 137.729 37.0983 137.44 37.243C137.367 37.5322 137.187 37.7491 136.898 37.8937C136.608 38.0383 136.265 38.0925 135.867 38.0564C135.506 38.0202 135.144 37.8575 134.783 37.5683C133.373 36.3391 131.836 35.4353 130.173 34.8569C128.51 34.2423 126.576 33.935 124.371 33.935C122.021 33.935 119.816 34.405 117.755 35.345C115.73 36.2849 113.941 37.5683 112.386 39.1952C110.832 40.822 109.603 42.702 108.699 44.8349C107.831 46.9679 107.397 49.2274 107.397 51.6135C107.397 54.0718 107.831 56.3675 108.699 58.5005C109.603 60.6335 110.832 62.5134 112.386 64.1403C113.941 65.7671 115.73 67.0505 117.755 67.9905C119.816 68.8943 122.021 69.3462 124.371 69.3462C126.359 69.3462 128.239 69.0208 130.01 68.3701C131.782 67.7193 133.463 66.7794 135.054 65.5502C135.488 65.1887 135.939 65.0441 136.409 65.1164C136.916 65.1887 137.349 65.4056 137.711 65.7671C138.072 66.1286 138.253 66.5986 138.253 67.1771C138.253 67.4663 138.199 67.7374 138.091 67.9905C138.018 68.2074 137.874 68.4424 137.657 68.6955C135.813 70.3946 133.752 71.6057 131.475 72.3288C129.197 73.0156 126.829 73.3591 124.371 73.3591Z" fill="white"/>
<path d="M157.829 73.0879C155.045 73.0879 152.551 72.4372 150.346 71.1357C148.14 69.7981 146.387 67.9905 145.085 65.7129C143.82 63.4353 143.187 60.8685 143.187 58.0124C143.187 55.1202 143.838 52.5354 145.14 50.2578C146.477 47.9802 148.285 46.1906 150.563 44.8891C152.84 43.5515 155.407 42.8827 158.263 42.8827C161.119 42.8827 163.668 43.5515 165.909 44.8891C168.187 46.1906 169.976 47.9802 171.278 50.2578C172.615 52.5354 173.302 55.1202 173.338 58.0124L171.657 59.3139C171.657 61.9169 171.043 64.2668 169.814 66.3636C168.621 68.4243 166.976 70.0692 164.879 71.2984C162.818 72.4914 160.468 73.0879 157.829 73.0879ZM158.263 69.2919C160.36 69.2919 162.222 68.8039 163.849 67.8278C165.512 66.8517 166.813 65.514 167.753 63.8149C168.729 62.0796 169.217 60.1454 169.217 58.0124C169.217 55.8433 168.729 53.9091 167.753 52.21C166.813 50.5108 165.512 49.1732 163.849 48.1971C162.222 47.1848 160.36 46.6787 158.263 46.6787C156.202 46.6787 154.34 47.1848 152.677 48.1971C151.014 49.1732 149.695 50.5108 148.719 52.21C147.743 53.9091 147.255 55.8433 147.255 58.0124C147.255 60.1454 147.743 62.0796 148.719 63.8149C149.695 65.514 151.014 66.8517 152.677 67.8278C154.34 68.8039 156.202 69.2919 158.263 69.2919ZM171.224 72.8168C170.609 72.8168 170.103 72.636 169.705 72.2745C169.308 71.8768 169.109 71.3707 169.109 70.7561V61.483L170.139 57.199L173.338 58.0124V70.7561C173.338 71.3707 173.14 71.8768 172.742 72.2745C172.344 72.636 171.838 72.8168 171.224 72.8168Z" fill="white"/>
<path d="M196.481 73.0879C193.661 73.0879 191.112 72.4372 188.835 71.1357C186.593 69.8342 184.804 68.0628 183.466 65.8213C182.165 63.5437 181.496 60.995 181.46 58.1751V32.5793C181.46 31.9285 181.64 31.4224 182.002 31.0609C182.4 30.6632 182.924 30.4644 183.575 30.4644C184.189 30.4644 184.677 30.6632 185.039 31.0609C185.436 31.4224 185.635 31.9285 185.635 32.5793V48.5224C186.828 46.8233 188.401 45.4676 190.353 44.4553C192.341 43.4069 194.547 42.8827 196.969 42.8827C199.753 42.8827 202.247 43.5515 204.452 44.8891C206.658 46.1906 208.393 47.9802 209.658 50.2578C210.96 52.5354 211.611 55.1022 211.611 57.9582C211.611 60.8504 210.942 63.4353 209.604 65.7129C208.303 67.9905 206.513 69.7981 204.236 71.1357C201.958 72.4372 199.373 73.0879 196.481 73.0879ZM196.481 69.2919C198.578 69.2919 200.458 68.8039 202.121 67.8278C203.784 66.8155 205.085 65.4598 206.025 63.7606C207.001 62.0615 207.489 60.1273 207.489 57.9582C207.489 55.8252 207.001 53.9091 206.025 52.21C205.085 50.4747 203.784 49.119 202.121 48.1428C200.458 47.1667 198.578 46.6787 196.481 46.6787C194.42 46.6787 192.558 47.1667 190.895 48.1428C189.232 49.119 187.931 50.4747 186.991 52.21C186.051 53.9091 185.581 55.8252 185.581 57.9582C185.581 60.1273 186.051 62.0615 186.991 63.7606C187.931 65.4598 189.232 66.8155 190.895 67.8278C192.558 68.8039 194.42 69.2919 196.481 69.2919Z" fill="white"/>
<path d="M222.783 72.8168C222.133 72.8168 221.608 72.636 221.211 72.2745C220.849 71.8768 220.668 71.3526 220.668 70.7019V45.2687C220.668 44.618 220.849 44.1119 221.211 43.7503C221.608 43.3527 222.133 43.1538 222.783 43.1538C223.398 43.1538 223.886 43.3527 224.248 43.7503C224.645 44.1119 224.844 44.618 224.844 45.2687V70.7019C224.844 71.3526 224.645 71.8768 224.248 72.2745C223.886 72.636 223.398 72.8168 222.783 72.8168ZM222.729 37.5141C221.934 37.5141 221.247 37.2249 220.668 36.6464C220.09 36.068 219.801 35.363 219.801 34.5315C219.801 33.6277 220.09 32.9227 220.668 32.4166C221.283 31.8743 221.988 31.6032 222.783 31.6032C223.543 31.6032 224.211 31.8743 224.79 32.4166C225.404 32.9227 225.712 33.6277 225.712 34.5315C225.712 35.363 225.422 36.068 224.844 36.6464C224.266 37.2249 223.561 37.5141 222.729 37.5141Z" fill="white"/>
<path d="M237.916 71.4068L234.5 69.5631L254.673 43.913L257.493 46.2991L237.916 71.4068ZM236.019 72.8168C234.753 72.8168 234.121 72.1841 234.121 70.9188C234.121 69.6535 234.753 69.0208 236.019 69.0208H256.137C257.403 69.0208 258.035 69.6535 258.035 70.9188C258.035 72.1841 257.403 72.8168 256.137 72.8168H236.019ZM235.802 46.9498C234.536 46.9498 233.904 46.3172 233.904 45.0518C233.904 43.7865 234.536 43.1538 235.802 43.1538H255.92C257.186 43.1538 257.818 43.7865 257.818 45.0518C257.818 46.3172 257.186 46.9498 255.92 46.9498H235.802Z" fill="white"/>
<path d="M277.132 73.088C274.348 73.088 271.853 72.4372 269.648 71.1357C267.443 69.7981 265.689 67.9905 264.388 65.7129C263.123 63.4353 262.49 60.8685 262.49 58.0125C262.49 55.1203 263.141 52.5354 264.442 50.2578C265.78 47.9802 267.587 46.1907 269.865 44.8892C272.143 43.5515 274.709 42.8827 277.565 42.8827C280.421 42.8827 282.97 43.5515 285.212 44.8892C287.489 46.1907 289.279 47.9802 290.58 50.2578C291.918 52.5354 292.605 55.1203 292.641 58.0125L290.96 59.3139C290.96 61.9169 290.345 64.2668 289.116 66.3636C287.923 68.4243 286.278 70.0692 284.181 71.2984C282.121 72.4914 279.771 73.088 277.132 73.088ZM277.565 69.292C279.662 69.292 281.524 68.8039 283.151 67.8278C284.814 66.8517 286.115 65.5141 287.055 63.8149C288.031 62.0796 288.519 60.1454 288.519 58.0125C288.519 55.8433 288.031 53.9092 287.055 52.21C286.115 50.5109 284.814 49.1732 283.151 48.1971C281.524 47.1848 279.662 46.6787 277.565 46.6787C275.505 46.6787 273.643 47.1848 271.98 48.1971C270.317 49.1732 268.997 50.5109 268.021 52.21C267.045 53.9092 266.557 55.8433 266.557 58.0125C266.557 60.1454 267.045 62.0796 268.021 63.8149C268.997 65.5141 270.317 66.8517 271.98 67.8278C273.643 68.8039 275.505 69.292 277.565 69.292ZM290.526 72.8168C289.911 72.8168 289.405 72.6361 289.008 72.2745C288.61 71.8769 288.411 71.3707 288.411 70.7561V61.4831L289.441 57.199L292.641 58.0125V70.7561C292.641 71.3707 292.442 71.8769 292.044 72.2745C291.647 72.6361 291.141 72.8168 290.526 72.8168Z" fill="white"/>
</svg>
