<svg width="80" height="80" viewBox="0 0 80 80" fill="none" xmlns="http://www.w3.org/2000/svg">
<rect width="80" height="80" rx="4" transform="matrix(-1 0 0 1 80 0)" fill="#E3E5E6"/>
<mask id="path-2-inside-1_1957_3662" fill="white">
<path d="M24.3001 51.6833L24.2667 51.7166C23.8167 50.7333 23.5334 49.6166 23.4167 48.3833C23.5334 49.6 23.8501 50.7 24.3001 51.6833Z"/>
</mask>
<path d="M24.3001 51.6833L24.2667 51.7166C23.8167 50.7333 23.5334 49.6166 23.4167 48.3833C23.5334 49.6 23.8501 50.7 24.3001 51.6833Z" fill="#303437"/>
<path d="M24.3001 51.6833L25.0072 52.3904L25.4985 51.899L25.2094 51.2672L24.3001 51.6833ZM24.2667 51.7166L23.3574 52.1328L23.9563 53.4413L24.9739 52.4237L24.2667 51.7166ZM23.4167 48.3833L24.4122 48.2878L22.4212 48.4775L23.4167 48.3833ZM23.593 50.9762L23.5596 51.0095L24.9739 52.4237L25.0072 52.3904L23.593 50.9762ZM25.1761 51.3005C24.7793 50.4336 24.5201 49.4283 24.4123 48.2891L22.4212 48.4775C22.5468 49.8049 22.8542 51.033 23.3574 52.1328L25.1761 51.3005ZM22.4213 48.4788C22.5491 49.8115 22.8966 51.0196 23.3908 52.0994L25.2094 51.2672C24.8036 50.3804 24.5177 49.3884 24.4122 48.2878L22.4213 48.4788Z" fill="#303437" mask="url(#path-2-inside-1_1957_3662)"/>
<path d="M38.4668 33.3334C38.4668 35.248 36.9147 36.8 35.0001 36.8C33.0855 36.8 31.5334 35.248 31.5334 33.3334C31.5334 31.4188 33.0855 29.8667 35.0001 29.8667C36.9147 29.8667 38.4668 31.4188 38.4668 33.3334Z" fill="#303437" stroke="#303437"/>
<path d="M24.7221 51.5107L24.7221 51.5106L24.7204 51.5069C24.1399 50.2519 23.8333 48.7429 23.8333 46.9835V33.0168C23.8333 30.0829 24.7058 27.8013 26.2535 26.2537C27.8011 24.7061 30.0827 23.8335 33.0166 23.8335H46.9833C49.9172 23.8335 52.1987 24.7061 53.7464 26.2537C55.294 27.8013 56.1666 30.0829 56.1666 33.0168V43.1668V46.9835C56.1666 49.9174 55.294 52.199 53.7464 53.7466C52.1987 55.2942 49.9172 56.1668 46.9833 56.1668H33.0166C28.9175 56.1668 26.0573 54.4604 24.7221 51.5107ZM53.6241 41.2128L53.6269 41.2152L53.8436 41.3985L54.6666 42.0949V41.0168V33.0168C54.6666 30.5828 54.0226 28.6407 52.691 27.3091C51.3594 25.9775 49.4173 25.3335 46.9833 25.3335H33.0166C30.5825 25.3335 28.6405 25.9775 27.3089 27.3091C25.9773 28.6407 25.3333 30.5828 25.3333 33.0168V46.9835C25.3333 48.3086 25.5602 49.4544 25.9512 50.4497L26.1787 51.0287L26.6952 50.682L32.9285 46.4987L32.9297 46.4979C34.0814 45.7205 35.7142 45.8143 36.721 46.6934L36.7265 46.6982L36.7321 46.7028L37.2949 47.1663C38.7826 48.4404 41.1564 48.4392 42.6424 47.1628L49.5755 41.2129L49.5757 41.2128C50.6883 40.2571 52.5115 40.2571 53.6241 41.2128Z" fill="#303437" stroke="#303437"/>
</svg>
