<svg width="216" height="140" viewBox="0 0 216 140" fill="none" xmlns="http://www.w3.org/2000/svg">
<g clip-path="url(#clip0_514_3860)">
<path d="M143.51 128.101L143.242 127.704C143.638 127.438 144.031 127.168 144.421 126.895L144.697 127.286C144.304 127.561 143.909 127.833 143.51 128.101Z" fill="#BF85EA"/>
<path d="M104.857 140L104.854 139.522C105.823 139.515 106.802 139.488 107.765 139.442L107.788 139.919C106.819 139.966 105.833 139.993 104.857 140ZM101.926 139.961C100.954 139.928 99.969 139.875 98.9997 139.802L99.0357 139.325C99.9985 139.398 100.977 139.451 101.943 139.483L101.926 139.961ZM110.711 139.718L110.668 139.242C111.63 139.156 112.603 139.048 113.561 138.922L113.624 139.396C112.659 139.523 111.679 139.631 110.711 139.718ZM96.0819 139.522C95.1136 139.408 94.1367 139.273 93.1783 139.121L93.254 138.649C94.2058 138.801 95.176 138.935 96.1377 139.047L96.0819 139.522ZM116.521 138.953L116.438 138.482C117.389 138.316 118.35 138.128 119.294 137.922L119.396 138.389C118.445 138.596 117.478 138.786 116.521 138.953ZM90.2941 138.599C89.3409 138.405 88.3787 138.189 87.4343 137.956L87.5493 137.493C88.4872 137.724 89.4428 137.938 90.3896 138.13L90.2941 138.599ZM122.246 137.705L122.124 137.243C123.059 136.998 124 136.73 124.923 136.446L125.065 136.902C124.135 137.188 123.187 137.458 122.246 137.705ZM84.5975 137.193C83.6629 136.92 82.7204 136.623 81.7963 136.311L81.9501 135.858C82.8679 136.169 83.8039 136.463 84.732 136.734L84.5975 137.193ZM127.847 135.982L127.686 135.532C128.597 135.209 129.512 134.863 130.408 134.503L130.587 134.946C129.685 135.309 128.763 135.657 127.847 135.982ZM79.0354 135.312C78.1258 134.961 77.2121 134.586 76.32 134.198L76.5114 133.761C77.3975 134.146 78.3049 134.518 79.2083 134.866L79.0354 135.312ZM133.282 133.796L133.085 133.36C133.966 132.962 134.849 132.54 135.711 132.107L135.927 132.533C135.059 132.97 134.17 133.395 133.282 133.796ZM73.6543 132.972C72.7788 132.547 71.9003 132.097 71.0433 131.636L71.2709 131.215C72.1221 131.674 72.9946 132.12 73.8641 132.543L73.6543 132.972ZM138.515 131.162L138.282 130.745C139.126 130.275 139.971 129.781 140.794 129.276L141.045 129.683C140.216 130.191 139.365 130.689 138.515 131.162ZM68.491 130.192C67.6554 129.695 66.818 129.174 66.002 128.642L66.2642 128.242C67.0745 128.77 67.9061 129.288 68.7361 129.781L68.491 130.192ZM63.5804 126.991C62.7894 126.428 61.9986 125.839 61.2303 125.242L61.5248 124.865C62.288 125.458 63.0733 126.043 63.859 126.603L63.5804 126.991ZM58.9554 123.396C58.2129 122.767 57.4741 122.115 56.7597 121.458L57.0846 121.107C57.7942 121.76 58.5279 122.407 59.2654 123.031L58.9554 123.396ZM54.647 119.431C53.9598 118.744 53.278 118.033 52.6206 117.318L52.9736 116.995C53.6266 117.705 54.3037 118.411 54.9862 119.094L54.647 119.431ZM50.6841 115.124C50.0575 114.384 49.4374 113.62 48.8409 112.852L49.2196 112.56C49.812 113.322 50.4279 114.081 51.0502 114.816L50.6841 115.124ZM47.0943 110.506C46.5311 109.716 45.9769 108.903 45.4474 108.09L45.8491 107.829C46.3751 108.637 46.9254 109.444 47.4849 110.229L47.0943 110.506ZM43.9031 105.608C43.4079 104.773 42.9238 103.917 42.4644 103.064L42.8865 102.838C43.3428 103.686 43.8235 104.536 44.3154 105.364L43.9031 105.608ZM41.1338 100.463C40.7105 99.5908 40.3001 98.698 39.9139 97.809L40.3535 97.6191C40.737 98.5019 41.1446 99.3886 41.565 100.255L41.1338 100.463ZM38.8069 95.1075C38.4581 94.2023 38.124 93.2779 37.814 92.3599L38.268 92.2073C38.5759 93.119 38.9077 94.0371 39.2541 94.936L38.8069 95.1075Z" fill="#BF85EA"/>
<path d="M36.9296 89.5448C36.7958 89.0849 36.6666 88.6231 36.542 88.1593L37.0048 88.0356C37.1284 88.4962 37.2567 88.9548 37.3897 89.4116L36.9296 89.5448Z" fill="#BF85EA"/>
<path d="M173.624 62.2096C173.571 61.7355 173.514 61.2629 173.451 60.7918L173.926 60.729C173.989 61.2034 174.047 61.6793 174.101 62.1567L173.624 62.2096Z" fill="#BF85EA"/>
<path d="M167.425 100.738L166.995 100.528C167.407 99.6898 167.807 98.8311 168.184 97.9759L168.623 98.1684C168.243 99.0295 167.84 99.8942 167.425 100.738ZM169.714 95.5515L169.268 95.377C169.61 94.5078 169.938 93.6195 170.244 92.7366L170.697 92.8927C170.389 93.7817 170.058 94.6763 169.714 95.5515ZM171.571 90.1962L171.112 90.0585C171.382 89.1629 171.637 88.2506 171.87 87.3471L172.334 87.466C172.1 88.3757 171.843 89.2942 171.571 90.1962ZM172.985 84.7072L172.516 84.6073C172.712 83.694 172.892 82.764 173.05 81.8432L173.522 81.9239C173.363 82.8512 173.182 83.7877 172.985 84.7072ZM173.946 79.1212L173.471 79.0596C173.592 78.1348 173.695 77.1933 173.778 76.2612L174.256 76.3036C174.172 77.2421 174.068 78.1901 173.946 79.1212ZM174.451 73.4757L173.973 73.4523C174.019 72.521 174.046 71.5741 174.054 70.6381L174.534 70.6423C174.525 71.5847 174.497 72.538 174.451 73.4757ZM174.024 67.8226C173.995 66.8885 173.947 65.9428 173.881 65.0122L174.358 64.9783C174.425 65.9154 174.474 66.8675 174.503 67.8079L174.024 67.8226Z" fill="#BF85EA"/>
<path d="M165.43 104.508L165.013 104.272C165.249 103.858 165.48 103.442 165.707 103.023L166.128 103.25C165.9 103.672 165.667 104.091 165.43 104.508Z" fill="#BF85EA"/>
<path d="M41.3856 40.1201L40.9531 39.9145C41.1602 39.4814 41.3715 39.0507 41.5872 38.6226L42.0153 38.837C41.8012 39.2623 41.5913 39.69 41.3856 40.1201Z" fill="#BF85EA"/>
<path d="M43.353 36.3119L42.9341 36.0799C43.3986 35.2453 43.8867 34.4093 44.3848 33.5949L44.7938 33.8439C44.2991 34.6525 43.8143 35.4829 43.353 36.3119ZM164.104 34.1793C163.614 33.369 163.101 32.5567 162.577 31.7651L162.977 31.5019C163.504 32.299 164.021 33.1169 164.514 33.9327L164.104 34.1793ZM46.3353 31.4363L45.9369 31.1711C46.4685 30.3773 47.0238 29.5837 47.5874 28.8125L47.9746 29.0939C47.4148 29.86 46.8633 30.6481 46.3353 31.4363V31.4363ZM160.952 29.4151C160.397 28.6463 159.818 27.8785 159.232 27.1333L159.609 26.8384C160.199 27.5888 160.782 28.3617 161.341 29.1359L160.952 29.4151ZM49.7086 26.8206L49.3333 26.5236C49.9283 25.7757 50.5467 25.0303 51.1713 24.3079L51.5341 24.6201C50.9138 25.3375 50.2996 26.0778 49.7086 26.8206V26.8206ZM157.42 24.9233C156.803 24.2015 156.164 23.4833 155.519 22.7886L155.871 22.4641C156.52 23.1635 157.164 23.8866 157.785 24.6132L157.42 24.9233ZM53.4482 22.4958L53.0984 22.1692C53.7519 21.4731 54.4291 20.7805 55.1113 20.1109L55.4474 20.4513C54.7699 21.1165 54.0972 21.8044 53.4482 22.4958ZM153.532 20.733C152.858 20.0646 152.162 19.4007 151.462 18.7598L151.785 18.4077C152.491 19.0531 153.192 19.7215 153.87 20.3945L153.532 20.733ZM57.5285 18.4902L57.2066 18.1363C57.9149 17.4956 58.6464 16.8605 59.3808 16.2488L59.6879 16.6156C58.9585 17.2231 58.232 17.8539 57.5285 18.4902ZM149.312 16.8724C148.586 16.2606 147.838 15.6555 147.088 15.074L147.381 14.6967C148.137 15.2822 148.891 15.8915 149.622 16.5075L149.312 16.8724ZM61.9222 14.8305L61.6303 14.4516C62.3884 13.8709 63.1694 13.2976 63.9515 12.7477L64.2275 13.1383C63.4507 13.6845 62.6751 14.2538 61.9222 14.8305V14.8305ZM144.79 13.3675C144.016 12.8168 143.221 12.2747 142.425 11.7563L142.687 11.3562C143.488 11.8783 144.289 12.424 145.069 12.9786L144.79 13.3675ZM66.6002 11.5417L66.3404 11.1402C67.1437 10.6233 67.9689 10.1158 68.7931 9.63194L69.0362 10.0437C68.2176 10.5244 67.398 11.0283 66.6002 11.5417ZM139.995 10.2431C139.179 9.75782 138.341 9.28257 137.505 8.83064L137.733 8.41045C138.575 8.86552 139.419 9.34404 140.241 9.83271L139.995 10.2431ZM71.5316 8.64668L71.3057 8.22531C72.1496 7.77549 73.0136 7.33745 73.8739 6.92332L74.0822 7.35354C73.2278 7.76486 72.3696 8.19999 71.5316 8.64666V8.64668ZM134.958 7.5214C134.102 7.10355 133.227 6.69874 132.359 6.31821L132.551 5.88075C133.426 6.26385 134.306 6.67145 135.168 7.09234L134.958 7.5214ZM76.6835 6.16668L76.4932 5.72805C77.3701 5.34973 78.2671 4.98425 79.1596 4.64187L79.3316 5.08796C78.4453 5.42789 77.5543 5.79081 76.6835 6.16668ZM129.711 5.22293C128.826 4.87786 127.92 4.54633 127.02 4.23777L127.176 3.78584C128.082 4.09661 128.994 4.43037 129.886 4.77789L129.711 5.22293ZM82.0216 4.11936L81.8682 3.66674C82.7746 3.36133 83.6986 3.07109 84.6146 2.80407L84.749 3.26276C83.8394 3.52792 82.9217 3.81617 82.0216 4.11936ZM124.291 3.36448C123.378 3.09338 122.448 2.83766 121.526 2.60459L121.644 2.14146C122.572 2.37617 123.509 2.63352 124.427 2.90649L124.291 3.36448ZM87.509 2.51919L87.3937 2.05537C88.3218 1.82591 89.2662 1.61278 90.2009 1.42216L90.2969 1.89019C89.3687 2.07964 88.4307 2.29125 87.509 2.51919ZM118.732 1.95959C117.805 1.76548 116.858 1.58769 115.919 1.43103L115.998 0.959736C116.944 1.11746 117.897 1.29652 118.831 1.49203L118.732 1.95959ZM93.1131 1.37561L93.0365 0.903858C93.9807 0.751272 94.9411 0.616299 95.8911 0.502678L95.9481 0.977001C95.0047 1.08992 94.0509 1.22408 93.1131 1.37561ZM113.086 1.01853C112.145 0.901175 111.187 0.801435 110.238 0.722341L110.278 0.246151C111.233 0.325826 112.198 0.426153 113.145 0.544441L113.086 1.01853ZM98.7971 0.694807L98.7595 0.218384C99.7127 0.143604 100.681 0.0872598 101.637 0.0509787L101.655 0.528455C100.706 0.564507 99.7439 0.620382 98.7971 0.69481V0.694807ZM107.381 0.542221C106.432 0.501857 105.469 0.480157 104.518 0.477823L104.52 0C105.477 0.00233416 106.446 0.0241515 107.401 0.0648644L107.381 0.542221Z" fill="#BF85EA"/>
<path d="M166.216 37.9352C165.995 37.5126 165.771 37.0925 165.542 36.6751L165.962 36.4457C166.192 36.8661 166.419 37.289 166.641 37.7145L166.216 37.9352Z" fill="#BF85EA"/>
<path d="M89.0152 46.8264H84.5834V84.216C84.5822 85.1661 84.2033 86.077 83.5297 86.7488C82.856 87.4206 81.9427 87.7986 80.9901 87.7997H8.5249V91.025C8.52643 92.1017 8.95598 93.1339 9.71938 93.8953C10.4828 94.6566 11.5177 95.085 12.5973 95.0865H89.0152C90.0948 95.085 91.1297 94.6566 91.8931 93.8953C92.6565 93.1339 93.086 92.1017 93.0876 91.025V50.8879C93.0861 49.8112 92.6565 48.779 91.8931 48.0177C91.1297 47.2563 90.0948 46.8279 89.0152 46.8264Z" fill="#F2F2F2"/>
<path d="M80.9902 40.0175H4.57242C3.49282 40.019 2.45787 40.4474 1.69447 41.2087C0.931074 41.9701 0.501527 43.0022 0.5 44.079V84.2161C0.501528 85.2928 0.931078 86.325 1.69447 87.0863C2.45787 87.8477 3.49282 88.276 4.57242 88.2776H80.9902C82.0698 88.276 83.1048 87.8477 83.8682 87.0863C84.6316 86.325 85.0611 85.2928 85.0627 84.2161V44.079C85.0611 43.0022 84.6316 41.9701 83.8682 41.2087C83.1048 40.4474 82.0698 40.019 80.9902 40.0175ZM84.5836 84.2161C84.5824 85.1662 84.2034 86.077 83.5298 86.7488C82.8562 87.4207 81.9429 87.7986 80.9902 87.7997H4.57242C3.61977 87.7986 2.70647 87.4207 2.03285 86.7488C1.35922 86.077 0.980267 85.1662 0.979109 84.2161V44.079C0.980267 43.1289 1.35922 42.218 2.03285 41.5462C2.70647 40.8744 3.61977 40.4964 4.57242 40.4953H80.9902C81.9429 40.4964 82.8562 40.8744 83.5298 41.5462C84.2034 42.218 84.5824 43.1289 84.5836 44.079V84.2161Z" fill="#BF85EA"/>
<path d="M75.227 69.6425H48.3969C47.8886 69.6425 47.4012 69.4411 47.0418 69.0827C46.6824 68.7242 46.4805 68.2381 46.4805 67.7312C46.4805 67.2243 46.6824 66.7381 47.0418 66.3797C47.4012 66.0213 47.8886 65.8199 48.3969 65.8199H75.227C75.7353 65.8199 76.2227 66.0213 76.5821 66.3797C76.9415 66.7381 77.1434 67.2243 77.1434 67.7312C77.1434 68.2381 76.9415 68.7242 76.5821 69.0827C76.2227 69.4411 75.7353 69.6425 75.227 69.6425Z" fill="#BF85EA"/>
<path d="M58.4582 61.5195H48.3969C47.8886 61.5195 47.4012 61.3181 47.0418 60.9597C46.6824 60.6012 46.4805 60.1151 46.4805 59.6082C46.4805 59.1013 46.6824 58.6151 47.0418 58.2567C47.4012 57.8983 47.8886 57.6969 48.3969 57.6969H58.4582C58.9664 57.6969 59.4539 57.8983 59.8133 58.2567C60.1727 58.6151 60.3746 59.1013 60.3746 59.6082C60.3746 60.1151 60.1727 60.6012 59.8133 60.9597C59.4539 61.3181 58.9664 61.5195 58.4582 61.5195Z" fill="#BF85EA"/>
<path d="M36.3135 79.1989H11.879C11.3391 79.1983 10.8216 78.9842 10.4398 78.6035C10.0581 78.2228 9.84338 77.7066 9.84277 77.1682V50.1712C9.84338 49.6328 10.0581 49.1166 10.4398 48.7359C10.8216 48.3552 11.3391 48.141 11.879 48.1404H36.3135C36.8534 48.141 37.3709 48.3552 37.7527 48.7359C38.1344 49.1166 38.3491 49.6328 38.3497 50.1712V77.1682C38.3491 77.7066 38.1344 78.2228 37.7527 78.6035C37.3709 78.9842 36.8534 79.1983 36.3135 79.1989Z" fill="#BF85EA"/>
<path d="M24.4659 73.5756C23.9272 73.5606 23.2566 73.5418 22.7403 73.1657C22.5865 73.049 22.4602 72.9003 22.3701 72.7298C22.28 72.5593 22.2284 72.3712 22.2189 72.1788C22.2095 72.042 22.232 71.9049 22.2846 71.7783C22.3372 71.6516 22.4185 71.5388 22.522 71.4486C22.6759 71.3341 22.8561 71.2597 23.0462 71.2324C23.2363 71.2051 23.4302 71.2258 23.6102 71.2924L23.1704 68.0866L23.4933 68.0425L24.0104 71.8113L23.7408 71.6879C23.4282 71.5449 22.999 71.4722 22.7324 71.6969C22.6669 71.7556 22.6159 71.8286 22.5833 71.9102C22.5508 71.9918 22.5375 72.0797 22.5446 72.1673C22.5525 72.3105 22.5912 72.4504 22.6582 72.5774C22.7251 72.7044 22.8187 72.8155 22.9326 72.9032C23.3343 73.196 23.8688 73.2338 24.4751 73.2508L24.4659 73.5756Z" fill="white"/>
<path d="M21.5736 68.3631H19.8184V68.6881H21.5736V68.3631Z" fill="#BF85EA"/>
<path d="M27.1137 68.3631H25.3584V68.6881H27.1137V68.3631Z" fill="#BF85EA"/>
<path d="M16.7688 63.8748C15.3553 63.7141 14.2606 62.3634 14.1403 60.9929C13.9973 59.3626 14.9493 57.8141 16.2554 56.8992C17.6213 55.9424 19.3231 55.5429 20.9697 55.4549C24.1817 55.2955 27.3384 56.3332 29.8258 58.3662C31.0596 59.3881 32.2119 60.6899 32.6486 62.2624C33.0279 63.628 32.7192 65.175 31.618 66.1314C31.3456 66.3658 31.0274 66.5413 30.6835 66.6469C30.3397 66.7525 29.9776 66.7858 29.6202 66.7449C28.7657 66.6564 27.9773 66.2083 27.2948 65.7134C25.9672 64.7507 24.8774 63.4097 23.26 62.9066C22.0741 62.5378 20.5351 62.8625 19.8104 63.932C19.6459 64.1769 19.5394 64.4558 19.4987 64.7476C19.4838 64.8099 19.4931 64.8755 19.5248 64.9312C19.5564 64.9869 19.6082 65.0284 19.6694 65.0475C19.7319 65.0643 19.7986 65.0558 19.8548 65.024C19.9111 64.9921 19.9526 64.9394 19.9701 64.8773C20.1604 63.5301 21.8213 63.0274 22.9868 63.3351C24.6862 63.7836 25.8269 65.296 27.2212 66.2569C27.9429 66.7936 28.7931 67.132 29.687 67.2384C30.4621 67.2991 31.2313 67.0634 31.8386 66.5793C33.0297 65.6413 33.4852 64.0279 33.2218 62.5753C32.9168 60.8932 31.7816 59.4515 30.536 58.3354C28.0109 56.0966 24.7327 54.8888 21.3546 54.9527C19.6316 54.9922 17.8338 55.3469 16.3495 56.2552C14.9097 57.1361 13.7968 58.61 13.6514 60.3233C13.5234 61.8312 14.3346 63.4085 15.7271 64.0691C16.0555 64.2242 16.4076 64.3234 16.7688 64.3624C17.0808 64.3979 17.0783 63.91 16.7688 63.8748Z" fill="white"/>
<path d="M210.949 110.138H207.101V122.638C207.1 123.714 206.67 124.747 205.907 125.508C205.143 126.269 204.108 126.698 203.029 126.699H106.982V128.534C106.983 129.738 107.463 130.892 108.316 131.743C109.17 132.594 110.327 133.072 111.533 133.073H210.949C212.155 133.072 213.312 132.594 214.166 131.743C215.019 130.892 215.499 129.738 215.5 128.534V114.677C215.499 113.474 215.019 112.32 214.166 111.469C213.312 110.618 212.155 110.139 210.949 110.138Z" fill="#F2F2F2"/>
<path d="M203.029 104.242H103.614C102.407 104.243 101.25 104.721 100.396 105.572C99.543 106.423 99.0631 107.577 99.062 108.781V122.638C99.0631 123.841 99.543 124.995 100.396 125.846C101.25 126.697 102.407 127.176 103.614 127.177H203.029C204.235 127.176 205.392 126.697 206.246 125.846C207.099 124.995 207.579 123.841 207.58 122.638V108.781C207.579 107.577 207.099 106.423 206.246 105.572C205.392 104.721 204.235 104.243 203.029 104.242ZM207.101 122.638C207.099 123.714 206.67 124.747 205.907 125.508C205.143 126.269 204.108 126.698 203.029 126.699H103.614C102.534 126.698 101.499 126.269 100.736 125.508C99.9722 124.747 99.5426 123.714 99.5411 122.638V108.781C99.5426 107.704 99.9722 106.672 100.736 105.911C101.499 105.149 102.534 104.721 103.614 104.719H203.029C204.108 104.721 205.143 105.149 205.907 105.911C206.67 106.672 207.099 107.704 207.101 108.781V122.638Z" fill="#BF85EA"/>
<path d="M121.061 108.065C119.545 108.065 118.063 108.513 116.802 109.353C115.541 110.193 114.559 111.387 113.979 112.784C113.398 114.181 113.247 115.718 113.542 117.201C113.838 118.685 114.568 120.047 115.64 121.116C116.712 122.185 118.078 122.913 119.565 123.208C121.052 123.503 122.594 123.352 123.994 122.773C125.395 122.195 126.592 121.215 127.435 119.957C128.277 118.7 128.726 117.222 128.726 115.71C128.724 113.683 127.916 111.74 126.479 110.307C125.042 108.873 123.093 108.067 121.061 108.065Z" fill="#BF85EA"/>
<path d="M191.331 122.161H136.474C135.965 122.161 135.478 121.959 135.118 121.601C134.759 121.242 134.557 120.756 134.557 120.249C134.557 119.742 134.759 119.256 135.118 118.898C135.478 118.539 135.965 118.338 136.474 118.338H191.331C191.84 118.338 192.327 118.539 192.687 118.898C193.046 119.256 193.248 119.742 193.248 120.249C193.248 120.756 193.046 121.242 192.687 121.601C192.327 121.959 191.84 122.161 191.331 122.161Z" fill="#BF85EA"/>
<path d="M163.783 114.038H136.474C135.965 114.038 135.478 113.836 135.118 113.478C134.759 113.119 134.557 112.633 134.557 112.126C134.557 111.619 134.759 111.133 135.118 110.775C135.478 110.416 135.965 110.215 136.474 110.215H163.783C164.291 110.215 164.778 110.416 165.138 110.775C165.497 111.133 165.699 111.619 165.699 112.126C165.699 112.633 165.497 113.119 165.138 113.478C164.778 113.836 164.291 114.038 163.783 114.038Z" fill="#BF85EA"/>
<path d="M120.541 119.053C120.343 119.053 120.15 118.989 119.992 118.871L119.982 118.863L117.913 117.285C117.719 117.137 117.593 116.918 117.561 116.677C117.529 116.436 117.594 116.192 117.743 115.999C117.891 115.806 118.11 115.68 118.352 115.648C118.594 115.616 118.838 115.681 119.032 115.829L120.372 116.854L123.539 112.733C123.613 112.638 123.704 112.558 123.809 112.497C123.913 112.437 124.029 112.398 124.148 112.382C124.268 112.367 124.39 112.374 124.506 112.406C124.623 112.437 124.732 112.49 124.828 112.564L124.828 112.564L124.809 112.591L124.829 112.564C125.022 112.712 125.148 112.93 125.18 113.171C125.212 113.412 125.147 113.656 124.999 113.849L121.273 118.694C121.187 118.806 121.077 118.896 120.95 118.958C120.823 119.02 120.683 119.052 120.542 119.052L120.541 119.053Z" fill="white"/>
<path d="M196.815 42.0482H196.307C196.316 42.1509 196.321 42.256 196.321 42.3635V56.2204C196.32 57.2971 195.89 58.3293 195.127 59.0906C194.363 59.852 193.328 60.2804 192.249 60.2819H144.592V60.4443C144.592 60.5495 144.597 60.6546 144.604 60.7597C144.684 61.906 145.197 62.9793 146.04 63.7632C146.882 64.547 147.991 64.9832 149.143 64.9837H196.815C198.021 64.9826 199.179 64.504 200.032 63.6529C200.885 62.8019 201.365 61.6479 201.366 60.4443V46.5875C201.365 45.3839 200.885 44.2299 200.032 43.3789C199.179 42.5278 198.021 42.0492 196.815 42.0482Z" fill="#F2F2F2"/>
<path d="M196.788 42.0482C196.708 40.9019 196.195 39.8286 195.353 39.0447C194.51 38.2608 193.401 37.8247 192.249 37.8242H144.577C143.371 37.8253 142.214 38.3039 141.36 39.155C140.507 40.006 140.027 41.16 140.026 42.3635V56.2204C140.027 57.424 140.507 58.5779 141.36 59.429C142.214 60.28 143.371 60.7586 144.577 60.7597H192.249C193.456 60.7586 194.613 60.28 195.466 59.429C196.319 58.5779 196.799 57.424 196.8 56.2204V42.3635C196.8 42.2584 196.795 42.1533 196.788 42.0482ZM196.321 56.2204C196.32 57.2971 195.89 58.3293 195.127 59.0906C194.363 59.852 193.328 60.2804 192.249 60.2819H144.577C143.498 60.2804 142.463 59.852 141.699 59.0906C140.936 58.3293 140.507 57.2971 140.505 56.2204V42.3635C140.507 41.2868 140.936 40.2547 141.699 39.4933C142.463 38.732 143.498 38.3036 144.577 38.302H192.249C193.273 38.3035 194.26 38.6897 195.012 39.384C195.764 40.0782 196.226 41.0294 196.307 42.0482C196.316 42.1509 196.321 42.256 196.321 42.3635V56.2204Z" fill="#BF85EA"/>
<path d="M180.152 55.2654H156.675C156.167 55.2654 155.679 55.0641 155.32 54.7056C154.961 54.3472 154.759 53.8611 154.759 53.3542C154.759 52.8473 154.961 52.3611 155.32 52.0027C155.679 51.6442 156.167 51.4429 156.675 51.4429H180.152C180.66 51.4429 181.147 51.6442 181.507 52.0027C181.866 52.3611 182.068 52.8473 182.068 53.3542C182.068 53.8611 181.866 54.3472 181.507 54.7056C181.147 55.0641 180.66 55.2654 180.152 55.2654Z" fill="#BF85EA"/>
<path d="M172.965 47.1424H156.675C156.167 47.1424 155.679 46.941 155.32 46.5826C154.961 46.2242 154.759 45.738 154.759 45.2311C154.759 44.7242 154.961 44.2381 155.32 43.8796C155.679 43.5212 156.167 43.3198 156.675 43.3198H172.965C173.473 43.3198 173.961 43.5212 174.32 43.8796C174.679 44.2381 174.881 44.7242 174.881 45.2311C174.881 45.738 174.679 46.2242 174.32 46.5826C173.961 46.941 173.473 47.1424 172.965 47.1424Z" fill="#BF85EA"/>
</g>
<defs>
<clipPath id="clip0_514_3860">
<rect width="215" height="140" fill="white" transform="translate(0.5)"/>
</clipPath>
</defs>
</svg>
