<svg width="218" height="140" viewBox="0 0 218 140" fill="none" xmlns="http://www.w3.org/2000/svg">
<g clip-path="url(#clip0_514_3995)">
<g clip-path="url(#clip1_514_3995)">
<path d="M217.019 138.418H0.480469V140H217.019V138.418Z" fill="#85848B"/>
<path d="M172.035 110.477C172.035 111.694 164.94 115.243 156.513 115.243C148.085 115.243 141.518 111.694 141.518 110.477C141.518 109.26 148.349 109.652 156.785 109.652C165.221 109.652 172.035 109.258 172.035 110.477Z" fill="#504F60"/>
<path opacity="0.2" d="M172.035 110.477C172.035 111.694 164.94 115.243 156.513 115.243C148.085 115.243 141.518 111.694 141.518 110.477" fill="black"/>
<path d="M87.1617 88.1419C88.5295 88.3172 89.949 88.4286 91.259 88.0036C91.4653 87.9397 91.6923 87.7973 91.6716 87.591C91.6569 87.516 91.6251 87.4455 91.5788 87.3847C91.085 86.644 90.6701 85.8537 90.341 85.0266C90.3279 84.9834 90.3011 84.9458 90.2646 84.9193C90.222 84.9039 90.1752 84.9039 90.1326 84.9193C89.5281 85.0782 89.0061 85.4681 88.4058 85.6352C88.0997 85.7192 87.7802 85.743 87.465 85.7053C87.1927 85.6744 86.8213 85.4495 86.5737 85.4784C86.714 86.38 87.0565 87.2217 87.1617 88.1419Z" fill="#912CDB"/>
<path d="M113.031 85.858C113.932 85.2391 114.867 84.5892 115.399 83.634C115.437 83.5769 115.459 83.5106 115.463 83.4421C115.454 83.3747 115.428 83.3108 115.387 83.2565C114.88 82.4504 114.227 81.7459 113.462 81.1789C113.063 81.4609 112.702 81.7938 112.389 82.1692C112.162 82.4085 111.535 82.7881 111.529 83.1533C111.529 83.3596 111.768 83.5989 111.88 83.7722C112.03 83.9951 112.173 84.222 112.309 84.4531C112.387 84.5665 113.103 85.8127 113.031 85.858Z" fill="#912CDB"/>
<path d="M92.5237 90.9043C92.5398 91.1169 92.4814 91.3284 92.3586 91.5026C92.2623 91.5995 92.1431 91.6705 92.012 91.7089C90.0995 92.3939 87.8858 91.5398 85.9775 92.2144C85.5855 92.3526 85.2141 92.5528 84.8201 92.6848C84.3503 92.826 83.8656 92.9119 83.3759 92.9406C82.7013 93.0046 82.0225 93.0458 81.3458 93.0644C80.8317 93.1008 80.315 93.0555 79.815 92.9303C79.565 92.8663 79.3312 92.7504 79.129 92.5901C78.9267 92.4298 78.7605 92.2286 78.6411 91.9998C78.5373 91.7947 78.5167 91.5576 78.5833 91.3376C78.6132 91.2622 78.6558 91.1924 78.7092 91.1313C78.8385 90.9862 78.9904 90.8629 79.1589 90.7661L79.8624 90.3122C80.1923 90.0789 80.5508 89.889 80.9291 89.7469C81.2076 89.6561 81.5026 89.6169 81.7852 89.5406C82.7735 89.2518 83.5286 88.4678 84.23 87.7148L85.1873 86.6935C85.2768 86.5812 85.3903 86.4902 85.5195 86.4274C85.6522 86.3831 85.7933 86.3697 85.9321 86.3882C86.862 86.4546 87.7598 86.7555 88.5419 87.2629C88.7418 87.4129 88.9577 87.5402 89.1856 87.6425C89.7467 87.8612 90.4668 87.6962 90.9846 87.4197C91.2301 87.2877 91.1765 87.2134 91.2796 86.9782C91.3828 86.743 91.6345 86.5924 91.8532 86.807C91.9192 86.8812 91.9659 86.9705 91.9893 87.0669C92.1957 87.7478 92.1173 88.4802 92.1173 89.194C92.1112 89.3056 92.1252 89.4174 92.1585 89.5241C92.2112 89.6317 92.274 89.7339 92.3463 89.8295C92.361 89.8547 92.374 89.8809 92.3855 89.9079C92.5117 90.2239 92.5591 90.5659 92.5237 90.9043Z" fill="#514E7F"/>
<path d="M92.5237 90.9043C92.5398 91.1169 92.4814 91.3284 92.3586 91.5026C92.2623 91.5995 92.1431 91.6705 92.012 91.709C90.0995 92.3939 87.8858 91.5398 85.9775 92.2144C85.5855 92.3526 85.2141 92.5528 84.8201 92.6848C84.3503 92.826 83.8656 92.9119 83.3759 92.9406C82.7013 93.0046 82.0225 93.0459 81.3458 93.0644C80.8317 93.1008 80.315 93.0556 79.815 92.9303C79.565 92.8663 79.3312 92.7504 79.129 92.5901C78.9267 92.4298 78.7605 92.2287 78.6411 91.9998C78.5373 91.7947 78.5167 91.5576 78.5833 91.3376C78.6132 91.2622 78.6558 91.1924 78.7092 91.1313C78.8206 91.3644 78.901 91.6739 78.9712 91.7853C79.0659 91.9504 79.1948 92.0934 79.3492 92.2047C79.5036 92.3161 79.68 92.3932 79.8666 92.431C80.1458 92.4482 80.4258 92.4125 80.6918 92.3258C82.4248 91.8967 84.2672 91.8905 85.9321 91.2406C86.5036 91.0157 87.0482 90.7166 87.6486 90.5804C88.2489 90.4443 88.8864 90.4814 89.5054 90.4298C90.4833 90.3514 91.4302 90.0564 92.3937 89.9017C92.5181 90.2203 92.5627 90.5645 92.5237 90.9043Z" fill="#464353"/>
<path d="M117.411 85.7322C117.32 86.4584 116.86 87.0835 116.355 87.6137C115.849 88.1439 115.278 88.6205 114.876 89.2312C114.38 89.9883 114.158 90.927 113.514 91.5666C113.267 91.7992 112.989 91.997 112.689 92.1546C112.352 92.3532 111.996 92.517 111.626 92.6435C110.665 92.951 109.629 92.8808 108.624 92.8065C108.298 92.8034 107.975 92.7412 107.671 92.6229C107.533 92.5526 107.4 92.4712 107.275 92.3795C107.023 92.2244 106.811 92.0124 106.656 91.7605C106.58 91.6236 106.559 91.4629 106.596 91.3108C106.654 91.1433 106.752 90.9929 106.883 90.8734C107.109 90.6383 107.352 90.4197 107.609 90.2194C107.963 89.9915 108.281 89.7135 108.554 89.3942C108.722 89.1418 108.845 88.8628 108.919 88.5689C109.066 88.0541 109.155 87.5249 109.186 86.9906C109.184 86.6357 109.221 86.2816 109.295 85.9343C109.448 85.3897 109.852 84.9028 109.807 84.3396C109.788 84.2589 109.795 84.1745 109.827 84.0982C109.875 84.0385 109.942 83.997 110.017 83.9806C110.332 83.8549 110.665 83.7777 111.003 83.7516C111.173 83.7399 111.343 83.766 111.501 83.8281C111.66 83.8902 111.803 83.9866 111.919 84.1106C112.059 84.2797 112.152 84.5232 112.359 84.5892C112.461 84.6171 112.568 84.6213 112.672 84.6016C113.18 84.55 113.716 84.486 114.116 84.158C114.301 83.9921 114.45 83.7897 114.553 83.5635C114.656 83.3373 114.711 83.0923 114.715 82.8438C114.715 82.6561 114.63 82.4601 114.921 82.4312C115.14 82.4023 115.313 82.6375 115.424 82.7819C115.827 83.3204 116.239 83.8836 116.39 84.5397C116.448 84.517 116.511 84.5051 116.573 84.5046C116.702 84.5035 116.829 84.5335 116.944 84.592C117.058 84.6506 117.157 84.736 117.232 84.8409C117.396 85.107 117.46 85.4232 117.411 85.7322Z" fill="#514E7F"/>
<path d="M117.411 85.7322C117.32 86.4584 116.86 87.0835 116.354 87.6137C115.849 88.1439 115.277 88.6205 114.875 89.2312C114.38 89.9883 114.157 90.9271 113.514 91.5666C113.266 91.7992 112.989 91.997 112.688 92.1546C112.352 92.3532 111.996 92.5171 111.626 92.6436C110.664 92.951 109.629 92.8808 108.624 92.8066C108.298 92.8034 107.975 92.7412 107.671 92.6229C107.532 92.5526 107.4 92.4712 107.275 92.3795C107.023 92.2244 106.811 92.0124 106.656 91.7606C106.849 91.6676 107.06 91.6169 107.275 91.612C107.72 91.6368 108.046 92.0576 108.473 92.1876C109.082 92.3712 109.689 91.9421 110.305 91.7956C110.708 91.7007 111.131 91.7255 111.529 91.5893C111.861 91.4611 112.167 91.2753 112.434 91.0405C112.801 90.7786 113.127 90.4644 113.402 90.108C113.631 89.7516 113.821 89.3719 113.969 88.9754C114.295 88.2154 114.679 87.4816 115.117 86.7802C115.181 86.6692 115.26 86.5666 115.35 86.4749C115.447 86.3862 115.556 86.3243 115.665 86.2459C116.078 85.9343 116.249 85.4206 116.394 84.9172C116.433 84.7642 116.487 84.6156 116.557 84.4737C116.685 84.4725 116.812 84.5025 116.927 84.5611C117.041 84.6196 117.14 84.705 117.215 84.81C117.392 85.0824 117.462 85.4111 117.411 85.7322Z" fill="#464353"/>
<path d="M74.1499 21.4088C74.6634 21.7936 75.0861 22.2866 75.3878 22.8529C75.6766 23.4182 77.3415 27.8044 77.2446 28.4419C77.7872 27.8952 79.9266 27.8064 80.4754 27.2597C80.7044 27.0307 81.9402 25.8878 82.1259 25.6216C82.3116 25.3555 83.6897 24.7964 83.8403 24.5158C84.4035 23.5069 79.8462 19.684 80.43 18.6875C80.4623 18.6418 80.479 18.5868 80.4775 18.5307C80.4642 18.4837 80.4377 18.4415 80.4011 18.409C80.0277 18.0274 79.5326 17.7901 79.0828 17.5075C78.633 17.2248 78.1998 16.8308 78.0781 16.3109C77.6492 16.5083 77.2554 16.7745 76.9124 17.099C76.0762 17.8155 75.2544 18.5466 74.447 19.292C74.1314 19.585 73.5207 19.9749 73.3742 20.3937C73.2009 20.8435 73.8487 21.1633 74.1499 21.4088Z" fill="#A1616A"/>
<path d="M81.5274 19.7852C80.8282 20.255 80.1747 20.7897 79.5757 21.382C79.0104 21.9411 78.474 22.5889 78.3379 23.3708C78.2801 23.6782 78.2883 23.9898 78.2409 24.3013C78.0346 25.6526 76.8669 26.6429 76.3511 27.9076C76.2017 28.2979 76.0918 28.7022 76.0231 29.1145C75.8781 29.896 75.7988 30.6882 75.7858 31.4829C75.7734 32.2525 76.5285 32.7827 76.805 33.5007C77.0814 34.2186 77.1557 34.9572 77.296 35.6937C77.5601 37.0843 78.0449 38.4253 78.5338 39.758C79.551 42.568 82.8478 50.3356 83.8649 53.1476C86.9823 52.3657 95.2801 50.5687 98.0405 48.9203C98.9606 48.3715 91.6552 42.1801 92.6393 41.7531C92.6955 41.7443 92.749 41.7226 92.7954 41.6896C92.8418 41.6567 92.8799 41.6134 92.9068 41.5632C92.9336 41.5129 92.9483 41.4572 92.9499 41.4002C92.9515 41.3433 92.9398 41.2868 92.9157 41.2352C91.9316 36.9316 88.8535 33.3954 87.4568 29.2053C86.9719 27.7508 86.1013 26.5088 85.4411 25.1265C84.8428 23.8742 84.523 22.4899 83.8071 21.2995C83.6722 21.0542 83.4955 20.8343 83.2852 20.6496C83.1066 20.5127 82.9136 20.3958 82.7096 20.3009C82.3011 20.1029 81.9215 19.9853 81.5274 19.7852Z" fill="#514E7F"/>
<path d="M74.3148 20.9198C77.0095 20.9198 79.194 18.7353 79.194 16.0406C79.194 13.3459 77.0095 11.1614 74.3148 11.1614C71.6201 11.1614 69.4355 13.3459 69.4355 16.0406C69.4355 18.7353 71.6201 20.9198 74.3148 20.9198Z" fill="#A1616A"/>
<path d="M79.2788 18.3327C79.522 18.1084 79.8274 17.9631 80.1549 17.916C80.4823 17.8688 80.8163 17.9221 81.1129 18.0686C81.443 18.2399 81.7318 18.5865 81.6576 18.9496L84.0776 18.9867C84.4628 18.9762 84.8478 19.0115 85.2247 19.0919C85.6039 19.1745 85.9425 19.3868 86.1819 19.6923C86.2108 19.7315 86.2438 19.779 86.2934 19.7851C86.3336 19.7858 86.3729 19.7727 86.4048 19.748C86.777 19.5613 87.1964 19.4895 87.6096 19.5417C88.9176 19.6263 90.1266 20.2803 91.152 21.0973C91.3369 21.2244 91.4803 21.403 91.5646 21.611C91.6492 21.8854 91.5481 22.2299 91.7709 22.4259C91.7709 24.6953 92.5507 26.8162 93.0706 29.0278C93.1635 29.4219 93.541 29.7706 93.803 30.08C94.1268 30.4231 94.391 30.8178 94.585 31.2477C95.0265 32.3948 94.4178 33.7441 94.847 34.8953C95.0285 35.3822 95.3792 35.7824 95.6722 36.2054C96.0584 36.6937 96.3025 37.2791 96.3778 37.8971C96.3964 38.1736 96.3613 38.4521 96.3778 38.7224C96.4055 39.0941 96.4747 39.4615 96.5841 39.8179C96.7602 40.4836 96.9445 41.1486 97.137 41.8129C97.4506 42.8857 97.8591 44.0431 98.8205 44.6146C96.4995 45.0086 94.0527 45.3944 91.841 44.5878C91.5325 44.4825 91.2397 44.3361 90.9704 44.1524C90.172 43.583 89.7862 42.6092 89.4416 41.6891C89.0579 40.6575 88.668 39.6074 88.5896 38.5099C88.5903 38.1608 88.541 37.8134 88.4431 37.4783C88.2182 36.88 87.6179 36.519 87.0732 36.1868C86.4581 35.8498 85.9009 35.4166 85.4227 34.9036C85.1854 34.6452 85.0037 34.3408 84.8887 34.0094C84.7737 33.678 84.728 33.3265 84.7543 32.9766C84.7955 32.6362 84.9296 32.3082 84.942 31.9657C84.9544 31.6232 84.8017 31.2312 84.4737 31.1405C82.784 30.6288 81.9773 28.6276 81.6019 26.9029C81.4398 26.0114 81.3673 25.106 81.3852 24.2002L81.3625 22.4404C81.1294 22.2282 80.9418 21.9709 80.8113 21.6839C80.6808 21.397 80.61 21.0865 80.6033 20.7713C80.6257 20.5874 80.6223 20.4013 80.593 20.2184C80.5114 19.9948 80.3786 19.7934 80.2051 19.6304C79.8321 19.2476 79.5197 18.8099 79.2788 18.3327Z" fill="#464353"/>
<path d="M74.0814 23.9113C74.0257 24.456 74.1495 25.0151 74.0278 25.5494C73.9803 25.7557 73.8978 25.9621 73.838 26.1539C73.6551 26.923 73.7342 27.7312 74.0629 28.4502C74.3911 29.1621 74.784 29.8423 75.2368 30.4823C75.3899 30.7008 75.516 30.937 75.6123 31.1858C75.6903 31.4471 75.7387 31.7163 75.7567 31.9884C75.8762 33.0809 76.0678 34.1643 76.3302 35.2316C76.5613 36.1558 79.1856 44.0575 79.7962 44.7899C79.907 44.9521 80.0751 45.0663 80.2666 45.1097C80.4047 45.1149 80.5421 45.0866 80.6669 45.0272L81.9047 44.5527C82.01 44.5205 82.1076 44.4671 82.1915 44.3959C82.3075 44.2603 82.3705 44.0874 82.3689 43.909C82.4576 42.9022 79.8272 34.9448 79.493 33.9937C78.482 31.1219 77.1369 28.3532 76.4788 25.3803C76.2951 24.555 76.1982 23.2841 75.5937 22.626C75.3441 22.3537 75.4286 22.4692 75.1295 22.6116C74.9783 22.6772 74.8321 22.7537 74.6921 22.8406C74.517 22.9623 74.3713 23.1216 74.2657 23.3069C74.16 23.4921 74.0971 23.6986 74.0814 23.9113Z" fill="#464353"/>
<path d="M77.8385 29.36C78.1707 31.1157 78.5131 32.8673 78.8535 34.623L83.6977 33.3541C83.7369 32.8466 83.4666 32.3762 83.2851 31.91C82.8436 30.8021 82.8333 29.5684 82.4764 28.4295C82.2061 27.563 81.7357 26.7667 81.4819 25.894C81.3355 25.3865 81.2612 24.8624 81.1168 24.3487C80.9619 23.8442 80.7716 23.3513 80.5474 22.8736C80.2754 22.1808 79.9208 21.5234 79.491 20.9157C78.8721 21.1468 78.2119 21.415 77.8591 21.9741C77.6782 22.2891 77.5749 22.6427 77.5579 23.0056C77.4733 24.0929 77.8674 25.1863 77.7374 26.2674C77.6035 27.2969 77.6377 28.3414 77.8385 29.36Z" fill="#912CDB"/>
<path d="M83.7782 52.7143C84.0505 53.7459 83.6564 54.831 83.3346 55.8523C82.85 57.3905 82.5197 58.9732 82.3484 60.5768C82.3274 60.9849 82.2454 61.3876 82.105 61.7713C81.9523 62.1159 81.6924 62.4068 81.5149 62.7348C81.0281 63.5972 81.0404 64.6494 81.1457 65.6355C81.2158 66.2854 81.321 66.9332 81.451 67.5728C81.6099 68.3547 81.8058 69.1717 81.5768 69.935C81.9606 69.8504 82.2205 70.3476 82.1958 70.7376C82.171 71.1275 82.0452 71.5628 82.2329 71.8991C82.7074 72.0724 82.7115 72.7243 82.6971 73.2298C82.705 74.1062 82.8158 74.9787 83.0272 75.8293C83.7452 79.2816 84.5071 82.7242 85.3131 86.1572C87.0564 86.6977 89.0927 87.261 90.7556 86.5121C91.065 86.3738 91.3745 86.1531 91.4447 85.8189C91.4628 85.6387 91.4402 85.4568 91.3786 85.2866L90.5905 82.4188C90.3987 81.7256 90.2068 81.0098 90.3079 80.298C90.3842 79.7678 90.6153 79.1963 90.3553 78.728C90.2666 78.567 90.1263 78.4412 90.0232 78.2885C89.6106 77.684 89.8272 76.8753 89.8602 76.1429C89.8731 75.9785 89.8619 75.8131 89.8272 75.6519C89.7707 75.4636 89.6917 75.2828 89.592 75.1134C88.9407 73.8489 88.6279 72.4373 88.6842 71.0161C88.7089 70.8347 88.6839 70.6501 88.612 70.4817C88.562 70.4123 88.5171 70.3392 88.4779 70.2631C88.4472 70.1306 88.4624 69.9916 88.5212 69.869C88.2848 69.6896 88.0714 69.4817 87.8858 69.2501C88.0002 69.1789 88.097 69.0827 88.1688 68.9687C88.2406 68.8547 88.2856 68.7259 88.3003 68.5919C88.315 68.458 88.299 68.3225 88.2537 68.1956C88.2083 68.0687 88.1347 67.9538 88.0385 67.8595C88.1226 67.8426 88.2004 67.8027 88.2632 67.7442C88.326 67.6857 88.3714 67.6109 88.3942 67.5282C88.4171 67.4455 88.4166 67.358 88.3928 67.2756C88.3689 67.1931 88.3227 67.1189 88.2592 67.0611C88.1581 66.991 88.024 66.96 87.9518 66.8548C87.8404 66.7021 87.9312 66.4896 88.022 66.3267L88.5027 65.4581C88.8616 64.8123 88.9421 64.0139 89.3279 63.395C89.8808 62.4934 90.2419 61.4887 90.5988 60.4943L91.9872 56.6631L92.9218 57.4739C93.2331 57.7117 93.494 58.0091 93.6893 58.3486C93.8222 58.6843 93.9063 59.0372 93.9389 59.3967C94.2814 61.4763 95.5894 63.2795 96.0742 65.3281C96.1815 65.7841 96.2537 66.2627 96.5158 66.6526C96.6095 66.7723 96.6937 66.8993 96.7674 67.0322C96.8357 67.2351 96.8713 67.4475 96.8727 67.6615C96.9159 68.0805 97.0489 68.4853 97.2625 68.8484C97.4761 69.2115 97.7653 69.5244 98.1105 69.7659C98.5706 70.0815 99.1421 70.2981 99.3917 70.7974C99.4416 70.952 99.511 71.0997 99.598 71.2368C99.8208 71.505 100.302 71.536 100.396 71.8723C100.45 72.06 100.351 72.2849 100.456 72.4499C100.516 72.5263 100.595 72.5854 100.685 72.6212L102.028 73.2917C103.53 74.0427 104.298 75.7674 105.406 77.0238C105.788 77.4331 106.127 77.8811 106.417 78.3607C106.895 79.2169 107.116 80.2918 107.925 80.8365C108.142 80.9492 108.34 81.0962 108.511 81.2718C108.764 81.606 108.672 82.0743 108.694 82.4952C108.717 82.9161 109.039 83.4174 109.439 83.2895C109.299 83.7992 109.299 84.3374 109.439 84.8471C111.196 84.7569 112.872 84.0782 114.197 82.9202C114.589 82.5777 114.966 82.1403 114.97 81.6204C114.976 81.5307 114.956 81.4411 114.912 81.3625C114.833 81.261 114.729 81.182 114.609 81.1335C113.353 80.4527 112.975 78.8744 112.34 77.5933C111.785 76.4627 110.964 75.4889 110.277 74.4388C108.783 72.1797 107.764 69.4461 105.505 67.9544C105.007 67.6264 104.43 67.3355 104.18 66.7929C104.042 66.4896 104.025 66.143 103.916 65.8294C103.807 65.5159 103.545 65.2105 103.211 65.2105C103.396 64.7566 103.359 64.2037 103.371 63.7127C103.384 63.4948 103.359 63.2763 103.297 63.067C103.211 62.8417 103.1 62.6271 102.965 62.4274C102.376 61.4294 102.081 60.2849 102.115 59.1264C102.132 58.5302 102.237 57.9154 102.057 57.346C101.966 57.0592 101.808 56.7972 101.698 56.5207C101.533 56.0198 101.447 55.4966 101.44 54.9693L101.317 52.9866C101.298 52.3263 101.212 51.6697 101.061 51.0267C100.648 49.4876 100.236 43.0404 98.8223 42.3142C97.4091 41.588 94.9808 46.5497 93.3902 46.6467C92.6865 46.676 91.9911 46.8102 91.3271 47.0449C90.2687 47.441 89.3815 48.1796 88.5171 48.9017L85.5916 51.3588C84.9727 51.8684 84.4611 52.3553 83.7782 52.7143Z" fill="#464353"/>
<path d="M69.7365 10.6229C70.3802 9.74405 71.486 9.27779 72.5754 9.23859C73.6647 9.19939 74.7375 9.54186 75.7133 10.0267C76.0014 10.1905 76.3092 10.3167 76.6294 10.4022C77.1451 10.5074 77.7187 10.3671 78.1849 10.6085C78.8039 10.9365 78.9235 11.7721 78.8699 12.4653C78.8162 13.1585 78.6863 13.928 79.0556 14.5284C79.1866 14.6996 79.3058 14.8795 79.4125 15.0668C79.5713 15.4238 79.4785 15.8364 79.3836 16.2139C79.1422 16.0076 79.006 15.6961 78.7915 15.4568C78.5769 15.2175 78.2035 15.0565 77.9374 15.236C77.6712 15.4155 77.6753 15.7415 77.6609 16.0344C77.6465 16.3274 77.5722 16.6781 77.2957 16.773C77.1803 16.7993 77.0596 16.7904 76.9492 16.7473C76.8389 16.7043 76.744 16.6292 76.6768 16.5317C76.2044 15.954 76.3942 15.0318 75.9258 14.45C75.6597 14.1199 75.2161 13.959 74.9706 13.6124C74.7767 13.34 74.7272 12.9934 74.558 12.7005C74.3888 12.4075 73.9948 12.1929 73.7328 12.3951C73.6433 12.4806 73.5687 12.5803 73.512 12.6902C73.3486 12.9242 73.1111 13.0963 72.8378 13.1786C72.5645 13.261 72.2714 13.2488 72.0059 13.144C71.8031 13.0195 71.5836 12.9243 71.354 12.8614C71.2037 12.8539 71.0543 12.8885 70.9227 12.9614C70.7911 13.0344 70.6825 13.1426 70.6092 13.274C70.4611 13.5365 70.3897 13.8353 70.4029 14.1364C70.4029 14.549 70.4772 14.9885 70.242 15.3185C70.1525 15.4428 70.0406 15.5492 69.9119 15.6321C69.5674 15.8529 69.0866 16.0014 68.7689 15.7497C68.6612 15.6494 68.5811 15.5231 68.5363 15.3829C68.4915 15.2428 68.4835 15.0934 68.5131 14.9493C68.575 14.6621 68.6563 14.3795 68.7566 14.1034C68.9381 13.4638 68.7008 12.7438 68.8989 12.1414C69.1064 11.5988 69.3883 11.0878 69.7365 10.6229Z" fill="#464353"/>
<path d="M72.3504 25.1781C72.3194 25.3284 72.3353 25.4847 72.3958 25.6258C72.4571 25.7219 72.5406 25.8018 72.6393 25.8589C73.333 26.2911 74.1221 26.5468 74.9375 26.6037C75.0485 26.6056 75.1574 26.6339 75.2553 26.6862C75.4492 26.8141 75.4616 27.0988 75.3894 27.3258C75.2931 27.5398 75.2432 27.7719 75.2429 28.0066C75.3027 28.4378 75.8144 28.6255 76.2456 28.6895C76.85 28.7658 77.5123 28.7266 77.9909 28.3491C78.3152 28.0533 78.5623 27.683 78.711 27.2701C79.8952 24.5488 80.3099 21.5408 81.5085 18.8279C81.5994 18.6507 81.66 18.4597 81.688 18.2626C81.7007 18.1639 81.6867 18.0636 81.6475 17.9722C81.6083 17.8808 81.5454 17.8015 81.4652 17.7427C81.2424 17.6044 80.8958 17.6828 80.7452 17.4662C80.6709 17.3569 80.6792 17.2083 80.6131 17.0928C80.4749 16.8473 80.1118 16.8865 79.8642 16.7441C79.6703 16.641 79.5362 16.4285 79.3196 16.3872C79.2132 16.3812 79.1069 16.4001 79.0092 16.4423C78.9114 16.4846 78.8248 16.5491 78.7563 16.6306C78.0528 17.2867 77.6835 18.2172 77.2915 19.0961C76.693 20.4432 75.9922 21.7427 75.1954 22.9829C75.2883 22.8385 74.7498 21.7451 74.5394 21.6976C74.1701 21.6234 73.6976 22.2712 73.4975 22.5126C72.8695 23.2739 72.4716 24.1986 72.3504 25.1781Z" fill="#912CDB"/>
<path opacity="0.1" d="M79.8458 16.936C79.6976 16.9384 79.5518 16.9742 79.4193 17.0406C79.2869 17.1071 79.171 17.2024 79.0804 17.3197C78.8596 17.6065 78.8163 17.9861 78.7606 18.3513C78.5728 19.5082 78.1599 20.617 77.5454 21.6151" fill="black"/>
<path opacity="0.1" d="M80.8979 17.7592C80.6934 17.7637 80.4935 17.8215 80.3181 17.9267C80.1426 18.032 79.9976 18.1812 79.8973 18.3595C79.7608 18.684 79.6758 19.0279 79.6456 19.3787C79.4687 20.1564 79.1276 20.8872 78.645 21.5222" fill="black"/>
<path d="M129.93 58.0928V55.5305C129.929 53.6442 129.18 51.8353 127.846 50.5017C126.512 49.1681 124.703 48.4189 122.816 48.4189H21.6233C19.7371 48.4189 17.928 49.1681 16.594 50.5017C15.26 51.8353 14.5103 53.6442 14.5098 55.5305V60.2549L129.93 58.0928Z" fill="#33323D"/>
<path d="M49.7739 45.415C49.7739 45.415 49.4851 63.3351 52.6623 69.2315C55.8394 75.1278 57.2011 100.778 57.2011 100.778C57.2011 100.778 90.5078 104.224 113.718 96.6522C136.928 89.0806 186.314 85.9839 186.314 85.9839L177.992 29.8902C177.992 29.8902 136.876 27.2535 113.487 38.4087C90.0972 49.5639 49.7739 45.415 49.7739 45.415Z" fill="#912CDB"/>
<path opacity="0.1" d="M49.7739 45.415C49.7739 45.415 49.4851 63.3351 52.6623 69.2315C55.8394 75.1278 57.2011 100.778 57.2011 100.778C57.2011 100.778 90.5078 104.224 113.718 96.6522C136.928 89.0806 186.314 85.9839 186.314 85.9839L177.992 29.8902C177.992 29.8902 136.876 27.2535 113.487 38.4087C90.0972 49.5639 49.7739 45.415 49.7739 45.415Z" fill="black"/>
<path d="M57.1454 51.9613C57.1454 51.9613 56.1036 66.7475 58.7175 71.472C61.3314 76.1965 61.4532 97.2876 61.4532 97.2876C61.4532 97.2876 91.428 98.6781 112.75 91.4202C134.072 84.1622 178.879 79.4542 178.879 79.4542L173.787 33.5811C173.787 33.5811 136.713 33.1995 115.075 43.4159C93.4374 53.6324 57.1454 51.9613 57.1454 51.9613Z" fill="#912CDB"/>
<path opacity="0.1" d="M114.746 83.0212C119.011 82.49 121.545 74.644 120.406 65.4968C119.266 56.3496 114.885 49.3649 110.62 49.8962C106.355 50.4274 103.822 58.2733 104.961 67.4205C106.1 76.5678 110.481 83.5524 114.746 83.0212Z" fill="black"/>
<path opacity="0.2" d="M155.45 2.56445C155.45 2.56445 115.507 12.6736 96.6706 30.4679C77.8344 48.2621 38.1816 56.6878 38.1816 56.6878C38.1816 56.6878 43.4054 73.8302 48.2372 78.468C53.069 83.1059 62.2333 107.104 62.2333 107.104C62.2333 107.104 94.9891 100.159 114.754 85.825C134.518 71.4906 180.581 53.3869 180.581 53.3869L155.45 2.56445Z" fill="black"/>
<path d="M37.5811 54.1213C37.5811 54.1213 42.8028 71.2657 47.6304 75.9036C52.4581 80.5414 61.6265 104.537 61.6265 104.537C61.6265 104.537 94.3865 97.595 114.153 83.2606C133.92 68.9261 179.978 50.8286 179.978 50.8286L154.848 0C154.848 0 114.906 10.1092 96.07 27.9034C77.2339 45.6977 37.5811 54.1213 37.5811 54.1213Z" fill="#912CDB"/>
<path opacity="0.1" d="M37.5811 54.1213C37.5811 54.1213 42.8028 71.2657 47.6304 75.9036C52.4581 80.5414 61.6265 104.537 61.6265 104.537C61.6265 104.537 94.3865 97.595 114.153 83.2606C133.92 68.9261 179.978 50.8286 179.978 50.8286L154.848 0C154.848 0 114.906 10.1092 96.07 27.9034C77.2339 45.6977 37.5811 54.1213 37.5811 54.1213Z" fill="black"/>
<path d="M46.5991 58.0908C46.5991 58.0908 50.1456 72.485 54.0841 76.178C58.0225 79.8709 64.6059 99.9036 64.6059 99.9036C64.6059 99.9036 93.5595 92.0267 111.626 78.5753C129.693 65.1239 170.897 46.9129 170.897 46.9129L151.976 4.80084C151.976 4.80084 116.575 15.8116 99.1154 32.1761C81.6554 48.5407 46.5991 58.0908 46.5991 58.0908Z" fill="#912CDB"/>
<path opacity="0.1" d="M110.958 69.9759C114.854 68.1616 114.858 59.9167 110.967 51.5604C107.076 43.2041 100.763 37.9008 96.8666 39.7151C92.9705 41.5294 92.9665 49.7744 96.8578 58.1307C100.749 66.4869 107.062 71.7903 110.958 69.9759Z" fill="black"/>
<path opacity="0.1" d="M132.661 60.6077V131.785C132.661 132.593 132.502 133.394 132.193 134.14C131.883 134.887 131.43 135.566 130.858 136.137C130.286 136.709 129.608 137.162 128.861 137.471C128.114 137.78 127.313 137.939 126.505 137.939H20.6678C19.0359 137.938 17.4711 137.29 16.3174 136.136C15.1637 134.982 14.5156 133.417 14.5156 131.785V53.4323C17.5484 54.5587 17.5484 54.5587 20.6678 54.4638H126.505C128.136 54.4638 129.7 55.1107 130.854 56.2626C132.008 57.4144 132.658 58.9771 132.661 60.6077Z" fill="black"/>
<path d="M132.661 61.5134V132.69C132.661 134.323 132.012 135.888 130.857 137.042C129.703 138.196 128.137 138.845 126.505 138.845H20.6678C19.0359 138.844 17.4711 138.195 16.3174 137.041C15.1637 135.887 14.5156 134.322 14.5156 132.69V54.3359C17.5484 55.4603 17.5484 55.4603 20.6678 55.3674H126.505C128.136 55.3674 129.7 56.0146 130.854 57.1669C132.009 58.3192 132.658 59.8824 132.661 61.5134Z" fill="#504F60"/>
<path opacity="0.1" d="M132.36 87.8283V110.59H110.285C107.293 110.55 104.437 109.333 102.336 107.203C100.234 105.073 99.0562 102.202 99.0562 99.2094C99.0562 96.2172 100.234 93.3454 102.336 91.2154C104.437 89.0854 107.293 87.8686 110.285 87.8283H132.36Z" fill="black"/>
<path d="M132.662 87.2217V109.988H110.586C107.594 109.948 104.739 108.731 102.637 106.601C100.536 104.471 99.3574 101.599 99.3574 98.607C99.3574 95.6148 100.536 92.7429 102.637 90.613C104.739 88.483 107.594 87.2662 110.586 87.2259L132.662 87.2217Z" fill="#33323D"/>
<path opacity="0.1" d="M111.644 103.648C114.095 103.648 116.082 101.661 116.082 99.2104C116.082 96.7595 114.095 94.7727 111.644 94.7727C109.193 94.7727 107.207 96.7595 107.207 99.2104C107.207 101.661 109.193 103.648 111.644 103.648Z" fill="black"/>
<path d="M111.946 103.046C114.396 103.046 116.383 101.059 116.383 98.608C116.383 96.1571 114.396 94.1703 111.946 94.1703C109.495 94.1703 107.508 96.1571 107.508 98.608C107.508 101.059 109.495 103.046 111.946 103.046Z" fill="#912CDB"/>
<path d="M170.979 87.0258C171.154 88.9259 169.716 90.7703 170.135 92.6312C170.226 93.0294 170.397 93.4049 170.459 93.8072C170.632 94.913 169.974 95.959 169.345 96.8833L163.94 104.814C163.723 105.162 163.464 105.483 163.168 105.767C162.136 106.687 160.585 106.592 159.227 106.867C158.273 107.06 157.372 107.459 156.587 108.034C156.554 108.062 156.533 108.102 156.528 108.145C156.524 108.188 156.536 108.231 156.562 108.265C156.786 108.571 157.083 108.815 157.427 108.976C157.77 109.138 158.148 109.21 158.526 109.188C158.668 109.375 158.526 109.65 158.32 109.784C158.029 109.99 157.631 110.04 157.573 110.531C157.552 110.702 157.587 110.876 157.672 111.026C157.89 111.359 158.228 111.595 158.617 111.684C160.488 112.255 162.51 111.251 163.911 109.883C165.311 108.515 166.316 106.788 167.69 105.396C168.452 104.626 169.316 103.966 170.1 103.219C171.664 101.729 172.879 99.9181 174.053 98.1046C174.406 97.5579 174.761 96.9967 174.909 96.3634C175.058 95.73 174.987 95.0904 175.155 94.4777C175.373 93.6731 175.961 93.0335 176.45 92.3589C177.41 91.0385 178.049 89.4231 177.923 87.7974C177.797 86.1716 176.789 84.5645 175.254 84.0116C174.778 83.8205 174.253 83.7887 173.758 83.9208C173.129 84.1147 172.664 84.6346 172.235 85.1318L171.204 86.3181C170.947 86.5784 170.743 86.8869 170.605 87.2259C170.539 87.3961 170.524 87.5818 170.56 87.7607C170.597 87.9396 170.684 88.1041 170.812 88.2347" fill="#FBBEBE"/>
<path opacity="0.05" d="M170.979 87.0258C171.154 88.9259 169.716 90.7703 170.135 92.6312C170.226 93.0294 170.397 93.4049 170.459 93.8072C170.632 94.913 169.974 95.959 169.345 96.8833L163.94 104.814C163.723 105.162 163.464 105.483 163.168 105.767C162.136 106.687 160.585 106.592 159.227 106.867C158.273 107.06 157.372 107.459 156.587 108.034C156.554 108.062 156.533 108.102 156.528 108.145C156.524 108.188 156.536 108.231 156.562 108.265C156.786 108.571 157.083 108.815 157.427 108.976C157.77 109.138 158.148 109.21 158.526 109.188C158.668 109.375 158.526 109.65 158.32 109.784C158.029 109.99 157.631 110.04 157.573 110.531C157.552 110.702 157.587 110.876 157.672 111.026C157.89 111.359 158.228 111.595 158.617 111.684C160.488 112.255 162.51 111.251 163.911 109.883C165.311 108.515 166.316 106.788 167.69 105.396C168.452 104.626 169.316 103.966 170.1 103.219C171.664 101.729 172.879 99.9181 174.053 98.1046C174.406 97.5579 174.761 96.9967 174.909 96.3634C175.058 95.73 174.987 95.0904 175.155 94.4777C175.373 93.6731 175.961 93.0335 176.45 92.3589C177.41 91.0385 178.049 89.4231 177.923 87.7974C177.797 86.1716 176.789 84.5645 175.254 84.0116C174.778 83.8205 174.253 83.7887 173.758 83.9208C173.129 84.1147 172.664 84.6346 172.235 85.1318L171.204 86.3181C170.947 86.5784 170.743 86.8869 170.605 87.2259C170.539 87.3961 170.524 87.5818 170.56 87.7607C170.597 87.9396 170.684 88.1041 170.812 88.2347" fill="black"/>
<path d="M175.07 135.942C173.89 136.662 172.419 136.705 171.047 136.538C170.826 136.511 170.564 136.495 170.428 136.666C170.222 136.914 170.465 137.285 170.717 137.477C171.526 138.084 172.477 138.476 173.479 138.614C174.375 138.741 175.278 138.801 176.182 138.793C178.658 138.836 181.133 138.878 183.57 138.523C183.714 138.512 183.855 138.471 183.983 138.403C184.14 138.293 184.249 138.127 184.288 137.939C184.455 137.304 184.133 136.623 183.646 136.181C183.159 135.74 182.534 135.494 181.924 135.257L179.778 134.421C179.275 134.225 178.468 133.706 177.921 133.747C176.894 133.821 175.922 135.443 175.07 135.942Z" fill="#3F3D56"/>
<path opacity="0.05" d="M175.07 135.942C173.89 136.662 172.419 136.705 171.047 136.538C170.826 136.511 170.564 136.495 170.428 136.666C170.222 136.914 170.465 137.285 170.717 137.477C171.526 138.084 172.477 138.476 173.479 138.614C174.375 138.741 175.278 138.801 176.182 138.793C178.658 138.836 181.133 138.878 183.57 138.523C183.714 138.512 183.855 138.471 183.983 138.403C184.14 138.293 184.249 138.127 184.288 137.939C184.455 137.304 184.133 136.623 183.646 136.181C183.159 135.74 182.534 135.494 181.924 135.257L179.778 134.421C179.275 134.225 178.468 133.706 177.921 133.747C176.894 133.821 175.922 135.443 175.07 135.942Z" fill="black"/>
<path d="M176.574 107.459C175.681 108.647 174.757 110.019 174.977 111.49C175.097 112.282 175.541 112.982 175.867 113.714C176.308 114.708 176.539 115.777 176.766 116.842C177.1 118.397 177.437 119.957 177.641 121.537C177.874 123.322 176.778 128.486 176.677 130.283C176.653 130.716 176.601 131.184 176.3 131.496C176.182 131.62 176.025 131.719 175.972 131.88C175.94 132.035 175.966 132.196 176.044 132.333C176.547 133.468 177.577 134.314 178.726 134.797C179.875 135.28 182.646 136.113 183.898 136.156C184.063 136.175 184.23 136.153 184.385 136.092C184.552 135.991 184.683 135.84 184.761 135.661C185.658 133.945 184.796 127.842 184.808 125.905C184.82 124.289 185.202 122.684 185.132 121.071C185.074 119.775 184.719 118.509 184.602 117.217C184.395 115.1 184.783 112.973 185.173 110.881C185.47 109.276 185.769 107.671 186.151 106.087C186.384 105.119 186.655 104.143 187.183 103.304C187.595 102.637 188.175 102.08 188.656 101.447C189.99 99.6975 190.583 97.4937 190.306 95.3111C190.277 95.1048 187.212 96.0889 186.941 96.2065C185.839 96.6734 184.824 97.3259 183.942 98.1355C183.232 98.8122 182.673 99.7158 182.052 100.473C181.173 101.544 180.305 102.623 179.448 103.71C178.47 104.952 177.512 106.202 176.574 107.459Z" fill="#464353"/>
<path opacity="0.05" d="M176.574 107.387C175.681 108.575 174.757 109.949 174.977 111.418C175.097 112.212 175.541 112.912 175.867 113.644C176.308 114.636 176.539 115.707 176.766 116.769C177.1 118.327 177.437 119.887 177.641 121.465C177.874 123.252 176.778 128.414 176.677 130.211C176.653 130.644 176.601 131.114 176.3 131.426C176.182 131.548 176.025 131.647 175.972 131.807C175.94 131.962 175.966 132.124 176.044 132.261C176.547 133.398 177.577 134.242 178.726 134.737C179.875 135.232 182.646 135.663 183.898 135.705C184.063 135.723 184.23 135.701 184.385 135.641C184.552 135.54 184.683 135.39 184.761 135.212C185.658 133.495 184.796 127.784 184.808 125.845C184.82 124.228 185.202 122.625 185.132 121.009C185.074 119.714 184.719 118.447 184.602 117.157C184.395 115.039 184.783 112.912 185.173 110.82C185.47 109.216 185.769 107.611 186.151 106.025C186.384 105.057 186.655 104.081 187.183 103.242C187.595 102.575 188.175 102.018 188.656 101.385C189.99 99.6359 190.583 97.4319 190.306 95.2493C190.277 95.043 187.212 96.0271 186.941 96.1447C185.839 96.6131 184.824 97.2661 183.942 98.0757C183.232 98.7504 182.673 99.654 182.052 100.411C181.173 101.483 180.305 102.562 179.448 103.65C178.47 104.883 177.512 106.128 176.574 107.387Z" fill="black"/>
<path d="M166.634 81.2862C169.399 81.2862 171.641 79.0445 171.641 76.2791C171.641 73.5137 169.399 71.2719 166.634 71.2719C163.869 71.2719 161.627 73.5137 161.627 76.2791C161.627 79.0445 163.869 81.2862 166.634 81.2862Z" fill="#FBBEBE"/>
<path d="M171.145 76.0686C171.607 76.8065 172.214 77.4436 172.928 77.942C173.642 78.4404 174.45 78.7897 175.302 78.9693L174.924 80.3413C174.272 82.6973 173.54 85.1896 171.72 86.8235C171.927 86.0251 171.663 85.1731 171.213 84.4799C170.763 83.7866 170.132 83.242 169.513 82.7035L166.631 80.2072C166.548 80.1394 166.478 80.0569 166.424 79.9637C166.353 79.7877 166.353 79.5909 166.424 79.4149C166.792 78.272 167.84 77.5581 168.694 76.7865C169.122 76.3875 169.505 75.9419 169.835 75.4579C170.41 74.6368 170.767 75.462 171.145 76.0686Z" fill="#FBBEBE"/>
<path d="M160.038 71.2451L159.925 70.3043C160.715 70.5106 161.466 69.838 161.971 69.1428C162.477 68.4475 162.945 67.6285 163.715 67.3376C164.649 66.9868 165.64 67.5439 166.533 68.0143C167.533 68.5692 168.631 68.9264 169.766 69.0664C169.947 69.0724 170.126 69.1016 170.3 69.1531C170.882 69.3594 171.158 70.0897 171.243 70.752C171.328 71.4142 171.305 72.1178 171.592 72.7078C171.798 73.1555 172.182 73.4877 172.417 73.9292C173.036 75.1134 172.437 76.7329 173.083 77.8944L171.478 76.4235C171.332 76.2894 171.125 76.1491 170.962 76.2625C170.834 76.3533 170.824 76.5493 170.773 76.7061C170.618 77.1641 170.044 77.3003 169.63 77.1187C169.215 76.9372 168.912 76.5431 168.598 76.1841C167.888 75.3465 167.042 74.61 166.052 74.2531C165.618 74.0908 165.154 74.0227 164.692 74.0533C164.23 74.0839 163.779 74.2125 163.37 74.4305C162.621 74.8534 162.072 75.8396 161.154 75.8747C159.896 75.9221 159.372 73.5784 158.79 72.6521C159.003 72.4919 159.153 72.2619 159.213 72.0024C159.273 71.7429 159.241 71.4704 159.12 71.2327C159.205 71.1976 160.02 71.1007 160.038 71.2451Z" fill="#464353"/>
<path d="M98.1064 41.9718C97.7041 42.3296 97.3322 42.7202 96.9944 43.1395C96.6544 43.5646 96.4735 44.0951 96.4828 44.6394C96.4846 44.7972 96.535 44.9506 96.6272 45.0788C96.6743 45.1401 96.7394 45.1852 96.8133 45.2078C96.8873 45.2303 96.9665 45.2292 97.0398 45.2046C97.1227 45.1624 97.1937 45.0999 97.2461 45.0231C97.4642 44.7611 97.6955 44.5104 97.9393 44.2721C98.028 44.1834 98.1456 44.0906 98.2653 44.1236C98.3189 44.1426 98.3671 44.1745 98.4056 44.2164C98.5444 44.3364 98.6454 44.4941 98.6965 44.6703C98.7687 44.986 98.5851 45.3016 98.3767 45.5492C98.1683 45.7968 97.9228 46.034 97.8382 46.3455C97.8062 46.4278 97.8062 46.5191 97.8382 46.6014C97.8781 46.6609 97.9339 46.708 97.9992 46.7375C98.2946 46.9002 98.6222 46.996 98.9587 47.0181C99.2953 47.0402 99.6325 46.9881 99.9467 46.8654C100.359 46.6983 100.727 46.4116 101.152 46.263C101.336 46.2127 101.514 46.1435 101.684 46.0567C101.805 45.9758 101.91 45.8716 101.991 45.7501C102.072 45.6287 102.128 45.4924 102.156 45.3491C102.21 45.0627 102.22 44.7699 102.187 44.4805C102.136 43.3597 101.896 42.2556 101.478 41.2146C101.453 41.1475 101.412 41.0877 101.358 41.0413C101.296 41.0035 101.224 40.9841 101.152 40.9856C100.623 40.9299 99.7569 40.6596 99.2473 40.8556C99.0691 40.9533 98.9153 41.0902 98.7976 41.2559C98.7027 41.3611 98.1064 41.8335 98.1064 41.9718Z" fill="#A1616A"/>
<path d="M97.9393 41.5055C97.9393 41.0021 97.3204 39.7869 98.3045 39.7065C98.3045 39.168 97.5432 38.8338 97.6856 38.2623C97.7309 38.0725 97.8919 37.9178 97.9104 37.7238C97.9723 37.173 96.9779 36.8738 97.143 36.3457C97.2048 36.1394 97.4235 36.0197 97.471 35.8155C97.5824 35.3389 96.7303 35.1264 96.7138 34.6374C96.7138 34.4724 96.8067 34.3176 96.7984 34.1526C96.7984 33.9463 96.6189 33.7895 96.5199 33.61C96.262 33.1499 96.3879 32.4382 95.9175 32.2009C96.229 32.2277 96.3301 31.7656 96.2022 31.4829C96.0743 31.2003 95.8123 30.9548 95.8102 30.6412C95.8256 30.5276 95.8256 30.4124 95.8102 30.2987C95.7235 29.9975 95.2305 29.9728 95.1479 29.6798C95.1373 29.5673 95.1338 29.4543 95.1376 29.3414C95.1046 29.1083 94.8653 28.9598 94.6404 28.8938C94.4068 28.8541 94.182 28.7738 93.9761 28.6565C93.8317 28.5472 93.6646 28.3656 93.5098 28.4502C93.4521 28.4853 93.4232 28.5513 93.3798 28.6008C93.1942 28.8174 92.8393 28.7225 92.6062 28.5637C91.9171 28.0953 91.5746 27.2557 91.4281 26.4366C91.2817 25.6176 91.2858 24.7717 91.1022 23.9609C91.0462 23.7082 90.9717 23.46 90.8794 23.2182C90.801 23.0119 90.5493 22.688 90.5328 22.4796C90.4956 22.0051 91.4777 22.329 91.8511 22.3764C92.2136 22.4118 92.5721 22.4809 92.9218 22.5827C93.2951 22.7238 93.6608 22.8842 94.0174 23.0634C95.5069 23.7216 97.3059 23.802 98.5025 24.9078C98.8966 25.271 99.2288 25.7475 99.7404 25.9126C99.9751 25.9576 100.207 26.0175 100.434 26.0921C101.001 26.3582 101.09 27.1112 101.399 27.6559C101.496 27.7997 101.581 27.9516 101.653 28.1098C101.713 28.2964 101.74 28.4916 101.735 28.6874L101.779 30.1172C101.849 32.5124 101.919 34.9139 101.663 37.2947C101.581 38.0807 101.457 38.8895 101.69 39.6446C101.752 39.8509 101.839 40.0448 101.896 40.2532C101.947 40.4975 101.974 40.7463 101.975 40.9959L102.008 41.9222C102.019 41.9943 102.003 42.068 101.962 42.1285C101.928 42.1565 101.888 42.1765 101.844 42.1868C101.801 42.1972 101.756 42.1977 101.713 42.1884C100.423 42.0728 99.1194 41.3466 97.9022 41.7861" fill="#464353"/>
<path d="M156.783 112.682C165.21 112.682 172.042 111.695 172.042 110.477C172.042 109.259 165.21 108.272 156.783 108.272C148.356 108.272 141.524 109.259 141.524 110.477C141.524 111.695 148.356 112.682 156.783 112.682Z" fill="#504F60"/>
<path d="M169.91 110.584C169.642 109.435 169.475 108.426 169.475 108.426C169.475 108.426 169.537 107.176 168.976 106.237V105.924V103.613C169.136 103.193 169.331 102.788 169.56 102.402C169.972 101.676 169.56 99.0144 169.56 99.0144C169.56 99.0144 168.019 95.2616 168.392 92.8808C168.765 90.5 165.227 82.3095 165.227 82.3095C165.249 81.5196 165.36 80.7347 165.559 79.9699C165.597 79.8091 165.612 79.6439 165.605 79.4789C165.605 79.4583 165.605 79.4397 165.605 79.4191C165.605 79.3984 165.605 79.4315 165.605 79.4376C165.551 77.8676 164.309 74.9256 164.309 74.9256L164.476 69.3181C164.476 69.3181 165.268 66.0172 163.977 61.5712C163.525 60.0218 163.236 58.7819 163.053 57.8246C163.032 57.7173 163.011 57.6183 162.995 57.5131C165.654 57.1004 167.686 56.7703 167.686 56.7703C167.686 56.7703 166.143 50.3149 165.101 49.1843C164.06 48.0537 163.226 44.5031 163.226 44.5031C163.226 44.5031 162.683 39.9458 163.56 38.613C164.437 37.2802 164.561 34.9819 164.561 34.9819C164.561 34.9819 166.56 33.5378 166.812 32.8838C167.063 32.2298 167.478 30.7856 167.478 30.0202C167.478 29.2548 167.228 28.576 167.311 28.1634C167.393 27.7508 166.727 26.2261 167.061 25.4999C167.148 25.2768 167.193 25.0398 167.193 24.8005C167.194 24.7937 167.194 24.7867 167.193 24.7799C167.196 24.1444 167.138 23.5101 167.018 22.886C166.44 22.3976 165.765 22.037 165.037 21.8276L164.994 21.6543L164.881 21.2004C164.817 21.1586 164.752 21.12 164.685 21.0849V20.9198L164.666 20.2638L164.98 18.7907C165.599 16.2283 162.176 15.8467 162.176 15.8467C161.968 15.4536 161.623 15.151 161.206 14.9967C160.519 14.7553 161.093 18.8505 161.413 19.1229C161.654 19.3292 162.401 20.6042 162.762 21.2355L162.82 21.3386C162.763 21.3894 162.711 21.4446 162.663 21.5037L162.793 22.3929L162.813 22.529C162.587 22.8107 162.402 23.1242 162.267 23.4595C162.267 23.4595 162.886 24.1445 162.768 24.9037C162.65 25.6629 162.96 26.6264 162.974 26.6779C162.937 26.6346 162.498 26.1601 162.058 26.2756C161.619 26.3912 160.391 26.7605 160.391 26.7605C160.391 26.7605 159.475 26.9214 159.566 27.1236C159.657 27.3258 158.947 28.2129 158.947 28.2129L156.484 25.8775C156.459 25.8073 156.432 25.7372 156.412 25.6712C156.311 25.3344 156.242 24.9891 156.205 24.6396C156.474 24.5758 156.737 24.4924 156.993 24.39C157.252 24.3011 157.486 24.1511 157.674 23.9526C157.924 23.6576 157.971 23.2573 158.072 22.8901C158.266 22.1721 158.691 21.5346 158.986 20.8517C159.486 19.6978 159.647 18.4256 159.451 17.1836C159.413 16.8008 159.283 16.4328 159.073 16.1107C158.671 15.5578 157.94 15.333 157.41 14.8914C156.88 14.4499 156.537 13.7753 155.919 13.4473C155.359 13.1481 154.681 13.1832 154.049 13.2864C152.816 13.4897 151.632 13.9206 150.557 14.5572C150.198 14.7635 149.801 15.0173 149.389 14.941C149.034 14.877 148.77 14.5944 148.547 14.322C148.55 14.3108 148.553 14.2997 148.557 14.289C148.547 14.279 148.538 14.2679 148.531 14.256C148.269 14.8354 148.139 15.465 148.147 16.1004C148.147 16.1995 148.147 16.3067 148.159 16.3954V16.4986C148.159 16.5275 148.159 16.5564 148.159 16.5832C148.159 16.6272 148.153 16.6709 148.141 16.7132C148.089 16.8394 148.01 16.9527 147.91 17.0453C147.834 17.1313 147.765 17.2231 147.703 17.3197C147.703 17.2867 147.724 17.2537 147.736 17.2186C147.579 17.4484 147.49 17.7181 147.48 17.9964C147.469 18.199 147.535 18.3983 147.666 18.5535C147.79 18.6734 147.924 18.7812 148.068 18.8753C148.019 19.1477 147.995 19.4238 147.994 19.7005C147.999 20.5209 148.215 21.3262 148.622 22.0386C149.029 22.751 149.613 23.3462 150.317 23.7669C150.346 23.835 150.373 23.9051 150.4 23.9732C150.715 24.7985 150.953 25.7681 150.847 26.6553C150.847 26.7192 150.829 26.7852 150.819 26.8492C150.808 26.9131 150.757 26.9173 150.73 26.9523C150.73 26.9523 146.659 26.9936 145.702 26.1271C144.745 25.2606 143.284 28.2459 143.284 28.2459C143.284 28.2459 141.825 28.5285 141.533 28.2459C141.24 27.9633 139.533 28.2067 139.533 28.2067C138.834 27.585 137.925 27.2531 136.99 27.2783C136.423 26.8477 135.798 26.5004 135.133 26.2468L135.087 26.2303C134.794 26.1233 134.48 26.0838 134.169 26.1147C134.169 26.1147 132.168 24.4642 131.584 23.573C131 22.6817 128.221 19.3911 128.209 19.3766V19.2178L128.178 18.7391C128.095 18.7521 128.012 18.759 127.928 18.7598C127.914 18.7123 127.893 18.6566 127.873 18.5927C127.713 18.1258 127.515 17.6725 127.283 17.2372C127.283 17.2372 127.283 16.6327 127.458 16.48C127.633 16.3274 127.386 14.1095 127.386 14.1095C127.386 14.1095 125.583 9.89462 123.967 13.0408C123.967 13.0408 120.914 15.0771 123.476 17.4497C123.476 17.4497 124.508 17.9448 124.644 18.3368C124.739 18.5906 125.085 19.3024 125.319 19.781L125.424 19.9873L125.395 20.0121L125.432 20.4082L125.449 20.5609C124.966 20.8352 124.638 21.1076 124.718 21.3118C124.86 21.6613 124.958 22.0273 125.009 22.4011C125.009 22.4011 128.554 26.8409 129.012 28.7369C129.012 28.7369 138.516 34.3857 141.642 34.788L141.089 37.6041C141.008 38.3683 140.967 39.1361 140.965 39.9045C141.006 40.509 140.59 43.2529 140.59 43.2529C140.59 43.2529 140.047 47.2883 139.589 47.8536C139.131 48.4189 139.214 50.8389 139.214 50.8389C139.105 51.9975 138.898 53.1446 138.595 54.2678C138.137 55.8007 138.469 57.6987 138.469 57.6987C138.469 57.6987 136.886 61.3298 140.678 58.8685C140.678 58.8685 142.535 58.753 144.685 58.6787C144.685 58.7489 144.685 58.8211 144.685 58.885C144.685 59.1615 144.685 59.4606 144.67 59.7742C144.642 61.8538 144.629 64.7257 144.724 66.8878C144.891 70.721 146.059 78.3071 146.059 78.3071V82.1259C145.984 82.484 145.946 82.8492 145.948 83.2152C145.923 84.5588 146.281 85.8818 146.979 87.0299L147.272 89.5716C147.272 89.5716 147.957 91.2468 147.969 92.2536C147.967 92.3348 147.957 92.4155 147.941 92.495C147.914 92.6232 147.903 92.7541 147.907 92.8849C147.868 94.0403 148.564 96.8048 148.564 96.8048C148.564 96.8048 148.605 99.588 149.022 99.7509C149.378 99.8892 148.545 101.354 148.297 101.775C148.291 101.749 148.286 101.723 148.283 101.696L148.231 101.779C148.145 102.004 148.101 102.243 148.101 102.485C148.078 102.675 148.109 102.867 148.191 103.041C148.273 103.214 148.402 103.36 148.564 103.462C149.356 103.947 149.781 104.35 149.108 104.511C148.861 104.549 148.616 104.601 148.374 104.665C148.374 104.634 148.349 104.601 148.339 104.572C148.244 104.609 148.165 104.678 148.115 104.767C148.065 104.856 148.047 104.959 148.064 105.059C148.071 105.387 148.155 105.708 148.31 105.996C148.976 107.49 149.438 108.059 149.438 108.059L149.758 108.024C149.711 108.146 149.649 108.262 149.572 108.369C149.451 108.542 149.289 108.683 149.102 108.781C148.927 108.886 148.733 108.952 148.531 108.977C148.305 108.984 148.083 109.039 147.879 109.138C147.676 109.237 147.496 109.378 147.35 109.551C146.938 110.089 146.674 110.822 147.495 111.465L150.476 112.497C150.476 112.497 155.605 113.163 155.333 112.012C155.06 110.861 154.895 109.854 154.895 109.854C154.917 109.151 154.776 108.453 154.483 107.814C154.429 107.709 154.368 107.609 154.301 107.512L154.483 107.494C154.483 107.494 154.858 104.95 155.357 104.467C155.473 104.356 155.5 104.261 155.473 104.203C155.524 104.065 155.392 103.984 155.225 103.937L155.188 104.038C155.025 104.002 154.858 103.984 154.691 103.982C154.691 103.982 154.524 102.652 155.066 102.167C155.11 102.112 155.142 102.048 155.16 101.98C155.178 101.912 155.182 101.84 155.172 101.771C155.176 101.588 155.156 101.406 155.114 101.228C155.109 101.24 155.102 101.251 155.095 101.261C154.823 100.052 153.899 98.1314 153.899 98.1314C153.899 98.1314 153.857 96.9224 154.192 96.4376C154.526 95.9528 154.148 89.8604 154.148 89.8604C154.148 89.8604 154.274 86.9164 153.899 85.5444C153.523 84.1725 154.357 82.5571 154.357 82.5571C154.357 82.5571 154.357 82.5261 154.357 82.4704V82.4498L154.309 81.9856C154.308 81.9952 154.308 82.0049 154.309 82.0145C154.225 81.2346 154.066 79.8214 153.948 79.1694C153.781 78.2411 153.992 73.8054 153.992 73.8054L154.74 71.9073L156.075 75.1773L157.493 79.5346C157.493 79.5346 158.194 80.4548 158.211 81.3914C158.211 81.4368 158.211 81.4822 158.211 81.5276C158.199 81.6241 158.194 81.7213 158.194 81.8185C158.169 82.369 158.32 82.9132 158.625 83.372C158.625 83.372 159.001 85.4351 159.585 85.9529C160.169 86.4708 160.168 87.4858 160.168 87.4858C160.168 87.4858 160.876 90.4732 161.2 90.9931C161.481 91.4346 161.495 92.6436 161.493 93.0211C161.493 93.0892 161.493 93.1284 161.493 93.1284C161.493 93.1284 161.592 94.1971 161.588 95.0925C161.588 95.2039 161.588 95.3112 161.588 95.4122C161.589 95.4047 161.589 95.3971 161.588 95.3896C161.588 95.6342 161.559 95.8779 161.501 96.1158L161.489 96.157C161.489 96.1054 161.489 96.0559 161.503 96.0064C161.358 96.6145 161.289 97.2381 161.297 97.8632C161.278 98.936 161.441 100.207 162.091 100.958C163.218 102.249 163.925 102.088 163.925 102.088C163.925 102.088 163.385 103.702 162.716 104.026C162.691 104.038 162.668 104.053 162.646 104.071C162.646 104.038 162.634 104.007 162.63 103.976C162.555 104.057 162.498 104.152 162.463 104.256C162.427 104.359 162.414 104.469 162.423 104.579C162.376 105.288 162.824 106.435 163.249 106.97C163.407 107.124 163.6 107.238 163.812 107.3C163.778 107.324 163.743 107.345 163.707 107.364C163.633 107.405 163.556 107.441 163.478 107.473C163.369 107.519 163.255 107.549 163.137 107.562C162.911 107.568 162.689 107.622 162.485 107.721C162.282 107.82 162.102 107.961 161.957 108.135C161.545 108.672 161.281 109.404 162.102 110.048L165.083 111.079C165.083 111.079 170.179 111.733 169.91 110.584Z" fill="url(#paint0_linear_514_3995)"/>
<path d="M150.33 112.491L147.442 111.459C146.645 110.815 146.899 110.083 147.301 109.544C147.44 109.373 147.613 109.233 147.811 109.134C148.008 109.035 148.224 108.979 148.444 108.971C148.64 108.946 148.828 108.879 148.995 108.775C149.178 108.675 149.335 108.534 149.453 108.362C149.664 108.028 149.777 107.641 149.781 107.246C149.781 107.246 152.95 106.318 153.817 107.246C153.971 107.414 154.1 107.604 154.2 107.809C154.488 108.45 154.629 109.147 154.613 109.85C154.613 109.85 154.774 110.857 155.036 112.008C155.298 113.159 150.33 112.491 150.33 112.491Z" fill="#2D293D"/>
<path d="M164.45 111.067L161.562 110.035C160.765 109.392 161.019 108.659 161.421 108.123C161.559 107.951 161.732 107.81 161.929 107.711C162.126 107.612 162.342 107.557 162.562 107.549C162.676 107.538 162.788 107.508 162.892 107.461C162.969 107.429 163.043 107.392 163.115 107.351C163.922 106.908 163.901 105.819 163.901 105.819C163.901 105.819 167.068 104.89 167.937 105.819C168.053 105.944 168.155 106.083 168.24 106.231C168.783 107.17 168.723 108.422 168.723 108.422C168.723 108.422 168.884 109.431 169.135 110.58C169.387 111.729 164.45 111.067 164.45 111.067Z" fill="#2D293D"/>
<path opacity="0.1" d="M153.818 107.244C153.973 107.412 154.102 107.602 154.202 107.807L149.457 108.358C149.668 108.024 149.781 107.637 149.785 107.242C149.785 107.242 152.952 106.316 153.818 107.244Z" fill="black"/>
<path opacity="0.1" d="M168.244 106.235V107.124C167.505 108.34 163.934 108.074 162.896 107.465C162.973 107.433 163.047 107.396 163.119 107.356C163.926 106.912 163.905 105.823 163.905 105.823C163.905 105.823 167.072 104.894 167.941 105.823C168.057 105.948 168.159 106.087 168.244 106.235Z" fill="black"/>
<path d="M168.807 102.402C168.586 102.79 168.398 103.195 168.243 103.613V106.801C167.435 108.131 163.24 107.688 162.673 106.962C162.106 106.235 161.514 104.345 162.151 104.017C162.789 103.689 163.321 102.08 163.321 102.08C163.321 102.08 162.634 102.241 161.545 100.95C160.455 99.6581 160.779 96.7945 160.981 96.1096C161.184 95.4246 160.981 93.1243 160.981 93.1243C160.981 93.1243 161.023 91.5089 160.701 90.9848C160.379 90.4608 159.692 87.4776 159.692 87.4776C159.692 87.4776 159.692 86.4687 159.127 85.9447C158.561 85.4207 158.198 83.3617 158.198 83.3617C157.868 82.8472 157.726 82.2341 157.796 81.6266C157.916 80.6178 157.109 79.5284 157.109 79.5284L155.737 75.1691L154.445 71.9011L153.719 73.7971C153.719 73.7971 153.513 78.2349 153.68 79.1612C153.847 80.0875 154.093 82.5509 154.093 82.5509C154.093 82.5509 153.286 84.1642 153.649 85.5362C154.012 86.9082 153.88 89.8563 153.88 89.8563C153.88 89.8563 154.243 95.9466 153.919 96.4314C153.595 96.9163 153.637 98.1273 153.637 98.1273C153.637 98.1273 155.287 101.676 154.767 102.161C154.247 102.645 154.404 103.976 154.404 103.976C154.404 103.976 155.533 103.976 155.05 104.461C154.567 104.946 154.202 107.488 154.202 107.488L149.323 108.059C149.323 108.059 148.877 107.496 148.231 105.996C147.586 104.496 148.351 104.665 149.001 104.502C149.651 104.339 149.24 103.939 148.473 103.454C147.705 102.969 148.151 101.88 148.151 101.88C148.151 101.88 149.321 99.9036 148.916 99.7427C148.512 99.5818 148.473 96.7966 148.473 96.7966C148.473 96.7966 147.666 93.4956 147.868 92.6003C148.07 91.7049 147.223 89.5757 147.223 89.5757L146.94 87.034C146.077 85.5917 145.762 83.8867 146.053 82.2311V78.3112C146.053 78.3112 144.922 70.7272 144.761 66.894C144.658 64.4389 144.687 61.0884 144.72 58.9985C144.741 57.8267 144.761 57.0489 144.761 57.0489L162.19 55.2333C162.19 55.2333 162.174 56.0379 162.506 57.8225C162.685 58.7798 162.964 60.0197 163.401 61.5691C164.652 66.0069 163.886 69.314 163.886 69.314L163.723 74.9236C163.723 74.9236 165.256 78.6743 164.934 79.9658C164.74 80.7327 164.63 81.5187 164.608 82.3095C164.608 82.3095 168.037 90.5 167.674 92.8808C167.311 95.2617 168.803 99.0144 168.803 99.0144C168.803 99.0144 169.211 101.676 168.807 102.402Z" fill="#464353"/>
<path opacity="0.05" d="M158.842 81.3832L164.148 80.6755C164.148 80.6755 161.142 83.7434 158.842 81.3832Z" fill="black"/>
<path opacity="0.1" d="M163.381 75.491C163.381 75.491 163.562 77.3684 162.413 78.0739C162.413 78.0739 164.47 77.7521 163.381 75.491Z" fill="black"/>
<path opacity="0.1" d="M163.055 69.5203C163.055 69.5203 158.62 73.172 157.006 72.8688C155.393 72.5655 163.055 69.5203 163.055 69.5203Z" fill="black"/>
<path opacity="0.1" d="M152.265 83.0956C152.265 83.0956 148.896 83.861 148.795 85.2144C148.693 86.5678 152.265 83.0956 152.265 83.0956Z" fill="black"/>
<path opacity="0.05" d="M153.006 99.9222C153.006 99.9222 148.246 100.809 149.597 101.414C150.949 102.018 153.169 102.503 153.169 102.503C153.169 102.503 154.706 102.584 153.006 99.9222Z" fill="black"/>
<g opacity="0.05">
<path opacity="0.05" d="M148.636 102.375C148.516 102.3 148.415 102.2 148.339 102.08C148.264 101.961 148.217 101.826 148.2 101.686L148.151 101.771C148.151 101.771 147.707 102.86 148.475 103.343C148.562 103.398 148.646 103.454 148.722 103.508C148.865 103.481 149.017 103.46 149.164 103.423C149.814 103.262 149.403 102.86 148.636 102.375Z" fill="black"/>
<path opacity="0.05" d="M154.768 102.051C154.9 101.932 154.896 101.622 154.815 101.226C154.609 101.538 154.549 102.024 154.545 102.394C154.595 102.266 154.671 102.149 154.768 102.051Z" fill="black"/>
<path opacity="0.05" d="M154.035 81.9794C153.859 82.4566 153.751 82.9558 153.713 83.4627C153.805 83.1125 153.928 82.7714 154.082 82.4436L154.035 81.9794Z" fill="black"/>
<path opacity="0.05" d="M164.936 79.8627C164.968 79.7177 164.983 79.5695 164.98 79.4211C164.92 79.7224 164.879 80.0009 164.848 80.2464C164.874 80.1206 164.903 80.0009 164.936 79.8627Z" fill="black"/>
<path opacity="0.05" d="M153.922 96.3241C153.988 96.2251 154.025 95.8909 154.042 95.4267C153.892 95.7859 153.813 96.1704 153.809 96.5593C153.837 96.4766 153.875 96.3977 153.922 96.3241Z" fill="black"/>
<path opacity="0.05" d="M154.912 103.933C154.662 104.742 154.476 105.57 154.357 106.409L149.478 106.972C149.478 106.972 149.032 106.409 148.386 104.909C148.334 104.793 148.288 104.674 148.248 104.554C147.955 104.688 147.835 104.991 148.223 105.876C148.869 107.37 149.317 107.939 149.317 107.939L154.196 107.374C154.196 107.374 154.559 104.832 155.042 104.348C155.289 104.114 155.137 103.993 154.912 103.933Z" fill="black"/>
<path opacity="0.05" d="M148.475 96.6872C148.475 96.6872 148.514 99.4704 148.919 99.6313C149.125 99.1712 149.259 98.7338 149.078 98.6616C148.665 98.5007 148.634 95.7155 148.634 95.7155C148.634 95.7155 147.827 92.4146 148.029 91.5192C148.232 90.6238 147.384 88.4947 147.384 88.4947L147.101 85.9529C146.238 84.5106 145.923 82.8056 146.214 81.15V77.2301C146.214 77.2301 145.083 69.6462 144.922 65.8129C144.819 63.3578 144.848 60.0074 144.881 57.9174C144.881 57.5399 144.894 57.2057 144.9 56.923L144.762 56.9375C144.762 56.9375 144.739 57.7132 144.72 58.8871C144.687 60.977 144.656 64.3275 144.762 66.7805C144.922 70.6138 146.051 78.1998 146.051 78.1998V82.1197C145.761 83.7748 146.077 85.4789 146.94 86.9205L147.221 89.4623C147.221 89.4623 148.069 91.5996 147.866 92.4888C147.664 93.378 148.475 96.6872 148.475 96.6872Z" fill="black"/>
<path opacity="0.05" d="M162.838 105.885C162.442 105.311 162.178 104.656 162.065 103.968C161.567 104.418 162.139 106.163 162.684 106.856C163.247 107.583 167.443 108.026 168.254 106.693V105.926C167.154 107.005 163.371 106.572 162.838 105.885Z" fill="black"/>
<path opacity="0.05" d="M168.97 101.325C168.748 101.713 168.559 102.118 168.404 102.536V103.108C168.497 102.901 168.627 102.625 168.817 102.299C168.945 101.981 169.005 101.64 168.994 101.298C168.994 101.298 168.976 101.317 168.97 101.325Z" fill="black"/>
<path opacity="0.05" d="M163.086 101.963C163.24 101.652 163.373 101.331 163.485 101.003C163.485 101.003 162.798 101.164 161.708 99.8727C160.916 98.934 160.871 97.1597 160.984 96.0002C160.778 96.6873 160.458 99.5509 161.547 100.842C162.259 101.686 162.798 101.909 163.086 101.963Z" fill="black"/>
<path opacity="0.05" d="M160.981 93.0149C161.053 93.8099 161.079 94.6081 161.062 95.4061C161.082 95.2801 161.11 95.1554 161.144 95.0326C161.351 94.3456 161.144 92.0473 161.144 92.0473C161.144 92.0473 161.186 90.4319 160.862 89.9079C160.538 89.3839 159.863 86.3965 159.863 86.3965C159.863 86.3965 159.863 85.3876 159.298 84.8636C158.733 84.3396 158.37 82.2806 158.37 82.2806C158.036 81.7671 157.89 81.1542 157.957 80.5455C158.079 79.5367 157.272 78.4474 157.272 78.4474L155.9 74.0901L154.609 70.8221L153.88 72.7202C153.88 72.7202 153.88 72.9595 153.855 73.3391L154.446 71.798L155.737 75.0597L157.109 79.417C157.109 79.417 157.916 80.5063 157.794 81.5152C157.727 82.1238 157.873 82.7368 158.207 83.2503C158.207 83.2503 158.57 85.3134 159.135 85.8333C159.7 86.3532 159.698 87.3662 159.698 87.3662C159.698 87.3662 160.385 90.3515 160.707 90.8734C161.029 91.3954 160.981 93.0149 160.981 93.0149Z" fill="black"/>
</g>
<path d="M164.369 18.7845L164.066 20.2576L164.085 20.9137L164.097 21.3964L162.414 21.5697L162.226 21.2211C161.877 20.5897 161.153 19.3065 160.92 19.1084C160.608 18.8485 160.053 14.7512 160.714 14.9946C161.12 15.1516 161.454 15.4537 161.65 15.8426C161.65 15.8426 164.966 16.2222 164.369 18.7845Z" fill="#FFCDD3"/>
<path opacity="0.1" d="M164.097 21.3964L162.413 21.5697L162.226 21.221C162.452 20.9633 162.761 20.7919 163.099 20.7363C163.438 20.6806 163.785 20.744 164.082 20.9157L164.097 21.3964Z" fill="black"/>
<path d="M164.522 22.1948L162.302 22.7086L162.255 22.3785L162.129 21.4893C162.129 21.4893 163.008 20.3174 164.279 21.1963L164.39 21.6481L164.522 22.1948Z" fill="#912CDB"/>
<path d="M128.562 18.9454L126.191 20.2163L125.985 19.7707C125.76 19.2982 125.424 18.5865 125.331 18.3265C125.191 17.9345 124.202 17.4394 124.202 17.4394C121.727 15.0689 124.677 13.0305 124.677 13.0305C126.241 9.8843 127.978 14.0992 127.978 14.0992C127.978 14.0992 128.221 16.3212 128.05 16.4697C127.879 16.6183 127.879 17.2269 127.879 17.2269C128.105 17.6629 128.296 18.1162 128.45 18.5823C128.523 18.8072 128.562 18.9454 128.562 18.9454Z" fill="#FFCDD3"/>
<path opacity="0.1" d="M128.562 18.9455L126.192 20.2163L125.985 19.7707C126.32 19.4901 127.506 18.5328 127.896 18.572C128.082 18.5953 128.27 18.6001 128.457 18.5865C128.523 18.8072 128.562 18.9455 128.562 18.9455Z" fill="black"/>
<path d="M128.803 19.6613L126.14 20.9735L126.086 20.402L126.049 20.0059C126.049 20.0059 127.592 18.6834 128.048 18.735C128.279 18.7684 128.513 18.7684 128.743 18.735L128.774 19.2136L128.803 19.6613Z" fill="#912CDB"/>
<path d="M157.914 28.5698C157.914 28.5698 146.303 29.8799 148.473 29.1743C149.983 28.6812 150.584 27.7301 150.709 26.6573C150.813 25.764 150.581 24.8005 150.278 23.9753C150.005 23.2432 149.66 22.5403 149.247 21.8771C149.247 21.8771 158.118 16.9958 156.346 21.4336C156.072 22.1048 155.903 22.8136 155.842 23.5359C155.789 24.2536 155.867 24.975 156.071 25.665C156.406 26.7845 157.044 27.7898 157.914 28.5698Z" fill="#FFCDD3"/>
<path opacity="0.1" d="M156.339 21.4274C156.066 22.0986 155.896 22.8075 155.836 23.5297C155.001 24.2332 154.085 24.1858 152.907 24.1858C152.003 24.1858 151 24.4045 150.278 23.9691C150.005 23.237 149.66 22.5341 149.247 21.871C149.247 21.871 158.116 16.9897 156.339 21.4274Z" fill="black"/>
<path d="M152.75 24.4952C155.401 24.4952 157.55 22.3458 157.55 19.6944C157.55 17.043 155.401 14.8936 152.75 14.8936C150.098 14.8936 147.949 17.043 147.949 19.6944C147.949 22.3458 150.098 24.4952 152.75 24.4952Z" fill="#FFCDD3"/>
<path opacity="0.1" d="M157.914 28.5699C157.914 28.5699 146.303 29.8799 148.473 29.1743C149.983 28.6813 150.584 27.7302 150.709 26.6574C151.287 26.0384 152.449 25.5784 153.185 25.339C153.866 25.1101 154.601 25.0978 155.289 25.304C155.56 25.3855 155.818 25.505 156.055 25.6588C156.393 26.7825 157.037 27.7902 157.914 28.5699Z" fill="black"/>
<path opacity="0.1" d="M164.522 22.1949L162.302 22.7086L162.255 22.3785C162.493 22.052 162.825 21.8067 163.207 21.676C163.589 21.5453 164.002 21.5356 164.39 21.6481L164.522 22.1949Z" fill="black"/>
<path opacity="0.1" d="M128.804 19.6614L126.14 20.9735L126.086 20.402C126.949 19.9382 127.846 19.5402 128.768 19.2116L128.804 19.6614Z" fill="black"/>
<path opacity="0.1" d="M162.506 57.8267C158.007 58.5446 151.611 59.4607 150.596 59.1512C149.752 58.8954 147.062 58.9222 144.72 59.0026C144.741 57.8308 144.761 57.053 144.761 57.053L162.191 55.2375C162.191 55.2375 162.174 56.0421 162.506 57.8267Z" fill="black"/>
<path d="M166.991 56.7704C166.991 56.7704 152.184 59.3121 150.596 58.8335C149.007 58.3549 140.848 58.8727 140.848 58.8727C137.175 61.334 138.708 57.7029 138.708 57.7029C138.708 57.7029 138.386 55.8069 138.83 54.274C139.128 53.1486 139.331 52.0003 139.439 50.841C139.439 50.841 139.358 48.419 139.802 47.8537C140.245 47.2884 140.771 43.255 140.771 43.255C140.771 43.255 141.174 40.5111 141.134 39.9066C141.095 39.3021 141.254 37.6062 141.254 37.6062L141.78 34.7819C138.754 34.3796 129.554 28.7308 129.554 28.7308C129.111 26.8348 125.682 22.3971 125.682 22.3971C125.632 22.0239 125.537 21.6581 125.399 21.3077C125.158 20.662 128.789 19.3705 128.789 19.3705C128.789 19.3705 131.492 22.6714 132.057 23.5668C132.622 24.4622 134.557 26.1086 134.557 26.1086C134.858 26.0776 135.162 26.1172 135.444 26.2241L135.492 26.2386C136.14 26.4931 136.749 26.8406 137.297 27.2701C138.207 27.2485 139.089 27.5814 139.758 28.1985C139.758 28.1985 141.409 27.9551 141.696 28.2377C141.982 28.5203 143.389 28.2377 143.389 28.2377C143.389 28.2377 144.801 25.2524 145.729 26.1189C146.657 26.9854 150.596 26.9441 150.596 26.9441C151.12 26.2468 152.397 25.7475 153.195 25.5C153.876 25.2719 154.611 25.2597 155.3 25.4649C155.597 25.5535 155.876 25.6931 156.125 25.8775L158.52 28.2171C158.52 28.2171 159.205 27.3279 159.125 27.1277C159.044 26.9276 159.931 26.7646 159.931 26.7646C159.931 26.7646 161.101 26.4015 161.545 26.2798C161.988 26.1581 162.395 26.6388 162.432 26.6821C162.417 26.6305 162.114 25.6506 162.226 24.9079C162.337 24.1651 161.741 23.4637 161.741 23.4637C163.152 19.9935 166.339 22.8984 166.339 22.8984C166.339 22.8984 166.703 24.7944 166.381 25.5206C166.059 26.2468 166.703 27.7797 166.622 28.1841C166.542 28.5884 166.785 29.2734 166.785 30.0408C166.785 30.8083 166.372 32.2587 166.139 32.9044C165.906 33.5502 163.961 35.0026 163.961 35.0026C163.961 35.0026 163.839 37.303 162.991 38.6337C162.143 39.9644 162.675 44.5156 162.675 44.5156C162.675 44.5156 163.482 48.0662 164.491 49.1967C165.5 50.3273 166.991 56.7704 166.991 56.7704Z" fill="#3F3D56"/>
<path opacity="0.1" d="M145.407 30.2224C145.407 30.2224 144.964 28.8917 144.559 28.7782C144.158 28.6305 143.767 28.4554 143.39 28.2542L143.65 27.757C143.65 27.757 145.164 28.1696 145.407 28.6173C145.651 29.065 145.407 30.2224 145.407 30.2224Z" fill="black"/>
<path opacity="0.1" d="M137.297 27.2783C137.217 27.6909 133.625 28.0437 133.625 28.0437L135.441 26.2241L135.486 26.2406C136.137 26.4965 136.747 26.8461 137.297 27.2783Z" fill="black"/>
<path d="M126.907 22.0628C127.085 22.0628 127.229 21.9187 127.229 21.741C127.229 21.5632 127.085 21.4191 126.907 21.4191C126.73 21.4191 126.585 21.5632 126.585 21.741C126.585 21.9187 126.73 22.0628 126.907 22.0628Z" fill="#575988"/>
<path d="M127.32 22.7086C127.498 22.7086 127.642 22.5645 127.642 22.3867C127.642 22.209 127.498 22.0649 127.32 22.0649C127.142 22.0649 126.998 22.209 126.998 22.3867C126.998 22.5645 127.142 22.7086 127.32 22.7086Z" fill="#575988"/>
<path d="M127.724 23.3048C127.902 23.3048 128.046 23.1607 128.046 22.983C128.046 22.8052 127.902 22.6611 127.724 22.6611C127.546 22.6611 127.402 22.8052 127.402 22.983C127.402 23.1607 127.546 23.3048 127.724 23.3048Z" fill="#575988"/>
<path d="M128.147 23.9485C128.325 23.9485 128.469 23.8044 128.469 23.6267C128.469 23.4489 128.325 23.3048 128.147 23.3048C127.969 23.3048 127.825 23.4489 127.825 23.6267C127.825 23.8044 127.969 23.9485 128.147 23.9485Z" fill="#575988"/>
<path d="M166.178 23.8535C166.323 23.8535 166.44 23.7362 166.44 23.5915C166.44 23.4468 166.323 23.3295 166.178 23.3295C166.033 23.3295 165.916 23.4468 165.916 23.5915C165.916 23.7362 166.033 23.8535 166.178 23.8535Z" fill="#575988"/>
<path d="M166.22 24.4498C166.365 24.4498 166.482 24.3325 166.482 24.1878C166.482 24.0431 166.365 23.9258 166.22 23.9258C166.075 23.9258 165.958 24.0431 165.958 24.1878C165.958 24.3325 166.075 24.4498 166.22 24.4498Z" fill="#575988"/>
<path d="M166.255 25.044C166.4 25.044 166.517 24.9267 166.517 24.782C166.517 24.6373 166.4 24.52 166.255 24.52C166.11 24.52 165.993 24.6373 165.993 24.782C165.993 24.9267 166.11 25.044 166.255 25.044Z" fill="#575988"/>
<path opacity="0.1" d="M145.422 41.1568C145.382 41.1094 154.479 52.5947 161.538 45.9577C161.545 45.9597 150.389 47.472 145.422 41.1568Z" fill="black"/>
<path opacity="0.1" d="M140.202 47.1274C140.202 47.1274 145.645 47.276 146.214 48.8419V50.4717C146.059 50.5577 145.885 50.6028 145.708 50.6028C145.53 50.6028 145.356 50.5577 145.201 50.4717C144.652 50.1746 141.362 48.5035 140.202 49.3081V47.1274Z" fill="black"/>
<path d="M140.303 47.1274C140.303 47.1274 145.508 47.2698 146.053 48.7635V50.3149C145.905 50.3973 145.738 50.4405 145.568 50.4405C145.399 50.4405 145.232 50.3973 145.083 50.3149C144.559 50.0343 141.413 48.4396 140.303 49.207V47.1274Z" fill="#3F3D56"/>
<path opacity="0.1" d="M143.173 35.31C143.729 36.597 144.437 37.8127 145.283 38.9307C146.203 40.1666 147.318 41.2445 148.584 42.1224C148.584 42.1224 143.264 36.0568 143.173 35.31Z" fill="black"/>
<path opacity="0.1" d="M141.393 28.9866C141.393 28.9866 142.3 32.9065 144.64 34.2372L141.393 28.9866Z" fill="black"/>
<path opacity="0.1" d="M140 29.3827C139.977 29.3105 139.193 32.4773 143.016 34.2372C143.016 34.2372 141.393 33.6863 140 29.3827Z" fill="black"/>
<path opacity="0.1" d="M163.765 26.7543C163.705 26.7543 165.651 27.9922 166.181 28.5698C166.181 28.5698 164.914 26.6718 163.765 26.7543Z" fill="black"/>
<path d="M151.452 24.0455C151.453 24.1502 151.475 24.2537 151.518 24.3493C151.561 24.4449 151.623 24.5306 151.7 24.601C151.778 24.6714 151.869 24.7249 151.969 24.7582C152.068 24.7915 152.173 24.8038 152.277 24.7944C153.74 24.8852 155.265 24.9491 156.61 24.3818C156.862 24.2917 157.089 24.1416 157.27 23.9444C157.509 23.6494 157.557 23.2491 157.654 22.8819C157.844 22.1639 158.248 21.5264 158.539 20.8435C159.031 19.6898 159.196 18.4228 159.016 17.1815C158.977 16.801 158.852 16.4346 158.648 16.1108C158.26 15.5558 157.553 15.3309 157.039 14.8894C156.525 14.4479 156.195 13.7733 155.595 13.4453C155.054 13.144 154.392 13.1812 153.783 13.2843C152.586 13.4876 151.439 13.9183 150.404 14.5531C150.055 14.7595 149.674 15.0132 149.274 14.9369C148.923 14.8709 148.667 14.5758 148.448 14.2994C148.167 14.9596 148.049 15.6779 148.104 16.3934C148.119 16.4984 148.115 16.6053 148.093 16.7091C148.043 16.8346 147.966 16.9478 147.869 17.0412C147.508 17.4539 147.283 18.1244 147.64 18.5494C147.794 18.733 148.034 18.8341 148.184 19.0218C148.454 19.3581 148.364 19.8471 148.358 20.2762C148.343 20.426 148.381 20.5764 148.465 20.7012C148.543 20.7739 148.638 20.8253 148.742 20.8502C148.846 20.8752 148.954 20.8729 149.057 20.8435C149.261 20.782 149.476 20.7616 149.688 20.7837C149.912 20.8564 150.105 21.0016 150.237 21.1963C150.903 22.0649 151.167 23.0098 151.452 24.0455Z" fill="#2D293D"/>
<g opacity="0.1">
<path opacity="0.1" d="M157.441 23.5792C157.26 23.7764 157.033 23.9265 156.781 24.0166C155.428 24.5798 153.905 24.5158 152.449 24.4292C152.292 24.4307 152.138 24.3961 151.997 24.3281C151.774 24.1981 151.689 23.9258 151.621 23.6782C151.337 22.6467 151.075 21.6997 150.398 20.8394C150.267 20.6409 150.074 20.492 149.849 20.4164C149.637 20.3964 149.423 20.4167 149.218 20.4763C149.115 20.5059 149.007 20.5085 148.903 20.4839C148.8 20.4593 148.704 20.4084 148.626 20.336C148.541 20.2112 148.503 20.0608 148.518 19.911C148.518 19.4777 148.615 18.9929 148.345 18.6566C148.194 18.4689 147.955 18.3678 147.8 18.1821C147.699 18.0452 147.638 17.8835 147.621 17.7142C147.605 17.5449 147.635 17.3744 147.708 17.2207C147.45 17.6333 147.34 18.1512 147.639 18.506C147.794 18.6896 148.034 18.7907 148.184 18.9785C148.454 19.3168 148.364 19.8037 148.357 20.2328C148.342 20.3825 148.379 20.5329 148.463 20.6578C148.541 20.7309 148.637 20.7825 148.741 20.8074C148.845 20.8324 148.954 20.8299 149.057 20.8002C149.261 20.7386 149.476 20.7183 149.688 20.7404C149.912 20.8131 150.105 20.9583 150.237 21.153C150.912 22.0133 151.176 22.9582 151.46 23.9939C151.494 24.2487 151.621 24.4819 151.817 24.6479C151.959 24.716 152.114 24.7499 152.271 24.7469C153.734 24.8377 155.259 24.9037 156.604 24.3343C156.856 24.2448 157.083 24.0946 157.264 23.8969C157.355 23.7807 157.425 23.6494 157.47 23.509C157.472 23.5359 157.458 23.5585 157.441 23.5792Z" fill="black"/>
<path opacity="0.1" d="M148.104 16.5832C148.169 16.5128 148.219 16.43 148.25 16.3398C148.269 16.2354 148.269 16.1285 148.25 16.0241C148.21 15.4359 148.287 14.8456 148.475 14.287L148.448 14.256C148.166 14.9153 148.048 15.6331 148.104 16.348C148.11 16.4263 148.11 16.5049 148.104 16.5832Z" fill="black"/>
</g>
<path opacity="0.1" d="M150.596 26.9544C150.596 26.9544 156.593 27.7508 157.132 26.8492L150.596 26.9544Z" fill="black"/>
<path opacity="0.1" d="M162.255 24.4725C162.255 24.4725 165.589 24.4725 166.321 25.7269L162.255 24.4725Z" fill="black"/>
<path d="M180.907 135.911C179.918 136.795 178.633 137.275 177.307 137.256C176.968 137.256 176.5 137.32 176.498 137.658C176.506 137.758 176.54 137.853 176.597 137.935C177.016 138.633 177.677 139.152 178.454 139.393C179.176 139.612 179.948 139.575 180.701 139.536L182.898 139.422C183.31 139.4 183.723 139.379 184.136 139.327C184.548 139.276 184.998 139.191 185.429 139.121C186.489 138.97 187.56 138.921 188.629 138.973C188.914 138.983 189.248 138.973 189.417 138.766C189.586 138.56 189.5 138.166 189.436 137.856C189.304 137.219 189.436 136.55 189.314 135.911C189.108 134.789 188.136 133.928 187.071 133.522C186.081 133.146 184.327 132.715 183.391 133.342C182.403 134 181.798 135.1 180.907 135.911Z" fill="#3F3D56"/>
<path d="M183.09 98.3089C183.284 99.2311 184.177 99.9367 184.202 100.877C184.224 101.633 183.686 102.266 183.298 102.912C182.932 103.58 182.624 104.279 182.376 105C181.645 106.876 180.739 108.679 179.669 110.384C179.153 111.209 178.576 112.09 178.693 113.05C178.775 113.498 178.934 113.93 179.161 114.325L180.709 117.399C181.048 118.013 181.313 118.664 181.499 119.34C181.633 119.924 181.645 120.528 181.724 121.123C181.967 123.008 182.852 124.906 182.328 126.734C182.283 126.891 182.122 127.081 181.996 126.972C182.508 127.927 182.918 128.888 182.879 129.971C182.859 130.539 182.685 131.131 182.894 131.659C182.982 131.88 183.137 132.086 183.135 132.323C183.135 132.48 183.063 132.627 183.046 132.779C183.003 133.214 183.403 133.578 183.818 133.716C184.233 133.854 184.684 133.844 185.103 133.97C185.908 134.211 186.483 134.904 187.166 135.385C187.867 135.867 188.693 136.136 189.543 136.159C189.664 136.171 189.787 136.147 189.894 136.088C189.954 136.035 190.003 135.97 190.036 135.897C190.07 135.823 190.087 135.744 190.088 135.663C190.125 135.278 190.067 134.889 189.919 134.532C189.771 134.174 189.537 133.859 189.238 133.613C189.107 133.531 188.998 133.417 188.922 133.283C188.883 133.163 188.874 133.037 188.893 132.913C189.018 131.222 188.987 129.523 188.802 127.838C188.719 127.304 188.692 126.762 188.722 126.223C188.765 125.773 188.901 125.327 188.852 124.88C188.802 124.432 188.573 124.023 188.439 123.592C188.2 122.825 188.266 121.999 188.233 121.197C188.192 119.802 187.872 118.432 187.554 117.071C187.428 116.536 187.29 115.977 186.913 115.581C186.591 115.245 186.071 114.923 186.192 114.475C186.26 114.31 186.36 114.161 186.488 114.036C186.637 113.848 186.747 113.632 186.81 113.401C186.873 113.17 186.888 112.928 186.855 112.691C186.99 112.725 187.134 112.712 187.261 112.652C187.388 112.593 187.49 112.491 187.55 112.365C190.063 111.178 192.089 108.806 192.992 106.175C193.046 105.98 193.128 105.794 193.236 105.623C193.469 105.297 193.873 105.156 194.232 104.977C195.359 104.409 196.137 103.347 196.85 102.307C197.263 101.705 197.676 101.082 197.861 100.372C197.959 99.9129 198.005 99.4445 198 98.9752L198.064 96.5511C198.078 96.3915 198.062 96.2307 198.018 96.0766C197.957 95.9327 197.868 95.8022 197.756 95.6929C197.07 94.9672 196.169 94.4812 195.186 94.3065C194.525 94.1889 193.851 94.2115 193.182 94.1558C191.887 94.0486 190.608 93.6463 189.312 93.7432C187.276 93.8938 185.462 95.305 184.503 97.1081C184.167 97.7436 183.812 98.2965 183.09 98.3089Z" fill="#464353"/>
<path d="M171.784 82.5467C171.812 82.921 171.761 83.2968 171.636 83.6505C171.477 83.9888 171.079 84.2529 170.73 84.1147C170.835 83.8774 170.557 83.6072 170.297 83.636C170.169 83.6655 170.05 83.7256 169.95 83.8111C169.851 83.8967 169.774 84.0051 169.725 84.1271C169.553 84.4736 169.495 84.8659 169.56 85.2473C169.643 85.7218 169.917 86.1778 169.845 86.6544C169.787 87.0505 169.496 87.4445 169.651 87.8118C169.751 87.9795 169.877 88.1306 170.024 88.2595C170.228 88.5105 170.328 88.8303 170.303 89.1527C170.278 89.4752 170.13 89.7757 169.89 89.9925L173.794 90.0709C173.651 90.7228 173.944 91.3892 174.279 91.9689C175.215 93.5628 176.507 94.9181 178.055 95.9286C179.603 96.9391 181.364 97.5772 183.199 97.7931C183.1 97.851 183.015 97.9303 182.95 98.0252C182.885 98.1201 182.842 98.2282 182.824 98.3417C182.806 98.4552 182.814 98.5713 182.846 98.6816C182.879 98.7919 182.935 98.8936 183.012 98.9793C183.329 99.295 183.868 99.2558 184.266 99.0515C184.664 98.8473 184.976 98.5089 185.339 98.2469C185.98 97.7927 186.762 97.5821 187.544 97.6528C188.033 97.7002 188.508 97.8591 188.999 97.8838C190.443 97.9602 191.681 96.9204 193.071 96.4954C194.084 96.1838 195.233 96.1838 196.083 95.5505C196.451 95.2781 196.752 94.8304 196.645 94.3889C196.556 94.1352 196.415 93.9027 196.232 93.706C195.743 93.0727 195.454 92.3114 195.104 91.5914C194.409 90.1658 193.452 88.8837 192.283 87.8118C191.401 87.0407 190.466 86.3321 189.486 85.6909C189.249 85.5159 188.996 85.3633 188.731 85.235C188.388 85.0843 188.008 85.0121 187.699 84.8223C187.241 84.5335 186.977 84.0239 186.624 83.6134C185.85 82.7097 184.662 82.295 183.709 81.5853C183.069 81.1087 182.504 80.4816 181.741 80.2526C181.369 80.1391 180.975 80.1308 180.604 80.0194C179.76 79.7636 179.145 79.0147 178.318 78.7114C177.664 78.4721 176.942 78.534 176.255 78.4494C175.481 78.3539 174.741 78.0721 174.099 77.6283C173.892 77.4599 173.66 77.3248 173.412 77.2281C172.366 76.9103 172.281 78.8579 172.174 79.5325C172.036 80.5352 171.784 81.5317 171.784 82.5467Z" fill="#912CDB"/>
<path d="M172.803 89.0786C172.979 90.9807 171.543 92.8231 171.962 94.6861C172.05 95.0822 172.222 95.4597 172.284 95.862C172.459 96.9658 171.799 98.0118 171.169 98.9361L165.764 106.869C165.547 107.217 165.288 107.537 164.993 107.822C163.961 108.74 162.41 108.647 161.052 108.919C160.098 109.115 159.198 109.514 158.411 110.087C158.376 110.115 158.353 110.155 158.346 110.199C158.34 110.243 158.352 110.288 158.378 110.324C158.602 110.63 158.899 110.874 159.242 111.035C159.585 111.196 159.962 111.269 160.34 111.247C160.483 111.432 160.34 111.709 160.144 111.843C159.855 112.049 159.455 112.097 159.397 112.59C159.378 112.761 159.413 112.934 159.496 113.085C159.715 113.417 160.054 113.652 160.441 113.741C162.313 114.314 164.334 113.308 165.735 111.94C167.136 110.572 168.141 108.845 169.515 107.455C170.276 106.683 171.141 106.025 171.925 105.278C173.488 103.786 174.706 101.977 175.877 100.164C176.23 99.6169 176.587 99.0557 176.734 98.4223C176.88 97.789 176.812 97.1474 176.979 96.5346C177.198 95.7321 177.786 95.0904 178.275 94.4179C179.234 93.0975 179.876 91.4821 179.748 89.8543C179.62 88.2265 178.613 86.6214 177.078 86.0685C176.602 85.8793 176.078 85.8475 175.582 85.9777C174.953 86.1716 174.489 86.6915 174.06 87.1908L173.028 88.375C172.777 88.6373 172.58 88.9464 172.449 89.2849C172.382 89.4554 172.366 89.6414 172.403 89.8207C172.439 90.0001 172.527 90.165 172.655 90.2958" fill="#FBBEBE"/>
<path d="M175.543 81.2759C174.833 81.3171 174.051 81.3873 173.55 81.8948C173.34 82.1278 173.17 82.3942 173.047 82.6829C172.56 83.6753 172.085 84.713 172.05 85.8188C172.021 86.7018 172.277 87.5663 172.411 88.439C172.523 89.1652 172.24 89.9058 172.186 90.6403C173.067 90.37 174.231 90.0028 175.029 89.5468C175.574 89.2353 176.1 88.8805 176.694 88.6824C177.542 88.3998 178.964 88.8887 179.77 89.2807C179.814 88.7154 179.389 87.7292 179.434 87.1619C179.44 86.9231 179.483 86.6866 179.56 86.4604C179.68 86.2212 179.823 85.994 179.987 85.7817C180.294 85.2824 180.435 84.6988 180.39 84.1144C180.346 83.53 180.117 82.9747 179.737 82.5282C179.021 81.7236 177.901 81.4224 176.832 81.2903C176.159 81.2123 175.481 81.1888 174.804 81.2202" fill="#912CDB"/>
</g>
</g>
<defs>
<linearGradient id="paint0_linear_514_3995" x1="146.181" y1="112.682" x2="146.181" y2="11.8669" gradientUnits="userSpaceOnUse">
<stop stop-color="#808080" stop-opacity="0.25"/>
<stop offset="0.54" stop-color="#808080" stop-opacity="0.12"/>
<stop offset="1" stop-color="#808080" stop-opacity="0.1"/>
</linearGradient>
<clipPath id="clip0_514_3995">
<rect width="216.539" height="140" fill="white" transform="translate(0.480469)"/>
</clipPath>
<clipPath id="clip1_514_3995">
<rect width="216.539" height="140" fill="white" transform="translate(0.480469)"/>
</clipPath>
</defs>
</svg>
