<svg width="208" height="208" viewBox="0 0 208 208" fill="none" xmlns="http://www.w3.org/2000/svg">
<g filter="url(#filter0_d_1135_6181)">
<rect x="40" y="28" width="128" height="128" rx="64" fill="#24BAD4"/>
<path d="M86.9333 115C85.5667 115 84.4333 113.867 84.4333 112.5V105.6C84.4333 104.233 85.5667 103.1 86.9333 103.1C88.3 103.1 89.4333 104.233 89.4333 105.6V112.5C89.4333 113.9 88.3 115 86.9333 115Z" fill="white"/>
<path d="M104 115C102.633 115 101.5 113.867 101.5 112.5V98.6666C101.5 97.3 102.633 96.1666 104 96.1666C105.367 96.1666 106.5 97.3 106.5 98.6666V112.5C106.5 113.9 105.367 115 104 115Z" fill="white"/>
<path d="M121.067 115C119.7 115 118.567 113.867 118.567 112.5V91.7667C118.567 90.4001 119.7 89.2667 121.067 89.2667C122.433 89.2667 123.567 90.4001 123.567 91.7667V112.5C123.567 113.9 122.467 115 121.067 115Z" fill="#FCCA03"/>
<path d="M86.9333 95.9333C85.8 95.9333 84.8 95.1667 84.5 94.0333C84.1667 92.7 84.9667 91.3333 86.3333 91C98.6 87.9333 109.4 81.2333 117.633 71.6667L119.167 69.8667C120.067 68.8334 121.633 68.7 122.7 69.6C123.733 70.5 123.867 72.0667 122.967 73.1333L121.433 74.9333C112.533 85.3333 100.8 92.5667 87.5333 95.8667C87.3333 95.9333 87.1333 95.9333 86.9333 95.9333Z" fill="#FCCA03"/>
<path d="M121.067 83.7333C119.7 83.7333 118.567 82.6 118.567 81.2333V74H111.3C109.933 74 108.8 72.8667 108.8 71.5C108.8 70.1333 109.933 69 111.3 69H121.067C122.433 69 123.567 70.1333 123.567 71.5V81.2667C123.567 82.6333 122.467 83.7333 121.067 83.7333Z" fill="#FCCA03"/>
<path d="M114 127.833H94.0001C75.9001 127.833 68.1667 120.1 68.1667 102V82C68.1667 63.9 75.9001 56.1666 94.0001 56.1666H114C132.1 56.1666 139.833 63.9 139.833 82V102C139.833 120.1 132.1 127.833 114 127.833ZM94.0001 61.1666C78.6334 61.1666 73.1667 66.6333 73.1667 82V102C73.1667 117.367 78.6334 122.833 94.0001 122.833H114C129.367 122.833 134.833 117.367 134.833 102V82C134.833 66.6333 129.367 61.1666 114 61.1666H94.0001Z" fill="#FCCA03"/>
</g>
<defs>
<filter id="filter0_d_1135_6181" x="0" y="0" width="208" height="208" filterUnits="userSpaceOnUse" color-interpolation-filters="sRGB">
<feFlood flood-opacity="0" result="BackgroundImageFix"/>
<feColorMatrix in="SourceAlpha" type="matrix" values="0 0 0 0 0 0 0 0 0 0 0 0 0 0 0 0 0 0 127 0" result="hardAlpha"/>
<feOffset dy="12"/>
<feGaussianBlur stdDeviation="20"/>
<feComposite in2="hardAlpha" operator="out"/>
<feColorMatrix type="matrix" values="0 0 0 0 0 0 0 0 0 0 0 0 0 0 0 0 0 0 0.08 0"/>
<feBlend mode="normal" in2="BackgroundImageFix" result="effect1_dropShadow_1135_6181"/>
<feBlend mode="normal" in="SourceGraphic" in2="effect1_dropShadow_1135_6181" result="shape"/>
</filter>
</defs>
</svg>
