<svg width="216" height="140" viewBox="0 0 216 140" fill="none" xmlns="http://www.w3.org/2000/svg">
<g clip-path="url(#clip0_514_3893)">
<path opacity="0.1" d="M215.75 91.4967C215.762 98.7705 214.064 105.908 210.841 112.13C210.841 119.738 207.808 126.635 202.888 131.661C201.656 132.918 200.33 134.042 198.926 135.02C198.87 135.062 198.811 135.101 198.753 135.141C198.648 135.213 198.543 135.286 198.435 135.36L198.336 135.429C197.887 135.725 197.428 136.011 196.96 136.279C192.648 138.759 187.903 140.038 183.098 140.015H41.5644C40.4367 140.015 39.3191 139.963 38.2116 139.857C34.2755 139.495 30.4078 138.447 26.7361 136.749C26.0195 136.418 25.3166 136.062 24.6275 135.681C24.2992 135.501 23.9741 135.316 23.6521 135.125C23.451 135.007 23.2499 134.883 23.0507 134.76C21.8419 134.009 20.671 133.177 19.5438 132.268C18.5136 131.444 17.5223 130.554 16.5744 129.604C10.1789 123.187 6.2228 114.305 6.2228 104.505C2.63801 98.0501 0.736507 90.5146 0.750072 82.8175C0.750072 61.0285 15.6422 43.3648 34.0149 43.3648C34.5787 43.3648 35.1426 43.3846 35.7064 43.4197C35.7872 43.4197 35.8661 43.4197 35.9469 43.4329C39.0441 37.2593 43.1844 31.5868 48.1628 26.5934C61.7394 12.989 81.5818 4.41315 103.685 4.41315C122.257 4.41315 139.233 10.4681 152.237 20.4725C157.164 17.2151 162.73 15.5075 168.39 15.5164C186.759 15.5164 201.655 33.1802 201.655 54.9692C201.652 56.3479 201.589 57.7255 201.467 59.0967C205.895 62.7622 209.504 67.6193 211.99 73.2582C214.476 78.8971 215.765 85.1525 215.75 91.4967Z" fill="#912CDB"/>
<path opacity="0.1" d="M171.902 60.2132V57.8549C173.479 57.106 174.785 55.7392 175.595 53.9885C176.406 52.2377 176.671 50.212 176.344 48.2582C176.018 46.3043 175.121 44.5438 173.807 43.2782C172.493 42.0126 170.844 41.3205 169.141 41.3205C167.439 41.3205 165.79 42.0126 164.476 43.2782C163.162 44.5438 162.265 46.3043 161.938 48.2582C161.612 50.212 161.877 52.2377 162.687 53.9885C163.498 55.7392 164.803 57.106 166.381 57.8549V60.2132C164.542 60.8109 162.881 61.9923 161.581 63.6264C160.204 61.2109 158.131 59.4544 155.74 58.6769V56.3165C157.317 55.5676 158.622 54.2007 159.433 52.45C160.243 50.6993 160.508 48.6736 160.182 46.7197C159.855 44.7658 158.959 43.0054 157.645 41.7397C156.331 40.4741 154.681 39.782 152.979 39.782C151.276 39.782 149.627 40.4741 148.313 41.7397C146.999 43.0054 146.102 44.7658 145.776 46.7197C145.45 48.6736 145.714 50.6993 146.525 52.45C147.335 54.2007 148.641 55.5676 150.218 56.3165V58.6747C148.583 59.2055 147.085 60.1988 145.856 61.567C144.485 59.4143 142.54 57.8556 140.329 57.1362V54.778C141.906 54.0291 143.212 52.6623 144.022 50.9115C144.832 49.1608 145.097 47.1351 144.771 45.1812C144.445 43.2274 143.548 41.4669 142.234 40.2013C140.92 38.9357 139.27 38.2436 137.568 38.2436C135.866 38.2436 134.216 38.9357 132.902 40.2013C131.588 41.4669 130.691 43.2274 130.365 45.1812C130.039 47.1351 130.304 49.1608 131.114 50.9115C131.924 52.6623 133.23 54.0291 134.807 54.778V57.1362C132.926 57.7494 131.232 58.9732 129.921 60.6659C129.336 58.9138 128.411 57.3449 127.218 56.0837C126.025 54.8225 124.597 53.9037 123.048 53.4V51.0417C124.625 50.2928 125.931 48.926 126.741 47.1753C127.552 45.4246 127.816 43.3988 127.49 41.445C127.164 39.4911 126.267 37.7306 124.953 36.465C123.639 35.1994 121.989 34.5073 120.287 34.5073C118.585 34.5073 116.935 35.1994 115.621 36.465C114.307 37.7306 113.41 39.4911 113.084 41.445C112.758 43.3988 113.023 45.4246 113.833 47.1753C114.643 48.926 115.949 50.2928 117.526 51.0417V53.4C115.512 54.0557 113.716 55.4101 112.374 57.2845C111.032 59.1589 110.207 61.4652 110.009 63.8989C109.06 63.1289 108.008 62.5515 106.895 62.1912V59.8329C108.472 59.084 109.778 57.7172 110.588 55.9665C111.398 54.2158 111.663 52.19 111.337 50.2362C111.011 48.2823 110.114 46.5219 108.8 45.2562C107.486 43.9906 105.836 43.2985 104.134 43.2985C102.432 43.2985 100.782 43.9906 99.4682 45.2562C98.1542 46.5219 97.2573 48.2823 96.931 50.2362C96.6048 52.19 96.8695 54.2158 97.6799 55.9665C98.4903 57.7172 99.7959 59.084 101.373 59.8329V62.1912C99.9694 62.6484 98.6638 63.4464 97.5414 64.5332C96.419 65.6201 95.5051 66.9713 94.8593 68.4989C93.9885 67.8445 93.038 67.3481 92.0402 67.0264V64.6681C93.6175 63.9192 94.9231 62.5524 95.7335 60.8017C96.5438 59.0509 96.8086 57.0252 96.4823 55.0713C96.1561 53.1175 95.2592 51.357 93.9452 50.0914C92.6311 48.8258 90.9817 48.1337 89.2794 48.1337C87.5771 48.1337 85.9277 48.8258 84.6137 50.0914C83.2997 51.357 82.4027 53.1175 82.0765 55.0713C81.7503 57.0252 82.015 59.0509 82.8254 60.8017C83.6357 62.5524 84.9413 63.9192 86.5186 64.6681V67.0264C85.5771 67.3302 84.6777 67.7906 83.848 68.3934C83.1978 66.8909 82.2868 65.5633 81.1734 64.4955C80.0599 63.4276 78.7684 62.6428 77.3811 62.1912V59.8329C78.9584 59.084 80.264 57.7172 81.0744 55.9665C81.8848 54.2158 82.1495 52.19 81.8232 50.2362C81.497 48.2823 80.6001 46.5219 79.2861 45.2562C77.972 43.9906 76.3227 43.2985 74.6203 43.2985C72.918 43.2985 71.2686 43.9906 69.9546 45.2562C68.6406 46.5219 67.7437 48.2823 67.4174 50.2362C67.0912 52.19 67.3559 54.2158 68.1663 55.9665C68.9766 57.7172 70.2822 59.084 71.8595 59.8329V62.1912C70.3665 62.6769 68.9856 63.5483 67.8189 64.7412C66.6522 65.934 65.7293 67.418 65.1182 69.0835C64.0672 68.14 62.8709 67.4416 61.5944 67.0264V64.6681C63.1717 63.9192 64.4773 62.5524 65.2877 60.8017C66.098 59.0509 66.3628 57.0252 66.0365 55.0713C65.7103 53.1175 64.8134 51.357 63.4993 50.0914C62.1853 48.8258 60.5359 48.1337 58.8336 48.1337C57.1313 48.1337 55.4819 48.8258 54.1679 50.0914C52.8539 51.357 51.9569 53.1175 51.6307 55.0713C51.3045 57.0252 51.5692 59.0509 52.3796 60.8017C53.1899 62.5524 54.4955 63.9192 56.0728 64.6681V67.0264C53.8947 67.7323 51.9745 69.2537 50.6063 71.3575C49.238 73.4613 48.4971 76.0316 48.4971 78.6747V133.18H69.1589V128.345H78.9316V133.18H99.6047V128.345H114.452V119.554H127.231V123.29H142.642V124.829H158.805V126.367H179.478V71.8615C179.478 69.2184 178.737 66.6481 177.369 64.5443C176 62.4405 174.08 60.9191 171.902 60.2132Z" fill="#912CDB"/>
<path d="M92.9858 37.1429H110.169C114.372 37.1426 118.533 38.1104 122.416 39.991C126.299 41.8716 129.827 44.6282 132.799 48.1034C135.771 51.5786 138.128 55.7043 139.737 60.2449C141.345 64.7856 142.173 69.6523 142.173 74.5671V125.275H60.9839V74.5671C60.9839 64.6416 64.3555 55.1226 70.357 48.1042C76.3586 41.0858 84.4984 37.1429 92.9858 37.1429Z" fill="#2F2E41"/>
<path opacity="0.2" d="M94.8652 39.1824H108.29C112.492 39.1821 116.654 40.1499 120.537 42.0305C124.42 43.9112 127.948 46.6678 130.92 50.1429C133.891 53.6181 136.249 57.7438 137.857 62.2845C139.466 66.8251 140.293 71.6918 140.293 76.6066V123.233H62.8633V76.6066C62.8633 66.6811 66.2349 57.1621 72.2364 50.1437C78.238 43.1253 86.3778 39.1824 94.8652 39.1824Z" fill="black"/>
<path d="M196.957 132.437V136.275C192.644 138.754 187.9 140.033 183.094 140.011H41.5645C40.4369 140.011 39.3193 139.958 38.2117 139.853C34.2757 139.49 30.4079 138.443 26.7363 136.745C26.0196 136.414 25.3167 136.058 24.6276 135.677C24.2994 135.497 23.9742 135.311 23.6522 135.121C23.4512 135.002 23.2501 134.879 23.0509 134.756C21.8422 134.006 20.6713 133.175 19.5439 132.268V121.846C19.5439 120.162 20.1162 118.546 21.1348 117.355C22.1533 116.164 23.5348 115.495 24.9753 115.495H181.194C182.508 115.497 183.777 116.057 184.765 117.07L195.102 127.664C195.684 128.259 196.151 128.993 196.47 129.816C196.79 130.639 196.956 131.533 196.957 132.437Z" fill="#2F2E41"/>
<path d="M91.4614 49.6286C87.3632 49.945 83.2805 50.4579 79.2136 51.167C78.0578 51.3692 76.885 51.5934 75.8307 52.1912C75.0114 52.6929 74.2561 53.3262 73.5867 54.0725C70.5678 57.2355 68.1369 61.0903 66.4451 65.3978C65.3983 68.0681 64.6466 70.8923 63.6599 73.5846C60.1474 83.2 53.7763 91.0637 50.0683 100.578C49.2658 102.637 48.5892 104.787 48.3205 107.026C48.0423 109.343 48.3581 112.046 49.9856 113.4C50.7374 114.022 51.6507 114.279 52.5453 114.499C63.8068 117.415 75.1992 119.591 86.669 121.015C85.4268 119.613 85.0114 117.44 85.1749 115.431C85.3384 113.422 86.0131 111.523 86.6784 109.662C80.1871 107.987 73.712 106.229 67.2533 104.387C66.2891 104.112 65.1315 103.596 65.0131 102.444C64.9529 101.857 65.201 101.292 65.4453 100.776C68.1999 94.9427 71.503 89.4877 75.2932 84.5121C75.2932 90.6791 75.032 97.6439 75.032 103.813H135.942C135.21 100.293 134.779 96.6967 134.657 93.0769C134.373 81.2615 137.775 69.5363 136.891 57.745C136.809 56.6571 136.681 55.5363 136.194 54.6044C135.354 52.9956 133.678 52.3297 132.137 51.7802C126.228 49.6791 120.195 47.5538 114.02 47.7187C112.183 47.7692 110.355 48.0198 108.53 48.2725C102.969 49.0395 97.0488 49.1956 91.4614 49.6286Z" fill="#912CDB"/>
<path d="M62.9344 120.51L67.3697 137.11C67.3981 137.215 67.4544 137.307 67.5304 137.372C67.6064 137.437 67.6983 137.472 67.7926 137.473H86.8249L82.3145 118.132L63.3215 119.84C63.2554 119.846 63.1913 119.87 63.134 119.909C63.0767 119.948 63.0277 120.002 62.9905 120.066C62.9534 120.13 62.929 120.204 62.9193 120.281C62.9096 120.357 62.9148 120.436 62.9344 120.51Z" fill="#656478"/>
<path d="M95.4702 56.767C94.6433 57.3231 93.6792 57.5231 92.7395 57.7143L86.6748 58.945C85.4945 59.1846 84.2523 59.4571 83.3427 60.3692C81.4821 62.2308 81.8843 65.6571 82.4481 68.444L83.5757 74.0352C84.4252 78.2374 85.2935 82.4901 87.0356 86.2967C90.0783 92.9407 95.6601 97.7253 101.798 100.031C103.991 100.855 106.309 101.391 108.598 101.097C113.082 100.521 116.918 96.7824 119.282 92.2879C121.646 87.7934 122.772 82.5802 123.804 77.4417C124.794 72.5231 125.736 67.5341 125.672 62.4791C125.653 60.9055 125.518 59.2615 124.8 57.9275C123.227 54.9978 119.661 54.778 116.739 55.3187C116.284 55.4044 115.813 55.4967 115.375 55.3362C114.059 54.8571 114.029 52.745 113.465 51.2791C112.4 48.5143 109.239 48.0242 106.654 48.2747C104.07 48.5253 100.047 48.8483 97.795 50.5604C95.63 52.1978 98.0093 55.0549 95.4702 56.767Z" fill="#FBBEBE"/>
<path opacity="0.1" d="M95.4702 56.767C94.6433 57.3231 93.6792 57.5231 92.7395 57.7143L86.6748 58.945C85.4945 59.1846 84.2523 59.4571 83.3427 60.3692C81.4821 62.2308 81.8843 65.6571 82.4481 68.444L83.5757 74.0352C84.4252 78.2374 85.2935 82.4901 87.0356 86.2967C90.0783 92.9407 95.6601 97.7253 101.798 100.031C103.991 100.855 106.309 101.391 108.598 101.097C113.082 100.521 116.918 96.7824 119.282 92.2879C121.646 87.7934 122.772 82.5802 123.804 77.4417C124.794 72.5231 125.736 67.5341 125.672 62.4791C125.653 60.9055 125.518 59.2615 124.8 57.9275C123.227 54.9978 119.661 54.778 116.739 55.3187C116.284 55.4044 115.813 55.4967 115.375 55.3362C114.059 54.8571 114.029 52.745 113.465 51.2791C112.4 48.5143 109.239 48.0242 106.654 48.2747C104.07 48.5253 100.047 48.8483 97.795 50.5604C95.63 52.1978 98.0093 55.0549 95.4702 56.767Z" fill="black"/>
<path d="M90.4506 63.066C91.3677 65.3165 92.0555 67.7033 93.1644 69.833C94.0458 71.5253 95.1753 73.0176 96.2992 74.5011C99.2103 78.3517 102.159 82.233 105.762 85.1649C107.254 76.2015 110.858 67.9041 116.168 61.2088C117.72 59.2594 119.663 57.3385 121.941 57.411C123.355 57.4572 124.659 58.2769 125.835 59.189C127.151 60.2066 128.395 61.3868 129.34 62.8528C130.834 65.1868 131.479 68.1429 131.596 71.055C131.712 73.9671 131.325 76.8726 130.942 79.7517L128.968 94.633C128.854 95.4946 128.694 96.4462 128.092 96.9627C127.751 97.2157 127.366 97.3778 126.965 97.4374C119.791 99.0704 112.398 98.011 105.089 97.9275C97.0077 97.8374 88.7027 98.9143 81.0481 95.9077C80.6478 95.7495 80.2324 95.5671 79.9618 95.1913C79.784 94.9078 79.6562 94.5858 79.5859 94.244C77.8024 87.4924 79.2326 80.2374 80.2907 73.2814C81.1284 67.7689 81.725 62.21 82.0779 56.6264C82.1099 56.1231 86.8384 57.2352 87.3665 57.5912C88.8042 58.5868 89.7589 61.3693 90.4506 63.066Z" fill="#912CDB"/>
<g opacity="0.2">
<path opacity="0.2" d="M32.1115 117.976C32.1115 118.077 32.1021 118.176 32.0927 118.273C31.376 117.941 30.6731 117.585 29.984 117.204C29.6159 117.148 29.2735 116.953 29.0086 116.648C28.8075 116.53 28.6064 116.407 28.4072 116.284C28.4523 116.173 28.5032 116.066 28.5595 115.963C28.9466 115.246 29.5348 114.798 30.1832 114.822C30.8316 114.846 31.3935 115.336 31.7412 116.077C32.0071 116.66 32.1349 117.316 32.1115 117.976Z" fill="#3F3D56"/>
<path opacity="0.2" d="M32.2125 114.213C32.1997 114.872 32.0369 115.516 31.7408 116.077C31.3537 116.791 30.7654 117.24 30.117 117.215L29.9836 117.204C29.6155 117.148 29.2731 116.953 29.0082 116.648C28.8286 116.449 28.677 116.217 28.559 115.963C28.2997 115.378 28.1728 114.725 28.1906 114.066C28.2084 113.407 28.3702 112.765 28.6605 112.2C29.0477 111.484 29.6359 111.035 30.2843 111.059C30.9327 111.084 31.4946 111.574 31.8423 112.314C32.1082 112.897 32.236 113.553 32.2125 114.213Z" fill="#3F3D56"/>
<path opacity="0.2" d="M32.3139 110.456C32.3599 108.757 31.4972 107.345 30.3872 107.304C29.2771 107.263 28.34 108.608 28.2941 110.308C28.2482 112.007 29.1108 113.419 30.2209 113.46C31.3309 113.501 32.268 112.156 32.3139 110.456Z" fill="#3F3D56"/>
<path opacity="0.2" d="M32.4165 106.694C32.4624 104.994 31.5998 103.583 30.4897 103.542C29.3797 103.501 28.4426 104.845 28.3966 106.545C28.3507 108.245 29.2134 109.656 30.3234 109.697C31.4334 109.738 32.3705 108.393 32.4165 106.694Z" fill="#3F3D56"/>
<path opacity="0.2" d="M32.5171 102.931C32.563 101.231 31.7004 99.82 30.5903 99.7789C29.4803 99.7379 28.5432 101.083 28.4972 102.782C28.4513 104.482 29.3139 105.893 30.424 105.934C31.534 105.975 32.4711 104.631 32.5171 102.931Z" fill="#3F3D56"/>
<path opacity="0.2" d="M23.6787 76.8242C23.414 76.4051 23.1754 75.9644 22.9645 75.5055L28.2756 74.6857L22.5511 74.5275C22.0409 73.1123 21.7829 71.5903 21.7929 70.0545C21.8029 68.5188 22.0807 67.0015 22.6093 65.5956L30.1494 70.5275L23.2427 64.189C23.9394 62.8712 24.861 61.7355 25.95 60.8529C27.0389 59.9703 28.2717 59.3598 29.5715 59.0594C30.8712 58.759 32.21 58.7753 33.5042 59.1072C34.7983 59.439 36.02 60.0794 37.0931 60.9882C38.1661 61.8971 39.0673 63.0549 39.7405 64.3894C40.4137 65.7239 40.8444 67.2063 41.0056 68.7442C41.1669 70.282 41.0552 71.8423 40.6777 73.3274C40.3002 74.8126 39.6648 76.1907 38.8114 77.3758C39.2226 78.028 39.5724 78.7302 39.8544 79.4703L32.8876 83.3912L40.2792 80.7912C40.7448 82.5867 40.8203 84.4896 40.4987 86.3278C40.1771 88.166 39.4686 89.8813 38.4374 91.3187C39.5109 93.0217 40.1528 95.0436 40.2897 97.1532C40.4266 99.2628 40.053 101.375 39.2116 103.248C38.3702 105.121 37.0949 106.679 35.5318 107.744C33.9687 108.809 32.1807 109.338 30.3725 109.271C28.5643 109.203 26.8088 108.542 25.3069 107.362C23.805 106.183 22.6174 104.533 21.8798 102.601C21.1422 100.669 20.8845 98.5335 21.1362 96.4384C21.3878 94.3433 22.1387 92.3733 23.3028 90.7538C22.0207 88.719 21.3607 86.2392 21.4289 83.7129C21.4971 81.1866 22.2894 78.7605 23.6787 76.8242Z" fill="#912CDB"/>
<path opacity="0.1" d="M40.6868 84.422C40.6206 86.9503 39.8259 89.3783 38.4316 91.3121C39.5065 93.0144 40.1499 95.0362 40.2882 97.1462C40.4264 99.2561 40.0539 101.369 39.2133 103.243C38.3727 105.117 37.0979 106.676 35.5348 107.742C33.9718 108.809 32.1836 109.339 30.375 109.272C28.5664 109.205 26.8103 108.544 25.3079 107.365C23.8054 106.186 22.6172 104.535 21.8793 102.603C21.1414 100.671 20.8835 98.535 21.1352 96.4394C21.3869 94.3439 22.1381 92.3735 23.3026 90.7539C22.0566 88.789 40.7206 83.1583 40.6868 84.422Z" fill="black"/>
</g>
<path opacity="0.1" d="M13.5333 35.7824C15.7784 35.7824 17.5984 33.654 17.5984 31.0286C17.5984 28.4031 15.7784 26.2747 13.5333 26.2747C11.2883 26.2747 9.46826 28.4031 9.46826 31.0286C9.46826 33.654 11.2883 35.7824 13.5333 35.7824Z" fill="#912CDB"/>
<path opacity="0.1" d="M30.4762 9.50769C32.7213 9.50769 34.5413 7.37932 34.5413 4.75385C34.5413 2.12837 32.7213 0 30.4762 0C28.2311 0 26.4111 2.12837 26.4111 4.75385C26.4111 7.37932 28.2311 9.50769 30.4762 9.50769Z" fill="#912CDB"/>
<path opacity="0.1" d="M29.0984 30.7714C32.8609 30.7714 35.9111 27.2044 35.9111 22.8044C35.9111 18.4043 32.8609 14.8373 29.0984 14.8373C25.3358 14.8373 22.2856 18.4043 22.2856 22.8044C22.2856 27.2044 25.3358 30.7714 29.0984 30.7714Z" fill="#912CDB"/>
<path d="M102.8 59.2308C111.519 59.2308 118.587 50.9652 118.587 40.7692C118.587 30.5732 111.519 22.3077 102.8 22.3077C94.0811 22.3077 87.0132 30.5732 87.0132 40.7692C87.0132 50.9652 94.0811 59.2308 102.8 59.2308Z" fill="#FBBEBE"/>
<path d="M96.3876 4.54285C92.1759 5.16702 87.6297 5.9912 84.6528 9.52966C82.9877 11.5077 82.0123 14.145 81.2098 16.756C79.9657 20.822 79.0391 25.1077 79.3304 29.422C79.5898 33.2813 80.8114 37.2286 79.8228 40.9253C79.368 42.6264 78.4753 44.1121 77.7818 45.6967C76.4963 48.6396 75.8912 51.9385 75.6694 55.233C75.5153 57.4989 75.5454 59.8308 76.1825 61.978C76.8609 64.2637 78.184 66.2088 79.0222 68.4198C80.2626 71.6857 80.3866 75.3604 80.4825 78.9319C80.5783 82.5033 80.6591 86.0505 80.7306 89.6088C80.7757 91.8461 80.7794 94.2417 79.7213 96.1077C83.6286 94.2769 87.5903 92.4088 90.9337 89.4198C94.2771 86.4308 96.9834 82.1209 97.4156 77.2242C97.7652 73.2549 96.6188 69.3428 95.6302 65.5231C93.187 56.0725 91.6084 45.9978 93.3862 36.3472C94.0271 32.8725 95.5851 28.9934 98.5752 28.3538C100.4 27.9648 102.221 28.9385 103.866 29.945C107.752 32.3231 111.759 35.4 113.206 40.2417C114.522 44.6198 113.415 49.4967 111.703 53.6769C109.99 57.8571 107.66 61.7011 106.329 66.0703C104.287 72.7736 104.862 80.622 108.256 86.5275C111.65 92.433 117.921 96.0659 123.952 95.1121C123.481 92.7297 122.002 90.8044 121.208 88.5406C119.767 84.4286 120.739 79.6989 122.289 75.6418C123.84 71.5846 125.956 67.8022 126.925 63.4945C127.61 60.4615 127.692 57.2923 127.688 54.156C127.688 49.2198 127.48 44.2813 127.074 39.367C126.668 34.4527 126.048 29.4769 124.71 24.7494C123.635 20.9582 122.069 17.2923 119.727 14.3846C117.235 11.2879 113.992 9.189 110.806 7.13186C108.9 5.90549 106.953 4.66373 104.815 4.20439C103.123 3.84175 101.345 3.32527 99.6201 3.2923C98.4474 3.27252 97.2145 3.56922 96.3876 4.54285Z" fill="#434175"/>
<path d="M126.1 28.3712L115.944 26.0668C115.648 25.9997 115.362 26.2255 115.305 26.5711L110.439 55.9011C110.381 56.2466 110.575 56.5811 110.87 56.6481L121.027 58.9526C121.322 59.0196 121.608 58.7938 121.665 58.4483L126.531 29.1183C126.589 28.7727 126.396 28.4382 126.1 28.3712Z" fill="#656478"/>
<path d="M126.868 28.5454L116.711 26.241C116.416 26.1739 116.13 26.3997 116.072 26.7453L111.206 56.0752C111.149 56.4208 111.342 56.7553 111.638 56.8223L121.794 59.1268C122.09 59.1938 122.376 58.968 122.433 58.6225L127.299 29.2925C127.356 28.9469 127.163 28.6124 126.868 28.5454Z" fill="#3F3D56"/>
<path d="M121.444 34.1877C121.643 32.9902 121.461 31.9416 121.038 31.8456C120.615 31.7497 120.112 32.6427 119.913 33.8403C119.714 35.0378 119.896 36.0864 120.319 36.1823C120.742 36.2783 121.246 35.3852 121.444 34.1877Z" fill="#912CDB"/>
<path d="M123.849 44.1758C123.353 43.1494 122.823 42.0879 121.986 41.4308C121.506 41.0859 120.989 40.8148 120.449 40.6242C118.628 39.8791 116.777 39.1275 114.85 39.0088C114.537 38.9912 114.178 39.0088 113.973 39.2901C113.552 39.8681 114.219 40.6549 114.796 41.0044L119.385 43.7846L115.155 43.2615C114.54 43.1846 113.665 43.3802 113.71 44.1011C113.74 44.5736 114.183 44.8308 114.567 44.9802C117.282 46.0791 120.421 46.9407 121.908 49.8154C119.927 49.5956 117.903 49.3758 115.961 49.8857C115.429 50.0264 114.879 50.244 114.531 50.7341C114.183 51.2242 114.144 52.0527 114.582 52.4418C114.852 52.6769 115.217 52.6835 115.555 52.6615C116.933 52.5846 118.346 52.2637 119.669 52.7231C120.992 53.1824 122.167 54.8044 121.71 56.3253C122.883 56.4484 124.27 56.3253 125.354 55.7341C126.55 55.0747 126.521 53.8352 126.448 52.3407C126.292 49.4132 125.05 46.6813 123.849 44.1758Z" fill="#FBBEBE"/>
<path opacity="0.1" d="M122.663 92.0857C121.611 83.4369 120.168 74.8593 118.34 66.389C117.4 61.9934 116.333 57.5231 116.602 53C120.485 53.578 123.963 54.0066 127.542 52.1517C127.6 54.5275 129.073 56.5473 129.609 58.844C129.968 60.3824 129.833 62.011 129.973 63.5956C130.114 65.1802 130.537 66.7165 130.9 68.2572C132.7 75.8917 133.124 83.8802 132.146 91.7165C128.825 92.178 125.976 92.6857 122.663 92.0857Z" fill="black"/>
<path d="M122.099 92.0857C121.047 83.4369 119.605 74.8593 117.777 66.389C116.837 61.9934 115.77 57.5231 116.038 53C119.921 53.578 123.4 54.0066 126.978 52.1517C127.036 54.5275 128.51 56.5473 129.045 58.844C129.404 60.3824 129.269 62.011 129.41 63.5956C129.551 65.1802 129.974 66.7165 130.336 68.2572C132.136 75.8917 132.561 83.8802 131.583 91.7165C128.262 92.178 125.413 92.6857 122.099 92.0857Z" fill="#912CDB"/>
<path d="M67.7742 134.894L69.6141 81.5165C69.6434 80.668 69.9541 79.8663 70.4804 79.2812C71.0066 78.6961 71.7071 78.3737 72.4332 78.3824L145.075 79.1956C145.46 79.2003 145.839 79.2979 146.191 79.4824C146.542 79.6669 146.856 79.9343 147.115 80.2678C147.373 80.6013 147.57 80.9937 147.693 81.4204C147.816 81.8471 147.862 82.2988 147.828 82.7473L143.99 133.883C143.93 134.688 143.617 135.437 143.112 135.987C142.607 136.538 141.946 136.85 141.256 136.864L70.6139 138.292C70.2336 138.3 69.856 138.216 69.5042 138.047C69.1524 137.878 68.8339 137.627 68.568 137.309C68.3022 136.991 68.0946 136.613 67.9581 136.197C67.8216 135.782 67.759 135.339 67.7742 134.894Z" fill="#3F3D56"/>
<path d="M108.344 107.033C110.108 107.033 111.539 105.065 111.539 102.637C111.539 100.21 110.108 98.2418 108.344 98.2418C106.579 98.2418 105.149 100.21 105.149 102.637C105.149 105.065 106.579 107.033 108.344 107.033Z" fill="#912CDB"/>
<path d="M176.659 99.6176L176.509 101.125L174.065 125.49C167.696 130.683 162.742 125.692 162.699 125.49L159.621 101.011L159.446 99.6176H176.659Z" fill="#3F3D56"/>
<path opacity="0.1" d="M176.659 99.6176L176.509 101.125C169.333 106.004 161.679 102.207 159.621 101.011L159.446 99.6176H176.659Z" fill="black"/>
<path d="M159.087 98.2945V100.492C159.087 100.492 168.578 106.945 177.129 100.492V98.2945H159.087Z" fill="#912CDB"/>
<path d="M160.19 95.3912C160.19 95.3912 159.914 96.8747 159.087 97.0044V98.8747H177.129V97.1978C177.129 97.1978 176.026 96.8747 176.189 95.3912H160.19Z" fill="#912CDB"/>
<path d="M168.054 98.2945C172.548 98.2945 176.191 97.0665 176.191 95.5516C176.191 94.0368 172.548 92.8088 168.054 92.8088C163.559 92.8088 159.916 94.0368 159.916 95.5516C159.916 97.0665 163.559 98.2945 168.054 98.2945Z" fill="#912CDB"/>
<path opacity="0.1" d="M168.054 98.2945C172.548 98.2945 176.191 97.0665 176.191 95.5516C176.191 94.0368 172.548 92.8088 168.054 92.8088C163.559 92.8088 159.916 94.0368 159.916 95.5516C159.916 97.0665 163.559 98.2945 168.054 98.2945Z" fill="black"/>
<path opacity="0.1" d="M175.197 95.3912C175.197 96.4901 172.111 97.3912 168.302 97.3912H168.099C165.541 97.3692 163.331 96.9516 162.203 96.3275C161.694 96.0461 161.404 95.7275 161.404 95.3912C161.404 94.8329 162.194 94.3274 163.472 93.9648C165.06 93.5587 166.682 93.3663 168.307 93.3912C172.111 93.3912 175.197 94.2857 175.197 95.3912Z" fill="black"/>
<path opacity="0.1" d="M168.099 97.3912C165.541 97.3693 163.331 96.9517 162.203 96.3275L163.466 93.9561L168.099 97.3912Z" fill="black"/>
<path opacity="0.1" d="M160.891 95.5451C160.793 95.5209 160.664 95.5605 160.645 95.6747C160.642 95.7329 160.655 95.7906 160.682 95.8396C160.898 96.238 161.211 96.5512 161.581 96.7385C161.644 96.7801 161.714 96.8062 161.786 96.8154C161.823 96.8207 161.861 96.8126 161.895 96.7922C161.928 96.7718 161.956 96.7401 161.974 96.7011C161.984 96.6679 161.988 96.6325 161.986 96.5973C161.984 96.562 161.975 96.5277 161.96 96.4967C161.903 96.3779 161.823 96.2757 161.727 96.1978C161.476 95.9671 161.218 95.6088 160.891 95.5451Z" fill="black"/>
<path d="M168.328 119.037C171.009 119.037 173.182 116.496 173.182 113.36C173.182 110.225 171.009 107.684 168.328 107.684C165.647 107.684 163.474 110.225 163.474 113.36C163.474 116.496 165.647 119.037 168.328 119.037Z" fill="#912CDB"/>
<path d="M36.1442 113.374H38.4201C39.6662 113.374 40.8613 113.953 41.7424 114.983C42.6236 116.013 43.1186 117.411 43.1186 118.868V127.033H31.4458V118.868C31.4458 117.411 31.9408 116.013 32.8219 114.983C33.7031 113.953 34.8981 113.374 36.1442 113.374Z" fill="#3F3D56"/>
<path opacity="0.1" d="M36.1442 113.374H38.4201C39.6662 113.374 40.8613 113.953 41.7424 114.983C42.6236 116.013 43.1186 117.411 43.1186 118.868V127.033H31.4458V118.868C31.4458 117.411 31.9408 116.013 32.8219 114.983C33.7031 113.953 34.8981 113.374 36.1442 113.374Z" fill="black"/>
<path d="M36.8154 116.378C37.3313 116.378 37.7494 115.889 37.7494 115.286C37.7494 114.682 37.3313 114.193 36.8154 114.193C36.2995 114.193 35.8813 114.682 35.8813 115.286C35.8813 115.889 36.2995 116.378 36.8154 116.378Z" fill="#3F3D56"/>
<path d="M36.8154 115.013C37.3313 115.013 37.7494 114.524 37.7494 113.921C37.7494 113.318 37.3313 112.829 36.8154 112.829C36.2995 112.829 35.8813 113.318 35.8813 113.921C35.8813 114.524 36.2995 115.013 36.8154 115.013Z" fill="#3F3D56"/>
<path d="M36.8154 113.646C37.3313 113.646 37.7494 113.157 37.7494 112.554C37.7494 111.951 37.3313 111.462 36.8154 111.462C36.2995 111.462 35.8813 111.951 35.8813 112.554C35.8813 113.157 36.2995 113.646 36.8154 113.646Z" fill="#3F3D56"/>
<path d="M36.8154 112.281C37.3313 112.281 37.7494 111.792 37.7494 111.189C37.7494 110.586 37.3313 110.097 36.8154 110.097C36.2995 110.097 35.8813 110.586 35.8813 111.189C35.8813 111.792 36.2995 112.281 36.8154 112.281Z" fill="#3F3D56"/>
<path d="M36.8154 110.916C37.3313 110.916 37.7494 110.427 37.7494 109.824C37.7494 109.221 37.3313 108.732 36.8154 108.732C36.2995 108.732 35.8813 109.221 35.8813 109.824C35.8813 110.427 36.2995 110.916 36.8154 110.916Z" fill="#3F3D56"/>
<path d="M36.8154 109.552C37.3313 109.552 37.7494 109.063 37.7494 108.459C37.7494 107.856 37.3313 107.367 36.8154 107.367C36.2995 107.367 35.8813 107.856 35.8813 108.459C35.8813 109.063 36.2995 109.552 36.8154 109.552Z" fill="#3F3D56"/>
<path d="M36.8154 108.187C37.3313 108.187 37.7494 107.698 37.7494 107.095C37.7494 106.491 37.3313 106.002 36.8154 106.002C36.2995 106.002 35.8813 106.491 35.8813 107.095C35.8813 107.698 36.2995 108.187 36.8154 108.187Z" fill="#3F3D56"/>
<path d="M38.2173 108.732C38.7331 108.732 39.1513 108.243 39.1513 107.64C39.1513 107.036 38.7331 106.547 38.2173 106.547C37.7014 106.547 37.2832 107.036 37.2832 107.64C37.2832 108.243 37.7014 108.732 38.2173 108.732Z" fill="#3F3D56"/>
<path d="M39.1513 108.187C39.6672 108.187 40.0854 107.698 40.0854 107.095C40.0854 106.491 39.6672 106.002 39.1513 106.002C38.6355 106.002 38.2173 106.491 38.2173 107.095C38.2173 107.698 38.6355 108.187 39.1513 108.187Z" fill="#3F3D56"/>
<path d="M40.0854 107.64C40.6013 107.64 41.0195 107.15 41.0195 106.547C41.0195 105.944 40.6013 105.455 40.0854 105.455C39.5696 105.455 39.1514 105.944 39.1514 106.547C39.1514 107.15 39.5696 107.64 40.0854 107.64Z" fill="#3F3D56"/>
<path d="M36.8154 106.822C37.3313 106.822 37.7494 106.333 37.7494 105.73C37.7494 105.126 37.3313 104.637 36.8154 104.637C36.2995 104.637 35.8813 105.126 35.8813 105.73C35.8813 106.333 36.2995 106.822 36.8154 106.822Z" fill="#3F3D56"/>
<path d="M36.8154 105.457C37.3313 105.457 37.7494 104.968 37.7494 104.365C37.7494 103.762 37.3313 103.273 36.8154 103.273C36.2995 103.273 35.8813 103.762 35.8813 104.365C35.8813 104.968 36.2995 105.457 36.8154 105.457Z" fill="#3F3D56"/>
<path d="M36.8154 104.09C37.3313 104.09 37.7494 103.601 37.7494 102.998C37.7494 102.395 37.3313 101.906 36.8154 101.906C36.2995 101.906 35.8813 102.395 35.8813 102.998C35.8813 103.601 36.2995 104.09 36.8154 104.09Z" fill="#3F3D56"/>
<path d="M36.8154 102.725C37.3313 102.725 37.7494 102.236 37.7494 101.633C37.7494 101.03 37.3313 100.541 36.8154 100.541C36.2995 100.541 35.8813 101.03 35.8813 101.633C35.8813 102.236 36.2995 102.725 36.8154 102.725Z" fill="#3F3D56"/>
<path d="M40.6867 98.112C40.4556 98.1516 40.2225 98.1802 39.9895 98.1978C40.2069 97.9754 40.4087 97.7328 40.5928 97.4725C40.4627 97.0138 40.2725 96.5815 40.029 96.1912C39.7974 96.3432 39.5415 96.4375 39.2772 96.4681C39.046 96.5076 38.813 96.5362 38.58 96.556C38.8863 96.2637 39.172 95.8241 39.4727 95.4571C38.7777 94.7202 37.8818 94.2955 36.9443 94.2584C36.0067 94.2213 35.0883 94.5743 34.3524 95.2545C33.6165 95.9348 33.1107 96.8983 32.9251 97.9736C32.7394 99.0489 32.8859 100.166 33.3385 101.127C33.7911 102.088 34.5205 102.83 35.3969 103.221C36.2733 103.613 37.2399 103.628 38.1249 103.264C39.0099 102.9 39.7558 102.181 40.2301 101.234C40.7043 100.288 40.8761 99.1752 40.7149 98.0945L40.6867 98.112Z" fill="#912CDB"/>
<path d="M43.8083 103.538C43.57 103.71 43.3012 103.814 43.0228 103.844C42.7916 103.883 42.5586 103.914 42.3255 103.932C42.5732 103.672 42.8044 103.391 43.0171 103.092C42.454 102.921 41.8563 103.001 41.341 103.317C40.8256 103.633 40.4297 104.163 40.2305 104.802C40.0314 105.442 40.0433 106.145 40.264 106.775C40.4848 107.405 40.8984 107.915 41.4241 108.207C41.9498 108.5 42.5497 108.552 43.1065 108.354C43.6634 108.156 44.1372 107.723 44.4353 107.138C44.7334 106.554 44.8343 105.86 44.7183 105.193C44.6024 104.526 44.2779 103.934 43.8083 103.532V103.538Z" fill="#912CDB"/>
<path d="M35.415 108.732C35.9309 108.732 36.3491 108.243 36.3491 107.64C36.3491 107.036 35.9309 106.547 35.415 106.547C34.8991 106.547 34.481 107.036 34.481 107.64C34.481 108.243 34.8991 108.732 35.415 108.732Z" fill="#3F3D56"/>
<path d="M34.4809 108.187C34.9968 108.187 35.415 107.698 35.415 107.095C35.415 106.491 34.9968 106.002 34.4809 106.002C33.9651 106.002 33.5469 106.491 33.5469 107.095C33.5469 107.698 33.9651 108.187 34.4809 108.187Z" fill="#3F3D56"/>
<path d="M33.5468 107.64C34.0627 107.64 34.4809 107.15 34.4809 106.547C34.4809 105.944 34.0627 105.455 33.5468 105.455C33.031 105.455 32.6128 105.944 32.6128 106.547C32.6128 107.15 33.031 107.64 33.5468 107.64Z" fill="#3F3D56"/>
<path d="M29.8236 103.538C30.0618 103.71 30.3307 103.814 30.6092 103.844C30.8403 103.883 31.0734 103.914 31.3064 103.932C31.0583 103.673 30.8271 103.392 30.6148 103.092C31.178 102.921 31.7756 103.001 32.291 103.317C32.8063 103.633 33.2023 104.163 33.4014 104.802C33.6006 105.442 33.5886 106.145 33.3679 106.775C33.1472 107.405 32.7335 107.915 32.2079 108.207C31.6822 108.5 31.0823 108.552 30.5254 108.354C29.9685 108.156 29.4947 107.723 29.1966 107.138C28.8986 106.554 28.7976 105.86 28.9136 105.193C29.0295 104.526 29.354 103.934 29.8236 103.532V103.538Z" fill="#912CDB"/>
<path d="M36.1442 114.193H38.4201C39.6662 114.193 40.8613 114.772 41.7424 115.803C42.6236 116.833 43.1186 118.231 43.1186 119.688V126.912C43.1186 127.159 43.0346 127.396 42.8852 127.571C42.7357 127.746 42.5331 127.844 42.3217 127.844H32.2427C32.0313 127.844 31.8286 127.746 31.6792 127.571C31.5298 127.396 31.4458 127.159 31.4458 126.912V119.688C31.4458 118.231 31.9408 116.833 32.8219 115.803C33.7031 114.772 34.8981 114.193 36.1442 114.193Z" fill="#3F3D56"/>
<g opacity="0.1">
<path opacity="0.1" d="M40.7577 98.4109C40.6632 98.5291 40.5628 98.6406 40.457 98.745C40.5642 98.745 40.6694 98.7253 40.7765 98.7121C40.7803 98.611 40.7671 98.5099 40.7577 98.4109Z" fill="black"/>
<path opacity="0.1" d="M39.0552 97.1055C39.2901 97.0879 39.5213 97.0593 39.7543 97.0197C39.9634 96.9888 40.1677 96.9237 40.3613 96.8263C40.2667 96.6064 40.1574 96.3955 40.0343 96.1956C39.9174 96.2788 39.7908 96.3418 39.6585 96.3824C39.4742 96.6418 39.2724 96.8836 39.0552 97.1055Z" fill="black"/>
<path opacity="0.1" d="M33.3137 99.4505C33.3123 98.6173 33.5031 97.799 33.866 97.0819C34.2288 96.3648 34.7504 95.7755 35.3756 95.3759C36.0009 94.9763 36.7067 94.7814 37.4188 94.8115C38.1308 94.8417 38.8227 95.0958 39.4216 95.5472L39.4818 95.4725C39.0909 95.0658 38.6351 94.7536 38.1406 94.5538C37.6461 94.3541 37.1226 94.2707 36.6005 94.3086C36.0783 94.3464 35.5677 94.5048 35.098 94.7744C34.6284 95.0441 34.2091 95.4198 33.8641 95.8798C33.5192 96.3399 33.2556 96.8752 33.0884 97.4549C32.9211 98.0347 32.8537 98.6474 32.8899 99.2577C32.926 99.8681 33.0652 100.464 33.2992 101.011C33.5332 101.558 33.8575 102.046 34.2534 102.446C33.6456 101.61 33.3124 100.548 33.3137 99.4505Z" fill="black"/>
</g>
<g opacity="0.1">
<path opacity="0.1" d="M42.3252 104.477C42.5582 104.459 42.7913 104.431 43.0224 104.391C43.301 104.361 43.5698 104.255 43.808 104.084C44.0719 104.311 44.2919 104.6 44.4538 104.934C44.6157 105.267 44.7158 105.636 44.7477 106.018C44.7568 105.922 44.7612 105.826 44.7609 105.73C44.7626 105.303 44.6785 104.881 44.5153 104.5C44.352 104.118 44.1142 103.786 43.8212 103.532C43.5829 103.703 43.3141 103.807 43.0356 103.837L42.8477 103.866C42.6873 104.085 42.5126 104.289 42.3252 104.477Z" fill="black"/>
<path opacity="0.1" d="M42.4191 103.545C42.4971 103.546 42.5749 103.553 42.6522 103.565C42.7743 103.413 42.8946 103.25 43.0168 103.092C42.6713 102.984 42.3092 102.971 41.9585 103.053C41.6078 103.135 41.278 103.31 40.9945 103.565C40.711 103.82 40.4816 104.148 40.3238 104.523C40.1661 104.899 40.0844 105.311 40.085 105.73C40.085 105.822 40.085 105.912 40.0962 106.002C40.154 105.329 40.4237 104.704 40.8529 104.25C41.2822 103.796 41.8404 103.545 42.4191 103.545Z" fill="black"/>
</g>
<g opacity="0.1">
<path opacity="0.1" d="M31.3068 104.477C31.0737 104.459 30.8407 104.431 30.6095 104.391C30.3309 104.361 30.062 104.256 29.824 104.084C29.5601 104.311 29.3401 104.6 29.1782 104.934C29.0163 105.267 28.9161 105.636 28.8843 106.018C28.8752 105.922 28.8708 105.826 28.8711 105.73C28.8693 105.303 28.9535 104.881 29.1167 104.5C29.28 104.118 29.5177 103.786 29.8108 103.532C30.049 103.703 30.3179 103.808 30.5964 103.837L30.7843 103.866C30.9437 104.086 31.1184 104.291 31.3068 104.477Z" fill="black"/>
<path opacity="0.1" d="M31.2129 103.545C31.1343 103.546 31.0558 103.553 30.978 103.565C30.8577 103.413 30.7374 103.25 30.6152 103.092C30.9607 102.984 31.3229 102.971 31.6735 103.053C32.0242 103.135 32.3541 103.31 32.6375 103.565C32.921 103.82 33.1505 104.148 33.3082 104.523C33.4659 104.899 33.5476 105.311 33.5471 105.73C33.5471 105.822 33.5471 105.912 33.5358 106.002C33.478 105.329 33.2083 104.704 32.7791 104.25C32.3498 103.796 31.7917 103.545 31.2129 103.545Z" fill="black"/>
</g>
</g>
<defs>
<clipPath id="clip0_514_3893">
<rect width="215" height="140" fill="white" transform="translate(0.75)"/>
</clipPath>
</defs>
</svg>
