<svg width="208" height="208" viewBox="0 0 208 208" fill="none" xmlns="http://www.w3.org/2000/svg">
<g filter="url(#filter0_d_1135_11890)">
<rect x="40" y="28" width="128" height="128" rx="64" fill="#24BAD4"/>
<path d="M107.5 106.167H101.233C96.8001 106.167 93.1667 102.433 93.1667 97.8333C93.1667 96.4666 94.3001 95.3333 95.6667 95.3333C97.0334 95.3333 98.1667 96.4666 98.1667 97.8333C98.1667 99.6666 99.5335 101.167 101.233 101.167H107.5C108.8 101.167 109.833 99.9999 109.833 98.5666C109.833 96.7666 109.333 96.4999 108.2 96.0999L98.1667 92.5999C96.0334 91.8666 93.1667 90.3 93.1667 85.4C93.1667 81.2333 96.4668 77.8 100.5 77.8H106.767C111.2 77.8 114.833 81.5333 114.833 86.1333C114.833 87.5 113.7 88.6333 112.333 88.6333C110.967 88.6333 109.833 87.5 109.833 86.1333C109.833 84.3 108.467 82.8 106.767 82.8H100.5C99.2001 82.8 98.1667 83.9666 98.1667 85.4C98.1667 87.2 98.6667 87.4666 99.8 87.8666L109.833 91.3666C111.967 92.0999 114.833 93.6666 114.833 98.5666C114.833 102.767 111.533 106.167 107.5 106.167Z" fill="white"/>
<path d="M104 109.5C102.633 109.5 101.5 108.367 101.5 107V77C101.5 75.6333 102.633 74.5 104 74.5C105.367 74.5 106.5 75.6333 106.5 77V107C106.5 108.367 105.367 109.5 104 109.5Z" fill="white"/>
<path d="M104 127.833C84.2334 127.833 68.1667 111.767 68.1667 92C68.1667 72.2333 84.2334 56.1667 104 56.1667C105.367 56.1667 106.5 57.3 106.5 58.6667C106.5 60.0333 105.367 61.1667 104 61.1667C87.0001 61.1667 73.1667 75 73.1667 92C73.1667 109 87.0001 122.833 104 122.833C121 122.833 134.833 109 134.833 92C134.833 90.6333 135.967 89.5 137.333 89.5C138.7 89.5 139.833 90.6333 139.833 92C139.833 111.767 123.767 127.833 104 127.833Z" fill="#FCCA03"/>
<path d="M134 77.8333H120.667C119.3 77.8333 118.167 76.7 118.167 75.3333V62C118.167 60.6333 119.3 59.5 120.667 59.5C122.033 59.5 123.167 60.6333 123.167 62V72.8333H134C135.367 72.8333 136.5 73.9667 136.5 75.3333C136.5 76.7 135.367 77.8333 134 77.8333Z" fill="#FCCA03"/>
<path d="M120.666 77.8333C120.033 77.8333 119.4 77.6 118.9 77.1C117.933 76.1333 117.933 74.5334 118.9 73.5667L135.566 56.9C136.533 55.9334 138.133 55.9334 139.1 56.9C140.066 57.8667 140.066 59.4667 139.1 60.4333L122.433 77.1C121.933 77.6 121.3 77.8333 120.666 77.8333Z" fill="#FCCA03"/>
</g>
<defs>
<filter id="filter0_d_1135_11890" x="0" y="0" width="208" height="208" filterUnits="userSpaceOnUse" color-interpolation-filters="sRGB">
<feFlood flood-opacity="0" result="BackgroundImageFix"/>
<feColorMatrix in="SourceAlpha" type="matrix" values="0 0 0 0 0 0 0 0 0 0 0 0 0 0 0 0 0 0 127 0" result="hardAlpha"/>
<feOffset dy="12"/>
<feGaussianBlur stdDeviation="20"/>
<feComposite in2="hardAlpha" operator="out"/>
<feColorMatrix type="matrix" values="0 0 0 0 0 0 0 0 0 0 0 0 0 0 0 0 0 0 0.08 0"/>
<feBlend mode="normal" in2="BackgroundImageFix" result="effect1_dropShadow_1135_11890"/>
<feBlend mode="normal" in="SourceGraphic" in2="effect1_dropShadow_1135_11890" result="shape"/>
</filter>
</defs>
</svg>
