<svg width="40" height="40" viewBox="0 0 40 40" fill="none" xmlns="http://www.w3.org/2000/svg">
<path d="M15.0002 36.6667H25.0002C33.3335 36.6667 36.6668 33.3333 36.6668 25V15C36.6668 6.66667 33.3335 3.33334 25.0002 3.33334H15.0002C6.66683 3.33334 3.3335 6.66667 3.3335 15V25C3.3335 33.3333 6.66683 36.6667 15.0002 36.6667Z" stroke="#666666" stroke-width="1.5" stroke-linecap="round" stroke-linejoin="round"/>
<path d="M14.9998 16.6667C16.8408 16.6667 18.3332 15.1743 18.3332 13.3333C18.3332 11.4924 16.8408 10 14.9998 10C13.1589 10 11.6665 11.4924 11.6665 13.3333C11.6665 15.1743 13.1589 16.6667 14.9998 16.6667Z" stroke="#666666" stroke-width="1.5" stroke-linecap="round" stroke-linejoin="round"/>
<path d="M4.4502 31.5834L12.6669 26.0667C13.9835 25.1834 15.8835 25.2834 17.0669 26.3L17.6169 26.7834C18.9169 27.9 21.0169 27.9 22.3169 26.7834L29.2502 20.8334C30.5502 19.7167 32.6502 19.7167 33.9502 20.8334L36.6669 23.1667" stroke="#292D32" stroke-width="1.5" stroke-linecap="round" stroke-linejoin="round"/>
</svg>
