<svg width="14" height="14" viewBox="0 0 14 14" fill="none" xmlns="http://www.w3.org/2000/svg">
<path d="M6.46666 11.6666C3.59733 11.6666 1.26666 9.33593 1.26666 6.4666C1.26666 3.59727 3.59733 1.2666 6.46666 1.2666C9.33599 1.2666 11.6667 3.59727 11.6667 6.4666C11.6667 9.33593 9.33599 11.6666 6.46666 11.6666ZM6.46666 2.0666C4.04 2.0666 2.06666 4.03993 2.06666 6.4666C2.06666 8.89327 4.04 10.8666 6.46666 10.8666C8.89333 10.8666 10.8667 8.89327 10.8667 6.4666C10.8667 4.03993 8.89333 2.0666 6.46666 2.0666Z" fill="white"/>
<path d="M11.352 12.7546C11.3093 12.7546 11.2667 12.7493 11.2293 12.7439C10.9787 12.7119 10.5253 12.5413 10.2693 11.7786C10.136 11.3786 10.184 10.9786 10.4027 10.6746C10.6213 10.3706 10.9893 10.2 11.4107 10.2C11.9547 10.2 12.3813 10.408 12.5733 10.776C12.7653 11.144 12.712 11.6133 12.408 12.0666C12.0293 12.6373 11.6187 12.7546 11.352 12.7546ZM11.032 11.528C11.1227 11.8053 11.2507 11.9439 11.336 11.9546C11.4213 11.9653 11.5813 11.8639 11.7467 11.624C11.9013 11.3946 11.912 11.2293 11.8747 11.1546C11.8373 11.08 11.688 11 11.4107 11C11.2453 11 11.1227 11.0533 11.0533 11.144C10.9893 11.2346 10.9787 11.3733 11.032 11.528Z" fill="white"/>
</svg>
