<svg width="80" height="80" viewBox="0 0 80 80" fill="none" xmlns="http://www.w3.org/2000/svg">
<path d="M41.6669 75.8332H13.6002C8.36689 75.8332 4.06689 71.6332 4.06689 66.4332V16.9665C4.06689 11.8665 5.96689 7.89988 9.43356 5.73322C12.9336 3.53322 17.4669 3.59988 22.1669 5.93321L36.9669 13.1999C41.0002 15.1999 44.1669 20.2332 44.1669 24.6999V73.3332C44.1669 74.6999 43.0336 75.8332 41.6669 75.8332ZM15.2002 9.16655C14.0336 9.16655 12.9669 9.43321 12.0669 9.99988C10.1336 11.1999 9.06689 13.6999 9.06689 16.9665V66.4332C9.06689 68.8665 11.1002 70.8332 13.6002 70.8332H39.1669V24.6999C39.1669 22.1332 37.1002 18.8332 34.7336 17.6999L19.9336 10.4332C18.2336 9.59988 16.6336 9.16655 15.2002 9.16655Z" fill="#220934"/>
<path d="M62.6998 75.8334H41.6665C40.2998 75.8334 39.1665 74.7001 39.1665 73.3334V34.7334C39.1665 33.9667 39.4998 33.2667 40.0998 32.8001C40.6998 32.3334 41.4332 32.1334 42.1998 32.3001L43.7665 32.6334L65.5665 37.5001C72.1998 38.9667 75.5332 42.8667 75.7332 49.5001C75.7665 49.5001 75.7665 49.8334 75.7665 50.2001V62.8001C75.7332 71.3334 71.2332 75.8334 62.6998 75.8334ZM44.1665 70.8334H62.6998C68.5665 70.8334 70.7332 68.6667 70.7332 62.8001V49.9334C70.5665 45.3667 68.8332 43.3334 64.4665 42.3667L44.1665 37.8334V70.8334Z" fill="#220934"/>
<path d="M29.9002 32.5H18.3335C16.9668 32.5 15.8335 31.3667 15.8335 30C15.8335 28.6333 16.9668 27.5 18.3335 27.5H29.9002C31.2668 27.5 32.4002 28.6333 32.4002 30C32.4002 31.3667 31.3002 32.5 29.9002 32.5Z" fill="#292D32"/>
<path d="M29.9002 45.8333H18.3335C16.9668 45.8333 15.8335 44.7 15.8335 43.3333C15.8335 41.9667 16.9668 40.8333 18.3335 40.8333H29.9002C31.2668 40.8333 32.4002 41.9667 32.4002 43.3333C32.4002 44.7 31.3002 45.8333 29.9002 45.8333Z" fill="#292D32"/>
<path d="M50.7334 59.1666C45.2334 59.1666 40.7334 54.6666 40.7334 49.1666V35.0666C40.7334 34.2999 41.0667 33.5999 41.6667 33.0999C42.2667 32.5999 43.0334 32.4333 43.7667 32.5999L58.7667 35.9666C59.9001 36.2333 60.7334 37.2333 60.7334 38.3999V49.1333C60.7334 54.6666 56.2667 59.1666 50.7334 59.1666ZM45.7334 38.1999V49.1666C45.7334 51.9333 47.9667 54.1666 50.7334 54.1666C53.5001 54.1666 55.7334 51.9333 55.7334 49.1666V40.4333L45.7334 38.1999Z" fill="#292D32"/>
<path d="M65.7334 59.1667C60.2334 59.1667 55.7334 54.6667 55.7334 49.1667V38.4333C55.7334 37.6667 56.0667 36.9667 56.6667 36.5C57.2667 36.0333 58.0334 35.8333 58.7667 36L65.5334 37.5C72.1667 38.9667 75.5001 42.8667 75.7001 49.5C75.7001 49.5667 75.7001 49.6333 75.7001 49.7C75.4334 55 71.0667 59.1667 65.7334 59.1667ZM60.7334 41.5333V49.1667C60.7334 51.9333 62.9667 54.1667 65.7334 54.1667C68.3667 54.1667 70.5334 52.1333 70.7001 49.5333C70.5334 45.3333 68.8001 43.3333 64.4667 42.3667L60.7334 41.5333Z" fill="#292D32"/>
</svg>
