<svg width="26" height="27" viewBox="0 0 26 27" fill="none" xmlns="http://www.w3.org/2000/svg">
<path d="M15.96 26.5125C14.3867 26.5125 12.16 25.4058 10.4 20.1125L9.44001 17.2325L6.56001 16.2725C1.28001 14.5125 0.17334 12.2858 0.17334 10.7125C0.17334 9.15246 1.28001 6.91246 6.56001 5.13912L17.88 1.36579C20.7067 0.419125 23.0667 0.699125 24.52 2.13912C25.9733 3.57912 26.2533 5.95246 25.3067 8.77912L21.5333 20.0991C19.76 25.4058 17.5333 26.5125 15.96 26.5125ZM7.18667 7.04579C3.48001 8.28579 2.16001 9.75246 2.16001 10.7125C2.16001 11.6725 3.48001 13.1391 7.18667 14.3658L10.5467 15.4858C10.84 15.5791 11.08 15.8191 11.1733 16.1125L12.2933 19.4725C13.52 23.1791 15 24.4991 15.96 24.4991C16.92 24.4991 18.3867 23.1791 19.6267 19.4725L23.4 8.15246C24.08 6.09912 23.96 4.41912 23.0933 3.55246C22.2267 2.68579 20.5467 2.57912 18.5067 3.25912L7.18667 7.04579Z" fill="white"/>
</svg>
