<svg width="679" height="1024" viewBox="0 0 679 1024" fill="none" xmlns="http://www.w3.org/2000/svg">
<g clip-path="url(#clip0_1856_49454)">
<rect width="679" height="1024" fill="#8E7FF0"/>
<g opacity="0.6">
<path d="M-17.6405 944.927C-15.0279 932.582 -3.30209 924.368 9.19241 926.131L243.641 959.21C257.914 961.224 267.204 975.276 263.467 989.198L235.272 1094.22C232.457 1104.71 222.951 1112 212.093 1112H-23.389C-38.6436 1112 -50.0275 1097.95 -46.8689 1083.03L-17.6405 944.927Z" fill="#A69BF3"/>
<path d="M-213.441 -109.969C-211.094 -121.063 -201.301 -129 -189.961 -129H353.39C368.644 -129 380.028 -114.955 376.87 -100.031L303.441 246.969C301.094 258.063 291.301 266 279.961 266H-263.39C-278.644 266 -290.028 251.955 -286.87 237.031L-213.441 -109.969Z" fill="#A69BF3"/>
<path d="M532.559 -316.969C534.906 -328.063 544.699 -336 556.039 -336H1099.39C1114.64 -336 1126.03 -321.955 1122.87 -307.031L1049.44 39.9686C1047.09 51.0629 1037.3 59 1025.96 59H482.61C467.356 59 455.972 44.9552 459.13 30.0314L532.559 -316.969Z" fill="#A69BF3"/>
<path d="M-181.27 19.0283C-178.921 7.93552 -169.13 0 -157.791 0H273.386C288.642 0 300.026 14.047 296.865 28.9717L239.27 300.972C236.921 312.064 227.13 320 215.791 320H-215.386C-230.642 320 -242.026 305.953 -238.865 291.028L-181.27 19.0283Z" fill="#B2A8F5"/>
<path d="M302.177 979.103C304.776 969.421 313.119 962.375 323.099 961.432L697.505 926.069C713.623 924.547 726.594 939.093 723.242 954.932L694.028 1092.97C691.68 1104.06 681.887 1112 670.548 1112H297.793C282.007 1112 270.521 1097.02 274.613 1081.78L302.177 979.103Z" fill="#A69BF3"/>
</g>
</g>
<defs>
<clipPath id="clip0_1856_49454">
<rect width="679" height="1024" fill="white"/>
</clipPath>
</defs>
</svg>
