<svg width="380" height="214" viewBox="0 0 380 214" fill="none" xmlns="http://www.w3.org/2000/svg">
<g clip-path="url(#clip0_442_22022)">
<path d="M28.5898 213.893L28.1899 213.154C33.552 210.255 40.2254 206.647 43.711 200.726C47.147 194.89 47.2241 186.964 43.9122 180.042C41.0937 174.151 35.9163 168.874 28.9398 164.779C27.5636 163.972 26.1191 163.207 24.7221 162.466C21.3453 160.677 17.8535 158.827 14.9744 156.202C11.0089 152.587 8.00851 146.521 10.2448 141.117C10.9803 139.392 12.1847 137.908 13.7215 136.833C15.2582 135.758 17.0656 135.136 18.9385 135.036L18.986 135.876C17.2702 135.967 15.6142 136.537 14.2061 137.521C12.798 138.505 11.694 139.864 11.0195 141.444C8.94139 146.465 11.7925 152.164 15.541 155.581C18.3414 158.134 21.7853 159.959 25.1158 161.724C26.5208 162.468 27.9737 163.238 29.3655 164.055C36.4872 168.234 41.7797 173.637 44.6708 179.679C48.1018 186.85 48.0118 195.078 44.4357 201.153C40.8314 207.275 34.0438 210.945 28.5898 213.893Z" fill="#F1F1F1"/>
<path d="M24.268 139.467C28.3315 139.467 31.6257 137.867 31.6257 135.894C31.6257 133.921 28.3315 132.321 24.268 132.321C20.2044 132.321 16.9102 133.921 16.9102 135.894C16.9102 137.867 20.2044 139.467 24.268 139.467Z" fill="#F1F1F1"/>
<path d="M30.1542 163.004C34.2178 163.004 37.5119 161.405 37.5119 159.432C37.5119 157.458 34.2178 155.859 30.1542 155.859C26.0906 155.859 22.7964 157.458 22.7964 159.432C22.7964 161.405 26.0906 163.004 30.1542 163.004Z" fill="#F1F1F1"/>
<path d="M16.7 166.787C20.7636 166.787 24.0577 165.188 24.0577 163.214C24.0577 161.241 20.7636 159.642 16.7 159.642C12.6364 159.642 9.34221 161.241 9.34221 163.214C9.34221 165.188 12.6364 166.787 16.7 166.787Z" fill="#F1F1F1"/>
<path d="M37.7221 186.542C41.7857 186.542 45.0799 184.942 45.0799 182.969C45.0799 180.996 41.7857 179.396 37.7221 179.396C33.6586 179.396 30.3644 180.996 30.3644 182.969C30.3644 184.942 33.6586 186.542 37.7221 186.542Z" fill="#F1F1F1"/>
<path d="M52.4377 186.542C56.5013 186.542 59.7955 184.942 59.7955 182.969C59.7955 180.996 56.5013 179.396 52.4377 179.396C48.3741 179.396 45.0799 180.996 45.0799 182.969C45.0799 184.942 48.3741 186.542 52.4377 186.542Z" fill="#F1F1F1"/>
<path d="M380 6.48516H143.376V118.732H380V6.48516Z" fill="#E6E6E6"/>
<path d="M373.234 16.1106H150.142V109.762H373.234V16.1106Z" fill="white"/>
<path d="M379.899 0H143.275V10.0493H379.899V0Z" fill="#912CDB"/>
<path d="M150.745 6.51087C151.774 6.51087 152.609 5.67695 152.609 4.64826C152.609 3.61957 151.774 2.78565 150.745 2.78565C149.716 2.78565 148.882 3.61957 148.882 4.64826C148.882 5.67695 149.716 6.51087 150.745 6.51087Z" fill="white"/>
<path d="M157.817 6.51087C158.846 6.51087 159.681 5.67695 159.681 4.64826C159.681 3.61957 158.846 2.78565 157.817 2.78565C156.788 2.78565 155.954 3.61957 155.954 4.64826C155.954 5.67695 156.788 6.51087 157.817 6.51087Z" fill="white"/>
<path d="M164.89 6.51087C165.919 6.51087 166.753 5.67695 166.753 4.64826C166.753 3.61957 165.919 2.78565 164.89 2.78565C163.861 2.78565 163.027 3.61957 163.027 4.64826C163.027 5.67695 163.861 6.51087 164.89 6.51087Z" fill="white"/>
<path d="M249.925 38.3358C249.686 38.3358 249.456 38.4309 249.287 38.6001C249.118 38.7693 249.023 38.9988 249.023 39.2381C249.023 39.4775 249.118 39.707 249.287 39.8762C249.456 40.0454 249.686 40.1405 249.925 40.1405H299.455C299.695 40.1405 299.924 40.0454 300.094 39.8762C300.263 39.707 300.358 39.4775 300.358 39.2381C300.358 38.9988 300.263 38.7693 300.094 38.6001C299.924 38.4309 299.695 38.3358 299.455 38.3358H249.925Z" fill="#E6E6E6"/>
<path d="M249.925 43.7505C249.686 43.751 249.457 43.8463 249.288 44.0155C249.12 44.1846 249.025 44.4139 249.025 44.6529C249.025 44.8918 249.12 45.1211 249.288 45.2902C249.457 45.4594 249.686 45.5547 249.925 45.5552H275.211C275.45 45.5547 275.68 45.4594 275.848 45.2902C276.017 45.1211 276.112 44.8918 276.112 44.6529C276.112 44.4139 276.017 44.1846 275.848 44.0155C275.68 43.8463 275.45 43.751 275.211 43.7505H249.925Z" fill="#E6E6E6"/>
<path d="M248.679 69.9583C248.44 69.9583 248.21 70.0534 248.041 70.2226C247.871 70.3919 247.776 70.6214 247.776 70.8607C247.776 71.1 247.871 71.3295 248.041 71.4988C248.21 71.668 248.44 71.7631 248.679 71.7631H341.548C341.787 71.7631 342.017 71.668 342.186 71.4988C342.355 71.3295 342.45 71.1 342.45 70.8607C342.45 70.6214 342.355 70.3919 342.186 70.2226C342.017 70.0534 341.787 69.9583 341.548 69.9583H248.679Z" fill="#E6E6E6"/>
<path d="M248.679 75.373C248.44 75.3736 248.211 75.4689 248.042 75.638C247.873 75.8072 247.778 76.0364 247.778 76.2754C247.778 76.5144 247.873 76.7436 248.042 76.9128C248.211 77.082 248.44 77.1773 248.679 77.1778H317.304C317.543 77.1773 317.772 77.082 317.941 76.9128C318.11 76.7436 318.205 76.5144 318.205 76.2754C318.205 76.0364 318.11 75.8072 317.941 75.638C317.772 75.4689 317.543 75.3736 317.304 75.373H248.679Z" fill="#E6E6E6"/>
<path d="M248.679 80.6652C248.44 80.6657 248.211 80.761 248.042 80.9302C247.873 81.0993 247.778 81.3286 247.778 81.5676C247.778 81.8065 247.873 82.0358 248.042 82.2049C248.211 82.3741 248.44 82.4694 248.679 82.4699H341.548C341.787 82.4694 342.016 82.3741 342.185 82.2049C342.354 82.0358 342.449 81.8065 342.449 81.5676C342.449 81.3286 342.354 81.0993 342.185 80.9302C342.016 80.761 341.787 80.6657 341.548 80.6652H248.679Z" fill="#E6E6E6"/>
<path d="M248.679 86.0798C248.44 86.0804 248.211 86.1757 248.042 86.3448C247.873 86.514 247.778 86.7432 247.778 86.9822C247.778 87.2212 247.873 87.4504 248.042 87.6196C248.211 87.7888 248.44 87.884 248.679 87.8846H317.304C317.543 87.884 317.772 87.7888 317.941 87.6196C318.11 87.4504 318.205 87.2212 318.205 86.9822C318.205 86.7432 318.11 86.514 317.941 86.3448C317.772 86.1757 317.543 86.0804 317.304 86.0798H248.679Z" fill="#E6E6E6"/>
<path d="M200.127 73.6204C204.467 73.6204 207.986 70.1025 207.986 65.763C207.986 61.4235 204.467 57.9056 200.127 57.9056C195.786 57.9056 192.267 61.4235 192.267 65.763C192.267 70.1025 195.786 73.6204 200.127 73.6204Z" fill="#A0616A"/>
<path d="M197.638 59.4771C197.638 59.4771 201.306 60.4592 203.205 60.8521C205.104 61.245 204.908 60.1319 204.908 60.1319C204.908 60.1319 207.397 60.4592 207.266 60.1973C207.135 59.9354 208.314 58.5604 206.938 56.9889C205.563 55.4174 205.956 54.2388 205.956 54.2388H204.777L204.449 53.7804H202.616C202.616 53.7804 200.588 52.003 196.985 52.5268C193.383 53.0506 189.123 54.4352 188.73 56.596C188.676 56.8891 188.606 57.2147 188.525 57.5586C187.54 61.7161 189.633 65.6061 191.804 69.2864C192.337 70.1909 194.918 72.1632 194.852 70.81C194.786 69.4568 192.529 66.4178 194.101 66.2214C195.673 66.0249 198.358 62.0307 197.638 59.4771Z" fill="#2F2E41"/>
<path d="M195.668 91.1647C194.15 91.0434 192.646 90.7962 191.169 90.4258L191.252 88.8589L191.94 76.4L191.947 76.3044H205.792L207.965 87.7761L208.258 89.3239C207.684 89.5468 207.105 89.757 206.512 89.9417C206.506 89.9417 206.506 89.9481 206.499 89.9481C205.678 90.2029 204.843 90.4258 204.002 90.6105C202.883 90.8517 201.751 91.0261 200.612 91.1328C199.731 91.2202 198.847 91.2627 197.962 91.2602C197.197 91.2603 196.426 91.2284 195.668 91.1647Z" fill="#912CDB"/>
<path d="M186.767 88.9481C186.193 88.6997 185.639 88.4322 185.091 88.152L184.855 88.0309C184.696 87.9481 184.53 87.8589 184.371 87.7698C184.154 87.6488 183.944 87.5278 183.74 87.4067C183.542 87.292 183.339 87.171 183.141 87.05C183.128 87.0436 183.122 87.0373 183.109 87.0373C182.421 86.5978 181.746 86.1455 181.096 85.6551C180.988 85.5723 180.879 85.4895 180.771 85.4067L180.656 83.5722L180.822 83.4703L191.94 76.4L192.093 76.3045L192.106 76.2981L193.673 76.3045V82.139C194.559 83.4193 195.158 86.1009 195.527 89.6106C195.579 90.1138 195.623 90.6297 195.668 91.1648C194.15 91.0434 192.646 90.7963 191.169 90.4259C191.01 90.394 190.857 90.3558 190.698 90.3112C189.769 90.0683 188.855 89.7749 187.958 89.4322C187.684 89.3303 187.416 89.222 187.149 89.1138L187.123 89.101C187.009 89.0501 186.881 88.9991 186.767 88.9481Z" fill="#2F2E41"/>
<path d="M184.371 87.7697C184.154 87.6487 183.944 87.5277 183.74 87.4067C183.542 87.292 183.339 87.171 183.141 87.05C183.128 87.0436 183.122 87.0372 183.109 87.0372C182.421 86.5977 181.746 86.1455 181.096 85.655C180.988 85.5722 180.879 85.4894 180.771 85.4066C180.72 85.362 180.669 85.3238 180.611 85.2792C180.204 84.9671 179.809 84.6423 179.426 84.2983C179.407 84.2856 179.395 84.2664 179.375 84.2537C179.762 83.957 180.194 83.7266 180.656 83.5722L181.109 83.706L184.333 84.6741L184.352 85.9799L184.371 87.7697Z" fill="#2F2E41"/>
<path d="M211.52 87.7888C211.329 87.8907 211.138 87.9927 210.947 88.0882C210.902 88.1137 210.864 88.1328 210.826 88.1519C210.571 88.2793 210.322 88.4066 210.068 88.5277C210.061 88.534 210.048 88.5341 210.048 88.5404C210.036 88.5468 210.017 88.5532 210.004 88.5596C209.43 88.8334 208.851 89.0882 208.258 89.3239C207.684 89.5468 207.105 89.757 206.512 89.9417C206.506 89.9417 206.506 89.9481 206.499 89.9481C205.677 90.2029 204.843 90.4258 204.002 90.6105C203.992 90.0873 204.061 89.5656 204.206 89.0627L204.212 88.9735L204.76 80.1071L204.027 76.3044L206.13 75.9923L217.694 82.2154C217.694 82.2154 216.42 83.4893 211.189 86.2028C210.726 86.4427 211.405 87.241 211.52 87.7888Z" fill="#2F2E41"/>
<path d="M200.472 89.6042C199.644 89.6806 198.803 89.7189 197.962 89.7189C197.146 89.7189 196.337 89.687 195.527 89.6105C195.579 90.1138 195.623 90.6297 195.668 91.1647C196.426 91.2284 197.197 91.2603 197.962 91.2603C198.847 91.2628 199.731 91.2203 200.612 91.1329C201.751 91.0262 202.883 90.8518 204.002 90.6106C203.992 90.0873 204.061 89.5657 204.206 89.0628L204.212 88.9736C202.982 89.2729 201.732 89.4836 200.472 89.6042ZM224.55 53.858C223.204 49.9916 221.03 46.4653 218.18 43.525C215.33 40.5848 211.873 38.3013 208.05 36.8339C204.227 35.3664 200.13 34.7503 196.044 35.0286C191.958 35.3068 187.982 36.4726 184.393 38.4447C180.804 40.4169 177.689 43.1478 175.265 46.4472C172.84 49.7466 171.165 53.535 170.355 57.5482C169.545 61.5614 169.621 65.7029 170.577 69.6838C171.533 73.6647 173.347 77.3892 175.89 80.5976C176.145 80.9161 176.406 81.2345 176.674 81.5403C176.7 81.5657 176.712 81.5849 176.731 81.604C177.389 82.3624 178.089 83.0833 178.828 83.7632C179.006 83.9289 179.191 84.0945 179.375 84.2537C179.395 84.2664 179.407 84.2856 179.426 84.2983C179.809 84.6423 180.204 84.9671 180.611 85.2792C180.669 85.3238 180.72 85.362 180.771 85.4066C180.879 85.4894 180.988 85.5722 181.096 85.655C181.746 86.1455 182.421 86.5977 183.109 87.0372C183.122 87.0372 183.128 87.0436 183.141 87.05C183.339 87.171 183.542 87.292 183.74 87.4067C183.944 87.5277 184.154 87.6487 184.371 87.7697C184.53 87.8589 184.696 87.9481 184.855 88.0309L185.091 88.1519C185.639 88.4322 186.193 88.6997 186.767 88.9481C186.881 88.9991 187.009 89.05 187.123 89.101L187.149 89.1137C187.416 89.222 187.684 89.3302 187.958 89.4322C188.855 89.7748 189.769 90.0683 190.698 90.3112C190.857 90.3558 191.01 90.394 191.169 90.4258C192.646 90.7962 194.15 91.0434 195.668 91.1647C196.426 91.2284 197.197 91.2603 197.962 91.2603C198.847 91.2628 199.731 91.2202 200.612 91.1329C201.751 91.0262 202.883 90.8518 204.002 90.6106C204.843 90.4258 205.677 90.2029 206.499 89.9481C206.506 89.9481 206.506 89.9418 206.512 89.9418C207.105 89.7571 207.684 89.5468 208.258 89.3239C208.851 89.0882 209.43 88.8335 210.004 88.5596C210.017 88.5532 210.036 88.5468 210.048 88.5405C210.048 88.5341 210.061 88.5341 210.068 88.5277C210.322 88.4067 210.571 88.2793 210.826 88.1519C210.864 88.1328 210.902 88.1137 210.947 88.0882C211.138 87.9927 211.329 87.8907 211.52 87.7888C211.533 87.7825 211.539 87.7761 211.552 87.7697C212.055 87.4895 212.552 87.1965 213.043 86.8844C213.177 86.8016 213.311 86.7188 213.444 86.6232C213.642 86.5022 213.833 86.3684 214.018 86.2347C214.266 86.0627 214.515 85.8843 214.757 85.6996C214.838 85.6479 214.914 85.5905 214.986 85.5277C215.579 85.0818 216.152 84.6104 216.7 84.1136C220.856 80.4122 223.819 75.5619 225.217 70.1763C226.614 64.7907 226.382 59.1118 224.55 53.858L224.55 53.858ZM216.222 82.4702C215.533 83.1189 214.81 83.7313 214.056 84.3047C213.891 84.432 213.718 84.5595 213.547 84.6741C213.381 84.8015 213.215 84.9225 213.043 85.0372C212.897 85.1391 212.75 85.241 212.597 85.3366C212.584 85.3493 212.565 85.3556 212.553 85.3684C212.444 85.4448 212.329 85.5149 212.221 85.585C211.883 85.7952 211.533 86.0054 211.189 86.2028C211.106 86.2474 211.03 86.2983 210.947 86.3429C210.902 86.3684 210.858 86.3939 210.807 86.4194C210.616 86.5277 210.424 86.6232 210.233 86.7251C210.208 86.7442 210.176 86.7506 210.15 86.7697C210.141 86.7712 210.132 86.7757 210.125 86.7824C209.991 86.8525 209.857 86.9162 209.724 86.9799C209.609 87.0372 209.501 87.0945 209.386 87.1455C208.921 87.3684 208.443 87.5786 207.965 87.7761C207.461 87.9799 206.952 88.1646 206.436 88.3366C206.308 88.3812 206.174 88.4322 206.041 88.4704C205.435 88.6614 204.83 88.8334 204.212 88.9736C202.982 89.2728 201.732 89.4836 200.472 89.6041C199.644 89.6806 198.803 89.7188 197.962 89.7188C197.146 89.7188 196.337 89.687 195.527 89.6105C194.084 89.4785 192.654 89.2271 191.252 88.8589C191.201 88.8462 191.144 88.8334 191.093 88.8207C189.943 88.521 188.816 88.1378 187.722 87.6742C187.665 87.6487 187.601 87.6296 187.55 87.6041C187.486 87.5786 187.429 87.5595 187.378 87.534C187.314 87.5086 187.257 87.4831 187.2 87.4576C186.722 87.2474 186.257 87.0181 185.792 86.7824L185.575 86.6678C185.161 86.4512 184.753 86.2283 184.352 85.9798C184.212 85.9034 184.065 85.8143 183.925 85.7251C183.766 85.6295 183.606 85.5276 183.453 85.4257C183.415 85.4002 183.377 85.3747 183.339 85.3493C182.982 85.1072 182.619 84.8652 182.275 84.604C182.033 84.4257 181.797 84.2537 181.561 84.069C181.408 83.9543 181.255 83.8333 181.109 83.706C181.013 83.6359 180.918 83.5531 180.822 83.4702C180.695 83.362 180.567 83.2537 180.44 83.139C180.242 82.9798 180.057 82.8014 179.879 82.6358C179.161 81.9749 178.483 81.273 177.846 80.5338C177.63 80.2918 177.426 80.0498 177.228 79.795C177.182 79.7448 177.14 79.6916 177.101 79.6358C173.893 75.5876 171.933 70.6937 171.46 65.5511C170.988 60.4084 172.022 55.2393 174.438 50.6745C176.854 46.1096 180.546 42.3462 185.065 39.8435C189.584 37.3408 194.733 36.2069 199.886 36.5802C205.038 36.9535 209.971 38.8179 214.081 41.9458C218.192 45.0738 221.303 49.3301 223.035 54.1955C224.767 59.0609 225.045 64.3251 223.836 69.3458C222.626 74.3666 219.981 78.9268 216.222 82.4702L216.222 82.4702Z" fill="#3F3D56"/>
<path d="M68.7157 208.768L73.8703 208.768L76.3223 188.892L68.7148 188.893L68.7157 208.768Z" fill="#A0616A"/>
<path d="M67.4009 207.086L77.5521 207.085H77.5525C79.2682 207.085 80.9136 207.767 82.1268 208.98C83.34 210.192 84.0216 211.837 84.0217 213.552V213.763L67.4012 213.763L67.4009 207.086Z" fill="#2F2E41"/>
<path d="M88.0561 208.768L93.2107 208.768L95.6627 188.892L88.0552 188.893L88.0561 208.768Z" fill="#A0616A"/>
<path d="M86.7413 207.086L96.8925 207.085H96.8929C98.6086 207.085 100.254 207.767 101.467 208.98C102.68 210.192 103.362 211.837 103.362 213.552V213.763L86.7416 213.763L86.7413 207.086Z" fill="#2F2E41"/>
<path d="M53.0754 130.23C53.4973 129.778 53.815 129.239 54.0061 128.652C54.1972 128.064 54.2572 127.442 54.1817 126.829C54.1062 126.215 53.8971 125.626 53.5691 125.102C53.2412 124.579 52.8024 124.133 52.2836 123.797L55.865 109.21L48.5104 111.83L46.237 125.28C45.7303 126.189 45.5747 127.252 45.7996 128.268C46.0245 129.283 46.6143 130.181 47.4572 130.791C48.3002 131.401 49.3377 131.681 50.3731 131.578C51.4086 131.474 52.3701 130.994 53.0754 130.23Z" fill="#9E616A"/>
<path d="M107.792 128.969C107.371 128.517 107.053 127.979 106.862 127.391C106.671 126.803 106.611 126.181 106.686 125.568C106.762 124.954 106.971 124.365 107.299 123.841C107.627 123.318 108.065 122.872 108.584 122.536L105.003 107.949L112.357 110.569L114.631 124.019C115.137 124.928 115.293 125.991 115.068 127.007C114.843 128.023 114.253 128.921 113.411 129.531C112.568 130.141 111.53 130.42 110.495 130.317C109.459 130.213 108.498 129.734 107.792 128.969Z" fill="#9E616A"/>
<path d="M59.8573 120.005L67.0019 203.674L77.4558 202.721L81.6397 138.056L85.364 163.661L86.1098 204.333L95.5698 203.702L100.823 159.948L99.5342 117.573L63.6211 113.937L59.8573 120.005Z" fill="#2F2E41"/>
<path d="M79.511 43.8672C85.4986 43.8672 90.3525 39.0148 90.3525 33.0292C90.3525 27.0435 85.4986 22.1911 79.511 22.1911C73.5234 22.1911 68.6696 27.0435 68.6696 33.0292C68.6696 39.0148 73.5234 43.8672 79.511 43.8672Z" fill="#A0616A"/>
<path d="M76.0779 24.3587C76.0779 24.3587 81.1372 25.7134 83.7572 26.2553C86.3772 26.7973 86.1062 25.2619 86.1062 25.2619C86.1062 25.2619 89.5393 25.7134 89.3586 25.3522C89.1779 24.9909 90.8042 23.0942 88.9069 20.9266C87.0097 18.759 87.5517 17.1333 87.5517 17.1333H85.9255L85.4738 16.5011H82.9441C82.9441 16.5011 80.1473 14.0494 75.1783 14.7719C70.2093 15.4944 64.3329 17.4043 63.7909 20.3847C63.7173 20.789 63.6205 21.2381 63.5081 21.7125C62.1494 27.4471 65.0364 32.8127 68.0308 37.8891C68.7667 39.1367 72.3262 41.8571 72.2352 39.9906C72.1441 38.1241 69.0309 33.9323 71.1992 33.6614C73.3675 33.3904 77.0717 27.8811 76.0779 24.3587Z" fill="#2F2E41"/>
<path d="M68.2294 47.5695H87.3225L100.823 118.844C100.823 118.844 89.053 119.85 82.3259 122.372C75.5988 124.894 64.4156 116.611 64.4156 116.611L68.2294 47.5695Z" fill="#912CDB"/>
<path d="M70.613 55.6184V47.5695L68.4512 47.5563L52.6564 57.5955L56.0837 112.599C56.0837 112.599 60.1402 130.949 66.2928 130.758C72.4454 130.568 77.1895 65.1515 70.613 55.6184Z" fill="#2F2E41"/>
<path d="M57.7299 59.1149L52.6565 57.5955C52.6565 57.5955 48.9006 58.6946 48.9006 62.4774C48.9006 66.2602 45.6645 120.005 45.6645 120.005L55.9447 120.913L58.1504 93.5805L57.7299 59.1149Z" fill="#2F2E41"/>
<path d="M85.8996 52.8102L84.8883 47.5695L87.7916 47.136L98.3027 51.3391C98.3027 51.3391 107.763 120.481 103.558 122.582C99.3538 124.684 96.515 123.055 96.515 123.055C96.515 123.055 82.6861 72.0605 85.1338 65.1674L85.8996 52.8102Z" fill="#2F2E41"/>
<path d="M90.9449 52.3899L92.7388 51.6093C92.7388 51.6093 98.0041 49.001 100.991 54.2681C103.979 59.5352 114.49 118.379 114.49 118.379L105.841 120.005L99.3753 98.8278L90.9449 52.3899Z" fill="#2F2E41"/>
<path d="M160.61 214H0.420459C0.30895 214 0.202009 213.956 0.12316 213.877C0.0443116 213.798 1.52588e-05 213.691 1.52588e-05 213.58C1.52588e-05 213.468 0.0443116 213.361 0.12316 213.282C0.202009 213.204 0.30895 213.159 0.420459 213.159H160.61C160.721 213.159 160.828 213.204 160.907 213.282C160.986 213.361 161.03 213.468 161.03 213.58C161.03 213.691 160.986 213.798 160.907 213.877C160.828 213.956 160.721 214 160.61 214Z" fill="#CACACA"/>
</g>
<defs>
<clipPath id="clip0_442_22022">
<rect width="380" height="214" fill="white"/>
</clipPath>
</defs>
</svg>
