<svg width="191" height="100" viewBox="0 0 191 100" fill="none" xmlns="http://www.w3.org/2000/svg">
<g opacity="0.75" clip-path="url(#clip0_442_21975)">
<path d="M190.311 17.8189V38.8667L189.954 38.3366L164.333 0.355809L164.092 0H178.291L178.53 0.355809L189.954 17.2887L190.311 17.8189Z" fill="#912CDB"/>
<path d="M100.705 -0.000346032C87.5681 -0.0170815 74.5574 2.55282 62.4205 7.56168C50.2837 12.5705 39.2598 19.9196 29.9825 29.1866C28.3916 30.7718 26.862 32.4008 25.3936 34.0737C22.3777 37.4992 19.6029 41.1281 17.089 44.9347C16.3641 46.0324 15.6618 47.1443 14.9821 48.2704C12.5413 52.3108 10.3914 56.5187 8.54869 60.8625C8.34693 61.3357 8.14992 61.8107 7.95766 62.2875C6.88811 64.9151 5.93641 67.5772 5.10256 70.2736C2.96094 77.188 1.58971 84.3163 1.01363 91.5296C0.797579 94.2178 0.689255 96.9249 0.68866 99.651V99.8289H190.311V-0.000346032H100.705ZM189.954 99.4731H1.04578C1.04935 97.0536 1.13982 94.656 1.31719 92.2804C1.85317 85.004 3.1982 77.8094 5.32755 70.8287C6.15962 68.0996 7.10477 65.4222 8.16301 62.7963C10.1211 57.9325 12.4646 53.2316 15.1713 48.7383C15.8481 47.6086 16.5498 46.4937 17.2765 45.3937C19.7848 41.5744 22.5542 37.9318 25.5651 34.4917C43.8492 13.588 70.7557 0.355463 100.705 0.355463H189.954V99.4731Z" fill="#3F3D56"/>
<path d="M89.1797 85.5477C91.5878 92.7688 90.7421 99.5489 90.7421 99.5489C90.7421 99.5489 85.9919 94.6214 83.5837 87.4003C81.1755 80.1792 82.0213 73.399 82.0213 73.399C82.0213 73.399 86.7715 78.3266 89.1797 85.5477Z" fill="#912CDB"/>
<path d="M92.3045 85.5477C89.8963 92.7688 90.742 99.5489 90.742 99.5489C90.742 99.5489 95.4922 94.6214 97.9004 87.4003C100.309 80.1792 99.4628 73.399 99.4628 73.399C99.4628 73.399 94.7126 78.3266 92.3045 85.5477Z" fill="#912CDB"/>
<path d="M93.2744 85.6258C93.4358 93.2334 90.619 99.4626 90.619 99.4626C90.619 99.4626 87.5404 93.3576 87.379 85.7499C87.2176 78.1423 90.0344 71.9131 90.0344 71.9131C90.0344 71.9131 93.113 78.0182 93.2744 85.6258Z" fill="#3F3D56"/>
<path d="M90.6173 99.9208C94.3786 99.9208 97.4277 99.7541 97.4277 99.5485C97.4277 99.3428 94.3786 99.1761 90.6173 99.1761C86.8561 99.1761 83.807 99.3428 83.807 99.5485C83.807 99.7541 86.8561 99.9208 90.6173 99.9208Z" fill="#3F3D56"/>
<path d="M25.6883 99.6643C27.8224 99.6643 29.5524 97.9405 29.5524 95.8142C29.5524 93.6878 27.8224 91.9641 25.6883 91.9641C23.5541 91.9641 21.8241 93.6878 21.8241 95.8142C21.8241 97.9405 23.5541 99.6643 25.6883 99.6643Z" fill="#F2F2F2"/>
<path d="M26.3972 89.5855C25.0118 89.5874 23.6838 90.1367 22.7044 91.1129C21.7249 92.089 21.1741 93.4124 21.1726 94.7927C21.1726 94.8212 21.1726 94.8497 21.1744 94.8781C21.1914 95.8392 21.4746 96.7768 21.9926 97.5877C22.5105 98.3986 23.2433 99.0511 24.1099 99.4734C24.4166 99.624 24.7379 99.7432 25.0687 99.8292C25.9402 100.057 26.8559 100.057 27.7274 99.8292C28.0583 99.7432 28.3795 99.624 28.6863 99.4734C29.7488 98.9577 30.6045 98.0983 31.1137 97.0356C31.6228 95.9729 31.7554 94.7696 31.4898 93.6221C31.2241 92.4746 30.576 91.4508 29.651 90.7176C28.7261 89.9845 27.5791 89.5854 26.3972 89.5855ZM27.6756 99.4734C27.2592 99.5875 26.8291 99.6449 26.3972 99.6442C26.3115 99.6442 26.2258 99.6424 26.1418 99.6371H26.1401C25.7952 99.6201 25.4533 99.5652 25.1205 99.4734C24.417 99.2814 23.7656 98.9349 23.214 98.4592C22.6625 97.9836 22.2249 97.391 21.9333 96.7248V96.723C21.5384 95.8157 21.4313 94.8099 21.6264 93.8403C21.8215 92.8707 22.3094 91.9837 23.0247 91.2981C23.7401 90.6126 24.6486 90.1614 25.6287 90.0049C26.6087 89.8484 27.6133 89.9941 28.5078 90.4226C29.4023 90.851 30.144 91.5417 30.6334 92.402C31.1229 93.2623 31.3366 94.2511 31.2461 95.2359C31.1556 96.2207 30.765 97.1543 30.1269 97.9117C29.4887 98.6691 28.6334 99.214 27.6756 99.4734Z" fill="#3F3D56"/>
<path d="M70.3236 69.6537H41.3976V74.7714H70.3236V69.6537Z" fill="#F2F2F2"/>
<path d="M160.494 21.7975H131.568V26.9151H160.494V21.7975Z" fill="#F2F2F2"/>
<path d="M160.494 33.0055H131.568V38.1231H160.494V33.0055Z" fill="#F2F2F2"/>
<path d="M160.494 43.8576H131.568V48.9753H160.494V43.8576Z" fill="#F2F2F2"/>
<path d="M160.494 54.7098H131.568V59.8274H160.494V54.7098Z" fill="#F2F2F2"/>
<path d="M160.494 65.9178H131.568V71.0354H160.494V65.9178Z" fill="#F2F2F2"/>
<path d="M160.494 77.1257H131.568V82.2434H160.494V77.1257Z" fill="#F2F2F2"/>
<path d="M41.2191 67.8331V74.9493H79.7871V67.8331H41.2191ZM79.43 74.5935H41.5762V68.1889H79.43V74.5935Z" fill="#3F3D56"/>
<path d="M105.499 29.5837C106.485 29.5837 107.285 28.7872 107.285 27.8047C107.285 26.8221 106.485 26.0256 105.499 26.0256C104.513 26.0256 103.714 26.8221 103.714 27.8047C103.714 28.7872 104.513 29.5837 105.499 29.5837Z" fill="#3F3D56"/>
<path d="M105.499 40.6137C106.485 40.6137 107.285 39.8172 107.285 38.8347C107.285 37.8522 106.485 37.0557 105.499 37.0557C104.513 37.0557 103.714 37.8522 103.714 38.8347C103.714 39.8172 104.513 40.6137 105.499 40.6137Z" fill="#3F3D56"/>
<path d="M105.499 51.6439C106.485 51.6439 107.285 50.8474 107.285 49.8648C107.285 48.8823 106.485 48.0858 105.499 48.0858C104.513 48.0858 103.714 48.8823 103.714 49.8648C103.714 50.8474 104.513 51.6439 105.499 51.6439Z" fill="#3F3D56"/>
<path d="M105.499 62.6739C106.485 62.6739 107.285 61.8774 107.285 60.8949C107.285 59.9123 106.485 59.1158 105.499 59.1158C104.513 59.1158 103.714 59.9123 103.714 60.8949C103.714 61.8774 104.513 62.6739 105.499 62.6739Z" fill="#3F3D56"/>
<path d="M105.499 73.704C106.485 73.704 107.285 72.9075 107.285 71.9249C107.285 70.9424 106.485 70.1459 105.499 70.1459C104.513 70.1459 103.714 70.9424 103.714 71.9249C103.714 72.9075 104.513 73.704 105.499 73.704Z" fill="#3F3D56"/>
<path d="M105.499 84.734C106.485 84.734 107.285 83.9375 107.285 82.955C107.285 81.9724 106.485 81.1759 105.499 81.1759C104.513 81.1759 103.714 81.9724 103.714 82.955C103.714 83.9375 104.513 84.734 105.499 84.734Z" fill="#3F3D56"/>
<path d="M170.493 27.6268H121.569V27.9826H170.493V27.6268Z" fill="#3F3D56"/>
<path d="M170.493 38.6568H121.569V39.0126H170.493V38.6568Z" fill="#3F3D56"/>
<path d="M170.493 49.6869H121.569V50.0427H170.493V49.6869Z" fill="#3F3D56"/>
<path d="M170.493 60.7169H121.569V61.0728H170.493V60.7169Z" fill="#3F3D56"/>
<path d="M170.493 71.747H121.569V72.1028H170.493V71.747Z" fill="#3F3D56"/>
<path d="M170.493 82.7771H121.569V83.1329H170.493V82.7771Z" fill="#3F3D56"/>
<path d="M179.307 93.0824L174.614 89.2458L178.464 84.5694L183.158 88.4059L179.307 93.0824ZM175.116 89.1964L179.258 92.5816L182.655 88.4553L178.514 85.0701L175.116 89.1964Z" fill="#3F3D56"/>
<path d="M111.305 9.44106L106.888 5.83026L103.264 10.2316L107.681 13.8424L111.305 9.44106Z" fill="#912CDB"/>
<path d="M84.251 38.8347C84.2591 43.8529 82.6575 48.7422 79.68 52.7896C79.3407 53.2521 78.9854 53.704 78.6122 54.1399C77.5582 55.3775 76.3795 56.5042 75.0947 57.5022C74.9661 57.6019 74.8358 57.7015 74.7037 57.7993C74.2216 58.1587 73.7258 58.4997 73.2163 58.8223C73.061 58.9201 72.9056 59.0162 72.7485 59.1087C72.3932 59.324 72.0313 59.5292 71.6629 59.7243C71.4825 59.8203 71.3004 59.9146 71.1183 60.0054C67.3757 61.8658 63.2065 62.7092 59.0321 62.4503C54.8576 62.1913 50.8257 60.8392 47.3436 58.5305C47.1579 58.4096 46.9758 58.285 46.7954 58.1569C46.4562 57.9185 46.1222 57.6695 45.7973 57.4133C45.4973 57.1785 45.2045 56.9347 44.917 56.6857C43.4035 55.3744 42.0626 53.8776 40.9263 52.2309C40.7049 51.9089 40.4906 51.5816 40.2835 51.2489C38.3574 48.1346 37.1823 44.6178 36.8504 40.9747C36.5186 37.3316 37.0389 33.6614 38.3707 30.2525C39.7025 26.8436 41.8094 23.7887 44.526 21.3279C47.2425 18.8671 50.4947 17.0673 54.0271 16.0699C57.5594 15.0726 61.2758 14.9048 64.8842 15.5798C68.4927 16.2548 71.8949 17.7541 74.8237 19.9601C77.7524 22.166 80.128 25.0185 81.7637 28.2935C83.3995 31.5684 84.2509 35.1767 84.251 38.8347Z" fill="#3F3D56"/>
<path d="M59.6088 37.6673C63.182 37.6673 66.0786 34.7812 66.0786 31.2211C66.0786 27.6609 63.182 24.7748 59.6088 24.7748C56.0356 24.7748 53.1389 27.6609 53.1389 31.2211C53.1389 34.7812 56.0356 37.6673 59.6088 37.6673Z" fill="#A0616A"/>
<path d="M55.1607 34.3099C55.1607 34.3099 57.3174 39.1445 54.352 41.0247C51.3867 42.9048 59.2044 50.694 59.2044 50.694L67.8308 41.5619C67.8308 41.5619 63.248 38.6073 64.0568 33.7727L55.1607 34.3099Z" fill="#A0616A"/>
<path d="M75.0947 57.5022C74.9662 57.6019 74.8358 57.7015 74.7037 57.7993C74.2216 58.1587 73.7258 58.4997 73.2163 58.8223C73.061 58.9201 72.9056 59.0162 72.7485 59.1087L72.6824 58.7511L73.3038 58.4291L75.0947 57.5022Z" fill="#A0616A"/>
<path d="M72.7484 59.1087C72.9056 59.0162 73.0609 58.9201 73.2163 58.8223L73.2216 58.7511L73.3038 58.4291L76.7267 45.0543L66.3508 40.2971L60.2835 43.9797L54.8482 40.6404C54.8482 40.6404 51.6557 40.7561 50.8468 41.562C50.2129 42.1936 47.1043 43.647 45.783 44.2483C45.4151 44.4156 45.1866 44.517 45.1866 44.517C45.1866 44.517 45.3901 50.612 45.7972 57.4133C46.1222 57.6694 46.4561 57.9185 46.7954 58.1569C46.9757 58.285 47.1578 58.4095 47.3435 58.5305C50.8256 60.8392 54.8575 62.1913 59.032 62.4502C63.2065 62.7092 67.3756 61.8658 71.1182 60.0053L72.7484 59.1087Z" fill="#912CDB"/>
<path d="M47.3436 44.2484V58.5305C47.1579 58.4095 46.9757 58.285 46.7954 58.1569C46.4561 57.9185 46.1222 57.6695 45.7973 57.4133C45.4973 57.1784 45.2045 56.9347 44.917 56.6856C43.4035 55.3744 42.0626 53.8776 40.9262 52.2309C40.7048 51.9089 40.4906 51.5816 40.2834 51.2489C40.4584 50.676 40.6548 50.0433 40.8727 49.3506C42.2208 45.0543 45.1866 44.2484 45.1866 44.2484H47.3436Z" fill="#912CDB"/>
<path d="M72.7485 59.1087C72.9056 59.0162 73.0609 58.9201 73.2163 58.8223C73.7252 58.5003 74.221 58.1593 74.7037 57.7993C74.8358 57.7015 74.9661 57.6019 75.0947 57.5022C76.3795 56.5042 77.5582 55.3775 78.6122 54.1398C78.9854 53.704 79.3407 53.2521 79.68 52.7896C78.5819 49.3702 76.7267 45.0543 76.7267 45.0543L72.952 44.7856C72.952 44.7856 71.42 57.0041 71.1183 60.0054L72.7485 59.1087Z" fill="#912CDB"/>
<path d="M55.642 23.7599C55.3183 24.0344 54.9805 24.2919 54.63 24.5314C54.1879 24.8968 53.7796 25.3009 53.41 25.7388L52.9928 26.2042C52.6378 26.6002 52.2611 27.0522 52.2761 27.5829C52.2816 27.7799 52.3424 27.971 52.3662 28.1666C52.4606 28.9425 51.9846 29.7953 52.3764 30.4723C52.4897 30.6681 52.6649 30.8212 52.7897 31.0098C52.9486 31.2515 53.019 31.5405 52.989 31.8279C53.4101 31.8451 53.7555 31.4692 53.8875 31.0704C54.0196 30.6717 54.0017 30.241 54.066 29.8261C54.1303 29.4111 54.311 28.9718 54.6894 28.787C55.4968 28.3929 56.424 29.4177 57.2858 29.1623C57.8875 28.984 58.2048 28.2408 58.82 28.1161C59.2604 28.0269 59.6843 28.2876 60.0935 28.4724C60.5028 28.6571 61.0545 28.7426 61.3439 28.4002C61.5355 28.1734 61.556 27.8101 61.8101 27.656C62.1147 27.4713 62.4961 27.7284 62.7267 27.9994C62.9573 28.2703 63.212 28.6016 63.5684 28.5917C64.0412 28.5786 64.4034 27.9513 64.8522 28.1001C65.3587 28.2681 65.1257 29.0757 65.4331 29.5106C65.6929 29.8783 66.237 29.8567 66.6842 29.7959C66.7596 29.8035 66.8357 29.792 66.9054 29.7623C66.9751 29.7326 67.0361 29.6858 67.0828 29.6262C67.1294 29.5667 67.16 29.4963 67.1719 29.4217C67.1838 29.3471 67.1765 29.2708 67.1507 29.1997L66.9639 26.7318C66.9631 26.5617 66.9258 26.3938 66.8544 26.2393C66.7243 26.0045 66.455 25.8856 66.2719 25.6892C65.8869 25.2761 65.9054 24.5519 65.4266 24.2516C65.1779 24.0956 64.8527 24.1003 64.6059 23.9416C64.2893 23.738 64.1873 23.3304 63.9656 23.0269C63.6485 22.593 63.0943 22.3919 62.5585 22.3367C62.0227 22.2815 61.482 22.348 60.9436 22.3305C59.849 22.295 58.7545 21.988 57.6545 22.1677C56.6949 22.3245 56.292 23.1358 55.642 23.7599Z" fill="#2F2E41"/>
<path d="M183.176 22.5398C183.589 22.5398 183.923 22.2064 183.923 21.795C183.923 21.3837 183.589 21.0503 183.176 21.0503C182.763 21.0503 182.428 21.3837 182.428 21.795C182.428 22.2064 182.763 22.5398 183.176 22.5398Z" fill="#3F3D56"/>
<path d="M177.998 13.4667C178.41 13.4667 178.745 13.1332 178.745 12.7219C178.745 12.3106 178.41 11.9772 177.998 11.9772C177.585 11.9772 177.25 12.3106 177.25 12.7219C177.25 13.1332 177.585 13.4667 177.998 13.4667Z" fill="#3F3D56"/>
<path d="M175.855 3.68194C176.268 3.68194 176.602 3.34851 176.602 2.93719C176.602 2.52588 176.268 2.19244 175.855 2.19244C175.442 2.19244 175.107 2.52588 175.107 2.93719C175.107 3.34851 175.442 3.68194 175.855 3.68194Z" fill="#3F3D56"/>
</g>
<defs>
<clipPath id="clip0_442_21975">
<rect width="189.623" height="100" fill="white" transform="translate(0.688721)"/>
</clipPath>
</defs>
</svg>
