<svg width="500" height="500" viewBox="0 0 500 500" fill="none" xmlns="http://www.w3.org/2000/svg">
<path d="M85.45 418.01C174.21 463.39 318.11 463.39 406.87 418.01C495.63 372.63 495.63 299.06 406.87 253.68C318.11 208.3 174.21 208.3 85.45 253.68C-3.30005 299.05 -3.30005 372.63 85.45 418.01Z" fill="#F5F5F5"/>
<path d="M375.73 345.51C380.59 348.32 390.15 347.35 397.08 343.35L437.02 320.16C443.95 316.16 445.61 310.64 440.74 307.82C435.87 305.01 426.3 305.97 419.37 309.97L379.47 333.17C372.54 337.18 370.87 342.7 375.73 345.51Z" fill="#EBEBEB"/>
<path d="M135.31 366.9L94.6899 343.45L135.31 320V366.9Z" fill="#EBEBEB"/>
<path d="M250.12 380.93L184.65 343.11L250.13 305.36L250.12 380.93Z" fill="#EBEBEB"/>
<path d="M80.3599 312.07C80.4699 302.57 73.8399 282.81 64.1299 270.35C54.4199 257.89 39.0299 248.69 27.9699 252.32C17.6699 255.7 18.6199 269.17 30.9599 278.24C43.2999 287.31 61.8699 298.73 67.1499 314.21L78.3999 333.26L80.3599 312.07Z" fill="#BFB6F6"/>
<path opacity="0.1" d="M80.3599 312.07C80.4699 302.57 73.8399 282.81 64.1299 270.35C54.4199 257.89 39.0299 248.69 27.9699 252.32C17.6699 255.7 18.6199 269.17 30.9599 278.24C43.2999 287.31 61.8699 298.73 67.1499 314.21L78.3999 333.26L80.3599 312.07Z" fill="black"/>
<path d="M80.9099 325.08C80.6099 325.05 80.3499 324.83 80.2899 324.51C74.3199 292 48.3999 265.32 32.7599 259.31C32.3999 259.17 32.2199 258.77 32.3599 258.41C32.4999 258.05 32.8899 257.87 33.2599 258.01C49.1899 264.14 75.5899 291.25 81.6499 324.26C81.7199 324.64 81.4699 325 81.0899 325.07C81.0299 325.08 80.9699 325.08 80.9099 325.08Z" fill="white"/>
<path d="M75.8199 345.78C74.3599 340.42 67.9399 331.53 57.4799 324.12C45.8999 315.93 31.1799 312.05 27.8499 305.74C23.8499 298.16 30.2799 291.12 42.2499 292.75C54.2199 294.38 75.0999 310.99 78.1799 335.66L75.8199 345.78Z" fill="#BFB6F6"/>
<path d="M78.21 340.2C77.95 340.18 77.71 340 77.62 339.73C68.01 311.83 46.93 301.82 37.12 300.43C36.74 300.38 36.48 300.02 36.53 299.65C36.58 299.27 36.92 299.01 37.31 299.06C48.15 300.6 69.11 310.8 78.93 339.29C79.05 339.65 78.86 340.05 78.5 340.17C78.4 340.2 78.3 340.21 78.21 340.2Z" fill="white"/>
<path d="M434.93 285.02C434.93 285.02 436.26 264.99 448.07 250.12C459.87 235.25 459.15 229.13 451.01 226.13C442.87 223.13 423.96 241.05 428.17 265.05C432.38 289.05 434.93 285.02 434.93 285.02Z" fill="#BFB6F6"/>
<path opacity="0.1" d="M434.93 285.02C434.93 285.02 436.26 264.99 448.07 250.12C459.87 235.25 459.15 229.13 451.01 226.13C442.87 223.13 423.96 241.05 428.17 265.05C432.38 289.05 434.93 285.02 434.93 285.02Z" fill="black"/>
<path d="M431.32 273.58C431.08 273.58 430.87 273.39 430.86 273.14C429.48 251.08 445.06 232.98 450.89 228.89C451.1 228.74 451.39 228.79 451.54 229C451.69 229.21 451.64 229.5 451.43 229.65C445.71 233.67 430.44 251.42 431.79 273.09C431.81 273.35 431.61 273.57 431.36 273.58C431.34 273.58 431.33 273.58 431.32 273.58Z" fill="white"/>
<path d="M431.72 301.56C431.72 301.56 438.83 304.03 447.98 305.47C457.12 306.92 461.16 302.55 461.16 302.55C461.16 302.55 457.56 293.98 452.37 291.57C452.37 291.57 461.17 293.36 468.24 298.08C468.24 298.08 473.82 298.16 476.04 289.65C476.04 289.65 472.73 284.52 461.64 281.75C461.64 281.75 468.39 280.05 478.12 282.53C478.85 282.82 481.96 271.8 482.9 266.72C483.84 261.64 481.8 261.69 477.84 260.63C473.88 259.57 460.76 256.63 458.28 258.8C455.8 260.98 454.54 268.43 454.54 268.43C454.54 268.43 452.91 264.03 454.17 258.99C454.17 258.99 450.6 257.6 445.07 259.21C440.54 260.53 440.32 263.61 440.53 267.09C440.68 269.63 441.29 272.34 442.49 275.93C442.49 275.93 438.96 271.41 438.85 261.61C438.85 261.61 429.59 266.21 428.01 275.4C427.13 280.37 425.91 294.96 431.72 301.56Z" fill="#BFB6F6"/>
<path d="M433.46 299.78C433.65 299.78 433.83 299.67 433.92 299.49C441.3 284.16 468.72 266.36 478.55 264.45C478.83 264.4 479.01 264.13 478.96 263.85C478.91 263.57 478.63 263.39 478.36 263.44C468.37 265.38 440.5 283.48 433.01 299.05C432.89 299.31 432.99 299.61 433.25 299.74C433.31 299.76 433.39 299.78 433.46 299.78Z" fill="white"/>
<path d="M76.78 352.86C75.65 352.86 74.97 351.92 74.97 350.35V182.15L280.96 63.22V230.75C280.96 233.32 279.15 236.46 276.92 237.74L78.42 352.35C77.84 352.69 77.27 352.86 76.78 352.86Z" fill="#FAFAFA"/>
<path d="M280.38 64.23V230.75C280.38 233.09 278.66 236.06 276.63 237.24L78.13 351.84C77.64 352.12 77.17 352.27 76.78 352.27C75.67 352.27 75.55 350.93 75.55 350.35V182.49L280.38 64.23ZM281.55 62.2L74.38 181.81V350.36C74.38 352.32 75.36 353.45 76.78 353.45C77.36 353.45 78.02 353.26 78.71 352.86L277.21 238.25C279.6 236.87 281.54 233.51 281.54 230.75L281.55 62.2Z" fill="#E0E0E0"/>
<path d="M74.38 181.81V209.96L281.55 90.3499V62.2L74.38 181.81Z" fill="#BFB6F6"/>
<path d="M90.63 183.31V187.35C90.63 188.17 91.21 188.51 91.93 188.1L155.62 151.33V144.29L91.93 181.06C91.22 181.48 90.63 182.49 90.63 183.31Z" fill="#FAFAFA"/>
<path d="M162.45 140.35C163.17 139.94 163.75 140.27 163.75 141.1V145.14C163.75 145.97 163.17 146.98 162.45 147.39L155.62 151.33V144.29L162.45 140.35Z" fill="#455A64"/>
<path d="M74.38 172.74C74.38 169.98 76.32 166.62 78.71 165.24L277.21 50.6299C279.6 49.2499 281.54 50.3699 281.54 53.1299V62.1999L74.38 181.81V172.74Z" fill="#455A64"/>
<path d="M258.52 66.1399C257.4 66.7899 256.49 68.3599 256.49 69.6599C256.49 70.9599 257.4 71.4799 258.52 70.8299C259.64 70.1799 260.55 68.6099 260.55 67.3099C260.56 66.0099 259.65 65.4899 258.52 66.1399Z" fill="#BFB6F6"/>
<path d="M264.96 62.42C263.84 63.07 262.93 64.64 262.93 65.94C262.93 67.24 263.84 67.76 264.96 67.11C266.08 66.46 266.99 64.89 266.99 63.59C266.99 62.29 266.08 61.77 264.96 62.42Z" fill="#BFB6F6"/>
<path d="M271.39 58.7C270.27 59.35 269.36 60.92 269.36 62.22C269.36 63.52 270.27 64.04 271.39 63.39C272.51 62.74 273.42 61.17 273.42 59.87C273.42 58.57 272.51 58.05 271.39 58.7Z" fill="#BFB6F6"/>
<g opacity="0.1">
<path opacity="0.1" d="M216.55 108.67C214.1 110.09 212.11 113.53 212.11 116.36C212.11 119.19 214.1 120.34 216.55 118.92C219 117.5 220.99 114.06 220.99 111.23C220.99 108.4 219.01 107.26 216.55 108.67Z" fill="black"/>
<path opacity="0.1" d="M196.25 120.4C193.8 121.82 191.81 125.26 191.81 128.09C191.81 130.92 193.8 132.07 196.25 130.65C198.7 129.23 200.69 125.79 200.69 122.96C200.68 120.13 198.7 118.99 196.25 120.4Z" fill="black"/>
<path opacity="0.1" d="M236.87 96.9498C234.42 98.3698 232.43 101.81 232.43 104.64C232.43 107.47 234.42 108.62 236.87 107.2C239.32 105.78 241.31 102.34 241.31 99.5098C241.3 96.6798 239.32 95.5298 236.87 96.9498Z" fill="black"/>
<path opacity="0.1" d="M257.18 85.1998C254.73 86.6198 252.74 90.0598 252.74 92.8898C252.74 95.7198 254.73 96.8698 257.18 95.4498C259.63 94.0298 261.62 90.5898 261.62 87.7598C261.62 84.9298 259.63 83.7798 257.18 85.1998Z" fill="black"/>
</g>
<path d="M94.96 212.15L143.17 184.32C145.56 182.94 147.5 184.06 147.5 186.82V233.11C147.5 235.87 145.56 239.23 143.17 240.61L94.96 268.44C92.57 269.82 90.63 268.7 90.63 265.94V219.65C90.63 216.88 92.57 213.53 94.96 212.15Z" fill="#E0E0E0"/>
<path d="M164.02 172.28L265.03 113.96C267.42 112.58 269.36 113.7 269.36 116.46V162.75C269.36 165.51 267.42 168.87 265.03 170.25L164.02 228.57C161.63 229.95 159.69 228.83 159.69 226.07V179.78C159.69 177.02 161.63 173.66 164.02 172.28Z" fill="#E0E0E0"/>
<path d="M94.96 282.5L171.6 238.25C173.99 236.87 175.93 237.85 175.93 240.44C175.93 243.03 173.99 246.25 171.6 247.63L94.96 291.88C92.57 293.26 90.63 292.28 90.63 289.69C90.63 287.1 92.57 283.88 94.96 282.5Z" fill="#E0E0E0"/>
<path d="M94.96 298.92L171.6 254.67C173.99 253.29 175.93 254.27 175.93 256.86C175.93 259.45 173.99 262.67 171.6 264.05L94.96 308.3C92.57 309.68 90.63 308.7 90.63 306.11C90.63 303.52 92.57 300.3 94.96 298.92Z" fill="#E0E0E0"/>
<path d="M94.96 315.33L171.6 271.08C173.99 269.7 175.93 270.68 175.93 273.27C175.93 275.86 173.99 279.08 171.6 280.46L94.96 324.71C92.57 326.09 90.63 325.11 90.63 322.52C90.63 319.93 92.57 316.71 94.96 315.33Z" fill="#E0E0E0"/>
<path d="M131.25 259.67C131.25 258.01 132.41 256 133.85 255.17L266.76 178.43C268.19 177.6 270.52 177.6 271.96 178.43L274.89 180.12C276.32 180.95 277.49 182.96 277.49 184.62V286.5C277.49 288.15 276.32 290.17 274.89 291L141.98 367.74C140.55 368.57 138.21 368.57 136.78 367.74L133.85 366.05C132.42 365.23 131.25 363.2 131.25 361.55V259.67Z" fill="#BFB6F6"/>
<path opacity="0.4" d="M132.01 257.11L139.38 261.36L276.72 182.06C276.25 181.25 275.6 180.54 274.89 180.12L271.95 178.44C270.52 177.6 268.19 177.6 266.76 178.44L133.85 255.17C133.13 255.59 132.48 256.3 132.01 257.11Z" fill="white"/>
<path opacity="0.1" d="M131.25 259.67V361.55C131.25 363.21 132.42 365.22 133.86 366.05L136.79 367.75C137.01 367.87 137.24 367.98 137.5 368.07C137.83 368.18 138.19 368.27 138.57 368.32C139.25 368.41 139.96 368.38 140.62 368.25C140.79 368.21 140.96 368.16 141.12 368.11C141.23 368.07 141.33 368.04 141.43 367.99C140.95 368.16 140.53 368.14 140.19 367.97C139.7 367.71 139.39 367.12 139.39 366.26V264.37C139.39 263.3 139.93 262.49 140.74 262.16L139.39 261.37L132.02 257.12C131.54 257.92 131.25 258.85 131.25 259.67Z" fill="black"/>
<path opacity="0.2" d="M139.39 261.37L200.94 284.37C205.33 286 210.26 284.38 212.81 280.46L222.69 265.32L277.21 181.79L224.66 265.89L277.48 286.56C277.47 287.4 277.16 288.33 276.67 289.15L224.52 266.12L213.03 284.5C210.39 288.72 205.05 290.36 200.51 288.35L192.33 284.74L140.19 367.96C139.7 367.7 139.39 367.11 139.39 366.25V364.55L192.08 284.63L139.39 261.37Z" fill="black"/>
<path d="M249.05 144.41V378.31C249.05 381.07 250.99 382.19 253.38 380.81L358.46 320.14C360.85 318.76 362.79 315.4 362.79 312.64V78.74C362.79 75.98 360.85 74.86 358.46 76.24L253.38 136.91C250.99 138.29 249.05 141.64 249.05 144.41Z" fill="#FAFAFA" stroke="#E0E0E0" stroke-width="1.1698" stroke-miterlimit="10"/>
<path d="M255.14 148.76C255.14 148.11 255.64 147.3 256.27 146.94L268.24 140.03C268.86 139.67 269.37 139.91 269.37 140.55C269.37 141.2 268.87 142.01 268.24 142.37L256.27 149.28C255.65 149.65 255.14 149.41 255.14 148.76Z" fill="#455A64"/>
<path d="M255.14 153.42C255.14 152.77 255.64 151.96 256.27 151.6L268.24 144.69C268.86 144.33 269.37 144.57 269.37 145.21C269.37 145.86 268.87 146.67 268.24 147.03L256.27 153.94C255.65 154.3 255.14 154.07 255.14 153.42Z" fill="#455A64"/>
<path d="M255.14 158.08C255.14 157.43 255.64 156.62 256.27 156.26L268.24 149.35C268.86 148.99 269.37 149.23 269.37 149.87C269.37 150.52 268.87 151.33 268.24 151.69L256.27 158.6C255.65 158.96 255.14 158.73 255.14 158.08Z" fill="#455A64"/>
<path d="M354.67 98.1V96.23C354.67 96.12 354.59 96.07 354.49 96.11L353.05 96.76C352.95 96.81 352.84 96.76 352.81 96.65C352.73 96.39 352.62 96.15 352.49 95.94C352.43 95.84 352.42 95.69 352.47 95.59L353.43 93.65C353.48 93.55 353.44 93.42 353.34 93.37L352.3 92.77C352.2 92.71 352.08 92.74 352.01 92.84L350.81 94.64C350.75 94.73 350.61 94.8 350.5 94.8C350.25 94.79 349.99 94.82 349.72 94.88C349.61 94.9 349.52 94.84 349.5 94.73L349.34 93.1601C349.33 93.0501 349.24 93 349.15 93.06L347.53 93.99C347.43 94.05 347.35 94.18 347.34 94.29L347.18 96.09C347.17 96.2 347.09 96.35 347.01 96.43C346.7 96.72 346.39 97.04 346.11 97.38C346.04 97.47 345.9 97.51 345.79 97.47L344.75 97.11C344.64 97.07 344.51 97.12 344.46 97.22L343.27 99.28C343.21 99.38 343.24 99.51 343.32 99.59L344.15 100.31C344.23 100.38 344.27 100.53 344.23 100.63C344.08 101.05 343.95 101.47 343.86 101.88C343.84 101.99 343.74 102.13 343.65 102.19L342.17 103.23C342.08 103.29 342 103.44 342 103.55V105.42C342 105.53 342.08 105.58 342.18 105.54L343.62 104.89C343.72 104.84 343.83 104.89 343.86 105C343.94 105.26 344.05 105.5 344.18 105.71C344.24 105.81 344.25 105.96 344.2 106.06L343.24 108C343.19 108.1 343.23 108.23 343.33 108.28L344.37 108.88C344.47 108.94 344.59 108.91 344.66 108.81L345.86 107.01C345.92 106.92 346.06 106.85 346.17 106.85C346.42 106.86 346.68 106.83 346.95 106.77C347.06 106.75 347.15 106.81 347.17 106.92L347.33 108.49C347.34 108.6 347.43 108.65 347.53 108.59L349.15 107.66C349.25 107.6 349.33 107.47 349.34 107.36L349.5 105.56C349.51 105.45 349.59 105.3 349.67 105.22C349.98 104.93 350.29 104.61 350.57 104.27C350.64 104.18 350.78 104.14 350.89 104.18L351.93 104.54C352.04 104.58 352.17 104.53 352.22 104.43L353.41 102.37C353.47 102.27 353.44 102.14 353.36 102.06L352.53 101.34C352.45 101.27 352.41 101.12 352.45 101.02C352.6 100.6 352.73 100.18 352.82 99.77C352.84 99.66 352.94 99.52 353.03 99.46L354.51 98.42C354.59 98.35 354.67 98.21 354.67 98.1ZM348.34 103.97C346.83 104.84 345.61 104.13 345.61 102.39C345.61 100.65 346.83 98.53 348.34 97.66C349.85 96.7901 351.07 97.49 351.07 99.24C351.07 100.98 349.85 103.1 348.34 103.97Z" fill="#37474F"/>
<path d="M305.92 144.2C318.2 137.11 328.15 142.86 328.15 157.03C328.15 171.2 318.2 188.45 305.92 195.53C293.64 202.62 283.69 196.87 283.69 182.7C283.69 168.53 293.64 151.29 305.92 144.2Z" fill="#455A64"/>
<path d="M305.77 155.36C309.75 153.06 312.98 154.92 312.98 159.52C312.98 164.12 309.75 169.71 305.77 172.01C301.79 174.31 298.56 172.45 298.56 167.85C298.55 163.25 301.78 157.66 305.77 155.36Z" fill="#BFB6F6"/>
<path d="M319.98 179.88C319.98 172.32 314.67 169.26 308.13 173.04L304.04 175.4C297.5 179.18 292.19 188.37 292.19 195.92V197.98C293.37 198.37 294.65 198.57 296.01 198.57C298.99 198.58 302.36 197.59 305.92 195.53C311.25 192.45 316.15 187.45 319.98 181.62V179.88Z" fill="#BFB6F6"/>
<path d="M285.86 216.63L325.99 193.46C327.19 192.77 328.16 193.26 328.16 194.56C328.16 195.86 327.19 197.46 325.99 198.16L285.86 221.33C284.66 222.02 283.69 221.53 283.69 220.23C283.69 218.93 284.66 217.32 285.86 216.63Z" fill="#BFB6F6"/>
<path d="M281.55 233.21L330.29 205.04C331.49 204.35 332.46 204.84 332.46 206.14C332.46 207.44 331.49 209.04 330.29 209.74L281.55 237.91C280.35 238.6 279.38 238.11 279.38 236.81C279.38 235.51 280.35 233.9 281.55 233.21Z" fill="#455A64"/>
<path d="M331.59 227.74L345.24 219.86C345.96 219.45 346.54 219.64 346.54 220.28C346.54 220.93 345.96 221.79 345.24 222.2L331.59 230.08C330.87 230.49 330.29 230.31 330.29 229.66C330.29 229.01 330.88 228.16 331.59 227.74Z" fill="#37474F"/>
<path d="M263.4 262.43L283.44 250.86C284.64 250.17 285.61 250.73 285.61 252.11V265.87C285.61 267.25 284.64 268.93 283.45 269.62L263.41 281.19C262.21 281.88 261.24 281.32 261.24 279.94V266.18C261.24 264.8 262.21 263.12 263.4 262.43Z" fill="#BFB6F6"/>
<path d="M266.6 264.35L280.25 256.47C280.97 256.06 281.55 256.25 281.55 256.89C281.55 257.54 280.97 258.4 280.25 258.81L266.6 266.69C265.88 267.1 265.3 266.92 265.3 266.27C265.3 265.63 265.88 264.77 266.6 264.35Z" fill="#FAFAFA"/>
<path d="M265.3 271.29V275.33C265.3 276.16 265.88 276.49 266.6 276.08L280.25 268.2C280.97 267.79 281.55 266.78 281.55 265.95V261.91C281.55 261.08 280.97 260.75 280.25 261.16L266.6 269.04C265.88 269.46 265.3 270.47 265.3 271.29Z" fill="#FAFAFA"/>
<path d="M295.9 243.67L315.94 232.1C317.14 231.41 318.11 231.97 318.11 233.35V247.11C318.11 248.49 317.14 250.17 315.94 250.86L295.9 262.43C294.7 263.12 293.73 262.56 293.73 261.18V247.42C293.73 246.04 294.7 244.36 295.9 243.67Z" fill="#BFB6F6"/>
<path d="M299.1 245.59L312.75 237.71C313.47 237.3 314.05 237.49 314.05 238.13C314.05 238.78 313.47 239.64 312.75 240.05L299.1 247.93C298.38 248.34 297.8 248.16 297.8 247.51C297.8 246.86 298.38 246.01 299.1 245.59Z" fill="#FAFAFA"/>
<path d="M297.8 252.53V256.57C297.8 257.4 298.38 257.73 299.1 257.32L312.75 249.44C313.47 249.03 314.05 248.02 314.05 247.19V243.15C314.05 242.32 313.47 241.99 312.75 242.4L299.1 250.28C298.38 250.7 297.8 251.7 297.8 252.53Z" fill="#FAFAFA"/>
<path d="M328.4 224.91L348.44 213.34C349.64 212.65 350.61 213.21 350.61 214.59V228.35C350.61 229.73 349.64 231.41 348.44 232.1L328.4 243.67C327.2 244.36 326.23 243.8 326.23 242.42V228.66C326.23 227.28 327.2 225.6 328.4 224.91Z" fill="#BFB6F6"/>
<path d="M331.59 226.83L345.24 218.95C345.96 218.54 346.54 218.72 346.54 219.37C346.54 220.02 345.96 220.88 345.24 221.29L331.59 229.17C330.87 229.58 330.29 229.39 330.29 228.75C330.29 228.11 330.88 227.24 331.59 226.83Z" fill="#FAFAFA"/>
<path d="M330.29 233.77V237.81C330.29 238.64 330.87 238.97 331.59 238.56L345.24 230.68C345.96 230.27 346.54 229.26 346.54 228.43V224.39C346.54 223.56 345.96 223.23 345.24 223.64L331.59 231.52C330.88 231.93 330.29 232.94 330.29 233.77Z" fill="#FAFAFA"/>
<path d="M265.57 294.01L346.27 247.42C348.66 246.04 350.6 247.02 350.6 249.61C350.6 252.2 348.66 255.42 346.27 256.8L265.57 303.39C263.18 304.77 261.24 303.79 261.24 301.2C261.24 298.61 263.18 295.39 265.57 294.01Z" fill="#E0E0E0"/>
<path d="M265.57 312.77L346.27 266.18C348.66 264.8 350.6 265.78 350.6 268.37C350.6 270.96 348.66 274.18 346.27 275.56L265.57 322.15C263.18 323.53 261.24 322.55 261.24 319.96C261.24 317.37 263.18 314.15 265.57 312.77Z" fill="#E0E0E0"/>
<path d="M291.84 321.06L320 304.8C321.2 304.11 322.17 304.67 322.17 306.05V315.12C322.17 316.5 321.2 318.18 320 318.87L291.83 335.13C290.63 335.82 289.66 335.26 289.66 333.88V324.81C289.67 323.43 290.64 321.75 291.84 321.06Z" fill="#BFB6F6"/>
<path d="M267.33 295.39C266.21 296.04 265.3 297.61 265.3 298.91C265.3 300.21 266.21 300.73 267.33 300.08C268.45 299.43 269.36 297.86 269.36 296.56C269.36 295.27 268.45 294.74 267.33 295.39Z" fill="#FAFAFA"/>
<path d="M273.77 291.67C272.65 292.32 271.74 293.89 271.74 295.19C271.74 296.49 272.65 297.01 273.77 296.36C274.89 295.71 275.8 294.14 275.8 292.84C275.8 291.55 274.89 291.02 273.77 291.67Z" fill="#FAFAFA"/>
<path d="M280.2 287.95C279.08 288.6 278.17 290.17 278.17 291.47C278.17 292.77 279.08 293.29 280.2 292.64C281.32 291.99 282.23 290.42 282.23 289.12C282.23 287.82 281.32 287.3 280.2 287.95Z" fill="#FAFAFA"/>
<path d="M286.64 284.23C285.52 284.88 284.61 286.45 284.61 287.75C284.61 289.05 285.52 289.57 286.64 288.92C287.76 288.27 288.67 286.7 288.67 285.4C288.67 284.11 287.76 283.58 286.64 284.23Z" fill="#FAFAFA"/>
<path d="M293.07 280.51C291.95 281.16 291.04 282.73 291.04 284.03C291.04 285.33 291.95 285.85 293.07 285.2C294.19 284.55 295.1 282.98 295.1 281.68C295.1 280.39 294.19 279.86 293.07 280.51Z" fill="#FAFAFA"/>
<path d="M299.5 276.79C298.38 277.44 297.47 279.01 297.47 280.31C297.47 281.61 298.38 282.13 299.5 281.48C300.62 280.83 301.53 279.26 301.53 277.96C301.53 276.66 300.63 276.14 299.5 276.79Z" fill="#FAFAFA"/>
<path d="M305.94 273.07C304.82 273.72 303.91 275.29 303.91 276.59C303.91 277.89 304.82 278.41 305.94 277.76C307.06 277.11 307.97 275.54 307.97 274.24C307.97 272.95 307.06 272.42 305.94 273.07Z" fill="#FAFAFA"/>
<path d="M267.33 314.17C266.21 314.82 265.3 316.39 265.3 317.69C265.3 318.99 266.21 319.51 267.33 318.86C268.45 318.21 269.36 316.64 269.36 315.34C269.36 314.04 268.45 313.53 267.33 314.17Z" fill="#FAFAFA"/>
<path d="M273.77 310.45C272.65 311.1 271.74 312.67 271.74 313.97C271.74 315.27 272.65 315.79 273.77 315.14C274.89 314.49 275.8 312.92 275.8 311.62C275.8 310.33 274.89 309.8 273.77 310.45Z" fill="#FAFAFA"/>
<path d="M280.2 306.73C279.08 307.38 278.17 308.95 278.17 310.25C278.17 311.55 279.08 312.07 280.2 311.42C281.32 310.77 282.23 309.2 282.23 307.9C282.23 306.61 281.32 306.08 280.2 306.73Z" fill="#FAFAFA"/>
<path d="M286.64 303.01C285.52 303.66 284.61 305.23 284.61 306.53C284.61 307.83 285.52 308.35 286.64 307.7C287.76 307.05 288.67 305.48 288.67 304.18C288.67 302.88 287.76 302.36 286.64 303.01Z" fill="#FAFAFA"/>
<path d="M293.07 299.29C291.95 299.94 291.04 301.51 291.04 302.81C291.04 304.11 291.95 304.63 293.07 303.98C294.19 303.33 295.1 301.76 295.1 300.46C295.1 299.17 294.19 298.64 293.07 299.29Z" fill="#FAFAFA"/>
<path d="M299.5 295.57C298.38 296.22 297.47 297.79 297.47 299.09C297.47 300.39 298.38 300.91 299.5 300.26C300.62 299.61 301.53 298.04 301.53 296.74C301.53 295.45 300.63 294.92 299.5 295.57Z" fill="#FAFAFA"/>
<path d="M305.94 291.85C304.82 292.5 303.91 294.07 303.91 295.37C303.91 296.67 304.82 297.19 305.94 296.54C307.06 295.89 307.97 294.32 307.97 293.02C307.97 291.73 307.06 291.2 305.94 291.85Z" fill="#FAFAFA"/>
<path d="M396.19 334.13C392.68 334.13 389.36 333.27 386.34 331.53C379.13 327.37 375 318.66 375 307.64C375 288.26 387.32 265.96 403.05 256.88C411.52 251.99 419.93 251.46 426.73 255.39C433.94 259.55 438.07 268.26 438.07 279.28C438.07 298.66 425.75 320.96 410.02 330.04C405.3 332.76 400.6 334.13 396.19 334.13ZM416.85 266.75C414.33 266.75 411.66 268.02 410.02 268.96C398.6 275.55 388.95 293.27 388.95 307.64C388.95 313.46 390.58 317.87 393.31 319.45C396.42 321.25 400.74 319.29 403.04 317.96C414.46 311.37 424.11 293.65 424.11 279.28C424.11 273.46 422.48 269.05 419.75 267.47C418.86 266.95 417.86 266.75 416.85 266.75Z" fill="#455A64"/>
<path d="M426.61 282.38C426.61 271.49 419.75 267.47 419.75 267.47C422.48 269.05 424.11 273.46 424.11 279.28C424.11 293.65 414.46 311.36 403.04 317.96C400.74 319.29 396.42 321.25 393.31 319.45C393.31 319.45 399.1 323.04 407.09 318.68C418.68 312.36 426.61 296.75 426.61 282.38Z" fill="#37474F"/>
<path d="M415.61 146.29C415.61 142.31 412.38 139.08 408.4 139.08C404.42 139.08 401.19 142.31 401.19 146.29C401.19 146.3 401.19 146.3 401.19 146.31V261.02C401.19 262.09 401.89 263.15 403.3 263.96C406.12 265.59 410.68 265.59 413.5 263.96C414.91 263.15 415.61 262.08 415.61 261.02V146.31C415.61 146.31 415.61 146.3 415.61 146.29Z" fill="#37474F"/>
<path d="M409.85 171.93C409.85 169.27 407.99 166.04 405.68 164.72C404.51 164.04 403.46 164 402.7 164.46V164.45L384.9 174.7L384.47 174.96C384.41 174.99 384.35 175.02 384.3 175.06C383.99 175.27 383.71 175.5 383.45 175.76C382.37 176.83 381.71 178.31 381.71 179.94C381.71 182.18 382.95 184.12 384.78 185.13C385.62 185.58 386.57 185.84 387.6 185.84C388.62 185.84 389.58 185.58 390.41 185.13C390.52 185.07 390.64 185 390.75 184.94L408.66 174.62C409.39 174.17 409.85 173.24 409.85 171.93Z" fill="#455A64"/>
<path d="M409.85 200.65C409.85 197.99 407.99 194.76 405.68 193.44C404.51 192.76 403.46 192.72 402.7 193.18V193.17L381.84 205.15L381.41 205.41C381.35 205.44 381.29 205.47 381.24 205.51C380.93 205.72 380.65 205.95 380.39 206.21C379.31 207.28 378.65 208.76 378.65 210.39C378.65 212.63 379.89 214.57 381.72 215.58C382.56 216.03 383.51 216.29 384.54 216.29C385.56 216.29 386.52 216.03 387.35 215.58C387.46 215.52 387.58 215.45 387.69 215.39L408.66 203.35C409.39 202.9 409.85 201.97 409.85 200.65Z" fill="#455A64"/>
</svg>
