<svg width="209" height="208" viewBox="0 0 209 208" fill="none" xmlns="http://www.w3.org/2000/svg">
<g filter="url(#filter0_d_1135_11934)">
<rect x="40.3334" y="28" width="128" height="128" rx="64" fill="#24BAD4"/>
<path d="M94.2335 107.833C92.9335 107.833 91.8001 107.733 90.7335 107.567C78.0668 105.9 68.4001 94.9 68.4001 82C68.4001 67.7667 80.0001 56.1667 94.2335 56.1667C107.133 56.1667 118.133 65.8 119.8 78.5667C119.967 79.5667 120.067 80.7 120.067 82C120.067 96.2334 108.5 107.833 94.2335 107.833ZM94.2335 61.1667C82.7335 61.1667 73.4001 70.5 73.4001 82C73.4001 92.4 81.1668 101.267 91.4668 102.633C92.3335 102.767 93.2335 102.833 94.2335 102.833C105.733 102.833 115.067 93.5 115.067 82C115.067 81 115 80.1 114.867 79.3C113.5 68.9334 104.667 61.1667 94.2335 61.1667Z" fill="white"/>
<path d="M114.234 127.833C101.334 127.833 90.3335 118.2 88.6669 105.433C88.5669 104.633 88.8335 103.867 89.4002 103.3C89.9669 102.733 90.8002 102.5 91.5669 102.633C92.3669 102.767 93.2335 102.833 94.2335 102.833C105.734 102.833 115.067 93.5 115.067 82C115.067 81 115 80.1 114.867 79.3C114.734 78.5333 115 77.7333 115.534 77.1667C116.067 76.6 116.834 76.3 117.667 76.4333C130.434 78.1 140.067 89.1 140.067 102C140.067 116.233 128.5 127.833 114.234 127.833ZM94.2669 107.833C96.8002 116.567 104.9 122.833 114.234 122.833C125.734 122.833 135.067 113.5 135.067 102C135.067 92.6667 128.8 84.5333 120.067 82.0333C120.067 96.2333 108.5 107.833 94.2669 107.833Z" fill="white"/>
<path d="M115.767 105.867C115.134 105.867 114.5 105.633 114 105.167L109.667 100.9C108.7 99.9333 108.667 98.3333 109.634 97.3666C110.6 96.4 112.167 96.3666 113.167 97.3333L117.5 101.6C118.467 102.567 118.5 104.167 117.534 105.133C117.067 105.6 116.4 105.867 115.767 105.867Z" fill="#FCCA03"/>
<path d="M120.9 94.5C120.267 94.5 119.634 94.2667 119.134 93.7667L115.8 90.4333C114.834 89.4667 114.834 87.8667 115.8 86.9C116.767 85.9333 118.367 85.9333 119.334 86.9L122.667 90.2333C123.634 91.2 123.634 92.8 122.667 93.7667C122.2 94.2667 121.567 94.5 120.9 94.5Z" fill="#FCCA03"/>
<path d="M104.233 111.167C103.6 111.167 102.967 110.933 102.467 110.433L99.1334 107.1C98.1668 106.133 98.1668 104.533 99.1334 103.567C100.1 102.6 101.7 102.6 102.667 103.567L106 106.9C106.967 107.867 106.967 109.467 106 110.433C105.533 110.933 104.9 111.167 104.233 111.167Z" fill="#FCCA03"/>
</g>
<defs>
<filter id="filter0_d_1135_11934" x="0.333374" y="0" width="208" height="208" filterUnits="userSpaceOnUse" color-interpolation-filters="sRGB">
<feFlood flood-opacity="0" result="BackgroundImageFix"/>
<feColorMatrix in="SourceAlpha" type="matrix" values="0 0 0 0 0 0 0 0 0 0 0 0 0 0 0 0 0 0 127 0" result="hardAlpha"/>
<feOffset dy="12"/>
<feGaussianBlur stdDeviation="20"/>
<feComposite in2="hardAlpha" operator="out"/>
<feColorMatrix type="matrix" values="0 0 0 0 0 0 0 0 0 0 0 0 0 0 0 0 0 0 0.08 0"/>
<feBlend mode="normal" in2="BackgroundImageFix" result="effect1_dropShadow_1135_11934"/>
<feBlend mode="normal" in="SourceGraphic" in2="effect1_dropShadow_1135_11934" result="shape"/>
</filter>
</defs>
</svg>
