<svg width="209" height="208" viewBox="0 0 209 208" fill="none" xmlns="http://www.w3.org/2000/svg">
<g filter="url(#filter0_d_1135_8861)">
<rect x="40.3334" y="28" width="128" height="128" rx="64" fill="#24BAD4"/>
<path d="M124.333 78.3668C124.233 78.3668 124.166 78.3668 124.066 78.3668H123.9C117.6 78.1668 112.9 73.3001 112.9 67.3001C112.9 61.1667 117.9 56.2001 124 56.2001C130.1 56.2001 135.1 61.2001 135.1 67.3001C135.066 73.3334 130.366 78.2001 124.366 78.4001C124.366 78.3668 124.366 78.3668 124.333 78.3668ZM124 61.1668C120.633 61.1668 117.9 63.9001 117.9 67.2668C117.9 70.5668 120.466 73.2334 123.766 73.3668C123.8 73.3334 124.066 73.3334 124.366 73.3668C127.6 73.2001 130.1 70.5334 130.133 67.2668C130.133 63.9001 127.4 61.1668 124 61.1668Z" fill="white"/>
<path d="M124.367 102.933C123.067 102.933 121.767 102.833 120.467 102.6C119.1 102.367 118.2 101.067 118.433 99.7C118.667 98.3334 119.967 97.4334 121.333 97.6667C125.433 98.3667 129.767 97.6001 132.667 95.6667C134.233 94.6334 135.067 93.3334 135.067 92.0334C135.067 90.7334 134.2 89.4667 132.667 88.4334C129.767 86.5 125.367 85.7334 121.233 86.4667C119.867 86.7334 118.567 85.8 118.333 84.4334C118.1 83.0667 119 81.7667 120.367 81.5334C125.8 80.5667 131.433 81.6 135.433 84.2667C138.367 86.2334 140.067 89.0334 140.067 92.0334C140.067 95 138.4 97.8334 135.433 99.8334C132.4 101.833 128.467 102.933 124.367 102.933Z" fill="white"/>
<path d="M84.2334 78.3666C84.2 78.3666 84.1667 78.3666 84.1667 78.3666C78.1667 78.1666 73.4667 73.2999 73.4333 67.2999C73.4333 61.1666 78.4334 56.1666 84.5334 56.1666C90.6334 56.1666 95.6334 61.1666 95.6334 67.2666C95.6334 73.3 90.9334 78.1666 84.9334 78.3666L84.2334 75.8666L84.4667 78.3666C84.4 78.3666 84.3 78.3666 84.2334 78.3666ZM84.5667 73.3666C84.7667 73.3666 84.9334 73.3666 85.1334 73.4C88.1 73.2666 90.7 70.5999 90.7 67.2999C90.7 63.9333 87.9667 61.1999 84.6 61.1999C81.2334 61.1999 78.5 63.9333 78.5 67.2999C78.5 70.5666 81.0333 73.2 84.2667 73.4C84.3 73.3666 84.4334 73.3666 84.5667 73.3666Z" fill="#FCCA03"/>
<path d="M84.2002 102.933C80.1002 102.933 76.1669 101.833 73.1336 99.8334C70.2002 97.8667 68.5002 95.0334 68.5002 92.0334C68.5002 89.0667 70.2002 86.2334 73.1336 84.2667C77.1336 81.6 82.7669 80.5667 88.2002 81.5334C89.5669 81.7667 90.4669 83.0667 90.2336 84.4334C90.0002 85.8 88.7003 86.7334 87.3336 86.4667C83.2002 85.7334 78.8336 86.5 75.9002 88.4334C74.3336 89.4667 73.5002 90.7334 73.5002 92.0334C73.5002 93.3334 74.3669 94.6334 75.9002 95.6667C78.8002 97.6001 83.1336 98.3667 87.2336 97.6667C88.6002 97.4334 89.9003 98.3667 90.1336 99.7C90.3669 101.067 89.4669 102.367 88.1002 102.6C86.8002 102.833 85.5002 102.933 84.2002 102.933Z" fill="#FCCA03"/>
<path d="M104.333 103.267C104.233 103.267 104.166 103.267 104.066 103.267H103.9C97.5997 103.067 92.8997 98.2 92.8997 92.2C92.8997 86.0666 97.8997 81.1 104 81.1C110.1 81.1 115.1 86.1 115.1 92.2C115.066 98.2333 110.366 103.1 104.366 103.3C104.366 103.267 104.366 103.267 104.333 103.267ZM104 86.0667C100.633 86.0667 97.8997 88.8 97.8997 92.1667C97.8997 95.4667 100.466 98.1333 103.766 98.2667C103.8 98.2333 104.066 98.2333 104.366 98.2667C107.6 98.1 110.1 95.4333 110.133 92.1667C110.133 88.8333 107.4 86.0667 104 86.0667Z" fill="#FCCA03"/>
<path d="M104.333 127.867C100.333 127.867 96.3327 126.833 93.2327 124.733C90.2994 122.767 88.5994 119.967 88.5994 116.967C88.5994 114 90.266 111.133 93.2327 109.167C99.466 105.033 109.233 105.033 115.433 109.167C118.366 111.133 120.066 113.933 120.066 116.933C120.066 119.9 118.399 122.767 115.433 124.733C112.333 126.8 108.333 127.867 104.333 127.867ZM95.9994 113.367C94.4327 114.4 93.5994 115.7 93.5994 117C93.5994 118.3 94.466 119.567 95.9994 120.6C100.499 123.633 108.133 123.633 112.633 120.6C114.199 119.567 115.033 118.267 115.033 116.967C115.033 115.667 114.166 114.4 112.633 113.367C108.166 110.333 100.533 110.367 95.9994 113.367Z" fill="#FCCA03"/>
</g>
<defs>
<filter id="filter0_d_1135_8861" x="0.333374" y="0" width="208" height="208" filterUnits="userSpaceOnUse" color-interpolation-filters="sRGB">
<feFlood flood-opacity="0" result="BackgroundImageFix"/>
<feColorMatrix in="SourceAlpha" type="matrix" values="0 0 0 0 0 0 0 0 0 0 0 0 0 0 0 0 0 0 127 0" result="hardAlpha"/>
<feOffset dy="12"/>
<feGaussianBlur stdDeviation="20"/>
<feComposite in2="hardAlpha" operator="out"/>
<feColorMatrix type="matrix" values="0 0 0 0 0 0 0 0 0 0 0 0 0 0 0 0 0 0 0.08 0"/>
<feBlend mode="normal" in2="BackgroundImageFix" result="effect1_dropShadow_1135_8861"/>
<feBlend mode="normal" in="SourceGraphic" in2="effect1_dropShadow_1135_8861" result="shape"/>
</filter>
</defs>
</svg>
