<svg width="209" height="208" viewBox="0 0 209 208" fill="none" xmlns="http://www.w3.org/2000/svg">
<g filter="url(#filter0_d_1135_7340)">
<rect x="40.3334" y="20" width="128" height="128" rx="64" fill="#24BAD4"/>
<path d="M104.067 119.833C84.3334 119.833 68.2334 103.767 68.2334 84C68.2334 64.2333 84.3334 48.1667 104.067 48.1667C123.8 48.1667 139.9 64.2333 139.9 84C139.9 103.767 123.833 119.833 104.067 119.833ZM104.067 53.1667C87.0667 53.1667 73.2334 67 73.2334 84C73.2334 101 87.0667 114.833 104.067 114.833C121.067 114.833 134.9 101 134.9 84C134.9 67 121.067 53.1667 104.067 53.1667Z" fill="white"/>
<path d="M117.4 86.5H90.7334C89.3667 86.5 88.2334 85.3667 88.2334 84C88.2334 82.6333 89.3667 81.5 90.7334 81.5H117.4C118.767 81.5 119.9 82.6333 119.9 84C119.9 85.3667 118.8 86.5 117.4 86.5Z" fill="#FCCA03"/>
</g>
<defs>
<filter id="filter0_d_1135_7340" x="0.333374" y="0" width="208" height="208" filterUnits="userSpaceOnUse" color-interpolation-filters="sRGB">
<feFlood flood-opacity="0" result="BackgroundImageFix"/>
<feColorMatrix in="SourceAlpha" type="matrix" values="0 0 0 0 0 0 0 0 0 0 0 0 0 0 0 0 0 0 127 0" result="hardAlpha"/>
<feOffset dy="20"/>
<feGaussianBlur stdDeviation="20"/>
<feComposite in2="hardAlpha" operator="out"/>
<feColorMatrix type="matrix" values="0 0 0 0 0 0 0 0 0 0 0 0 0 0 0 0 0 0 0.12 0"/>
<feBlend mode="normal" in2="BackgroundImageFix" result="effect1_dropShadow_1135_7340"/>
<feBlend mode="normal" in="SourceGraphic" in2="effect1_dropShadow_1135_7340" result="shape"/>
</filter>
</defs>
</svg>
