<svg width="209" height="208" viewBox="0 0 209 208" fill="none" xmlns="http://www.w3.org/2000/svg">
<g filter="url(#filter0_d_1135_11904)">
<rect x="40.6665" y="28" width="128" height="128" rx="64" fill="#24BAD4"/>
<path d="M123.333 127.2H102.666C101.299 127.2 100.166 126.067 100.166 124.7C100.166 123.333 101.299 122.2 102.666 122.2H123.333C126.899 122.2 130.399 119.233 130.999 115.7L135.433 89.1666C135.833 86.7666 134.499 83.333 132.633 81.833L109.533 63.3666C106.866 61.2333 102.433 61.2333 99.7993 63.3333L76.6992 81.833C74.7992 83.3664 73.4993 86.7666 73.8993 89.1666L74.8326 94.7998C75.0659 96.1664 74.1326 97.4664 72.7659 97.6664C71.3993 97.933 70.1326 96.9664 69.8993 95.5997L68.966 89.9999C68.266 85.8666 70.266 80.5666 73.566 77.9333L96.666 59.4331C101.133 55.8331 108.166 55.8665 112.666 59.4665L135.766 77.9333C139.033 80.5666 141.033 85.8666 140.366 89.9999L135.933 116.533C134.933 122.433 129.299 127.2 123.333 127.2Z" fill="white"/>
<path d="M81.334 127.833C79.9673 127.833 78.8673 126.733 78.834 125.4C78.734 120.9 75.7674 117.933 71.2674 117.833C69.9007 117.8 68.8007 116.667 68.834 115.267C68.8673 113.9 69.9673 112.833 71.334 112.833C71.3673 112.833 71.3673 112.833 71.4006 112.833C78.5673 113 83.7007 118.1 83.834 125.267C83.8673 126.633 82.7673 127.8 81.4006 127.833C81.3673 127.833 81.3673 127.833 81.334 127.833Z" fill="white"/>
<path d="M91.334 127.833C89.9673 127.833 88.834 126.733 88.834 125.367C88.8006 123.167 88.4339 121.067 87.7673 119.1C86.0673 114.233 82.434 110.633 77.5673 108.9C75.6006 108.2 73.5006 107.833 71.3006 107.833C69.9339 107.833 68.8006 106.7 68.834 105.3C68.834 103.933 69.9673 102.833 71.334 102.833H71.3673C74.134 102.867 76.7673 103.333 79.234 104.2C85.534 106.433 90.234 111.133 92.4673 117.433C93.334 119.9 93.8006 122.567 93.834 125.3C93.834 126.7 92.734 127.833 91.334 127.833C91.334 127.833 91.3673 127.833 91.334 127.833Z" fill="#FCCA03"/>
<path d="M71.3331 128.667C69.4664 128.667 67.9998 127.167 67.9998 125.333C67.9998 123.5 69.4998 122 71.3331 122C73.1664 122 74.6664 123.5 74.6664 125.333C74.6664 127.167 73.1998 128.667 71.3331 128.667Z" fill="#FCCA03"/>
</g>
<defs>
<filter id="filter0_d_1135_11904" x="0.666504" y="0" width="208" height="208" filterUnits="userSpaceOnUse" color-interpolation-filters="sRGB">
<feFlood flood-opacity="0" result="BackgroundImageFix"/>
<feColorMatrix in="SourceAlpha" type="matrix" values="0 0 0 0 0 0 0 0 0 0 0 0 0 0 0 0 0 0 127 0" result="hardAlpha"/>
<feOffset dy="12"/>
<feGaussianBlur stdDeviation="20"/>
<feComposite in2="hardAlpha" operator="out"/>
<feColorMatrix type="matrix" values="0 0 0 0 0 0 0 0 0 0 0 0 0 0 0 0 0 0 0.08 0"/>
<feBlend mode="normal" in2="BackgroundImageFix" result="effect1_dropShadow_1135_11904"/>
<feBlend mode="normal" in="SourceGraphic" in2="effect1_dropShadow_1135_11904" result="shape"/>
</filter>
</defs>
</svg>
