<svg width="208" height="208" viewBox="0 0 208 208" fill="none" xmlns="http://www.w3.org/2000/svg">
<g filter="url(#filter0_d_1135_8788)">
<rect x="40" y="28" width="128" height="128" rx="64" fill="#24BAD4"/>
<path d="M115.666 104.5C115.066 104.5 114.399 104.467 113.799 104.433C112.566 104.367 111.566 103.367 111.466 102.133C110.732 92.8333 103.166 85.2999 93.8991 84.5666C92.6658 84.4666 91.6658 83.4667 91.5991 82.2333C91.5658 81.6333 91.5325 80.9667 91.5325 80.3667C91.5325 67.0333 102.366 56.2 115.699 56.2C129.032 56.2 139.866 67.0333 139.866 80.3667C139.866 93.7 128.999 104.5 115.666 104.5ZM96.4991 79.8666C106.432 81.6333 114.399 89.5666 116.132 99.5C126.499 99.2333 134.832 90.7666 134.832 80.3333C134.832 69.7666 126.232 61.1666 115.666 61.1666C105.266 61.1666 96.7658 69.4999 96.4991 79.8666Z" fill="white"/>
<path d="M92.3334 127.833C79.0001 127.833 68.1667 117 68.1667 103.667C68.1667 90.3333 79.0001 79.5 92.3334 79.5C92.9334 79.5 93.6001 79.5333 94.2001 79.5666C105.967 80.5 115.5 90.0334 116.4 101.733C116.433 102.4 116.467 103.067 116.467 103.667C116.5 117 105.667 127.833 92.3334 127.833ZM92.3334 84.5C81.7667 84.5 73.1667 93.1 73.1667 103.667C73.1667 114.233 81.7667 122.833 92.3334 122.833C102.9 122.833 111.5 114.233 111.5 103.667C111.5 103.133 111.467 102.6 111.433 102.067C110.7 92.8333 103.133 85.2667 93.8667 84.5334C93.4001 84.5334 92.8667 84.5 92.3334 84.5Z" fill="white"/>
<path d="M92.3333 114.5C91.4333 114.5 90.5667 114 90.1333 113.2L87.5333 108.467L82.8 105.867C82 105.433 81.5 104.6 81.5 103.667C81.5 102.733 82 101.9 82.8 101.467L87.5333 98.8667L90.1333 94.1334C91 92.5334 93.6333 92.5334 94.5333 94.1334L97.1333 98.8667L101.867 101.467C102.667 101.9 103.167 102.733 103.167 103.667C103.167 104.6 102.667 105.433 101.867 105.867L97.1333 108.467L94.5333 113.2C94.1 114 93.2333 114.5 92.3333 114.5ZM89.2 103.667L90.5667 104.433C91 104.667 91.3333 105 91.5666 105.433L92.3333 106.8L93.1 105.433C93.3334 105 93.6667 104.667 94.1 104.433L95.4667 103.667L94.1 102.9C93.6667 102.667 93.3334 102.333 93.1 101.9L92.3333 100.533L91.5666 101.9C91.3333 102.333 91 102.667 90.5667 102.9L89.2 103.667Z" fill="#FCCA03"/>
</g>
<defs>
<filter id="filter0_d_1135_8788" x="0" y="0" width="208" height="208" filterUnits="userSpaceOnUse" color-interpolation-filters="sRGB">
<feFlood flood-opacity="0" result="BackgroundImageFix"/>
<feColorMatrix in="SourceAlpha" type="matrix" values="0 0 0 0 0 0 0 0 0 0 0 0 0 0 0 0 0 0 127 0" result="hardAlpha"/>
<feOffset dy="12"/>
<feGaussianBlur stdDeviation="20"/>
<feComposite in2="hardAlpha" operator="out"/>
<feColorMatrix type="matrix" values="0 0 0 0 0 0 0 0 0 0 0 0 0 0 0 0 0 0 0.08 0"/>
<feBlend mode="normal" in2="BackgroundImageFix" result="effect1_dropShadow_1135_8788"/>
<feBlend mode="normal" in="SourceGraphic" in2="effect1_dropShadow_1135_8788" result="shape"/>
</filter>
</defs>
</svg>
