<svg width="209" height="208" viewBox="0 0 209 208" fill="none" xmlns="http://www.w3.org/2000/svg">
<g filter="url(#filter0_d_1135_11950)">
<rect x="40.6665" y="28" width="128" height="128" rx="64" fill="#24BAD4"/>
<path d="M109.333 100.667C108.7 100.667 108.067 100.433 107.567 99.9333L102.9 95.2667C102.433 94.8 102.167 94.1667 102.167 93.5V84.2C102.167 82.8333 103.3 81.7 104.667 81.7C106.033 81.7 107.167 82.8333 107.167 84.2V92.4667L111.1 96.4C112.067 97.3667 112.067 98.9667 111.1 99.9333C110.6 100.433 109.967 100.667 109.333 100.667Z" fill="white"/>
<path d="M104.666 116.167C99.3664 116.167 94.3664 114.5 90.1664 111.333C90.0664 111.267 89.9998 111.233 89.8998 111.167C83.9331 106.533 80.4998 99.5333 80.4998 92C80.4998 78.6666 91.3331 67.8333 104.666 67.8333C118 67.8333 128.833 78.6666 128.833 92C128.833 99.5 125.433 106.433 119.533 111.067C119.433 111.133 119.366 111.2 119.266 111.267C115.033 114.467 110 116.167 104.666 116.167ZM92.7664 107.033C92.8664 107.1 92.9331 107.133 92.9998 107.2C99.7664 112.433 109.7 112.4 116.433 107.133C116.5 107.067 116.6 107 116.666 106.967C121.233 103.3 123.833 97.8666 123.833 92C123.833 81.4333 115.233 72.8333 104.666 72.8333C94.0998 72.8333 85.4998 81.4333 85.4998 92C85.4998 97.9 88.1331 103.367 92.7664 107.033Z" fill="white"/>
<path d="M106.5 127.833H102.866C96.3331 127.833 92.3331 124.6 90.6331 117.9L88.9664 109.667C88.8331 108.933 88.9998 108.167 89.4998 107.6C89.9998 107.033 90.6998 106.7 91.4331 106.7H91.4664C92.0331 106.7 92.5664 106.867 92.9998 107.233C99.7664 112.467 109.7 112.433 116.433 107.167C117.466 106.367 119.1 106.533 119.933 107.567C120.4 108.133 120.6 108.9 120.466 109.633L118.766 117.867C117 124.6 113 127.833 106.5 127.833ZM94.9664 114.133L95.4998 116.8C96.7664 121.8 99.3664 122.833 102.866 122.833H106.5C109.966 122.833 112.566 121.8 113.866 116.733L114.4 114.133C108.366 116.8 101.033 116.833 94.9664 114.133Z" fill="#FCCA03"/>
<path d="M118 77.4C117.433 77.4 116.866 77.2 116.433 76.8667C109.7 71.6 99.7664 71.5667 92.9998 76.8C91.9664 77.6 90.3331 77.4334 89.5331 76.4334C89.0664 75.8667 88.8664 75.1 88.9998 74.3667L90.6331 66.2334C92.3331 59.4 96.3331 56.1667 102.866 56.1667H106.5C113 56.1667 117 59.4 118.7 66.0334L120.433 74.4C120.6 75.1334 120.4 75.9 119.933 76.4667C119.466 77.0667 118.766 77.4 118 77.4ZM104.666 67.8334C108.1 67.8334 111.366 68.5334 114.4 69.8667L113.833 67.1667C112.533 62.2334 109.966 61.1667 106.5 61.1667H102.866C99.3664 61.1667 96.7664 62.2 95.4998 67.3334L94.9664 69.8667C97.9998 68.5334 101.266 67.8334 104.666 67.8334Z" fill="#FCCA03"/>
</g>
<defs>
<filter id="filter0_d_1135_11950" x="0.666504" y="0" width="208" height="208" filterUnits="userSpaceOnUse" color-interpolation-filters="sRGB">
<feFlood flood-opacity="0" result="BackgroundImageFix"/>
<feColorMatrix in="SourceAlpha" type="matrix" values="0 0 0 0 0 0 0 0 0 0 0 0 0 0 0 0 0 0 127 0" result="hardAlpha"/>
<feOffset dy="12"/>
<feGaussianBlur stdDeviation="20"/>
<feComposite in2="hardAlpha" operator="out"/>
<feColorMatrix type="matrix" values="0 0 0 0 0 0 0 0 0 0 0 0 0 0 0 0 0 0 0.08 0"/>
<feBlend mode="normal" in2="BackgroundImageFix" result="effect1_dropShadow_1135_11950"/>
<feBlend mode="normal" in="SourceGraphic" in2="effect1_dropShadow_1135_11950" result="shape"/>
</filter>
</defs>
</svg>
